<svg width="820" height="309" viewBox="0 0 820 309" fill="none" xmlns="http://www.w3.org/2000/svg">
<rect x="0.5" y="0.5" width="819" height="308" fill="white"/>
<rect x="0.5" y="0.5" width="819" height="308" stroke="#D6D6D6"/>
<path d="M412.5 122H407.5L405 125H402C401.47 125 400.961 125.211 400.586 125.586C400.211 125.961 400 126.47 400 127V136C400 136.53 400.211 137.039 400.586 137.414C400.961 137.789 401.47 138 402 138H418C418.53 138 419.039 137.789 419.414 137.414C419.789 137.039 420 136.53 420 136V127C420 126.47 419.789 125.961 419.414 125.586C419.039 125.211 418.53 125 418 125H415L412.5 122Z" stroke="#424242" stroke-width="2" stroke-linecap="round" stroke-linejoin="round"/>
<path d="M410 134C411.657 134 413 132.657 413 131C413 129.343 411.657 128 410 128C408.343 128 407 129.343 407 131C407 132.657 408.343 134 410 134Z" stroke="#424242" stroke-width="2" stroke-linecap="round" stroke-linejoin="round"/>
<rect x="322" y="152" width="176" height="40" rx="8" fill="#122B49"/>
<path d="M335 172H349" stroke="white" stroke-width="2" stroke-linecap="round" stroke-linejoin="round"/>
<path d="M342 165V179" stroke="white" stroke-width="2" stroke-linecap="round" stroke-linejoin="round"/>
<path d="M364.261 178H362.398L366.585 166.364H368.614L372.801 178H370.938L367.648 168.477H367.557L364.261 178ZM364.574 173.443H370.619V174.92H364.574V173.443ZM377.472 178.17C376.767 178.17 376.138 177.991 375.585 177.631C375.036 177.267 374.604 176.75 374.29 176.08C373.979 175.405 373.824 174.597 373.824 173.653C373.824 172.71 373.981 171.903 374.295 171.233C374.614 170.562 375.049 170.049 375.602 169.693C376.155 169.337 376.782 169.159 377.483 169.159C378.025 169.159 378.46 169.25 378.79 169.432C379.123 169.61 379.381 169.818 379.562 170.057C379.748 170.295 379.892 170.506 379.994 170.688H380.097V166.364H381.795V178H380.136V176.642H379.994C379.892 176.828 379.744 177.04 379.551 177.278C379.362 177.517 379.1 177.725 378.767 177.903C378.434 178.081 378.002 178.17 377.472 178.17ZM377.847 176.722C378.335 176.722 378.748 176.593 379.085 176.335C379.426 176.074 379.684 175.712 379.858 175.25C380.036 174.788 380.125 174.25 380.125 173.636C380.125 173.03 380.038 172.5 379.864 172.045C379.689 171.591 379.434 171.237 379.097 170.983C378.759 170.729 378.343 170.602 377.847 170.602C377.335 170.602 376.909 170.735 376.568 171C376.227 171.265 375.97 171.627 375.795 172.085C375.625 172.544 375.54 173.061 375.54 173.636C375.54 174.22 375.627 174.744 375.801 175.21C375.975 175.676 376.233 176.045 376.574 176.318C376.919 176.587 377.343 176.722 377.847 176.722ZM387.487 178.17C386.783 178.17 386.154 177.991 385.601 177.631C385.052 177.267 384.62 176.75 384.305 176.08C383.995 175.405 383.839 174.597 383.839 173.653C383.839 172.71 383.997 171.903 384.311 171.233C384.629 170.562 385.065 170.049 385.618 169.693C386.171 169.337 386.798 169.159 387.499 169.159C388.04 169.159 388.476 169.25 388.805 169.432C389.139 169.61 389.396 169.818 389.578 170.057C389.764 170.295 389.908 170.506 390.01 170.688H390.112V166.364H391.811V178H390.152V176.642H390.01C389.908 176.828 389.76 177.04 389.567 177.278C389.377 177.517 389.116 177.725 388.783 177.903C388.449 178.081 388.018 178.17 387.487 178.17ZM387.862 176.722C388.351 176.722 388.764 176.593 389.101 176.335C389.442 176.074 389.699 175.712 389.874 175.25C390.052 174.788 390.141 174.25 390.141 173.636C390.141 173.03 390.054 172.5 389.879 172.045C389.705 171.591 389.449 171.237 389.112 170.983C388.775 170.729 388.358 170.602 387.862 170.602C387.351 170.602 386.925 170.735 386.584 171C386.243 171.265 385.985 171.627 385.811 172.085C385.641 172.544 385.555 173.061 385.555 173.636C385.555 174.22 385.643 174.744 385.817 175.21C385.991 175.676 386.249 176.045 386.589 176.318C386.934 176.587 387.358 176.722 387.862 176.722ZM398.607 178V166.364H402.754C403.66 166.364 404.41 166.528 405.004 166.858C405.599 167.187 406.044 167.638 406.339 168.21C406.635 168.778 406.783 169.419 406.783 170.131C406.783 170.847 406.633 171.491 406.334 172.062C406.038 172.631 405.591 173.081 404.993 173.415C404.398 173.744 403.65 173.909 402.749 173.909H399.896V172.42H402.589C403.161 172.42 403.625 172.322 403.982 172.125C404.338 171.924 404.599 171.652 404.766 171.307C404.932 170.962 405.016 170.57 405.016 170.131C405.016 169.691 404.932 169.301 404.766 168.96C404.599 168.619 404.336 168.352 403.976 168.159C403.62 167.966 403.15 167.869 402.567 167.869H400.362V178H398.607ZM410.403 172.818V178H408.705V166.364H410.381V170.693H410.489C410.693 170.223 411.006 169.85 411.426 169.574C411.847 169.297 412.396 169.159 413.074 169.159C413.672 169.159 414.195 169.282 414.642 169.528C415.093 169.775 415.441 170.142 415.688 170.631C415.938 171.116 416.062 171.722 416.062 172.449V178H414.364V172.653C414.364 172.013 414.199 171.517 413.869 171.165C413.54 170.809 413.081 170.631 412.494 170.631C412.093 170.631 411.733 170.716 411.415 170.886C411.1 171.057 410.852 171.307 410.67 171.636C410.492 171.962 410.403 172.356 410.403 172.818ZM422.006 178.176C421.188 178.176 420.473 177.989 419.864 177.614C419.254 177.239 418.78 176.714 418.443 176.04C418.106 175.366 417.938 174.578 417.938 173.676C417.938 172.771 418.106 171.979 418.443 171.301C418.78 170.623 419.254 170.097 419.864 169.722C420.473 169.347 421.188 169.159 422.006 169.159C422.824 169.159 423.538 169.347 424.148 169.722C424.758 170.097 425.231 170.623 425.568 171.301C425.905 171.979 426.074 172.771 426.074 173.676C426.074 174.578 425.905 175.366 425.568 176.04C425.231 176.714 424.758 177.239 424.148 177.614C423.538 177.989 422.824 178.176 422.006 178.176ZM422.011 176.75C422.542 176.75 422.981 176.61 423.33 176.33C423.678 176.049 423.936 175.676 424.102 175.21C424.273 174.744 424.358 174.231 424.358 173.67C424.358 173.114 424.273 172.602 424.102 172.136C423.936 171.667 423.678 171.29 423.33 171.006C422.981 170.722 422.542 170.58 422.011 170.58C421.477 170.58 421.034 170.722 420.682 171.006C420.333 171.29 420.074 171.667 419.903 172.136C419.737 172.602 419.653 173.114 419.653 173.67C419.653 174.231 419.737 174.744 419.903 175.21C420.074 175.676 420.333 176.049 420.682 176.33C421.034 176.61 421.477 176.75 422.011 176.75ZM432.044 169.273V170.636H427.277V169.273H432.044ZM428.555 167.182H430.254V175.438C430.254 175.767 430.304 176.015 430.402 176.182C430.5 176.345 430.627 176.456 430.783 176.517C430.942 176.574 431.114 176.602 431.3 176.602C431.436 176.602 431.555 176.593 431.658 176.574C431.76 176.555 431.839 176.54 431.896 176.528L432.203 177.932C432.105 177.97 431.964 178.008 431.783 178.045C431.601 178.087 431.374 178.11 431.101 178.114C430.654 178.121 430.237 178.042 429.851 177.875C429.464 177.708 429.152 177.451 428.913 177.102C428.675 176.754 428.555 176.316 428.555 175.79V167.182ZM437.506 178.176C436.688 178.176 435.973 177.989 435.364 177.614C434.754 177.239 434.28 176.714 433.943 176.04C433.606 175.366 433.438 174.578 433.438 173.676C433.438 172.771 433.606 171.979 433.943 171.301C434.28 170.623 434.754 170.097 435.364 169.722C435.973 169.347 436.688 169.159 437.506 169.159C438.324 169.159 439.038 169.347 439.648 169.722C440.258 170.097 440.731 170.623 441.068 171.301C441.405 171.979 441.574 172.771 441.574 173.676C441.574 174.578 441.405 175.366 441.068 176.04C440.731 176.714 440.258 177.239 439.648 177.614C439.038 177.989 438.324 178.176 437.506 178.176ZM437.511 176.75C438.042 176.75 438.481 176.61 438.83 176.33C439.178 176.049 439.436 175.676 439.602 175.21C439.773 174.744 439.858 174.231 439.858 173.67C439.858 173.114 439.773 172.602 439.602 172.136C439.436 171.667 439.178 171.29 438.83 171.006C438.481 170.722 438.042 170.58 437.511 170.58C436.977 170.58 436.534 170.722 436.182 171.006C435.833 171.29 435.574 171.667 435.403 172.136C435.237 172.602 435.153 173.114 435.153 173.67C435.153 174.231 435.237 174.744 435.403 175.21C435.574 175.676 435.833 176.049 436.182 176.33C436.534 176.61 436.977 176.75 437.511 176.75ZM450.01 171.403L448.47 171.676C448.406 171.479 448.304 171.292 448.163 171.114C448.027 170.936 447.841 170.79 447.607 170.676C447.372 170.562 447.078 170.506 446.726 170.506C446.245 170.506 445.843 170.614 445.521 170.83C445.199 171.042 445.038 171.316 445.038 171.653C445.038 171.945 445.146 172.18 445.362 172.358C445.578 172.536 445.927 172.682 446.408 172.795L447.794 173.114C448.597 173.299 449.196 173.585 449.589 173.972C449.983 174.358 450.18 174.86 450.18 175.477C450.18 176 450.029 176.466 449.726 176.875C449.427 177.28 449.008 177.598 448.47 177.83C447.936 178.061 447.317 178.176 446.612 178.176C445.635 178.176 444.838 177.968 444.22 177.551C443.603 177.131 443.224 176.534 443.084 175.761L444.726 175.511C444.828 175.939 445.038 176.263 445.357 176.483C445.675 176.699 446.089 176.807 446.601 176.807C447.158 176.807 447.603 176.691 447.936 176.46C448.269 176.225 448.436 175.939 448.436 175.602C448.436 175.33 448.334 175.1 448.129 174.915C447.929 174.729 447.62 174.589 447.203 174.494L445.726 174.17C444.911 173.985 444.309 173.689 443.919 173.284C443.533 172.879 443.339 172.366 443.339 171.744C443.339 171.229 443.483 170.778 443.771 170.392C444.059 170.006 444.457 169.705 444.964 169.489C445.472 169.269 446.054 169.159 446.709 169.159C447.652 169.159 448.394 169.364 448.936 169.773C449.478 170.178 449.836 170.722 450.01 171.403ZM465.811 166.364V178H464.197L458.283 169.466H458.175V178H456.419V166.364H458.044L463.964 174.909H464.072V166.364H465.811ZM471.912 178.176C471.094 178.176 470.38 177.989 469.77 177.614C469.16 177.239 468.687 176.714 468.349 176.04C468.012 175.366 467.844 174.578 467.844 173.676C467.844 172.771 468.012 171.979 468.349 171.301C468.687 170.623 469.16 170.097 469.77 169.722C470.38 169.347 471.094 169.159 471.912 169.159C472.73 169.159 473.444 169.347 474.054 169.722C474.664 170.097 475.137 170.623 475.474 171.301C475.812 171.979 475.98 172.771 475.98 173.676C475.98 174.578 475.812 175.366 475.474 176.04C475.137 176.714 474.664 177.239 474.054 177.614C473.444 177.989 472.73 178.176 471.912 178.176ZM471.918 176.75C472.448 176.75 472.887 176.61 473.236 176.33C473.584 176.049 473.842 175.676 474.009 175.21C474.179 174.744 474.264 174.231 474.264 173.67C474.264 173.114 474.179 172.602 474.009 172.136C473.842 171.667 473.584 171.29 473.236 171.006C472.887 170.722 472.448 170.58 471.918 170.58C471.384 170.58 470.94 170.722 470.588 171.006C470.24 171.29 469.98 171.667 469.81 172.136C469.643 172.602 469.56 173.114 469.56 173.67C469.56 174.231 469.643 174.744 469.81 175.21C469.98 175.676 470.24 176.049 470.588 176.33C470.94 176.61 471.384 176.75 471.918 176.75ZM479.503 178L476.935 169.273H478.69L480.401 175.682H480.486L482.202 169.273H483.957L485.662 175.653H485.747L487.446 169.273H489.202L486.639 178H484.906L483.134 171.699H483.003L481.23 178H479.503Z" fill="white"/>
</svg>
