<svg width="136" height="96" viewBox="0 0 136 96" fill="none" xmlns="http://www.w3.org/2000/svg">
<g clip-path="url(#clip0_67_5903)">
<g clip-path="url(#clip1_67_5903)">
<path d="M76.5065 35.9492H82.4587C82.7379 35.9494 83.0125 36.0199 83.2563 36.1541C83.5002 36.2883 83.7052 36.4818 83.852 36.7161C83.9988 36.9504 84.0824 37.2179 84.095 37.493C84.1075 37.7682 84.0486 38.0419 83.9238 38.2883L80.5905 44.866C80.4641 45.1153 80.2745 45.3281 80.0401 45.4837C79.8058 45.6394 79.5346 45.7326 79.253 45.7544C78.9713 45.7762 78.6887 45.7258 78.4326 45.6081C78.1765 45.4904 77.9556 45.3094 77.7914 45.0826L74.3105 40.2815" stroke="#7A7A7A" stroke-width="2" stroke-linecap="round" stroke-linejoin="round"/>
<path d="M77.0898 31.1852C77.4782 31.377 77.7735 31.713 77.9109 32.1195C78.0483 32.526 78.0164 32.9696 77.8223 33.353L72.7322 43.3932C72.6359 43.5832 72.5027 43.7525 72.34 43.8916C72.1774 44.0307 71.9886 44.1369 71.7843 44.204C71.5801 44.2711 71.3645 44.2978 71.1497 44.2827C70.935 44.2676 70.7254 44.2109 70.5329 44.1158L54.9725 36.4341C53.8422 35.8725 52.9835 34.8922 52.5843 33.7076C52.185 32.5231 52.2777 31.2307 52.842 30.1134L55.1036 25.6033C55.3854 25.0492 55.7752 24.5553 56.2506 24.1498C56.726 23.7443 57.2778 23.4351 57.8743 23.2399C58.4709 23.0448 59.1006 22.9675 59.7274 23.0124C60.3543 23.0573 60.966 23.2236 61.5277 23.5018L77.0898 31.1852Z" stroke="#7A7A7A" stroke-width="2" stroke-linecap="round" stroke-linejoin="round"/>
<path d="M52.334 47.265H58.4959C59.1067 47.2692 59.7066 47.1049 60.2278 46.7907C60.749 46.4765 61.1709 46.0249 61.4457 45.4868L63.8056 40.7988" stroke="#7A7A7A" stroke-width="2" stroke-linecap="round" stroke-linejoin="round"/>
<path d="M52.334 50.4974V44.0312" stroke="#7A7A7A" stroke-width="2" stroke-linecap="round" stroke-linejoin="round"/>
<path d="M60.543 28.75H60.5571" stroke="#7A7A7A" stroke-width="2" stroke-linecap="round" stroke-linejoin="round"/>
</g>
<path d="M29.7601 70H28.5272C28.4543 69.6454 28.3266 69.3338 28.1444 69.0653C27.9654 68.7969 27.7466 68.5715 27.4881 68.3892C27.2329 68.2036 26.9495 68.0644 26.638 67.9716C26.3264 67.8788 26.0016 67.8324 25.6635 67.8324C25.0471 67.8324 24.4886 67.9882 23.9881 68.2997C23.4909 68.6113 23.0949 69.0703 22.7999 69.6768C22.5082 70.2834 22.3624 71.0275 22.3624 71.9091C22.3624 72.7907 22.5082 73.5348 22.7999 74.1413C23.0949 74.7479 23.4909 75.2069 23.9881 75.5185C24.4886 75.83 25.0471 75.9858 25.6635 75.9858C26.0016 75.9858 26.3264 75.9394 26.638 75.8466C26.9495 75.7538 27.2329 75.6162 27.4881 75.4339C27.7466 75.2483 27.9654 75.0213 28.1444 74.7528C28.3266 74.4811 28.4543 74.1695 28.5272 73.8182H29.7601C29.6673 74.3385 29.4983 74.8042 29.253 75.2152C29.0078 75.6262 28.7028 75.9759 28.3382 76.2642C27.9737 76.5492 27.5643 76.7663 27.1103 76.9155C26.6595 77.0646 26.1773 77.1392 25.6635 77.1392C24.7952 77.1392 24.0229 76.9271 23.3468 76.5028C22.6706 76.0786 22.1387 75.4754 21.7509 74.6932C21.3631 73.911 21.1692 72.983 21.1692 71.9091C21.1692 70.8352 21.3631 69.9072 21.7509 69.125C22.1387 68.3428 22.6706 67.7396 23.3468 67.3153C24.0229 66.8911 24.7952 66.679 25.6635 66.679C26.1773 66.679 26.6595 66.7536 27.1103 66.9027C27.5643 67.0518 27.9737 67.2706 28.3382 67.5589C28.7028 67.844 29.0078 68.192 29.253 68.603C29.4983 69.0107 29.6673 69.4763 29.7601 70ZM39.9457 70H38.7127C38.6398 69.6454 38.5122 69.3338 38.3299 69.0653C38.1509 68.7969 37.9322 68.5715 37.6737 68.3892C37.4184 68.2036 37.1351 68.0644 36.8235 67.9716C36.512 67.8788 36.1871 67.8324 35.8491 67.8324C35.2326 67.8324 34.6741 67.9882 34.1737 68.2997C33.6765 68.6113 33.2804 69.0703 32.9854 69.6768C32.6938 70.2834 32.5479 71.0275 32.5479 71.9091C32.5479 72.7907 32.6938 73.5348 32.9854 74.1413C33.2804 74.7479 33.6765 75.2069 34.1737 75.5185C34.6741 75.83 35.2326 75.9858 35.8491 75.9858C36.1871 75.9858 36.512 75.9394 36.8235 75.8466C37.1351 75.7538 37.4184 75.6162 37.6737 75.4339C37.9322 75.2483 38.1509 75.0213 38.3299 74.7528C38.5122 74.4811 38.6398 74.1695 38.7127 73.8182H39.9457C39.8529 74.3385 39.6838 74.8042 39.4386 75.2152C39.1933 75.6262 38.8884 75.9759 38.5238 76.2642C38.1592 76.5492 37.7499 76.7663 37.2958 76.9155C36.8451 77.0646 36.3628 77.1392 35.8491 77.1392C34.9807 77.1392 34.2085 76.9271 33.5323 76.5028C32.8562 76.0786 32.3242 75.4754 31.9364 74.6932C31.5487 73.911 31.3548 72.983 31.3548 71.9091C31.3548 70.8352 31.5487 69.9072 31.9364 69.125C32.3242 68.3428 32.8562 67.7396 33.5323 67.3153C34.2085 66.8911 34.9807 66.679 35.8491 66.679C36.3628 66.679 36.8451 66.7536 37.2958 66.9027C37.7499 67.0518 38.1592 67.2706 38.5238 67.5589C38.8884 67.844 39.1933 68.192 39.4386 68.603C39.6838 69.0107 39.8529 69.4763 39.9457 70ZM41.3812 67.9119V66.8182H49.0176V67.9119H45.8159V77H44.5829V67.9119H41.3812ZM51.3381 66.8182L54.3608 75.3892H54.4801L57.5028 66.8182H58.7955L55.0568 77H53.7841L50.0455 66.8182H51.3381ZM72.5121 70H71.2791C71.2062 69.6454 71.0786 69.3338 70.8963 69.0653C70.7173 68.7969 70.4986 68.5715 70.2401 68.3892C69.9848 68.2036 69.7015 68.0644 69.3899 67.9716C69.0784 67.8788 68.7536 67.8324 68.4155 67.8324C67.799 67.8324 67.2405 67.9882 66.7401 68.2997C66.2429 68.6113 65.8468 69.0703 65.5518 69.6768C65.2602 70.2834 65.1143 71.0275 65.1143 71.9091C65.1143 72.7907 65.2602 73.5348 65.5518 74.1413C65.8468 74.7479 66.2429 75.2069 66.7401 75.5185C67.2405 75.83 67.799 75.9858 68.4155 75.9858C68.7536 75.9858 69.0784 75.9394 69.3899 75.8466C69.7015 75.7538 69.9848 75.6162 70.2401 75.4339C70.4986 75.2483 70.7173 75.0213 70.8963 74.7528C71.0786 74.4811 71.2062 74.1695 71.2791 73.8182H72.5121C72.4193 74.3385 72.2502 74.8042 72.005 75.2152C71.7597 75.6262 71.4548 75.9759 71.0902 76.2642C70.7256 76.5492 70.3163 76.7663 69.8622 76.9155C69.4115 77.0646 68.9292 77.1392 68.4155 77.1392C67.5471 77.1392 66.7749 76.9271 66.0987 76.5028C65.4226 76.0786 64.8906 75.4754 64.5028 74.6932C64.1151 73.911 63.9212 72.983 63.9212 71.9091C63.9212 70.8352 64.1151 69.9072 64.5028 69.125C64.8906 68.3428 65.4226 67.7396 66.0987 67.3153C66.7749 66.8911 67.5471 66.679 68.4155 66.679C68.9292 66.679 69.4115 66.7536 69.8622 66.9027C70.3163 67.0518 70.7256 67.2706 71.0902 67.5589C71.4548 67.844 71.7597 68.192 72.005 68.603C72.2502 69.0107 72.4193 69.4763 72.5121 70ZM76.5925 77.179C76.1086 77.179 75.6694 77.0878 75.275 76.9055C74.8806 76.7199 74.5674 76.4531 74.3354 76.1051C74.1034 75.7538 73.9874 75.3295 73.9874 74.8324C73.9874 74.3949 74.0736 74.0402 74.2459 73.7685C74.4183 73.4934 74.6486 73.2779 74.937 73.1222C75.2253 72.9664 75.5435 72.8504 75.8915 72.7741C76.2428 72.6946 76.5958 72.6316 76.9505 72.5852C77.4145 72.5256 77.7907 72.4808 78.079 72.451C78.3707 72.4179 78.5828 72.3632 78.7154 72.2869C78.8513 72.2107 78.9192 72.0781 78.9192 71.8892V71.8494C78.9192 71.3589 78.785 70.9777 78.5165 70.706C78.2514 70.4342 77.8487 70.2983 77.3084 70.2983C76.7483 70.2983 76.3091 70.4209 75.9909 70.6662C75.6728 70.9115 75.449 71.1733 75.3198 71.4517L74.2061 71.054C74.405 70.59 74.6702 70.2287 75.0016 69.9702C75.3364 69.7083 75.7009 69.526 76.0953 69.4233C76.4931 69.3172 76.8842 69.2642 77.2686 69.2642C77.5139 69.2642 77.7956 69.294 78.1138 69.3537C78.4353 69.41 78.7452 69.5277 79.0435 69.7067C79.3451 69.8857 79.5953 70.1558 79.7942 70.517C79.9931 70.8783 80.0925 71.3622 80.0925 71.9688V77H78.9192V75.9659H78.8596C78.78 76.1316 78.6474 76.3089 78.4618 76.4979C78.2762 76.6868 78.0293 76.8475 77.7211 76.9801C77.4128 77.1127 77.0366 77.179 76.5925 77.179ZM76.7715 76.125C77.2355 76.125 77.6266 76.0339 77.9448 75.8516C78.2663 75.6693 78.5082 75.4339 78.6706 75.1456C78.8364 74.8572 78.9192 74.554 78.9192 74.2358V73.1619C78.8695 73.2216 78.7601 73.2763 78.5911 73.326C78.4254 73.3724 78.2331 73.4138 78.0144 73.4503C77.7989 73.4834 77.5885 73.5133 77.383 73.5398C77.1808 73.563 77.0167 73.5829 76.8908 73.5994C76.5859 73.6392 76.3008 73.7038 76.0357 73.7933C75.7739 73.8795 75.5617 74.0104 75.3993 74.1861C75.2402 74.3584 75.1607 74.5937 75.1607 74.892C75.1607 75.2997 75.3115 75.608 75.6131 75.8168C75.918 76.0223 76.3042 76.125 76.7715 76.125ZM82.234 77V69.3636H83.3675V70.5568H83.467C83.6261 70.1491 83.8829 69.8326 84.2376 69.6072C84.5922 69.3786 85.0181 69.2642 85.5153 69.2642C86.0191 69.2642 86.4383 69.3786 86.7731 69.6072C87.1112 69.8326 87.3746 70.1491 87.5636 70.5568H87.6431C87.8387 70.1624 88.132 69.8492 88.5231 69.6172C88.9142 69.3819 89.3832 69.2642 89.93 69.2642C90.6128 69.2642 91.1713 69.478 91.6055 69.9055C92.0397 70.3298 92.2567 70.991 92.2567 71.8892V77H91.0835V71.8892C91.0835 71.3258 90.9293 70.9231 90.6211 70.6811C90.3129 70.4392 89.9499 70.3182 89.5323 70.3182C88.9954 70.3182 88.5794 70.4806 88.2844 70.8054C87.9895 71.1269 87.842 71.5346 87.842 72.0284V77H86.6488V71.7699C86.6488 71.3357 86.5079 70.986 86.2262 70.7209C85.9445 70.4524 85.5816 70.3182 85.1374 70.3182C84.8325 70.3182 84.5475 70.3994 84.2823 70.5618C84.0205 70.7242 83.8084 70.9496 83.646 71.2379C83.4869 71.523 83.4073 71.8527 83.4073 72.2273V77H82.234ZM97.6037 77.1591C96.8679 77.1591 96.2332 76.9967 95.6996 76.6719C95.1693 76.3438 94.7599 75.8864 94.4716 75.2997C94.1866 74.7098 94.044 74.0237 94.044 73.2415C94.044 72.4593 94.1866 71.7699 94.4716 71.1733C94.7599 70.5734 95.161 70.1061 95.6747 69.7713C96.1918 69.4332 96.795 69.2642 97.4844 69.2642C97.8821 69.2642 98.2749 69.3305 98.6626 69.4631C99.0504 69.5956 99.4034 69.8111 99.7216 70.1094C100.04 70.4044 100.293 70.7955 100.482 71.2827C100.671 71.7699 100.766 72.3698 100.766 73.0824V73.5795H94.8793V72.5653H99.5724C99.5724 72.1345 99.4863 71.75 99.3139 71.4119C99.1449 71.0739 98.9029 70.8071 98.5881 70.6115C98.2765 70.416 97.9086 70.3182 97.4844 70.3182C97.017 70.3182 96.6127 70.4342 96.2713 70.6662C95.9332 70.8949 95.6731 71.1932 95.4908 71.5611C95.3085 71.929 95.2173 72.3234 95.2173 72.7443V73.4205C95.2173 73.9972 95.3168 74.486 95.5156 74.8871C95.7178 75.2848 95.9979 75.5881 96.3558 75.7969C96.7138 76.0024 97.1297 76.1051 97.6037 76.1051C97.9119 76.1051 98.1903 76.062 98.4389 75.9759C98.6908 75.8864 98.9079 75.7538 99.0902 75.5781C99.2725 75.3991 99.4134 75.1771 99.5128 74.9119L100.646 75.2301C100.527 75.6146 100.326 75.9527 100.045 76.2443C99.763 76.5327 99.415 76.758 99.0007 76.9205C98.5864 77.0795 98.1207 77.1591 97.6037 77.1591ZM102.55 77V69.3636H103.684V70.517H103.763C103.903 70.1392 104.155 69.8326 104.519 69.5973C104.884 69.362 105.295 69.2443 105.752 69.2443C105.838 69.2443 105.946 69.246 106.075 69.2493C106.205 69.2526 106.302 69.2576 106.369 69.2642V70.4574C106.329 70.4474 106.238 70.4325 106.095 70.4126C105.956 70.3894 105.808 70.3778 105.653 70.3778C105.281 70.3778 104.95 70.4557 104.658 70.6115C104.37 70.764 104.141 70.9761 103.972 71.2479C103.807 71.5163 103.724 71.8229 103.724 72.1676V77H102.55ZM110.007 77.179C109.523 77.179 109.084 77.0878 108.689 76.9055C108.295 76.7199 107.981 76.4531 107.749 76.1051C107.517 75.7538 107.401 75.3295 107.401 74.8324C107.401 74.3949 107.488 74.0402 107.66 73.7685C107.832 73.4934 108.063 73.2779 108.351 73.1222C108.639 72.9664 108.958 72.8504 109.306 72.7741C109.657 72.6946 110.01 72.6316 110.365 72.5852C110.829 72.5256 111.205 72.4808 111.493 72.451C111.785 72.4179 111.997 72.3632 112.129 72.2869C112.265 72.2107 112.333 72.0781 112.333 71.8892V71.8494C112.333 71.3589 112.199 70.9777 111.931 70.706C111.665 70.4342 111.263 70.2983 110.722 70.2983C110.162 70.2983 109.723 70.4209 109.405 70.6662C109.087 70.9115 108.863 71.1733 108.734 71.4517L107.62 71.054C107.819 70.59 108.084 70.2287 108.416 69.9702C108.75 69.7083 109.115 69.526 109.509 69.4233C109.907 69.3172 110.298 69.2642 110.683 69.2642C110.928 69.2642 111.21 69.294 111.528 69.3537C111.849 69.41 112.159 69.5277 112.458 69.7067C112.759 69.8857 113.009 70.1558 113.208 70.517C113.407 70.8783 113.507 71.3622 113.507 71.9688V77H112.333V75.9659H112.274C112.194 76.1316 112.061 76.3089 111.876 76.4979C111.69 76.6868 111.443 76.8475 111.135 76.9801C110.827 77.1127 110.451 77.179 110.007 77.179ZM110.186 76.125C110.65 76.125 111.041 76.0339 111.359 75.8516C111.68 75.6693 111.922 75.4339 112.085 75.1456C112.25 74.8572 112.333 74.554 112.333 74.2358V73.1619C112.284 73.2216 112.174 73.2763 112.005 73.326C111.839 73.3724 111.647 73.4138 111.428 73.4503C111.213 73.4834 111.003 73.5133 110.797 73.5398C110.595 73.563 110.431 73.5829 110.305 73.5994C110 73.6392 109.715 73.7038 109.45 73.7933C109.188 73.8795 108.976 74.0104 108.813 74.1861C108.654 74.3584 108.575 74.5937 108.575 74.892C108.575 75.2997 108.726 75.608 109.027 75.8168C109.332 76.0223 109.718 76.125 110.186 76.125Z" fill="#7A7A7A"/>
</g>
<defs>
<clipPath id="clip0_67_5903">
<rect width="135" height="96" fill="white" transform="translate(0.333984)"/>
</clipPath>
<clipPath id="clip1_67_5903">
<rect width="35" height="34" fill="white" transform="translate(50.334 16)"/>
</clipPath>
</defs>
</svg>
