<svg width="136" height="96" viewBox="0 0 136 96" fill="none" xmlns="http://www.w3.org/2000/svg">
<path d="M81.4987 28.5242V45.9992C81.4987 46.7949 81.2177 47.5579 80.7176 48.1206C80.2176 48.6832 79.5393 48.9992 78.832 48.9992H57.4987C56.7915 48.9992 56.1132 48.6832 55.6131 48.1206C55.113 47.5579 54.832 46.7949 54.832 45.9992V28.5242C54.8342 27.926 54.9953 27.3421 55.2946 26.8476C55.594 26.3531 56.018 25.9706 56.512 25.7492L67.1787 20.9492C67.8123 20.6654 68.5185 20.6654 69.152 20.9492L79.8187 25.7492C80.3128 25.9706 80.7367 26.3531 81.0361 26.8476C81.3354 27.3421 81.4966 27.926 81.4987 28.5242Z" stroke="#7A7A7A" stroke-width="2" stroke-linecap="round" stroke-linejoin="round"/>
<path d="M60.166 43H76.166" stroke="#7A7A7A" stroke-width="2" stroke-linecap="round" stroke-linejoin="round"/>
<path d="M60.166 37H76.166" stroke="#7A7A7A" stroke-width="2" stroke-linecap="round" stroke-linejoin="round"/>
<path d="M76.166 31H60.166V49H76.166V31Z" stroke="#7A7A7A" stroke-width="2" stroke-linecap="round" stroke-linejoin="round"/>
<path d="M39.0922 70H37.8592C37.7863 69.6454 37.6587 69.3338 37.4764 69.0653C37.2974 68.7969 37.0787 68.5715 36.8201 68.3892C36.5649 68.2036 36.2815 68.0644 35.97 67.9716C35.6584 67.8788 35.3336 67.8324 34.9956 67.8324C34.3791 67.8324 33.8206 67.9882 33.3201 68.2997C32.823 68.6113 32.4269 69.0703 32.1319 69.6768C31.8403 70.2834 31.6944 71.0275 31.6944 71.9091C31.6944 72.7907 31.8403 73.5348 32.1319 74.1413C32.4269 74.7479 32.823 75.2069 33.3201 75.5185C33.8206 75.83 34.3791 75.9858 34.9956 75.9858C35.3336 75.9858 35.6584 75.9394 35.97 75.8466C36.2815 75.7538 36.5649 75.6162 36.8201 75.4339C37.0787 75.2483 37.2974 75.0213 37.4764 74.7528C37.6587 74.4811 37.7863 74.1695 37.8592 73.8182H39.0922C38.9993 74.3385 38.8303 74.8042 38.585 75.2152C38.3398 75.6262 38.0349 75.9759 37.6703 76.2642C37.3057 76.5492 36.8964 76.7663 36.4423 76.9155C35.9915 77.0646 35.5093 77.1392 34.9956 77.1392C34.1272 77.1392 33.3549 76.9271 32.6788 76.5028C32.0027 76.0786 31.4707 75.4754 31.0829 74.6932C30.6951 73.911 30.5012 72.983 30.5012 71.9091C30.5012 70.8352 30.6951 69.9072 31.0829 69.125C31.4707 68.3428 32.0027 67.7396 32.6788 67.3153C33.3549 66.8911 34.1272 66.679 34.9956 66.679C35.5093 66.679 35.9915 66.7536 36.4423 66.9027C36.8964 67.0518 37.3057 67.2706 37.6703 67.5589C38.0349 67.844 38.3398 68.192 38.585 68.603C38.8303 69.0107 38.9993 69.4763 39.0922 70ZM42.0987 66.8182V77H40.9254V66.8182H42.0987ZM49.0602 73.8778V69.3636H50.2335V77H49.0602V75.7074H48.9806C48.8017 76.0952 48.5233 76.425 48.1454 76.6967C47.7676 76.9652 47.2903 77.0994 46.7136 77.0994C46.2363 77.0994 45.8121 76.995 45.4409 76.7862C45.0697 76.5741 44.778 76.2559 44.5659 75.8317C44.3538 75.4041 44.2477 74.8655 44.2477 74.2159V69.3636H45.421V74.1364C45.421 74.6932 45.5768 75.1373 45.8883 75.4688C46.2032 75.8002 46.6042 75.9659 47.0914 75.9659C47.3831 75.9659 47.6797 75.8913 47.9814 75.7422C48.2863 75.593 48.5415 75.3643 48.747 75.0561C48.9558 74.7479 49.0602 74.3551 49.0602 73.8778ZM52.5415 77V66.8182H53.7148V70.5767H53.8143C53.9004 70.4441 54.0198 70.2751 54.1722 70.0696C54.328 69.8608 54.5501 69.6752 54.8384 69.5128C55.1301 69.3471 55.5245 69.2642 56.0217 69.2642C56.6647 69.2642 57.2314 69.425 57.7219 69.7464C58.2125 70.0679 58.5953 70.5237 58.8704 71.1136C59.1455 71.7036 59.283 72.3996 59.283 73.2017C59.283 74.0104 59.1455 74.7114 58.8704 75.3047C58.5953 75.8946 58.2141 76.352 57.7269 76.6768C57.2397 76.9983 56.6779 77.1591 56.0415 77.1591C55.551 77.1591 55.1583 77.0779 54.8633 76.9155C54.5683 76.7498 54.3413 76.5625 54.1822 76.3537C54.0231 76.1416 53.9004 75.9659 53.8143 75.8267H53.6751V77H52.5415ZM53.695 73.1818C53.695 73.7585 53.7795 74.2673 53.9485 74.7081C54.1175 75.1456 54.3645 75.4886 54.6893 75.7372C55.0141 75.9825 55.4118 76.1051 55.8825 76.1051C56.373 76.1051 56.7823 75.9759 57.1104 75.7173C57.4419 75.4555 57.6905 75.1042 57.8562 74.6634C58.0252 74.2192 58.1097 73.7254 58.1097 73.1818C58.1097 72.6449 58.0269 72.161 57.8612 71.7301C57.6987 71.2959 57.4518 70.9529 57.1204 70.701C56.7923 70.4458 56.3796 70.3182 55.8825 70.3182C55.4052 70.3182 55.0041 70.4392 54.6793 70.6811C54.3545 70.9197 54.1093 71.2545 53.9435 71.6854C53.7778 72.1129 53.695 72.6117 53.695 73.1818ZM65.1744 77V66.8182H66.4073V71.3523H71.8363V66.8182H73.0692V77H71.8363V72.446H66.4073V77H65.1744ZM78.4808 77.1591C77.7914 77.1591 77.1866 76.995 76.6662 76.6669C76.1491 76.3388 75.7448 75.8797 75.4531 75.2898C75.1648 74.6998 75.0206 74.0104 75.0206 73.2216C75.0206 72.4261 75.1648 71.7318 75.4531 71.1385C75.7448 70.5452 76.1491 70.0845 76.6662 69.7564C77.1866 69.4283 77.7914 69.2642 78.4808 69.2642C79.1702 69.2642 79.7734 69.4283 80.2905 69.7564C80.8108 70.0845 81.2152 70.5452 81.5036 71.1385C81.7952 71.7318 81.9411 72.4261 81.9411 73.2216C81.9411 74.0104 81.7952 74.6998 81.5036 75.2898C81.2152 75.8797 80.8108 76.3388 80.2905 76.6669C79.7734 76.995 79.1702 77.1591 78.4808 77.1591ZM78.4808 76.1051C79.0045 76.1051 79.4354 75.9709 79.7734 75.7024C80.1115 75.4339 80.3617 75.081 80.5241 74.6435C80.6866 74.206 80.7678 73.732 80.7678 73.2216C80.7678 72.7112 80.6866 72.2356 80.5241 71.7947C80.3617 71.3539 80.1115 70.9976 79.7734 70.7259C79.4354 70.4541 79.0045 70.3182 78.4808 70.3182C77.9571 70.3182 77.5263 70.4541 77.1882 70.7259C76.8501 70.9976 76.5999 71.3539 76.4375 71.7947C76.2751 72.2356 76.1939 72.7112 76.1939 73.2216C76.1939 73.732 76.2751 74.206 76.4375 74.6435C76.5999 75.081 76.8501 75.4339 77.1882 75.7024C77.5263 75.9709 77.9571 76.1051 78.4808 76.1051ZM88.5446 73.8778V69.3636H89.7179V77H88.5446V75.7074H88.465C88.286 76.0952 88.0076 76.425 87.6298 76.6967C87.252 76.9652 86.7747 77.0994 86.198 77.0994C85.7207 77.0994 85.2965 76.995 84.9252 76.7862C84.554 76.5741 84.2624 76.2559 84.0502 75.8317C83.8381 75.4041 83.7321 74.8655 83.7321 74.2159V69.3636H84.9054V74.1364C84.9054 74.6932 85.0611 75.1373 85.3727 75.4688C85.6876 75.8002 86.0886 75.9659 86.5758 75.9659C86.8675 75.9659 87.1641 75.8913 87.4657 75.7422C87.7707 75.593 88.0259 75.3643 88.2314 75.0561C88.4402 74.7479 88.5446 74.3551 88.5446 73.8778ZM97.2759 71.0739L96.2219 71.3722C96.1557 71.1965 96.0579 71.0258 95.9286 70.8601C95.8027 70.6911 95.6303 70.5518 95.4116 70.4425C95.1928 70.3331 94.9128 70.2784 94.5714 70.2784C94.104 70.2784 93.7146 70.3861 93.4031 70.6016C93.0948 70.8137 92.9407 71.0838 92.9407 71.4119C92.9407 71.7036 93.0468 71.9339 93.2589 72.103C93.471 72.272 93.8024 72.4129 94.2532 72.5256L95.3867 72.804C96.0695 72.9697 96.5782 73.2232 96.913 73.5646C97.2478 73.9027 97.4151 74.3385 97.4151 74.8722C97.4151 75.3097 97.2892 75.7008 97.0373 76.0455C96.7887 76.3902 96.4407 76.6619 95.9933 76.8608C95.5458 77.0597 95.0254 77.1591 94.4322 77.1591C93.6533 77.1591 93.0086 76.9901 92.4982 76.652C91.9878 76.3139 91.6647 75.8201 91.5288 75.1705L92.6424 74.892C92.7485 75.303 92.949 75.6113 93.244 75.8168C93.5423 76.0223 93.9317 76.125 94.4123 76.125C94.9592 76.125 95.3933 76.009 95.7148 75.777C96.0397 75.5417 96.2021 75.2599 96.2021 74.9318C96.2021 74.6667 96.1093 74.4446 95.9237 74.2656C95.738 74.0833 95.453 73.9474 95.0685 73.858L93.7958 73.5597C93.0965 73.3939 92.5827 73.1371 92.2546 72.7891C91.9298 72.4377 91.7674 71.9986 91.7674 71.4716C91.7674 71.0407 91.8884 70.6596 92.1303 70.3281C92.3756 69.9967 92.7087 69.7365 93.1296 69.5476C93.5539 69.3587 94.0344 69.2642 94.5714 69.2642C95.3271 69.2642 95.9203 69.4299 96.3512 69.7614C96.7854 70.0928 97.0936 70.5303 97.2759 71.0739ZM102.383 77.1591C101.647 77.1591 101.012 76.9967 100.479 76.6719C99.9486 76.3438 99.5392 75.8864 99.2509 75.2997C98.9658 74.7098 98.8233 74.0237 98.8233 73.2415C98.8233 72.4593 98.9658 71.7699 99.2509 71.1733C99.5392 70.5734 99.9403 70.1061 100.454 69.7713C100.971 69.4332 101.574 69.2642 102.264 69.2642C102.661 69.2642 103.054 69.3305 103.442 69.4631C103.83 69.5956 104.183 69.8111 104.501 70.1094C104.819 70.4044 105.073 70.7955 105.262 71.2827C105.45 71.7699 105.545 72.3698 105.545 73.0824V73.5795H99.6586V72.5653H104.352C104.352 72.1345 104.266 71.75 104.093 71.4119C103.924 71.0739 103.682 70.8071 103.367 70.6115C103.056 70.416 102.688 70.3182 102.264 70.3182C101.796 70.3182 101.392 70.4342 101.051 70.6662C100.713 70.8949 100.452 71.1932 100.27 71.5611C100.088 71.929 99.9966 72.3234 99.9966 72.7443V73.4205C99.9966 73.9972 100.096 74.486 100.295 74.8871C100.497 75.2848 100.777 75.5881 101.135 75.7969C101.493 76.0024 101.909 76.1051 102.383 76.1051C102.691 76.1051 102.97 76.062 103.218 75.9759C103.47 75.8864 103.687 75.7538 103.869 75.5781C104.052 75.3991 104.193 75.1771 104.292 74.9119L105.426 75.2301C105.306 75.6146 105.106 75.9527 104.824 76.2443C104.542 76.5327 104.194 76.758 103.78 76.9205C103.366 77.0795 102.9 77.1591 102.383 77.1591Z" fill="#7A7A7A"/>
</svg>
