<svg width="135" height="96" viewBox="0 0 135 96" fill="none" xmlns="http://www.w3.org/2000/svg">
<path d="M80.8327 28.5242V45.9992C80.8327 46.7949 80.5517 47.5579 80.0516 48.1206C79.5515 48.6832 78.8733 48.9992 78.166 48.9992H56.8327C56.1254 48.9992 55.4472 48.6832 54.9471 48.1206C54.447 47.5579 54.166 46.7949 54.166 45.9992V28.5242C54.1682 27.926 54.3293 27.3421 54.6286 26.8476C54.928 26.3531 55.3519 25.9706 55.846 25.7492L66.5127 20.9492C67.1463 20.6654 67.8524 20.6654 68.486 20.9492L79.1527 25.7492C79.6468 25.9706 80.0707 26.3531 80.3701 26.8476C80.6694 27.3421 80.8305 27.926 80.8327 28.5242Z" stroke="#7A7A7A" stroke-width="2" stroke-linecap="round" stroke-linejoin="round"/>
<path d="M59.5 43H75.5" stroke="#7A7A7A" stroke-width="2" stroke-linecap="round" stroke-linejoin="round"/>
<path d="M59.5 37H75.5" stroke="#7A7A7A" stroke-width="2" stroke-linecap="round" stroke-linejoin="round"/>
<path d="M75.5 31H59.5V49H75.5V31Z" stroke="#7A7A7A" stroke-width="2" stroke-linecap="round" stroke-linejoin="round"/>
<path d="M24.4261 70H23.1932C23.1203 69.6454 22.9927 69.3338 22.8104 69.0653C22.6314 68.7969 22.4126 68.5715 22.1541 68.3892C21.8989 68.2036 21.6155 68.0644 21.304 67.9716C20.9924 67.8788 20.6676 67.8324 20.3295 67.8324C19.7131 67.8324 19.1546 67.9882 18.6541 68.2997C18.157 68.6113 17.7609 69.0703 17.4659 69.6768C17.1742 70.2834 17.0284 71.0275 17.0284 71.9091C17.0284 72.7907 17.1742 73.5348 17.4659 74.1413C17.7609 74.7479 18.157 75.2069 18.6541 75.5185C19.1546 75.83 19.7131 75.9858 20.3295 75.9858C20.6676 75.9858 20.9924 75.9394 21.304 75.8466C21.6155 75.7538 21.8989 75.6162 22.1541 75.4339C22.4126 75.2483 22.6314 75.0213 22.8104 74.7528C22.9927 74.4811 23.1203 74.1695 23.1932 73.8182H24.4261C24.3333 74.3385 24.1643 74.8042 23.919 75.2152C23.6738 75.6262 23.3688 75.9759 23.0043 76.2642C22.6397 76.5492 22.2304 76.7663 21.7763 76.9155C21.3255 77.0646 20.8433 77.1392 20.3295 77.1392C19.4612 77.1392 18.6889 76.9271 18.0128 76.5028C17.3366 76.0786 16.8047 75.4754 16.4169 74.6932C16.0291 73.911 15.8352 72.983 15.8352 71.9091C15.8352 70.8352 16.0291 69.9072 16.4169 69.125C16.8047 68.3428 17.3366 67.7396 18.0128 67.3153C18.6889 66.8911 19.4612 66.679 20.3295 66.679C20.8433 66.679 21.3255 66.7536 21.7763 66.9027C22.2304 67.0518 22.6397 67.2706 23.0043 67.5589C23.3688 67.844 23.6738 68.192 23.919 68.603C24.1643 69.0107 24.3333 69.4763 24.4261 70ZM29.3617 77.1591C28.6723 77.1591 28.0674 76.995 27.5471 76.6669C27.03 76.3388 26.6257 75.8797 26.334 75.2898C26.0456 74.6998 25.9015 74.0104 25.9015 73.2216C25.9015 72.4261 26.0456 71.7318 26.334 71.1385C26.6257 70.5452 27.03 70.0845 27.5471 69.7564C28.0674 69.4283 28.6723 69.2642 29.3617 69.2642C30.0511 69.2642 30.6543 69.4283 31.1713 69.7564C31.6917 70.0845 32.0961 70.5452 32.3844 71.1385C32.6761 71.7318 32.8219 72.4261 32.8219 73.2216C32.8219 74.0104 32.6761 74.6998 32.3844 75.2898C32.0961 75.8797 31.6917 76.3388 31.1713 76.6669C30.6543 76.995 30.0511 77.1591 29.3617 77.1591ZM29.3617 76.1051C29.8854 76.1051 30.3162 75.9709 30.6543 75.7024C30.9924 75.4339 31.2426 75.081 31.405 74.6435C31.5674 74.206 31.6486 73.732 31.6486 73.2216C31.6486 72.7112 31.5674 72.2356 31.405 71.7947C31.2426 71.3539 30.9924 70.9976 30.6543 70.7259C30.3162 70.4541 29.8854 70.3182 29.3617 70.3182C28.838 70.3182 28.4071 70.4541 28.0691 70.7259C27.731 70.9976 27.4808 71.3539 27.3184 71.7947C27.156 72.2356 27.0748 72.7112 27.0748 73.2216C27.0748 73.732 27.156 74.206 27.3184 74.6435C27.4808 75.081 27.731 75.4339 28.0691 75.7024C28.4071 75.9709 28.838 76.1051 29.3617 76.1051ZM34.6129 77V69.3636H35.7464V70.5568H35.8459C36.005 70.1491 36.2618 69.8326 36.6165 69.6072C36.9711 69.3786 37.397 69.2642 37.8942 69.2642C38.398 69.2642 38.8172 69.3786 39.152 69.6072C39.4901 69.8326 39.7536 70.1491 39.9425 70.5568H40.022C40.2176 70.1624 40.5109 69.8492 40.902 69.6172C41.2931 69.3819 41.7621 69.2642 42.3089 69.2642C42.9917 69.2642 43.5502 69.478 43.9844 69.9055C44.4186 70.3298 44.6357 70.991 44.6357 71.8892V77H43.4624V71.8892C43.4624 71.3258 43.3082 70.9231 43 70.6811C42.6918 70.4392 42.3288 70.3182 41.9112 70.3182C41.3743 70.3182 40.9583 70.4806 40.6634 70.8054C40.3684 71.1269 40.2209 71.5346 40.2209 72.0284V77H39.0277V71.7699C39.0277 71.3357 38.8868 70.986 38.6051 70.7209C38.3234 70.4524 37.9605 70.3182 37.5163 70.3182C37.2114 70.3182 36.9264 70.3994 36.6612 70.5618C36.3994 70.7242 36.1873 70.9496 36.0249 71.2379C35.8658 71.523 35.7862 71.8527 35.7862 72.2273V77H34.6129ZM46.7809 77V69.3636H47.9144V70.5568H48.0138C48.1729 70.1491 48.4298 69.8326 48.7844 69.6072C49.1391 69.3786 49.565 69.2642 50.0621 69.2642C50.5659 69.2642 50.9852 69.3786 51.32 69.6072C51.658 69.8326 51.9215 70.1491 52.1104 70.5568H52.19C52.3855 70.1624 52.6789 69.8492 53.07 69.6172C53.4611 69.3819 53.93 69.2642 54.4769 69.2642C55.1597 69.2642 55.7182 69.478 56.1523 69.9055C56.5865 70.3298 56.8036 70.991 56.8036 71.8892V77H55.6303V71.8892C55.6303 71.3258 55.4762 70.9231 55.168 70.6811C54.8597 70.4392 54.4968 70.3182 54.0792 70.3182C53.5423 70.3182 53.1263 70.4806 52.8313 70.8054C52.5363 71.1269 52.3888 71.5346 52.3888 72.0284V77H51.1957V71.7699C51.1957 71.3357 51.0548 70.986 50.7731 70.7209C50.4914 70.4524 50.1284 70.3182 49.6843 70.3182C49.3794 70.3182 49.0943 70.3994 48.8292 70.5618C48.5674 70.7242 48.3552 70.9496 48.1928 71.2379C48.0337 71.523 47.9542 71.8527 47.9542 72.2273V77H46.7809ZM63.7614 73.8778V69.3636H64.9347V77H63.7614V75.7074H63.6818C63.5028 76.0952 63.2244 76.425 62.8466 76.6967C62.4688 76.9652 61.9915 77.0994 61.4148 77.0994C60.9375 77.0994 60.5133 76.995 60.142 76.7862C59.7708 76.5741 59.4792 76.2559 59.267 75.8317C59.0549 75.4041 58.9489 74.8655 58.9489 74.2159V69.3636H60.1222V74.1364C60.1222 74.6932 60.2779 75.1373 60.5895 75.4688C60.9044 75.8002 61.3054 75.9659 61.7926 75.9659C62.0843 75.9659 62.3809 75.8913 62.6825 75.7422C62.9875 75.593 63.2427 75.3643 63.4482 75.0561C63.657 74.7479 63.7614 74.3551 63.7614 73.8778ZM68.2569 72.4062V77H67.0836V69.3636H68.2172V70.5568H68.3166C68.4956 70.169 68.7673 69.8575 69.1319 69.6222C69.4965 69.3835 69.9672 69.2642 70.5439 69.2642C71.0609 69.2642 71.5133 69.3703 71.9011 69.5824C72.2889 69.7912 72.5905 70.1094 72.8059 70.5369C73.0214 70.9612 73.1291 71.4981 73.1291 72.1477V77H71.9558V72.2273C71.9558 71.6274 71.8 71.16 71.4885 70.8253C71.1769 70.4872 70.7493 70.3182 70.2058 70.3182C69.8313 70.3182 69.4965 70.3994 69.2015 70.5618C68.9099 70.7242 68.6795 70.9612 68.5105 71.2727C68.3414 71.5843 68.2569 71.9621 68.2569 72.4062ZM75.2731 77V69.3636H76.4464V77H75.2731ZM75.8697 68.0909C75.641 68.0909 75.4438 68.013 75.2781 67.8572C75.1156 67.7015 75.0344 67.5142 75.0344 67.2955C75.0344 67.0767 75.1156 66.8894 75.2781 66.7337C75.4438 66.5779 75.641 66.5 75.8697 66.5C76.0984 66.5 76.2939 66.5779 76.4563 66.7337C76.622 66.8894 76.7049 67.0767 76.7049 67.2955C76.7049 67.5142 76.622 67.7015 76.4563 67.8572C76.2939 68.013 76.0984 68.0909 75.8697 68.0909ZM81.9164 69.3636V70.358H77.959V69.3636H81.9164ZM79.1124 67.5341H80.2857V74.8125C80.2857 75.1439 80.3337 75.3925 80.4299 75.5582C80.5293 75.7206 80.6552 75.83 80.8077 75.8864C80.9635 75.9394 81.1275 75.9659 81.2999 75.9659C81.4292 75.9659 81.5352 75.9593 81.6181 75.946C81.7009 75.9295 81.7672 75.9162 81.8169 75.9062L82.0556 76.9602C81.976 76.9901 81.865 77.0199 81.7225 77.0497C81.58 77.0829 81.3993 77.0994 81.1806 77.0994C80.8491 77.0994 80.5243 77.0282 80.2061 76.8857C79.8913 76.7431 79.6294 76.526 79.4206 76.2344C79.2151 75.9427 79.1124 75.5748 79.1124 75.1307V67.5341ZM84.437 79.8636C84.2381 79.8636 84.0608 79.8471 83.905 79.8139C83.7492 79.7841 83.6415 79.7543 83.5819 79.7244L83.8801 78.6903C84.1652 78.7633 84.4171 78.7898 84.6358 78.7699C84.8546 78.75 85.0485 78.6522 85.2175 78.4766C85.3899 78.3042 85.5473 78.0241 85.6898 77.6364L85.9086 77.0398L83.0847 69.3636H84.3574L86.4654 75.4489H86.5449L88.6529 69.3636H89.9256L86.6841 78.1136C86.5383 78.508 86.3577 78.8345 86.1422 79.093C85.9268 79.3549 85.6766 79.5488 85.3915 79.6747C85.1098 79.8007 84.7916 79.8636 84.437 79.8636ZM95.5708 77V66.8182H96.8038V71.3523H102.233V66.8182H103.466V77H102.233V72.446H96.8038V77H95.5708ZM108.022 77.179C107.538 77.179 107.099 77.0878 106.705 76.9055C106.31 76.7199 105.997 76.4531 105.765 76.1051C105.533 75.7538 105.417 75.3295 105.417 74.8324C105.417 74.3949 105.503 74.0402 105.676 73.7685C105.848 73.4934 106.078 73.2779 106.367 73.1222C106.655 72.9664 106.973 72.8504 107.321 72.7741C107.673 72.6946 108.026 72.6316 108.38 72.5852C108.844 72.5256 109.22 72.4808 109.509 72.451C109.8 72.4179 110.012 72.3632 110.145 72.2869C110.281 72.2107 110.349 72.0781 110.349 71.8892V71.8494C110.349 71.3589 110.215 70.9777 109.946 70.706C109.681 70.4342 109.278 70.2983 108.738 70.2983C108.178 70.2983 107.739 70.4209 107.421 70.6662C107.102 70.9115 106.879 71.1733 106.749 71.4517L105.636 71.054C105.835 70.59 106.1 70.2287 106.431 69.9702C106.766 69.7083 107.131 69.526 107.525 69.4233C107.923 69.3172 108.314 69.2642 108.698 69.2642C108.944 69.2642 109.225 69.294 109.544 69.3537C109.865 69.41 110.175 69.5277 110.473 69.7067C110.775 69.8857 111.025 70.1558 111.224 70.517C111.423 70.8783 111.522 71.3622 111.522 71.9688V77H110.349V75.9659H110.289C110.21 76.1316 110.077 76.3089 109.892 76.4979C109.706 76.6868 109.459 76.8475 109.151 76.9801C108.843 77.1127 108.466 77.179 108.022 77.179ZM108.201 76.125C108.665 76.125 109.056 76.0339 109.374 75.8516C109.696 75.6693 109.938 75.4339 110.1 75.1456C110.266 74.8572 110.349 74.554 110.349 74.2358V73.1619C110.299 73.2216 110.19 73.2763 110.021 73.326C109.855 73.3724 109.663 73.4138 109.444 73.4503C109.229 73.4834 109.018 73.5133 108.813 73.5398C108.61 73.563 108.446 73.5829 108.32 73.5994C108.016 73.6392 107.731 73.7038 107.465 73.7933C107.204 73.8795 106.991 74.0104 106.829 74.1861C106.67 74.3584 106.59 74.5937 106.59 74.892C106.59 75.2997 106.741 75.608 107.043 75.8168C107.348 76.0223 107.734 76.125 108.201 76.125ZM114.837 66.8182V77H113.664V66.8182H114.837ZM118.159 66.8182V77H116.986V66.8182H118.159Z" fill="#7A7A7A"/>
</svg>
