<svg width="136" height="96" viewBox="0 0 136 96" fill="none" xmlns="http://www.w3.org/2000/svg">
<path d="M62.8763 36.5417C63.8156 36.5417 64.7164 36.1685 65.3806 35.5043C66.0448 34.8401 66.418 33.9393 66.418 33C66.418 31.045 65.7096 30.1667 65.0013 28.75C63.4826 25.7141 64.684 23.0068 67.8346 20.25C68.543 23.7917 70.668 27.1917 73.5013 29.4583C76.3346 31.725 77.7513 34.4167 77.7513 37.25C77.7513 38.5523 77.4948 39.8418 76.9964 41.0449C76.4981 42.2481 75.7676 43.3413 74.8468 44.2621C73.9259 45.183 72.8327 45.9134 71.6296 46.4118C70.4264 46.9102 69.1369 47.1667 67.8346 47.1667C66.5324 47.1667 65.2428 46.9102 64.0397 46.4118C62.8365 45.9134 61.7433 45.183 60.8225 44.2621C59.9016 43.3413 59.1712 42.2481 58.6728 41.0449C58.1745 39.8418 57.918 38.5523 57.918 37.25C57.918 35.6166 58.5314 34.0002 59.3346 33C59.3346 33.9393 59.7078 34.8401 60.372 35.5043C61.0362 36.1685 61.937 36.5417 62.8763 36.5417Z" stroke="#7A7A7A" stroke-width="2" stroke-linecap="round" stroke-linejoin="round"/>
<path d="M33.0669 77V66.8182H39.1721V67.9119H34.2999V71.3523H38.7147V72.446H34.2999V77H33.0669ZM41.1246 77V69.3636H42.2979V77H41.1246ZM41.7212 68.0909C41.4925 68.0909 41.2953 68.013 41.1296 67.8572C40.9672 67.7015 40.886 67.5142 40.886 67.2955C40.886 67.0767 40.9672 66.8894 41.1296 66.7337C41.2953 66.5779 41.4925 66.5 41.7212 66.5C41.9499 66.5 42.1455 66.5779 42.3079 66.7337C42.4736 66.8894 42.5565 67.0767 42.5565 67.2955C42.5565 67.5142 42.4736 67.7015 42.3079 67.8572C42.1455 68.013 41.9499 68.0909 41.7212 68.0909ZM44.4469 77V69.3636H45.5804V70.517H45.66C45.7992 70.1392 46.0511 69.8326 46.4157 69.5973C46.7802 69.362 47.1912 69.2443 47.6486 69.2443C47.7348 69.2443 47.8425 69.246 47.9718 69.2493C48.101 69.2526 48.1988 69.2576 48.2651 69.2642V70.4574C48.2253 70.4474 48.1342 70.4325 47.9917 70.4126C47.8525 70.3894 47.705 70.3778 47.5492 70.3778C47.178 70.3778 46.8465 70.4557 46.5549 70.6115C46.2665 70.764 46.0378 70.9761 45.8688 71.2479C45.7031 71.5163 45.6202 71.8229 45.6202 72.1676V77H44.4469ZM52.6252 77.1591C51.8894 77.1591 51.2547 76.9967 50.7211 76.6719C50.1908 76.3438 49.7814 75.8864 49.4931 75.2997C49.208 74.7098 49.0655 74.0237 49.0655 73.2415C49.0655 72.4593 49.208 71.7699 49.4931 71.1733C49.7814 70.5734 50.1825 70.1061 50.6962 69.7713C51.2132 69.4332 51.8165 69.2642 52.5059 69.2642C52.9036 69.2642 53.2963 69.3305 53.6841 69.4631C54.0719 69.5956 54.4249 69.8111 54.7431 70.1094C55.0613 70.4044 55.3148 70.7955 55.5037 71.2827C55.6926 71.7699 55.7871 72.3698 55.7871 73.0824V73.5795H49.9007V72.5653H54.5939C54.5939 72.1345 54.5078 71.75 54.3354 71.4119C54.1664 71.0739 53.9244 70.8071 53.6096 70.6115C53.298 70.416 52.9301 70.3182 52.5059 70.3182C52.0385 70.3182 51.6342 70.4342 51.2928 70.6662C50.9547 70.8949 50.6945 71.1932 50.5123 71.5611C50.33 71.929 50.2388 72.3234 50.2388 72.7443V73.4205C50.2388 73.9972 50.3382 74.486 50.5371 74.8871C50.7393 75.2848 51.0194 75.5881 51.3773 75.7969C51.7353 76.0024 52.1512 76.1051 52.6252 76.1051C52.9334 76.1051 53.2118 76.062 53.4604 75.9759C53.7123 75.8864 53.9294 75.7538 54.1117 75.5781C54.294 75.3991 54.4348 75.1771 54.5343 74.9119L55.6678 75.2301C55.5485 75.6146 55.348 75.9527 55.0662 76.2443C54.7845 76.5327 54.4365 76.758 54.0222 76.9205C53.6079 77.0795 53.1422 77.1591 52.6252 77.1591ZM67.2367 69.3636C67.177 68.8598 66.9351 68.4688 66.5108 68.1903C66.0866 67.9119 65.5662 67.7727 64.9498 67.7727C64.499 67.7727 64.1046 67.8456 63.7665 67.9915C63.4318 68.1373 63.1699 68.3378 62.981 68.593C62.7954 68.8482 62.7026 69.1383 62.7026 69.4631C62.7026 69.7348 62.7672 69.9685 62.8965 70.1641C63.0291 70.3563 63.1981 70.517 63.4036 70.6463C63.6091 70.7723 63.8245 70.8767 64.0499 70.9595C64.2753 71.0391 64.4824 71.1037 64.6713 71.1534L65.7054 71.4318C65.9706 71.5014 66.2656 71.5975 66.5904 71.7202C66.9185 71.8428 67.2317 72.0102 67.53 72.2223C67.8316 72.4311 68.0802 72.6996 68.2757 73.0277C68.4713 73.3558 68.5691 73.7585 68.5691 74.2358C68.5691 74.786 68.4249 75.2831 68.1365 75.7273C67.8515 76.1714 67.4339 76.5244 66.8837 76.7862C66.3368 77.0481 65.6723 77.179 64.8901 77.179C64.1609 77.179 63.5295 77.0613 62.9959 76.826C62.4656 76.5907 62.048 76.2625 61.7431 75.8416C61.4415 75.4207 61.2708 74.9318 61.231 74.375H62.5037C62.5369 74.7595 62.6661 75.0777 62.8915 75.3295C63.1202 75.5781 63.4086 75.7637 63.7566 75.8864C64.1079 76.0057 64.4857 76.0653 64.8901 76.0653C65.3607 76.0653 65.7833 75.9891 66.1578 75.8366C66.5324 75.6809 66.829 75.4654 67.0478 75.1903C67.2665 74.9119 67.3759 74.5871 67.3759 74.2159C67.3759 73.8778 67.2814 73.6027 67.0925 73.3906C66.9036 73.1785 66.655 73.0062 66.3468 72.8736C66.0385 72.741 65.7054 72.625 65.3475 72.5256L64.0946 72.1676C63.2992 71.9389 62.6694 71.6125 62.2054 71.1882C61.7414 70.764 61.5094 70.2088 61.5094 69.5227C61.5094 68.9527 61.6635 68.4555 61.9718 68.0312C62.2833 67.6037 62.7009 67.2723 63.2246 67.0369C63.7516 66.7983 64.3399 66.679 64.9895 66.679C65.6458 66.679 66.2291 66.7966 66.7395 67.032C67.2499 67.264 67.6543 67.5821 67.9526 67.9865C68.2542 68.3909 68.4133 68.8499 68.4299 69.3636H67.2367ZM72.6843 77.179C72.2004 77.179 71.7612 77.0878 71.3668 76.9055C70.9724 76.7199 70.6592 76.4531 70.4272 76.1051C70.1952 75.7538 70.0792 75.3295 70.0792 74.8324C70.0792 74.3949 70.1654 74.0402 70.3377 73.7685C70.5101 73.4934 70.7404 73.2779 71.0288 73.1222C71.3171 72.9664 71.6353 72.8504 71.9833 72.7741C72.3346 72.6946 72.6876 72.6316 73.0423 72.5852C73.5063 72.5256 73.8825 72.4808 74.1708 72.451C74.4625 72.4179 74.6746 72.3632 74.8072 72.2869C74.9431 72.2107 75.011 72.0781 75.011 71.8892V71.8494C75.011 71.3589 74.8768 70.9777 74.6083 70.706C74.3432 70.4342 73.9405 70.2983 73.4002 70.2983C72.8401 70.2983 72.4009 70.4209 72.0827 70.6662C71.7646 70.9115 71.5408 71.1733 71.4116 71.4517L70.2979 71.054C70.4968 70.59 70.762 70.2287 71.0934 69.9702C71.4281 69.7083 71.7927 69.526 72.1871 69.4233C72.5849 69.3172 72.976 69.2642 73.3604 69.2642C73.6057 69.2642 73.8874 69.294 74.2056 69.3537C74.5271 69.41 74.837 69.5277 75.1353 69.7067C75.4369 69.8857 75.6871 70.1558 75.886 70.517C76.0849 70.8783 76.1843 71.3622 76.1843 71.9688V77H75.011V75.9659H74.9513C74.8718 76.1316 74.7392 76.3089 74.5536 76.4979C74.368 76.6868 74.1211 76.8475 73.8129 76.9801C73.5046 77.1127 73.1284 77.179 72.6843 77.179ZM72.8633 76.125C73.3273 76.125 73.7184 76.0339 74.0366 75.8516C74.3581 75.6693 74.6 75.4339 74.7624 75.1456C74.9281 74.8572 75.011 74.554 75.011 74.2358V73.1619C74.9613 73.2216 74.8519 73.2763 74.6829 73.326C74.5172 73.3724 74.3249 73.4138 74.1062 73.4503C73.8907 73.4834 73.6803 73.5133 73.4748 73.5398C73.2726 73.563 73.1085 73.5829 72.9826 73.5994C72.6777 73.6392 72.3926 73.7038 72.1275 73.7933C71.8656 73.8795 71.6535 74.0104 71.4911 74.1861C71.332 74.3584 71.2525 74.5937 71.2525 74.892C71.2525 75.2997 71.4033 75.608 71.7049 75.8168C72.0098 76.0223 72.396 76.125 72.8633 76.125ZM81.7264 69.3636V70.358H77.6099V69.3636H81.7264ZM78.8429 77V68.3097C78.8429 67.8722 78.9456 67.5076 79.1511 67.2159C79.3566 66.9242 79.6234 66.7055 79.9515 66.5597C80.2797 66.4138 80.626 66.3409 80.9906 66.3409C81.2789 66.3409 81.5143 66.3641 81.6966 66.4105C81.8788 66.4569 82.0147 66.5 82.1042 66.5398L81.7662 67.554C81.7065 67.5341 81.6236 67.5092 81.5176 67.4794C81.4148 67.4496 81.2789 67.4347 81.1099 67.4347C80.7221 67.4347 80.4421 67.5324 80.2697 67.728C80.1007 67.9235 80.0162 68.2102 80.0162 68.5881V77H78.8429ZM86.258 77.1591C85.5222 77.1591 84.8875 76.9967 84.3539 76.6719C83.8236 76.3438 83.4142 75.8864 83.1259 75.2997C82.8408 74.7098 82.6983 74.0237 82.6983 73.2415C82.6983 72.4593 82.8408 71.7699 83.1259 71.1733C83.4142 70.5734 83.8153 70.1061 84.329 69.7713C84.8461 69.4332 85.4493 69.2642 86.1387 69.2642C86.5364 69.2642 86.9292 69.3305 87.3169 69.4631C87.7047 69.5956 88.0577 69.8111 88.3759 70.1094C88.6941 70.4044 88.9476 70.7955 89.1365 71.2827C89.3255 71.7699 89.4199 72.3698 89.4199 73.0824V73.5795H83.5336V72.5653H88.2267C88.2267 72.1345 88.1406 71.75 87.9682 71.4119C87.7992 71.0739 87.5572 70.8071 87.2424 70.6115C86.9308 70.416 86.5629 70.3182 86.1387 70.3182C85.6713 70.3182 85.267 70.4342 84.9256 70.6662C84.5875 70.8949 84.3274 71.1932 84.1451 71.5611C83.9628 71.929 83.8716 72.3234 83.8716 72.7443V73.4205C83.8716 73.9972 83.9711 74.486 84.1699 74.8871C84.3721 75.2848 84.6522 75.5881 85.0101 75.7969C85.3681 76.0024 85.784 76.1051 86.258 76.1051C86.5662 76.1051 86.8446 76.062 87.0932 75.9759C87.3451 75.8864 87.5622 75.7538 87.7445 75.5781C87.9268 75.3991 88.0676 75.1771 88.1671 74.9119L89.3006 75.2301C89.1813 75.6146 88.9808 75.9527 88.699 76.2443C88.4173 76.5327 88.0693 76.758 87.655 76.9205C87.2407 77.0795 86.775 77.1591 86.258 77.1591ZM94.5257 69.3636V70.358H90.5684V69.3636H94.5257ZM91.7218 67.5341H92.8951V74.8125C92.8951 75.1439 92.9431 75.3925 93.0392 75.5582C93.1387 75.7206 93.2646 75.83 93.4171 75.8864C93.5729 75.9394 93.7369 75.9659 93.9093 75.9659C94.0385 75.9659 94.1446 75.9593 94.2275 75.946C94.3103 75.9295 94.3766 75.9162 94.4263 75.9062L94.665 76.9602C94.5854 76.9901 94.4744 77.0199 94.3319 77.0497C94.1893 77.0829 94.0087 77.0994 93.79 77.0994C93.4585 77.0994 93.1337 77.0282 92.8155 76.8857C92.5007 76.7431 92.2388 76.526 92.03 76.2344C91.8245 75.9427 91.7218 75.5748 91.7218 75.1307V67.5341ZM97.0463 79.8636C96.8475 79.8636 96.6702 79.8471 96.5144 79.8139C96.3586 79.7841 96.2509 79.7543 96.1912 79.7244L96.4895 78.6903C96.7746 78.7633 97.0265 78.7898 97.2452 78.7699C97.464 78.75 97.6578 78.6522 97.8269 78.4766C97.9992 78.3042 98.1567 78.0241 98.2992 77.6364L98.5179 77.0398L95.6941 69.3636H96.9668L99.0748 75.4489H99.1543L101.262 69.3636H102.535L99.2935 78.1136C99.1477 78.508 98.967 78.8345 98.7516 79.093C98.5362 79.3549 98.2859 79.5488 98.0009 79.6747C97.7192 79.8007 97.401 79.8636 97.0463 79.8636Z" fill="#7A7A7A"/>
</svg>
