<svg width="135" height="96" viewBox="0 0 135 96" fill="none" xmlns="http://www.w3.org/2000/svg">
<path d="M67.4993 47.166V37.2493L64.666 34.416" stroke="#7A7A7A" stroke-width="2" stroke-linecap="round" stroke-linejoin="round"/>
<path d="M74.5833 27.3333V28.4667C76.2302 29.4119 77.5131 30.8814 78.2276 32.6407C78.942 34.4001 79.0467 36.348 78.525 38.1738C78.0034 39.9997 76.8854 41.5982 75.3493 42.7146C73.8133 43.8309 71.9476 44.4008 70.05 44.3333H64.6666C62.7243 44.2015 60.8737 43.4574 59.3807 42.208C57.8877 40.9586 56.8291 39.2682 56.357 37.3795C55.8848 35.4908 56.0234 33.5011 56.7528 31.6961C57.4822 29.8911 58.7649 28.3637 60.4166 27.3333C60.4166 25.4547 61.1629 23.653 62.4913 22.3247C63.8197 20.9963 65.6213 20.25 67.5 20.25C69.3786 20.25 71.1803 20.9963 72.5086 22.3247C73.837 23.653 74.5833 25.4547 74.5833 27.3333Z" stroke="#7A7A7A" stroke-width="2" stroke-linecap="round" stroke-linejoin="round"/>
<path d="M70.3333 35.834L67.5 38.6673" stroke="#7A7A7A" stroke-width="2" stroke-linecap="round" stroke-linejoin="round"/>
<path d="M32.1932 70C32.0838 69.6652 31.9396 69.3653 31.7607 69.1001C31.585 68.8317 31.3745 68.603 31.1293 68.4141C30.8873 68.2251 30.6122 68.081 30.304 67.9815C29.9957 67.8821 29.6577 67.8324 29.2898 67.8324C28.6866 67.8324 28.138 67.9882 27.6442 68.2997C27.1503 68.6113 26.7576 69.0703 26.4659 69.6768C26.1742 70.2834 26.0284 71.0275 26.0284 71.9091C26.0284 72.7907 26.1759 73.5348 26.4709 74.1413C26.7659 74.7479 27.1652 75.2069 27.669 75.5185C28.1728 75.83 28.7396 75.9858 29.3693 75.9858C29.9527 75.9858 30.4664 75.8615 30.9105 75.6129C31.358 75.361 31.706 75.0064 31.9545 74.549C32.2064 74.0883 32.3324 73.5464 32.3324 72.9233L32.7102 73.0028H29.6477V71.9091H33.5256V73.0028C33.5256 73.8414 33.3466 74.5705 32.9886 75.1903C32.634 75.8101 32.1435 76.2907 31.517 76.6321C30.8939 76.9702 30.178 77.1392 29.3693 77.1392C28.4678 77.1392 27.6757 76.9271 26.9929 76.5028C26.3134 76.0786 25.7831 75.4754 25.402 74.6932C25.0241 73.911 24.8352 72.983 24.8352 71.9091C24.8352 71.1037 24.9429 70.3795 25.1584 69.7365C25.3771 69.0902 25.6854 68.54 26.0831 68.0859C26.4808 67.6319 26.9515 67.2839 27.495 67.0419C28.0386 66.8 28.6368 66.679 29.2898 66.679C29.8267 66.679 30.3272 66.7602 30.7912 66.9226C31.2585 67.0817 31.6745 67.3087 32.0391 67.6037C32.407 67.8954 32.7135 68.245 32.9588 68.6527C33.2041 69.0571 33.3731 69.5062 33.4659 70H32.1932ZM37.7253 77.179C37.2414 77.179 36.8023 77.0878 36.4078 76.9055C36.0134 76.7199 35.7002 76.4531 35.4682 76.1051C35.2362 75.7538 35.1202 75.3295 35.1202 74.8324C35.1202 74.3949 35.2064 74.0402 35.3787 73.7685C35.5511 73.4934 35.7814 73.2779 36.0698 73.1222C36.3581 72.9664 36.6763 72.8504 37.0243 72.7741C37.3757 72.6946 37.7286 72.6316 38.0833 72.5852C38.5473 72.5256 38.9235 72.4808 39.2118 72.451C39.5035 72.4179 39.7156 72.3632 39.8482 72.2869C39.9841 72.2107 40.052 72.0781 40.052 71.8892V71.8494C40.052 71.3589 39.9178 70.9777 39.6493 70.706C39.3842 70.4342 38.9815 70.2983 38.4412 70.2983C37.8811 70.2983 37.4419 70.4209 37.1238 70.6662C36.8056 70.9115 36.5819 71.1733 36.4526 71.4517L35.339 71.054C35.5378 70.59 35.803 70.2287 36.1344 69.9702C36.4692 69.7083 36.8337 69.526 37.2282 69.4233C37.6259 69.3172 38.017 69.2642 38.4015 69.2642C38.6467 69.2642 38.9284 69.294 39.2466 69.3537C39.5681 69.41 39.878 69.5277 40.1763 69.7067C40.4779 69.8857 40.7282 70.1558 40.927 70.517C41.1259 70.8783 41.2253 71.3622 41.2253 71.9688V77H40.052V75.9659H39.9924C39.9128 76.1316 39.7802 76.3089 39.5946 76.4979C39.409 76.6868 39.1621 76.8475 38.8539 76.9801C38.5456 77.1127 38.1694 77.179 37.7253 77.179ZM37.9043 76.125C38.3683 76.125 38.7594 76.0339 39.0776 75.8516C39.3991 75.6693 39.641 75.4339 39.8034 75.1456C39.9692 74.8572 40.052 74.554 40.052 74.2358V73.1619C40.0023 73.2216 39.8929 73.2763 39.7239 73.326C39.5582 73.3724 39.3659 73.4138 39.1472 73.4503C38.9318 73.4834 38.7213 73.5133 38.5158 73.5398C38.3136 73.563 38.1496 73.5829 38.0236 73.5994C37.7187 73.6392 37.4337 73.7038 37.1685 73.7933C36.9067 73.8795 36.6945 74.0104 36.5321 74.1861C36.373 74.3584 36.2935 74.5937 36.2935 74.892C36.2935 75.2997 36.4443 75.608 36.7459 75.8168C37.0508 76.0223 37.437 76.125 37.9043 76.125ZM43.3668 77V69.3636H44.5004V70.517H44.5799C44.7191 70.1392 44.971 69.8326 45.3356 69.5973C45.7002 69.362 46.1112 69.2443 46.5685 69.2443C46.6547 69.2443 46.7624 69.246 46.8917 69.2493C47.021 69.2526 47.1187 69.2576 47.185 69.2642V70.4574C47.1452 70.4474 47.0541 70.4325 46.9116 70.4126C46.7724 70.3894 46.6249 70.3778 46.4691 70.3778C46.0979 70.3778 45.7665 70.4557 45.4748 70.6115C45.1864 70.764 44.9577 70.9761 44.7887 71.2479C44.623 71.5163 44.5401 71.8229 44.5401 72.1676V77H43.3668ZM51.2269 77.1591C50.5906 77.1591 50.0288 76.9983 49.5415 76.6768C49.0543 76.352 48.6732 75.8946 48.3981 75.3047C48.123 74.7114 47.9854 74.0104 47.9854 73.2017C47.9854 72.3996 48.123 71.7036 48.3981 71.1136C48.6732 70.5237 49.056 70.0679 49.5465 69.7464C50.0371 69.425 50.6038 69.2642 51.2468 69.2642C51.744 69.2642 52.1367 69.3471 52.4251 69.5128C52.7167 69.6752 52.9388 69.8608 53.0913 70.0696C53.247 70.2751 53.368 70.4441 53.4542 70.5767H53.5536V66.8182H54.7269V77H53.5934V75.8267H53.4542C53.368 75.9659 53.2454 76.1416 53.0863 76.3537C52.9272 76.5625 52.7002 76.7498 52.4052 76.9155C52.1102 77.0779 51.7174 77.1591 51.2269 77.1591ZM51.386 76.1051C51.8567 76.1051 52.2544 75.9825 52.5792 75.7372C52.904 75.4886 53.1509 75.1456 53.32 74.7081C53.489 74.2673 53.5735 73.7585 53.5735 73.1818C53.5735 72.6117 53.4906 72.1129 53.3249 71.6854C53.1592 71.2545 52.9139 70.9197 52.5891 70.6811C52.2643 70.4392 51.8633 70.3182 51.386 70.3182C50.8888 70.3182 50.4746 70.4458 50.1431 70.701C49.815 70.9529 49.5681 71.2959 49.4023 71.7301C49.2399 72.161 49.1587 72.6449 49.1587 73.1818C49.1587 73.7254 49.2416 74.2192 49.4073 74.6634C49.5763 75.1042 49.8249 75.4555 50.1531 75.7173C50.4845 75.9759 50.8955 76.1051 51.386 76.1051ZM60.2404 77.1591C59.5046 77.1591 58.8699 76.9967 58.3363 76.6719C57.806 76.3438 57.3967 75.8864 57.1083 75.2997C56.8233 74.7098 56.6808 74.0237 56.6808 73.2415C56.6808 72.4593 56.8233 71.7699 57.1083 71.1733C57.3967 70.5734 57.7977 70.1061 58.3114 69.7713C58.8285 69.4332 59.4317 69.2642 60.1211 69.2642C60.5188 69.2642 60.9116 69.3305 61.2994 69.4631C61.6871 69.5956 62.0401 69.8111 62.3583 70.1094C62.6765 70.4044 62.93 70.7955 63.119 71.2827C63.3079 71.7699 63.4023 72.3698 63.4023 73.0824V73.5795H57.516V72.5653H62.2092C62.2092 72.1345 62.123 71.75 61.9506 71.4119C61.7816 71.0739 61.5397 70.8071 61.2248 70.6115C60.9132 70.416 60.5453 70.3182 60.1211 70.3182C59.6538 70.3182 59.2494 70.4342 58.908 70.6662C58.57 70.8949 58.3098 71.1932 58.1275 71.5611C57.9452 71.929 57.854 72.3234 57.854 72.7443V73.4205C57.854 73.9972 57.9535 74.486 58.1523 74.8871C58.3545 75.2848 58.6346 75.5881 58.9925 75.7969C59.3505 76.0024 59.7665 76.1051 60.2404 76.1051C60.5487 76.1051 60.8271 76.062 61.0756 75.9759C61.3275 75.8864 61.5446 75.7538 61.7269 75.5781C61.9092 75.3991 62.0501 75.1771 62.1495 74.9119L63.283 75.2301C63.1637 75.6146 62.9632 75.9527 62.6815 76.2443C62.3997 76.5327 62.0517 76.758 61.6374 76.9205C61.2231 77.0795 60.7575 77.1591 60.2404 77.1591ZM66.3604 72.4062V77H65.1871V69.3636H66.3207V70.5568H66.4201C66.5991 70.169 66.8709 69.8575 67.2354 69.6222C67.6 69.3835 68.0707 69.2642 68.6474 69.2642C69.1644 69.2642 69.6168 69.3703 70.0046 69.5824C70.3924 69.7912 70.694 70.1094 70.9094 70.5369C71.1249 70.9612 71.2326 71.4981 71.2326 72.1477V77H70.0593V72.2273C70.0593 71.6274 69.9035 71.16 69.592 70.8253C69.2804 70.4872 68.8529 70.3182 68.3093 70.3182C67.9348 70.3182 67.6 70.3994 67.305 70.5618C67.0134 70.7242 66.783 70.9612 66.614 71.2727C66.445 71.5843 66.3604 71.9621 66.3604 72.4062ZM76.976 66.3409L73.6948 78.5312H72.6209L75.9022 66.3409H76.976ZM82.4634 77V66.8182H85.9038C86.7025 66.8182 87.3555 66.9624 87.8626 67.2507C88.373 67.5357 88.7508 67.9219 88.9961 68.4091C89.2414 68.8963 89.364 69.4399 89.364 70.0398C89.364 70.6397 89.2414 71.1849 88.9961 71.6754C88.7541 72.166 88.3796 72.5571 87.8725 72.8487C87.3654 73.1371 86.7158 73.2812 85.9237 73.2812H83.4577V72.1875H85.8839C86.4308 72.1875 86.8699 72.093 87.2013 71.9041C87.5328 71.7152 87.7731 71.46 87.9222 71.1385C88.0747 70.8137 88.1509 70.4474 88.1509 70.0398C88.1509 69.6321 88.0747 69.2675 87.9222 68.946C87.7731 68.6245 87.5311 68.3726 87.1964 68.1903C86.8616 68.0047 86.4175 67.9119 85.864 67.9119H83.6964V77H82.4634ZM93.4382 77.179C92.9543 77.179 92.5152 77.0878 92.1207 76.9055C91.7263 76.7199 91.4131 76.4531 91.1811 76.1051C90.9491 75.7538 90.8331 75.3295 90.8331 74.8324C90.8331 74.3949 90.9193 74.0402 91.0916 73.7685C91.264 73.4934 91.4943 73.2779 91.7827 73.1222C92.071 72.9664 92.3892 72.8504 92.7372 72.7741C93.0885 72.6946 93.4415 72.6316 93.7962 72.5852C94.2602 72.5256 94.6364 72.4808 94.9247 72.451C95.2164 72.4179 95.4285 72.3632 95.5611 72.2869C95.697 72.2107 95.7649 72.0781 95.7649 71.8892V71.8494C95.7649 71.3589 95.6307 70.9777 95.3622 70.706C95.0971 70.4342 94.6944 70.2983 94.1541 70.2983C93.594 70.2983 93.1548 70.4209 92.8366 70.6662C92.5185 70.9115 92.2947 71.1733 92.1655 71.4517L91.0518 71.054C91.2507 70.59 91.5159 70.2287 91.8473 69.9702C92.1821 69.7083 92.5466 69.526 92.9411 69.4233C93.3388 69.3172 93.7299 69.2642 94.1143 69.2642C94.3596 69.2642 94.6413 69.294 94.9595 69.3537C95.281 69.41 95.5909 69.5277 95.8892 69.7067C96.1908 69.8857 96.4411 70.1558 96.6399 70.517C96.8388 70.8783 96.9382 71.3622 96.9382 71.9688V77H95.7649V75.9659H95.7053C95.6257 76.1316 95.4931 76.3089 95.3075 76.4979C95.1219 76.6868 94.875 76.8475 94.5668 76.9801C94.2585 77.1127 93.8823 77.179 93.4382 77.179ZM93.6172 76.125C94.0812 76.125 94.4723 76.0339 94.7905 75.8516C95.112 75.6693 95.3539 75.4339 95.5163 75.1456C95.6821 74.8572 95.7649 74.554 95.7649 74.2358V73.1619C95.7152 73.2216 95.6058 73.2763 95.4368 73.326C95.2711 73.3724 95.0788 73.4138 94.8601 73.4503C94.6446 73.4834 94.4342 73.5133 94.2287 73.5398C94.0265 73.563 93.8625 73.5829 93.7365 73.5994C93.4316 73.6392 93.1465 73.7038 92.8814 73.7933C92.6196 73.8795 92.4074 74.0104 92.245 74.1861C92.0859 74.3584 92.0064 74.5937 92.0064 74.892C92.0064 75.2997 92.1572 75.608 92.4588 75.8168C92.7637 76.0223 93.1499 76.125 93.6172 76.125ZM99.0797 77V69.3636H100.213V70.517H100.293C100.432 70.1392 100.684 69.8326 101.048 69.5973C101.413 69.362 101.824 69.2443 102.281 69.2443C102.368 69.2443 102.475 69.246 102.605 69.2493C102.734 69.2526 102.832 69.2576 102.898 69.2642V70.4574C102.858 70.4474 102.767 70.4325 102.624 70.4126C102.485 70.3894 102.338 70.3778 102.182 70.3778C101.811 70.3778 101.479 70.4557 101.188 70.6115C100.899 70.764 100.671 70.9761 100.502 71.2479C100.336 71.5163 100.253 71.8229 100.253 72.1676V77H99.0797ZM105.382 74.2159L105.363 72.7642H105.601L108.942 69.3636H110.394L106.834 72.9631H106.735L105.382 74.2159ZM104.289 77V66.8182H105.462V77H104.289ZM109.141 77L106.158 73.2216L106.993 72.4062L110.632 77H109.141Z" fill="#7A7A7A"/>
</svg>
