<svg width="135" height="96" viewBox="0 0 135 96" fill="none" xmlns="http://www.w3.org/2000/svg">
<path d="M70.8996 36.3996L64.0996 29.5996" stroke="#7A7A7A" stroke-width="2" stroke-linecap="round" stroke-linejoin="round"/>
<path d="M76.9308 46.4371C76.3995 46.9686 75.6789 47.2673 74.9274 47.2674C74.176 47.2675 73.4552 46.9691 72.9238 46.4379C72.3923 45.9066 72.0937 45.1859 72.0935 44.4345C72.0934 43.683 72.3918 42.9623 72.9231 42.4308L70.4198 44.9355C69.8884 45.4669 69.1675 45.7655 68.4159 45.7655C67.6643 45.7655 66.9435 45.4669 66.4121 44.9355C65.8806 44.404 65.582 43.6832 65.582 42.9316C65.582 42.18 65.8806 41.4592 66.4121 40.9277L75.4277 31.9121C75.9592 31.3806 76.68 31.082 77.4316 31.082C78.1832 31.082 78.904 31.3806 79.4355 31.9121C79.9669 32.4435 80.2655 33.1643 80.2655 33.9159C80.2655 34.6675 79.9669 35.3884 79.4355 35.9198L76.9308 38.4231C77.4623 37.8918 78.183 37.5934 78.9345 37.5935C79.6859 37.5937 80.4066 37.8923 80.9379 38.4238C81.4691 38.9552 81.7675 39.676 81.7674 40.4274C81.7673 41.1789 81.4686 41.8995 80.9371 42.4308L76.9308 46.4371Z" stroke="#7A7A7A" stroke-width="2" stroke-linecap="round" stroke-linejoin="round"/>
<path d="M80.9579 46.4579L78.9746 44.4746" stroke="#7A7A7A" stroke-width="2" stroke-linecap="round" stroke-linejoin="round"/>
<path d="M56.0243 21.5243L54.041 19.541" stroke="#7A7A7A" stroke-width="2" stroke-linecap="round" stroke-linejoin="round"/>
<path d="M59.5721 34.0877C59.0406 34.6192 58.3198 34.9178 57.5682 34.9178C56.8166 34.9178 56.0958 34.6192 55.5643 34.0877C55.0329 33.5563 54.7343 32.8355 54.7343 32.0839C54.7343 31.3323 55.0329 30.6115 55.5643 30.08L58.069 27.5767C57.8058 27.8398 57.4935 28.0485 57.1497 28.1908C56.8059 28.3331 56.4374 28.4063 56.0653 28.4063C55.3139 28.4061 54.5932 28.1075 54.062 27.576C53.7989 27.3129 53.5902 27.0005 53.4479 26.6567C53.3056 26.3129 53.2324 25.9445 53.2324 25.5724C53.2326 24.8209 53.5312 24.1003 54.0627 23.569L58.069 19.5627C58.6003 19.0312 59.3209 18.7326 60.0724 18.7324C60.4445 18.7324 60.8129 18.8056 61.1567 18.9479C61.5005 19.0902 61.8129 19.2989 62.076 19.562C62.3392 19.825 62.548 20.1373 62.6904 20.4811C62.8329 20.8248 62.9062 21.1932 62.9063 21.5653C62.9063 21.9374 62.8331 22.3059 62.6908 22.6497C62.5485 22.9935 62.3398 23.3058 62.0767 23.569L64.58 21.0643C65.1115 20.5329 65.8323 20.2343 66.5839 20.2343C67.3355 20.2343 68.0563 20.5329 68.5877 21.0643C69.1192 21.5958 69.4178 22.3166 69.4178 23.0682C69.4178 23.8198 69.1192 24.5406 68.5877 25.0721L59.5721 34.0877Z" stroke="#7A7A7A" stroke-width="2" stroke-linecap="round" stroke-linejoin="round"/>
<path d="M22.733 77V66.8182H26.1733C26.9721 66.8182 27.625 66.9624 28.1321 67.2507C28.6425 67.5357 29.0204 67.9219 29.2656 68.4091C29.5109 68.8963 29.6335 69.4399 29.6335 70.0398C29.6335 70.6397 29.5109 71.1849 29.2656 71.6754C29.0237 72.166 28.6491 72.5571 28.142 72.8487C27.6349 73.1371 26.9853 73.2812 26.1932 73.2812H23.7273V72.1875H26.1534C26.7003 72.1875 27.1394 72.093 27.4709 71.9041C27.8023 71.7152 28.0426 71.46 28.1918 71.1385C28.3442 70.8137 28.4205 70.4474 28.4205 70.0398C28.4205 69.6321 28.3442 69.2675 28.1918 68.946C28.0426 68.6245 27.8007 68.3726 27.4659 68.1903C27.1312 68.0047 26.687 67.9119 26.1335 67.9119H23.9659V77H22.733ZM31.4606 77V69.3636H32.5941V70.517H32.6737C32.8129 70.1392 33.0647 69.8326 33.4293 69.5973C33.7939 69.362 34.2049 69.2443 34.6623 69.2443C34.7485 69.2443 34.8562 69.246 34.9854 69.2493C35.1147 69.2526 35.2125 69.2576 35.2788 69.2642V70.4574C35.239 70.4474 35.1478 70.4325 35.0053 70.4126C34.8661 70.3894 34.7186 70.3778 34.5629 70.3778C34.1916 70.3778 33.8602 70.4557 33.5685 70.6115C33.2802 70.764 33.0515 70.9761 32.8825 71.2479C32.7167 71.5163 32.6339 71.8229 32.6339 72.1676V77H31.4606ZM39.5394 77.1591C38.85 77.1591 38.2451 76.995 37.7248 76.6669C37.2077 76.3388 36.8034 75.8797 36.5117 75.2898C36.2234 74.6998 36.0792 74.0104 36.0792 73.2216C36.0792 72.4261 36.2234 71.7318 36.5117 71.1385C36.8034 70.5452 37.2077 70.0845 37.7248 69.7564C38.2451 69.4283 38.85 69.2642 39.5394 69.2642C40.2288 69.2642 40.832 69.4283 41.3491 69.7564C41.8694 70.0845 42.2738 70.5452 42.5621 71.1385C42.8538 71.7318 42.9996 72.4261 42.9996 73.2216C42.9996 74.0104 42.8538 74.6998 42.5621 75.2898C42.2738 75.8797 41.8694 76.3388 41.3491 76.6669C40.832 76.995 40.2288 77.1591 39.5394 77.1591ZM39.5394 76.1051C40.0631 76.1051 40.494 75.9709 40.832 75.7024C41.1701 75.4339 41.4203 75.081 41.5827 74.6435C41.7451 74.206 41.8263 73.732 41.8263 73.2216C41.8263 72.7112 41.7451 72.2356 41.5827 71.7947C41.4203 71.3539 41.1701 70.9976 40.832 70.7259C40.494 70.4541 40.0631 70.3182 39.5394 70.3182C39.0157 70.3182 38.5849 70.4541 38.2468 70.7259C37.9087 70.9976 37.6585 71.3539 37.4961 71.7947C37.3337 72.2356 37.2525 72.7112 37.2525 73.2216C37.2525 73.732 37.3337 74.206 37.4961 74.6435C37.6585 75.081 37.9087 75.4339 38.2468 75.7024C38.5849 75.9709 39.0157 76.1051 39.5394 76.1051ZM44.7907 79.8636V69.3636H45.9242V70.5767H46.0634C46.1496 70.4441 46.2689 70.2751 46.4213 70.0696C46.5771 69.8608 46.7992 69.6752 47.0875 69.5128C47.3792 69.3471 47.7736 69.2642 48.2708 69.2642C48.9138 69.2642 49.4805 69.425 49.9711 69.7464C50.4616 70.0679 50.8444 70.5237 51.1195 71.1136C51.3946 71.7036 51.5321 72.3996 51.5321 73.2017C51.5321 74.0104 51.3946 74.7114 51.1195 75.3047C50.8444 75.8946 50.4632 76.352 49.976 76.6768C49.4888 76.9983 48.927 77.1591 48.2907 77.1591C47.8001 77.1591 47.4074 77.0779 47.1124 76.9155C46.8174 76.7498 46.5904 76.5625 46.4313 76.3537C46.2722 76.1416 46.1496 75.9659 46.0634 75.8267H45.964V79.8636H44.7907ZM45.9441 73.1818C45.9441 73.7585 46.0286 74.2673 46.1976 74.7081C46.3667 75.1456 46.6136 75.4886 46.9384 75.7372C47.2632 75.9825 47.6609 76.1051 48.1316 76.1051C48.6221 76.1051 49.0314 75.9759 49.3596 75.7173C49.691 75.4555 49.9396 75.1042 50.1053 74.6634C50.2743 74.2192 50.3588 73.7254 50.3588 73.1818C50.3588 72.6449 50.276 72.161 50.1103 71.7301C49.9479 71.2959 49.7009 70.9529 49.3695 70.701C49.0414 70.4458 48.6287 70.3182 48.1316 70.3182C47.6543 70.3182 47.2533 70.4392 46.9284 70.6811C46.6036 70.9197 46.3584 71.2545 46.1926 71.6854C46.0269 72.1129 45.9441 72.6117 45.9441 73.1818ZM56.5236 77.1591C55.7878 77.1591 55.1531 76.9967 54.6195 76.6719C54.0892 76.3438 53.6799 75.8864 53.3915 75.2997C53.1065 74.7098 52.964 74.0237 52.964 73.2415C52.964 72.4593 53.1065 71.7699 53.3915 71.1733C53.6799 70.5734 54.0809 70.1061 54.5946 69.7713C55.1117 69.4332 55.7149 69.2642 56.4043 69.2642C56.802 69.2642 57.1948 69.3305 57.5826 69.4631C57.9703 69.5956 58.3233 69.8111 58.6415 70.1094C58.9597 70.4044 59.2132 70.7955 59.4022 71.2827C59.5911 71.7699 59.6855 72.3698 59.6855 73.0824V73.5795H53.7992V72.5653H58.4924C58.4924 72.1345 58.4062 71.75 58.2338 71.4119C58.0648 71.0739 57.8229 70.8071 57.508 70.6115C57.1964 70.416 56.8285 70.3182 56.4043 70.3182C55.937 70.3182 55.5326 70.4342 55.1912 70.6662C54.8532 70.8949 54.593 71.1932 54.4107 71.5611C54.2284 71.929 54.1373 72.3234 54.1373 72.7443V73.4205C54.1373 73.9972 54.2367 74.486 54.4355 74.8871C54.6377 75.2848 54.9178 75.5881 55.2757 75.7969C55.6337 76.0024 56.0497 76.1051 56.5236 76.1051C56.8319 76.1051 57.1103 76.062 57.3588 75.9759C57.6107 75.8864 57.8278 75.7538 58.0101 75.5781C58.1924 75.3991 58.3333 75.1771 58.4327 74.9119L59.5662 75.2301C59.4469 75.6146 59.2464 75.9527 58.9647 76.2443C58.6829 76.5327 58.3349 76.758 57.9206 76.9205C57.5063 77.0795 57.0407 77.1591 56.5236 77.1591ZM61.4703 77V69.3636H62.6039V70.517H62.6834C62.8226 70.1392 63.0745 69.8326 63.4391 69.5973C63.8037 69.362 64.2147 69.2443 64.6721 69.2443C64.7582 69.2443 64.8659 69.246 64.9952 69.2493C65.1245 69.2526 65.2222 69.2576 65.2885 69.2642V70.4574C65.2488 70.4474 65.1576 70.4325 65.0151 70.4126C64.8759 70.3894 64.7284 70.3778 64.5726 70.3778C64.2014 70.3778 63.87 70.4557 63.5783 70.6115C63.29 70.764 63.0613 70.9761 62.8922 71.2479C62.7265 71.5163 62.6436 71.8229 62.6436 72.1676V77H61.4703ZM70.4789 69.3636V70.358H66.5215V69.3636H70.4789ZM67.6749 67.5341H68.8482V74.8125C68.8482 75.1439 68.8962 75.3925 68.9924 75.5582C69.0918 75.7206 69.2177 75.83 69.3702 75.8864C69.526 75.9394 69.69 75.9659 69.8624 75.9659C69.9917 75.9659 70.0977 75.9593 70.1806 75.946C70.2634 75.9295 70.3297 75.9162 70.3794 75.9062L70.6181 76.9602C70.5385 76.9901 70.4275 77.0199 70.285 77.0497C70.1425 77.0829 69.9618 77.0994 69.7431 77.0994C69.4116 77.0994 69.0868 77.0282 68.7686 76.8857C68.4538 76.7431 68.1919 76.526 67.9831 76.2344C67.7776 75.9427 67.6749 75.5748 67.6749 75.1307V67.5341ZM72.9995 79.8636C72.8006 79.8636 72.6233 79.8471 72.4675 79.8139C72.3117 79.7841 72.204 79.7543 72.1444 79.7244L72.4426 78.6903C72.7277 78.7633 72.9796 78.7898 73.1983 78.7699C73.4171 78.75 73.611 78.6522 73.78 78.4766C73.9524 78.3042 74.1098 78.0241 74.2523 77.6364L74.4711 77.0398L71.6472 69.3636H72.9199L75.0279 75.4489H75.1074L77.2154 69.3636H78.4881L75.2466 78.1136C75.1008 78.508 74.9202 78.8345 74.7047 79.093C74.4893 79.3549 74.2391 79.5488 73.954 79.6747C73.6723 79.8007 73.3541 79.8636 72.9995 79.8636ZM91.0936 70C90.9842 69.6652 90.84 69.3653 90.661 69.1001C90.4854 68.8317 90.2749 68.603 90.0297 68.4141C89.7877 68.2251 89.5126 68.081 89.2044 67.9815C88.8961 67.8821 88.5581 67.8324 88.1902 67.8324C87.5869 67.8324 87.0384 67.9882 86.5446 68.2997C86.0507 68.6113 85.658 69.0703 85.3663 69.6768C85.0746 70.2834 84.9288 71.0275 84.9288 71.9091C84.9288 72.7907 85.0763 73.5348 85.3713 74.1413C85.6663 74.7479 86.0656 75.2069 86.5694 75.5185C87.0732 75.83 87.64 75.9858 88.2697 75.9858C88.853 75.9858 89.3668 75.8615 89.8109 75.6129C90.2583 75.361 90.6064 75.0064 90.8549 74.549C91.1068 74.0883 91.2328 73.5464 91.2328 72.9233L91.6106 73.0028H88.5481V71.9091H92.426V73.0028C92.426 73.8414 92.247 74.5705 91.889 75.1903C91.5344 75.8101 91.0439 76.2907 90.4174 76.6321C89.7943 76.9702 89.0784 77.1392 88.2697 77.1392C87.3682 77.1392 86.5761 76.9271 85.8933 76.5028C85.2138 76.0786 84.6835 75.4754 84.3024 74.6932C83.9245 73.911 83.7356 72.983 83.7356 71.9091C83.7356 71.1037 83.8433 70.3795 84.0588 69.7365C84.2775 69.0902 84.5858 68.54 84.9835 68.0859C85.3812 67.6319 85.8519 67.2839 86.3954 67.0419C86.939 66.8 87.5372 66.679 88.1902 66.679C88.7271 66.679 89.2276 66.7602 89.6916 66.9226C90.1589 67.0817 90.5749 67.3087 90.9395 67.6037C91.3074 67.8954 91.6139 68.245 91.8592 68.6527C92.1045 69.0571 92.2735 69.5062 92.3663 70H91.0936ZM95.1342 79.8636C94.9354 79.8636 94.758 79.8471 94.6023 79.8139C94.4465 79.7841 94.3388 79.7543 94.2791 79.7244L94.5774 78.6903C94.8625 78.7633 95.1143 78.7898 95.3331 78.7699C95.5518 78.75 95.7457 78.6522 95.9148 78.4766C96.0871 78.3042 96.2446 78.0241 96.3871 77.6364L96.6058 77.0398L93.782 69.3636H95.0547L97.1626 75.4489H97.2422L99.3501 69.3636H100.623L97.3814 78.1136C97.2356 78.508 97.0549 78.8345 96.8395 79.093C96.6241 79.3549 96.3738 79.5488 96.0888 79.6747C95.8071 79.8007 95.4889 79.8636 95.1342 79.8636ZM102.172 77V69.3636H103.305V70.5568H103.404C103.564 70.1491 103.82 69.8326 104.175 69.6072C104.53 69.3786 104.956 69.2642 105.453 69.2642C105.957 69.2642 106.376 69.3786 106.711 69.6072C107.049 69.8326 107.312 70.1491 107.501 70.5568H107.581C107.776 70.1624 108.069 69.8492 108.461 69.6172C108.852 69.3819 109.321 69.2642 109.868 69.2642C110.55 69.2642 111.109 69.478 111.543 69.9055C111.977 70.3298 112.194 70.991 112.194 71.8892V77H111.021V71.8892C111.021 71.3258 110.867 70.9231 110.559 70.6811C110.25 70.4392 109.887 70.3182 109.47 70.3182C108.933 70.3182 108.517 70.4806 108.222 70.8054C107.927 71.1269 107.779 71.5346 107.779 72.0284V77H106.586V71.7699C106.586 71.3357 106.445 70.986 106.164 70.7209C105.882 70.4524 105.519 70.3182 105.075 70.3182C104.77 70.3182 104.485 70.3994 104.22 70.5618C103.958 70.7242 103.746 70.9496 103.583 71.2379C103.424 71.523 103.345 71.8527 103.345 72.2273V77H102.172Z" fill="#7A7A7A"/>
</svg>
