<svg width="79" height="28" viewBox="0 0 79 28" fill="none" xmlns="http://www.w3.org/2000/svg">
<path d="M5 12L11 18" stroke="black" stroke-width="2" stroke-linecap="round" stroke-linejoin="round"/>
<path d="M4 18L10 12L12 9" stroke="black" stroke-width="2" stroke-linecap="round" stroke-linejoin="round"/>
<path d="M2 9H14" stroke="black" stroke-width="2" stroke-linecap="round" stroke-linejoin="round"/>
<path d="M7 6H8" stroke="black" stroke-width="2" stroke-linecap="round" stroke-linejoin="round"/>
<path d="M22 26L17 16L12 26" stroke="black" stroke-width="2" stroke-linecap="round" stroke-linejoin="round"/>
<path d="M14 22H20" stroke="black" stroke-width="2" stroke-linecap="round" stroke-linejoin="round"/>
<path d="M68.5 15.375C70.9162 15.375 72.875 13.4162 72.875 11C72.875 8.58375 70.9162 6.625 68.5 6.625C66.0838 6.625 64.125 8.58375 64.125 11C64.125 13.4162 66.0838 15.375 68.5 15.375Z" stroke="black" stroke-width="2" stroke-linecap="round" stroke-linejoin="round"/>
<path d="M75.5 22.375C75.5 20.5185 74.7625 18.738 73.4497 17.4253C72.137 16.1125 70.3565 15.375 68.5 15.375C66.6435 15.375 64.863 16.1125 63.5503 17.4253C62.2375 18.738 61.5 20.5185 61.5 22.375" stroke="black" stroke-width="2" stroke-linecap="round" stroke-linejoin="round"/>
</svg>
