<svg width="135" height="96" viewBox="0 0 135 96" fill="none" xmlns="http://www.w3.org/2000/svg">
<path d="M75.5007 18.834H59.5007C58.0279 18.834 56.834 20.1025 56.834 21.6673V44.334C56.834 45.8988 58.0279 47.1673 59.5007 47.1673H75.5007C76.9734 47.1673 78.1673 45.8988 78.1673 44.334V21.6673C78.1673 20.1025 76.9734 18.834 75.5007 18.834Z" stroke="#7A7A7A" stroke-width="2" stroke-linecap="round" stroke-linejoin="round"/>
<path d="M67.5 24.5H67.5133" stroke="#7A7A7A" stroke-width="2" stroke-linecap="round" stroke-linejoin="round"/>
<path d="M67.4993 41.4993C70.4449 41.4993 72.8327 38.9623 72.8327 35.8327C72.8327 32.7031 70.4449 30.166 67.4993 30.166C64.5538 30.166 62.166 32.7031 62.166 35.8327C62.166 38.9623 64.5538 41.4993 67.4993 41.4993Z" stroke="#7A7A7A" stroke-width="2" stroke-linecap="round" stroke-linejoin="round"/>
<path d="M67.5 35.834H67.5133" stroke="#7A7A7A" stroke-width="2" stroke-linecap="round" stroke-linejoin="round"/>
<path d="M40.4659 66.8182V77H39.233V66.8182H40.4659ZM43.9522 72.4062V77H42.7789V69.3636H43.9125V70.5568H44.0119C44.1909 70.169 44.4627 69.8575 44.8272 69.6222C45.1918 69.3835 45.6625 69.2642 46.2392 69.2642C46.7562 69.2642 47.2086 69.3703 47.5964 69.5824C47.9842 69.7912 48.2858 70.1094 48.5012 70.5369C48.7167 70.9612 48.8244 71.4981 48.8244 72.1477V77H47.6511V72.2273C47.6511 71.6274 47.4953 71.16 47.1838 70.8253C46.8722 70.4872 46.4447 70.3182 45.9011 70.3182C45.5266 70.3182 45.1918 70.3994 44.8968 70.5618C44.6052 70.7242 44.3748 70.9612 44.2058 71.2727C44.0368 71.5843 43.9522 71.9621 43.9522 72.4062ZM54.2894 69.3636V70.358H50.332V69.3636H54.2894ZM51.4854 67.5341H52.6587V74.8125C52.6587 75.1439 52.7068 75.3925 52.8029 75.5582C52.9023 75.7206 53.0283 75.83 53.1808 75.8864C53.3365 75.9394 53.5006 75.9659 53.6729 75.9659C53.8022 75.9659 53.9083 75.9593 53.9911 75.946C54.074 75.9295 54.1403 75.9162 54.19 75.9062L54.4286 76.9602C54.3491 76.9901 54.238 77.0199 54.0955 77.0497C53.953 77.0829 53.7724 77.0994 53.5536 77.0994C53.2222 77.0994 52.8974 77.0282 52.5792 76.8857C52.2643 76.7431 52.0025 76.526 51.7937 76.2344C51.5882 75.9427 51.4854 75.5748 51.4854 75.1307V67.5341ZM59.174 77.1591C58.4382 77.1591 57.8035 76.9967 57.2699 76.6719C56.7396 76.3438 56.3303 75.8864 56.0419 75.2997C55.7569 74.7098 55.6143 74.0237 55.6143 73.2415C55.6143 72.4593 55.7569 71.7699 56.0419 71.1733C56.3303 70.5734 56.7313 70.1061 57.245 69.7713C57.7621 69.4332 58.3653 69.2642 59.0547 69.2642C59.4524 69.2642 59.8452 69.3305 60.233 69.4631C60.6207 69.5956 60.9737 69.8111 61.2919 70.1094C61.6101 70.4044 61.8636 70.7955 62.0526 71.2827C62.2415 71.7699 62.3359 72.3698 62.3359 73.0824V73.5795H56.4496V72.5653H61.1428C61.1428 72.1345 61.0566 71.75 60.8842 71.4119C60.7152 71.0739 60.4732 70.8071 60.1584 70.6115C59.8468 70.416 59.4789 70.3182 59.0547 70.3182C58.5874 70.3182 58.183 70.4342 57.8416 70.6662C57.5036 70.8949 57.2434 71.1932 57.0611 71.5611C56.8788 71.929 56.7876 72.3234 56.7876 72.7443V73.4205C56.7876 73.9972 56.8871 74.486 57.0859 74.8871C57.2881 75.2848 57.5682 75.5881 57.9261 75.7969C58.2841 76.0024 58.7 76.1051 59.174 76.1051C59.4822 76.1051 59.7607 76.062 60.0092 75.9759C60.2611 75.8864 60.4782 75.7538 60.6605 75.5781C60.8428 75.3991 60.9837 75.1771 61.0831 74.9119L62.2166 75.2301C62.0973 75.6146 61.8968 75.9527 61.6151 76.2443C61.3333 76.5327 60.9853 76.758 60.571 76.9205C60.1567 77.0795 59.6911 77.1591 59.174 77.1591ZM64.1207 77V69.3636H65.2543V70.517H65.3338C65.473 70.1392 65.7249 69.8326 66.0895 69.5973C66.4541 69.362 66.8651 69.2443 67.3224 69.2443C67.4086 69.2443 67.5163 69.246 67.6456 69.2493C67.7749 69.2526 67.8726 69.2576 67.9389 69.2642V70.4574C67.8991 70.4474 67.808 70.4325 67.6655 70.4126C67.5263 70.3894 67.3788 70.3778 67.223 70.3778C66.8518 70.3778 66.5204 70.4557 66.2287 70.6115C65.9403 70.764 65.7116 70.9761 65.5426 71.2479C65.3769 71.5163 65.294 71.8229 65.294 72.1676V77H64.1207ZM72.1996 77.1591C71.4837 77.1591 70.8672 76.9901 70.3501 76.652C69.8331 76.3139 69.4354 75.8482 69.157 75.255C68.8786 74.6617 68.7393 73.9839 68.7393 73.2216C68.7393 72.446 68.8819 71.7616 69.1669 71.1683C69.4553 70.5717 69.8563 70.1061 70.37 69.7713C70.8871 69.4332 71.4903 69.2642 72.1797 69.2642C72.7166 69.2642 73.2005 69.3636 73.6314 69.5625C74.0623 69.7614 74.4152 70.0398 74.6903 70.3977C74.9654 70.7557 75.1361 71.1733 75.2024 71.6506H74.0291C73.9396 71.3026 73.7408 70.9943 73.4325 70.7259C73.1276 70.4541 72.7166 70.3182 72.1996 70.3182C71.7422 70.3182 71.3411 70.4375 70.9964 70.6761C70.6551 70.9115 70.3883 71.2446 70.196 71.6754C70.0071 72.103 69.9126 72.6051 69.9126 73.1818C69.9126 73.7718 70.0054 74.2855 70.1911 74.723C70.38 75.1605 70.6451 75.5002 70.9865 75.7422C71.3312 75.9841 71.7356 76.1051 72.1996 76.1051C72.5045 76.1051 72.7812 76.0521 73.0298 75.946C73.2784 75.84 73.4889 75.6875 73.6612 75.4886C73.8336 75.2898 73.9562 75.0511 74.0291 74.7727H75.2024C75.1361 75.2235 74.9721 75.6295 74.7102 75.9908C74.4517 76.3487 74.1087 76.6338 73.6811 76.8459C73.2569 77.0547 72.763 77.1591 72.1996 77.1591ZM80.0199 77.1591C79.3305 77.1591 78.7256 76.995 78.2053 76.6669C77.6882 76.3388 77.2839 75.8797 76.9922 75.2898C76.7038 74.6998 76.5597 74.0104 76.5597 73.2216C76.5597 72.4261 76.7038 71.7318 76.9922 71.1385C77.2839 70.5452 77.6882 70.0845 78.2053 69.7564C78.7256 69.4283 79.3305 69.2642 80.0199 69.2642C80.7093 69.2642 81.3125 69.4283 81.8295 69.7564C82.3499 70.0845 82.7543 70.5452 83.0426 71.1385C83.3343 71.7318 83.4801 72.4261 83.4801 73.2216C83.4801 74.0104 83.3343 74.6998 83.0426 75.2898C82.7543 75.8797 82.3499 76.3388 81.8295 76.6669C81.3125 76.995 80.7093 77.1591 80.0199 77.1591ZM80.0199 76.1051C80.5436 76.1051 80.9744 75.9709 81.3125 75.7024C81.6506 75.4339 81.9008 75.081 82.0632 74.6435C82.2256 74.206 82.3068 73.732 82.3068 73.2216C82.3068 72.7112 82.2256 72.2356 82.0632 71.7947C81.9008 71.3539 81.6506 70.9976 81.3125 70.7259C80.9744 70.4541 80.5436 70.3182 80.0199 70.3182C79.4962 70.3182 79.0653 70.4541 78.7273 70.7259C78.3892 70.9976 78.139 71.3539 77.9766 71.7947C77.8142 72.2356 77.733 72.7112 77.733 73.2216C77.733 73.732 77.8142 74.206 77.9766 74.6435C78.139 75.081 78.3892 75.4339 78.7273 75.7024C79.0653 75.9709 79.4962 76.1051 80.0199 76.1051ZM85.2711 77V69.3636H86.4047V70.5568H86.5041C86.6632 70.1491 86.92 69.8326 87.2747 69.6072C87.6293 69.3786 88.0552 69.2642 88.5524 69.2642C89.0562 69.2642 89.4754 69.3786 89.8102 69.6072C90.1483 69.8326 90.4118 70.1491 90.6007 70.5568H90.6802C90.8758 70.1624 91.1691 69.8492 91.5602 69.6172C91.9513 69.3819 92.4203 69.2642 92.9672 69.2642C93.6499 69.2642 94.2084 69.478 94.6426 69.9055C95.0768 70.3298 95.2939 70.991 95.2939 71.8892V77H94.1206V71.8892C94.1206 71.3258 93.9664 70.9231 93.6582 70.6811C93.35 70.4392 92.987 70.3182 92.5694 70.3182C92.0325 70.3182 91.6165 70.4806 91.3216 70.8054C91.0266 71.1269 90.8791 71.5346 90.8791 72.0284V77H89.6859V71.7699C89.6859 71.3357 89.545 70.986 89.2633 70.7209C88.9816 70.4524 88.6187 70.3182 88.1745 70.3182C87.8696 70.3182 87.5846 70.3994 87.3194 70.5618C87.0576 70.7242 86.8455 70.9496 86.6831 71.2379C86.524 71.523 86.4444 71.8527 86.4444 72.2273V77H85.2711Z" fill="#7A7A7A"/>
</svg>
