<svg width="136" height="96" viewBox="0 0 136 96" fill="none" xmlns="http://www.w3.org/2000/svg">
<g clip-path="url(#clip0_67_5929)">
<path d="M59.334 42.9173V23.084" stroke="#7A7A7A" stroke-width="2" stroke-linecap="round" stroke-linejoin="round"/>
<path d="M65 42.9161V25.6328" stroke="#7A7A7A" stroke-width="2" stroke-linecap="round" stroke-linejoin="round"/>
<path d="M70.668 42.9172V31.8672" stroke="#7A7A7A" stroke-width="2" stroke-linecap="round" stroke-linejoin="round"/>
<path d="M76.334 23.084V28.7507" stroke="#7A7A7A" stroke-width="2" stroke-linecap="round" stroke-linejoin="round"/>
<path d="M76.334 42.916V34.416" stroke="#7A7A7A" stroke-width="2" stroke-linecap="round" stroke-linejoin="round"/>
<path d="M82 42.9167V28.75" stroke="#7A7A7A" stroke-width="2" stroke-linecap="round" stroke-linejoin="round"/>
<path d="M53.668 42.9173V28.7507C53.668 27.2478 54.265 25.8064 55.3277 24.7437C56.3904 23.681 57.8317 23.084 59.3346 23.084C62.168 23.084 65.0013 24.9682 67.8346 28.7507C70.668 32.5332 73.5013 34.4173 76.3346 34.4173C77.281 34.4164 78.212 34.1785 79.0428 33.7254C79.8736 33.2722 80.5777 32.6182 81.0908 31.823C81.6039 31.0278 81.9097 30.1168 81.9802 29.1731C82.0508 28.2294 81.8838 27.283 81.4947 26.4204C81.1055 25.5578 80.5065 24.8063 79.7524 24.2347C78.9982 23.663 78.1128 23.2894 77.1771 23.1478C76.2414 23.0062 75.2852 23.1012 74.3956 23.4241C73.5061 23.747 72.7116 24.2876 72.0846 24.9965" stroke="#7A7A7A" stroke-width="2" stroke-linecap="round" stroke-linejoin="round"/>
<path d="M22.0669 77V66.8182H23.2999V71.8693H23.4192L27.9931 66.8182H29.6039L25.3283 71.4119L29.6039 77H28.1124L24.5726 72.267L23.2999 73.6989V77H22.0669ZM31.5192 77V69.3636H32.6925V77H31.5192ZM32.1158 68.0909C31.8871 68.0909 31.6899 68.013 31.5241 67.8572C31.3617 67.7015 31.2805 67.5142 31.2805 67.2955C31.2805 67.0767 31.3617 66.8894 31.5241 66.7337C31.6899 66.5779 31.8871 66.5 32.1158 66.5C32.3445 66.5 32.54 66.5779 32.7024 66.7337C32.8681 66.8894 32.951 67.0767 32.951 67.2955C32.951 67.5142 32.8681 67.7015 32.7024 67.8572C32.54 68.013 32.3445 68.0909 32.1158 68.0909ZM37.725 77.1591C37.0886 77.1591 36.5268 76.9983 36.0396 76.6768C35.5524 76.352 35.1712 75.8946 34.8961 75.3047C34.621 74.7114 34.4835 74.0104 34.4835 73.2017C34.4835 72.3996 34.621 71.7036 34.8961 71.1136C35.1712 70.5237 35.554 70.0679 36.0446 69.7464C36.5351 69.425 37.1019 69.2642 37.7449 69.2642C38.242 69.2642 38.6348 69.3471 38.9231 69.5128C39.2148 69.6752 39.4368 69.8608 39.5893 70.0696C39.7451 70.2751 39.8661 70.4441 39.9522 70.5767H40.0517V66.8182H41.225V77H40.0914V75.8267H39.9522C39.8661 75.9659 39.7434 76.1416 39.5843 76.3537C39.4252 76.5625 39.1982 76.7498 38.9032 76.9155C38.6083 77.0779 38.2155 77.1591 37.725 77.1591ZM37.8841 76.1051C38.3547 76.1051 38.7524 75.9825 39.0772 75.7372C39.402 75.4886 39.649 75.1456 39.818 74.7081C39.987 74.2673 40.0716 73.7585 40.0716 73.1818C40.0716 72.6117 39.9887 72.1129 39.823 71.6854C39.6573 71.2545 39.412 70.9197 39.0872 70.6811C38.7624 70.4392 38.3613 70.3182 37.8841 70.3182C37.3869 70.3182 36.9726 70.4458 36.6412 70.701C36.313 70.9529 36.0661 71.2959 35.9004 71.7301C35.738 72.161 35.6568 72.6449 35.6568 73.1818C35.6568 73.7254 35.7396 74.2192 35.9054 74.6634C36.0744 75.1042 36.323 75.4555 36.6511 75.7173C36.9825 75.9759 37.3935 76.1051 37.8841 76.1051ZM48.9458 71.0739L47.8919 71.3722C47.8256 71.1965 47.7278 71.0258 47.5985 70.8601C47.4726 70.6911 47.3002 70.5518 47.0815 70.4425C46.8627 70.3331 46.5827 70.2784 46.2413 70.2784C45.774 70.2784 45.3845 70.3861 45.073 70.6016C44.7647 70.8137 44.6106 71.0838 44.6106 71.4119C44.6106 71.7036 44.7167 71.9339 44.9288 72.103C45.1409 72.272 45.4724 72.4129 45.9231 72.5256L47.0566 72.804C47.7394 72.9697 48.2482 73.2232 48.5829 73.5646C48.9177 73.9027 49.085 74.3385 49.085 74.8722C49.085 75.3097 48.9591 75.7008 48.7072 76.0455C48.4586 76.3902 48.1106 76.6619 47.6632 76.8608C47.2157 77.0597 46.6954 77.1591 46.1021 77.1591C45.3232 77.1591 44.6786 76.9901 44.1681 76.652C43.6577 76.3139 43.3346 75.8201 43.1987 75.1705L44.3123 74.892C44.4184 75.303 44.6189 75.6113 44.9139 75.8168C45.2122 76.0223 45.6016 76.125 46.0822 76.125C46.6291 76.125 47.0633 76.009 47.3848 75.777C47.7096 75.5417 47.872 75.2599 47.872 74.9318C47.872 74.6667 47.7792 74.4446 47.5936 74.2656C47.408 74.0833 47.1229 73.9474 46.7385 73.858L45.4657 73.5597C44.7664 73.3939 44.2527 73.1371 43.9245 72.7891C43.5997 72.4377 43.4373 71.9986 43.4373 71.4716C43.4373 71.0407 43.5583 70.6596 43.8002 70.3281C44.0455 69.9967 44.3786 69.7365 44.7995 69.5476C45.2238 69.3587 45.7044 69.2642 46.2413 69.2642C46.997 69.2642 47.5903 69.4299 48.0211 69.7614C48.4553 70.0928 48.7636 70.5303 48.9458 71.0739ZM54.9478 77V66.8182H58.3881C59.1869 66.8182 59.8398 66.9624 60.3469 67.2507C60.8574 67.5357 61.2352 67.9219 61.4805 68.4091C61.7257 68.8963 61.8484 69.4399 61.8484 70.0398C61.8484 70.6397 61.7257 71.1849 61.4805 71.6754C61.2385 72.166 60.864 72.5571 60.3569 72.8487C59.8498 73.1371 59.2002 73.2812 58.408 73.2812H55.9421V72.1875H58.3683C58.9151 72.1875 59.3543 72.093 59.6857 71.9041C60.0172 71.7152 60.2575 71.46 60.4066 71.1385C60.5591 70.8137 60.6353 70.4474 60.6353 70.0398C60.6353 69.6321 60.5591 69.2675 60.4066 68.946C60.2575 68.6245 60.0155 68.3726 59.6808 68.1903C59.346 68.0047 58.9019 67.9119 58.3484 67.9119H56.1808V77H54.9478ZM64.8487 66.8182V77H63.6754V66.8182H64.8487ZM69.2449 77.179C68.7609 77.179 68.3218 77.0878 67.9274 76.9055C67.533 76.7199 67.2198 76.4531 66.9877 76.1051C66.7557 75.7538 66.6397 75.3295 66.6397 74.8324C66.6397 74.3949 66.7259 74.0402 66.8983 73.7685C67.0706 73.4934 67.301 73.2779 67.5893 73.1222C67.8777 72.9664 68.1958 72.8504 68.5439 72.7741C68.8952 72.6946 69.2482 72.6316 69.6028 72.5852C70.0668 72.5256 70.443 72.4808 70.7314 72.451C71.023 72.4179 71.2351 72.3632 71.3677 72.2869C71.5036 72.2107 71.5716 72.0781 71.5716 71.8892V71.8494C71.5716 71.3589 71.4373 70.9777 71.1689 70.706C70.9037 70.4342 70.501 70.2983 69.9608 70.2983C69.4006 70.2983 68.9615 70.4209 68.6433 70.6662C68.3251 70.9115 68.1014 71.1733 67.9721 71.4517L66.8585 71.054C67.0574 70.59 67.3225 70.2287 67.6539 69.9702C67.9887 69.7083 68.3533 69.526 68.7477 69.4233C69.1454 69.3172 69.5365 69.2642 69.921 69.2642C70.1663 69.2642 70.448 69.294 70.7662 69.3537C71.0877 69.41 71.3975 69.5277 71.6958 69.7067C71.9975 69.8857 72.2477 70.1558 72.4466 70.517C72.6454 70.8783 72.7449 71.3622 72.7449 71.9688V77H71.5716V75.9659H71.5119C71.4324 76.1316 71.2998 76.3089 71.1142 76.4979C70.9286 76.6868 70.6816 76.8475 70.3734 76.9801C70.0652 77.1127 69.689 77.179 69.2449 77.179ZM69.4238 76.125C69.8878 76.125 70.2789 76.0339 70.5971 75.8516C70.9186 75.6693 71.1606 75.4339 71.323 75.1456C71.4887 74.8572 71.5716 74.554 71.5716 74.2358V73.1619C71.5218 73.2216 71.4125 73.2763 71.2434 73.326C71.0777 73.3724 70.8855 73.4138 70.6667 73.4503C70.4513 73.4834 70.2408 73.5133 70.0353 73.5398C69.8332 73.563 69.6691 73.5829 69.5431 73.5994C69.2382 73.6392 68.9532 73.7038 68.688 73.7933C68.4262 73.8795 68.2141 74.0104 68.0517 74.1861C67.8926 74.3584 67.813 74.5937 67.813 74.892C67.813 75.2997 67.9638 75.608 68.2654 75.8168C68.5704 76.0223 68.9565 76.125 69.4238 76.125ZM75.3686 79.8636C75.1697 79.8636 74.9924 79.8471 74.8366 79.8139C74.6809 79.7841 74.5732 79.7543 74.5135 79.7244L74.8118 78.6903C75.0968 78.7633 75.3487 78.7898 75.5675 78.7699C75.7862 78.75 75.9801 78.6522 76.1491 78.4766C76.3215 78.3042 76.4789 78.0241 76.6214 77.6364L76.8402 77.0398L74.0163 69.3636H75.2891L77.397 75.4489H77.4766L79.5845 69.3636H80.8572L77.6158 78.1136C77.4699 78.508 77.2893 78.8345 77.0739 79.093C76.8584 79.3549 76.6082 79.5488 76.3232 79.6747C76.0414 79.8007 75.7232 79.8636 75.3686 79.8636ZM88.5906 77.179C88.1067 77.179 87.6675 77.0878 87.2731 76.9055C86.8787 76.7199 86.5655 76.4531 86.3335 76.1051C86.1014 75.7538 85.9854 75.3295 85.9854 74.8324C85.9854 74.3949 86.0716 74.0402 86.244 73.7685C86.4163 73.4934 86.6467 73.2779 86.935 73.1222C87.2234 72.9664 87.5415 72.8504 87.8896 72.7741C88.2409 72.6946 88.5939 72.6316 88.9485 72.5852C89.4125 72.5256 89.7887 72.4808 90.0771 72.451C90.3687 72.4179 90.5808 72.3632 90.7134 72.2869C90.8493 72.2107 90.9173 72.0781 90.9173 71.8892V71.8494C90.9173 71.3589 90.783 70.9777 90.5146 70.706C90.2494 70.4342 89.8467 70.2983 89.3065 70.2983C88.7463 70.2983 88.3072 70.4209 87.989 70.6662C87.6708 70.9115 87.4471 71.1733 87.3178 71.4517L86.2042 71.054C86.4031 70.59 86.6682 70.2287 86.9996 69.9702C87.3344 69.7083 87.699 69.526 88.0934 69.4233C88.4911 69.3172 88.8822 69.2642 89.2667 69.2642C89.512 69.2642 89.7937 69.294 90.1119 69.3537C90.4334 69.41 90.7433 69.5277 91.0415 69.7067C91.3432 69.8857 91.5934 70.1558 91.7923 70.517C91.9911 70.8783 92.0906 71.3622 92.0906 71.9688V77H90.9173V75.9659H90.8576C90.7781 76.1316 90.6455 76.3089 90.4599 76.4979C90.2743 76.6868 90.0273 76.8475 89.7191 76.9801C89.4109 77.1127 89.0347 77.179 88.5906 77.179ZM88.7695 76.125C89.2335 76.125 89.6246 76.0339 89.9428 75.8516C90.2643 75.6693 90.5063 75.4339 90.6687 75.1456C90.8344 74.8572 90.9173 74.554 90.9173 74.2358V73.1619C90.8675 73.2216 90.7582 73.2763 90.5891 73.326C90.4234 73.3724 90.2312 73.4138 90.0124 73.4503C89.797 73.4834 89.5865 73.5133 89.381 73.5398C89.1789 73.563 89.0148 73.5829 88.8888 73.5994C88.5839 73.6392 88.2989 73.7038 88.0337 73.7933C87.7719 73.8795 87.5598 74.0104 87.3974 74.1861C87.2383 74.3584 87.1587 74.5937 87.1587 74.892C87.1587 75.2997 87.3095 75.608 87.6112 75.8168C87.9161 76.0223 88.3022 76.125 88.7695 76.125ZM94.2321 77V69.3636H95.3656V70.517H95.4451C95.5843 70.1392 95.8362 69.8326 96.2008 69.5973C96.5654 69.362 96.9764 69.2443 97.4338 69.2443C97.5199 69.2443 97.6277 69.246 97.7569 69.2493C97.8862 69.2526 97.984 69.2576 98.0502 69.2642V70.4574C98.0105 70.4474 97.9193 70.4325 97.7768 70.4126C97.6376 70.3894 97.4901 70.3778 97.3343 70.3778C96.9631 70.3778 96.6317 70.4557 96.34 70.6115C96.0517 70.764 95.823 70.9761 95.6539 71.2479C95.4882 71.5163 95.4054 71.8229 95.4054 72.1676V77H94.2321ZM102.41 77.1591C101.675 77.1591 101.04 76.9967 100.506 76.6719C99.9759 76.3438 99.5666 75.8864 99.2782 75.2997C98.9932 74.7098 98.8507 74.0237 98.8507 73.2415C98.8507 72.4593 98.9932 71.7699 99.2782 71.1733C99.5666 70.5734 99.9676 70.1061 100.481 69.7713C100.998 69.4332 101.602 69.2642 102.291 69.2642C102.689 69.2642 103.081 69.3305 103.469 69.4631C103.857 69.5956 104.21 69.8111 104.528 70.1094C104.846 70.4044 105.1 70.7955 105.289 71.2827C105.478 71.7699 105.572 72.3698 105.572 73.0824V73.5795H99.6859V72.5653H104.379C104.379 72.1345 104.293 71.75 104.121 71.4119C103.952 71.0739 103.71 70.8071 103.395 70.6115C103.083 70.416 102.715 70.3182 102.291 70.3182C101.824 70.3182 101.419 70.4342 101.078 70.6662C100.74 70.8949 100.48 71.1932 100.297 71.5611C100.115 71.929 100.024 72.3234 100.024 72.7443V73.4205C100.024 73.9972 100.123 74.486 100.322 74.8871C100.524 75.2848 100.805 75.5881 101.162 75.7969C101.52 76.0024 101.936 76.1051 102.41 76.1051C102.719 76.1051 102.997 76.062 103.246 75.9759C103.497 75.8864 103.715 75.7538 103.897 75.5781C104.079 75.3991 104.22 75.1771 104.319 74.9119L105.453 75.2301C105.334 75.6146 105.133 75.9527 104.851 76.2443C104.57 76.5327 104.222 76.758 103.807 76.9205C103.393 77.0795 102.927 77.1591 102.41 77.1591ZM109.604 77.179C109.12 77.179 108.681 77.0878 108.287 76.9055C107.892 76.7199 107.579 76.4531 107.347 76.1051C107.115 75.7538 106.999 75.3295 106.999 74.8324C106.999 74.3949 107.085 74.0402 107.258 73.7685C107.43 73.4934 107.66 73.2779 107.949 73.1222C108.237 72.9664 108.555 72.8504 108.903 72.7741C109.255 72.6946 109.608 72.6316 109.962 72.5852C110.426 72.5256 110.802 72.4808 111.091 72.451C111.382 72.4179 111.595 72.3632 111.727 72.2869C111.863 72.2107 111.931 72.0781 111.931 71.8892V71.8494C111.931 71.3589 111.797 70.9777 111.528 70.706C111.263 70.4342 110.86 70.2983 110.32 70.2983C109.76 70.2983 109.321 70.4209 109.003 70.6662C108.684 70.9115 108.461 71.1733 108.331 71.4517L107.218 71.054C107.417 70.59 107.682 70.2287 108.013 69.9702C108.348 69.7083 108.713 69.526 109.107 69.4233C109.505 69.3172 109.896 69.2642 110.28 69.2642C110.526 69.2642 110.807 69.294 111.126 69.3537C111.447 69.41 111.757 69.5277 112.055 69.7067C112.357 69.8857 112.607 70.1558 112.806 70.517C113.005 70.8783 113.104 71.3622 113.104 71.9688V77H111.931V75.9659H111.871C111.792 76.1316 111.659 76.3089 111.474 76.4979C111.288 76.6868 111.041 76.8475 110.733 76.9801C110.425 77.1127 110.048 77.179 109.604 77.179ZM109.783 76.125C110.247 76.125 110.638 76.0339 110.956 75.8516C111.278 75.6693 111.52 75.4339 111.682 75.1456C111.848 74.8572 111.931 74.554 111.931 74.2358V73.1619C111.881 73.2216 111.772 73.2763 111.603 73.326C111.437 73.3724 111.245 73.4138 111.026 73.4503C110.811 73.4834 110.6 73.5133 110.395 73.5398C110.193 73.563 110.028 73.5829 109.903 73.5994C109.598 73.6392 109.313 73.7038 109.047 73.7933C108.786 73.8795 108.573 74.0104 108.411 74.1861C108.252 74.3584 108.172 74.5937 108.172 74.892C108.172 75.2997 108.323 75.608 108.625 75.8168C108.93 76.0223 109.316 76.125 109.783 76.125Z" fill="#7A7A7A"/>
</g>
<defs>
<clipPath id="clip0_67_5929">
<rect width="135" height="96" fill="white" transform="translate(0.333984)"/>
</clipPath>
</defs>
</svg>
