<svg width="853" height="422" viewBox="0 0 853 422" fill="none" xmlns="http://www.w3.org/2000/svg">
<g filter="url(#filter0_d_5_8596)">
<rect x="8" y="4" width="837" height="405" fill="#C4C4C4" shape-rendering="crispEdges"/>
<rect x="8.5" y="4.5" width="836" height="404" stroke="#D6D6D6" shape-rendering="crispEdges"/>
<rect width="48" height="48" transform="translate(797 231) rotate(-90)" fill="white"/>
<path d="M816.5 216.25L825.5 207L816.5 197.75" stroke="black" stroke-width="2" stroke-linecap="round" stroke-linejoin="round"/>
<rect width="48" height="48" transform="matrix(4.37114e-08 -1 -1 -4.37114e-08 57 231)" fill="white"/>
<path d="M37.5 216.25L28.5 207L37.5 197.75" stroke="black" stroke-width="2" stroke-linecap="round" stroke-linejoin="round"/>
<rect width="837" height="29" transform="translate(8 380)" fill="url(#paint0_linear_5_8596)" fill-opacity="0.8"/>
<path d="M33.2784 400V388.364H37.4261C38.3314 388.364 39.0814 388.528 39.6761 388.858C40.2708 389.187 40.7159 389.638 41.0114 390.21C41.3068 390.778 41.4545 391.419 41.4545 392.131C41.4545 392.847 41.3049 393.491 41.0057 394.062C40.7102 394.631 40.2633 395.081 39.6648 395.415C39.0701 395.744 38.322 395.909 37.4205 395.909H34.5682V394.42H37.2614C37.8333 394.42 38.2973 394.322 38.6534 394.125C39.0095 393.924 39.2708 393.652 39.4375 393.307C39.6042 392.962 39.6875 392.57 39.6875 392.131C39.6875 391.691 39.6042 391.301 39.4375 390.96C39.2708 390.619 39.0076 390.352 38.6477 390.159C38.2917 389.966 37.822 389.869 37.2386 389.869H35.0341V400H33.2784ZM43.3764 400V391.273H45.0185V392.659H45.1094C45.2685 392.189 45.5488 391.82 45.9503 391.551C46.3556 391.278 46.8139 391.142 47.3253 391.142C47.4313 391.142 47.5563 391.146 47.7003 391.153C47.848 391.161 47.9635 391.17 48.0469 391.182V392.807C47.9787 392.788 47.8575 392.767 47.6832 392.744C47.509 392.718 47.3348 392.705 47.1605 392.705C46.759 392.705 46.401 392.79 46.0866 392.96C45.776 393.127 45.5298 393.36 45.348 393.659C45.1662 393.955 45.0753 394.292 45.0753 394.67V400H43.3764ZM52.8807 400.176C52.0625 400.176 51.3485 399.989 50.7386 399.614C50.1288 399.239 49.6553 398.714 49.3182 398.04C48.9811 397.366 48.8125 396.578 48.8125 395.676C48.8125 394.771 48.9811 393.979 49.3182 393.301C49.6553 392.623 50.1288 392.097 50.7386 391.722C51.3485 391.347 52.0625 391.159 52.8807 391.159C53.6989 391.159 54.4129 391.347 55.0227 391.722C55.6326 392.097 56.1061 392.623 56.4432 393.301C56.7803 393.979 56.9489 394.771 56.9489 395.676C56.9489 396.578 56.7803 397.366 56.4432 398.04C56.1061 398.714 55.6326 399.239 55.0227 399.614C54.4129 399.989 53.6989 400.176 52.8807 400.176ZM52.8864 398.75C53.4167 398.75 53.8561 398.61 54.2045 398.33C54.553 398.049 54.8106 397.676 54.9773 397.21C55.1477 396.744 55.233 396.231 55.233 395.67C55.233 395.114 55.1477 394.602 54.9773 394.136C54.8106 393.667 54.553 393.29 54.2045 393.006C53.8561 392.722 53.4167 392.58 52.8864 392.58C52.3523 392.58 51.9091 392.722 51.5568 393.006C51.2083 393.29 50.9489 393.667 50.7784 394.136C50.6117 394.602 50.5284 395.114 50.5284 395.67C50.5284 396.231 50.6117 396.744 50.7784 397.21C50.9489 397.676 51.2083 398.049 51.5568 398.33C51.9091 398.61 52.3523 398.75 52.8864 398.75ZM58.8452 403.273V391.273H60.5043V392.688H60.6463C60.7448 392.506 60.8868 392.295 61.0724 392.057C61.258 391.818 61.5156 391.61 61.8452 391.432C62.1747 391.25 62.6103 391.159 63.152 391.159C63.8565 391.159 64.4853 391.337 65.0384 391.693C65.5914 392.049 66.0251 392.562 66.3395 393.233C66.6577 393.903 66.8168 394.71 66.8168 395.653C66.8168 396.597 66.6596 397.405 66.3452 398.08C66.0308 398.75 65.599 399.267 65.0497 399.631C64.5005 399.991 63.8736 400.17 63.169 400.17C62.6387 400.17 62.205 400.081 61.8679 399.903C61.5346 399.725 61.2732 399.517 61.0838 399.278C60.8944 399.04 60.7486 398.828 60.6463 398.642H60.544V403.273H58.8452ZM60.5099 395.636C60.5099 396.25 60.599 396.788 60.777 397.25C60.955 397.712 61.2126 398.074 61.5497 398.335C61.8868 398.593 62.2997 398.722 62.7884 398.722C63.2959 398.722 63.7202 398.587 64.0611 398.318C64.402 398.045 64.6596 397.676 64.8338 397.21C65.0118 396.744 65.1009 396.22 65.1009 395.636C65.1009 395.061 65.0137 394.544 64.8395 394.085C64.669 393.627 64.4115 393.265 64.0668 393C63.7259 392.735 63.2997 392.602 62.7884 392.602C62.2959 392.602 61.8793 392.729 61.5384 392.983C61.2012 393.237 60.9455 393.591 60.7713 394.045C60.5971 394.5 60.5099 395.03 60.5099 395.636ZM72.4815 400.176C71.6217 400.176 70.8812 399.992 70.2599 399.625C69.6425 399.254 69.1652 398.733 68.8281 398.062C68.4948 397.388 68.3281 396.598 68.3281 395.693C68.3281 394.799 68.4948 394.011 68.8281 393.33C69.1652 392.648 69.6349 392.116 70.2372 391.733C70.8433 391.35 71.5516 391.159 72.3622 391.159C72.8546 391.159 73.3319 391.241 73.794 391.403C74.2562 391.566 74.6709 391.822 75.0384 392.17C75.4058 392.519 75.6955 392.972 75.9077 393.528C76.1198 394.081 76.2259 394.754 76.2259 395.545V396.148H69.2884V394.875H74.5611C74.5611 394.428 74.4702 394.032 74.2884 393.688C74.1065 393.339 73.8509 393.064 73.5213 392.864C73.1955 392.663 72.813 392.562 72.3736 392.562C71.8963 392.562 71.4796 392.68 71.1236 392.915C70.7713 393.146 70.4986 393.449 70.3054 393.824C70.116 394.195 70.0213 394.598 70.0213 395.034V396.028C70.0213 396.612 70.1236 397.108 70.3281 397.517C70.5365 397.926 70.8262 398.239 71.1974 398.455C71.5687 398.667 72.0024 398.773 72.4986 398.773C72.8205 398.773 73.1141 398.727 73.3793 398.636C73.6444 398.542 73.8736 398.402 74.0668 398.216C74.2599 398.03 74.4077 397.801 74.5099 397.528L76.1179 397.818C75.9891 398.292 75.758 398.706 75.4247 399.062C75.0952 399.415 74.6804 399.689 74.1804 399.886C73.6842 400.08 73.1179 400.176 72.4815 400.176ZM78.1108 400V391.273H79.7528V392.659H79.8438C80.0028 392.189 80.2831 391.82 80.6847 391.551C81.09 391.278 81.5483 391.142 82.0597 391.142C82.1657 391.142 82.2907 391.146 82.4347 391.153C82.5824 391.161 82.6979 391.17 82.7812 391.182V392.807C82.7131 392.788 82.5919 392.767 82.4176 392.744C82.2434 392.718 82.0691 392.705 81.8949 392.705C81.4934 392.705 81.1354 392.79 80.821 392.96C80.5104 393.127 80.2642 393.36 80.0824 393.659C79.9006 393.955 79.8097 394.292 79.8097 394.67V400H78.1108ZM88.8409 391.273V392.636H84.0739V391.273H88.8409ZM85.3523 389.182H87.0511V397.438C87.0511 397.767 87.1004 398.015 87.1989 398.182C87.2973 398.345 87.4242 398.456 87.5795 398.517C87.7386 398.574 87.911 398.602 88.0966 398.602C88.233 398.602 88.3523 398.593 88.4545 398.574C88.5568 398.555 88.6364 398.54 88.6932 398.528L89 399.932C88.9015 399.97 88.7614 400.008 88.5795 400.045C88.3977 400.087 88.1705 400.11 87.8977 400.114C87.4508 400.121 87.0341 400.042 86.6477 399.875C86.2614 399.708 85.9489 399.451 85.7102 399.102C85.4716 398.754 85.3523 398.316 85.3523 397.79V389.182ZM91.794 403.273C91.5402 403.273 91.3092 403.252 91.1009 403.21C90.8925 403.172 90.7372 403.131 90.6349 403.085L91.044 401.693C91.3546 401.777 91.6312 401.813 91.8736 401.801C92.116 401.79 92.33 401.699 92.5156 401.528C92.705 401.358 92.8717 401.08 93.0156 400.693L93.2259 400.114L90.0327 391.273H91.8509L94.0611 398.045H94.152L96.3622 391.273H98.1861L94.5895 401.165C94.4228 401.619 94.2107 402.004 93.9531 402.318C93.6955 402.636 93.3887 402.875 93.0327 403.034C92.6766 403.193 92.2637 403.273 91.794 403.273ZM105.909 388.364V400H104.153V388.364H105.909ZM112.233 400H108.466V388.364H112.352C113.492 388.364 114.472 388.597 115.29 389.062C116.108 389.525 116.735 390.189 117.17 391.057C117.61 391.92 117.83 392.956 117.83 394.165C117.83 395.377 117.608 396.419 117.165 397.29C116.725 398.161 116.089 398.831 115.256 399.301C114.422 399.767 113.415 400 112.233 400ZM110.222 398.466H112.136C113.023 398.466 113.759 398.299 114.347 397.966C114.934 397.629 115.373 397.142 115.665 396.506C115.956 395.866 116.102 395.085 116.102 394.165C116.102 393.252 115.956 392.477 115.665 391.841C115.377 391.205 114.947 390.722 114.375 390.392C113.803 390.062 113.093 389.898 112.244 389.898H110.222V398.466ZM125.23 398.557C124.92 398.557 124.652 398.447 124.429 398.227C124.205 398.004 124.094 397.735 124.094 397.42C124.094 397.11 124.205 396.845 124.429 396.625C124.652 396.402 124.92 396.29 125.23 396.29C125.541 396.29 125.808 396.402 126.031 396.625C126.255 396.845 126.366 397.11 126.366 397.42C126.366 397.629 126.313 397.82 126.207 397.994C126.105 398.165 125.969 398.301 125.798 398.403C125.628 398.506 125.438 398.557 125.23 398.557ZM125.23 392.727C124.92 392.727 124.652 392.617 124.429 392.398C124.205 392.174 124.094 391.905 124.094 391.591C124.094 391.28 124.205 391.015 124.429 390.795C124.652 390.572 124.92 390.46 125.23 390.46C125.541 390.46 125.808 390.572 126.031 390.795C126.255 391.015 126.366 391.28 126.366 391.591C126.366 391.799 126.313 391.991 126.207 392.165C126.105 392.335 125.969 392.472 125.798 392.574C125.628 392.676 125.438 392.727 125.23 392.727Z" fill="#7A7A7A"/>
<path d="M140.365 388.679C140.819 388.682 141.267 388.765 141.707 388.928C142.148 389.09 142.546 389.355 142.901 389.723C143.259 390.091 143.544 390.588 143.756 391.214C143.971 391.838 144.08 392.613 144.084 393.541C144.084 394.433 143.994 395.227 143.815 395.923C143.636 396.615 143.379 397.2 143.045 397.678C142.713 398.155 142.311 398.518 141.837 398.766C141.363 399.015 140.829 399.139 140.236 399.139C139.629 399.139 139.091 399.02 138.62 398.781C138.149 398.543 137.767 398.213 137.472 397.792C137.177 397.368 136.993 396.88 136.92 396.33H138.436C138.536 396.768 138.738 397.122 139.043 397.394C139.351 397.663 139.749 397.797 140.236 397.797C140.982 397.797 141.563 397.472 141.981 396.822C142.398 396.17 142.609 395.258 142.612 394.088H142.533C142.36 394.373 142.145 394.618 141.886 394.824C141.631 395.029 141.344 395.188 141.026 395.301C140.708 395.414 140.368 395.47 140.007 395.47C139.42 395.47 138.887 395.326 138.406 395.038C137.926 394.749 137.543 394.353 137.258 393.849C136.973 393.346 136.83 392.771 136.83 392.124C136.83 391.481 136.976 390.898 137.268 390.374C137.563 389.851 137.974 389.436 138.501 389.131C139.031 388.823 139.652 388.672 140.365 388.679ZM140.37 389.972C139.982 389.972 139.633 390.068 139.321 390.26C139.013 390.449 138.769 390.706 138.59 391.031C138.411 391.352 138.322 391.71 138.322 392.104C138.322 392.499 138.408 392.857 138.58 393.178C138.756 393.496 138.995 393.75 139.296 393.939C139.601 394.125 139.949 394.217 140.34 394.217C140.632 394.217 140.904 394.161 141.156 394.048C141.407 393.936 141.628 393.78 141.817 393.581C142.006 393.379 142.153 393.15 142.259 392.895C142.365 392.64 142.418 392.371 142.418 392.089C142.418 391.715 142.329 391.367 142.15 391.045C141.974 390.724 141.732 390.465 141.424 390.27C141.116 390.071 140.764 389.972 140.37 389.972ZM149.265 388.679C149.72 388.682 150.167 388.765 150.608 388.928C151.049 389.09 151.446 389.355 151.801 389.723C152.159 390.091 152.444 390.588 152.656 391.214C152.872 391.838 152.981 392.613 152.984 393.541C152.984 394.433 152.895 395.227 152.716 395.923C152.537 396.615 152.28 397.2 151.945 397.678C151.614 398.155 151.211 398.518 150.737 398.766C150.263 399.015 149.729 399.139 149.136 399.139C148.53 399.139 147.991 399.02 147.52 398.781C147.05 398.543 146.667 398.213 146.372 397.792C146.077 397.368 145.893 396.88 145.82 396.33H147.336C147.436 396.768 147.638 397.122 147.943 397.394C148.251 397.663 148.649 397.797 149.136 397.797C149.882 397.797 150.464 397.472 150.881 396.822C151.299 396.17 151.509 395.258 151.513 394.088H151.433C151.261 394.373 151.045 394.618 150.787 394.824C150.532 395.029 150.245 395.188 149.927 395.301C149.608 395.414 149.269 395.47 148.907 395.47C148.321 395.47 147.787 395.326 147.307 395.038C146.826 394.749 146.443 394.353 146.158 393.849C145.873 393.346 145.731 392.771 145.731 392.124C145.731 391.481 145.876 390.898 146.168 390.374C146.463 389.851 146.874 389.436 147.401 389.131C147.931 388.823 148.553 388.672 149.265 388.679ZM149.27 389.972C148.883 389.972 148.533 390.068 148.221 390.26C147.913 390.449 147.67 390.706 147.491 391.031C147.312 391.352 147.222 391.71 147.222 392.104C147.222 392.499 147.308 392.857 147.481 393.178C147.656 393.496 147.895 393.75 148.197 393.939C148.501 394.125 148.849 394.217 149.241 394.217C149.532 394.217 149.804 394.161 150.056 394.048C150.308 393.936 150.528 393.78 150.717 393.581C150.906 393.379 151.054 393.15 151.16 392.895C151.266 392.64 151.319 392.371 151.319 392.089C151.319 391.715 151.229 391.367 151.05 391.045C150.875 390.724 150.633 390.465 150.324 390.27C150.016 390.071 149.665 389.972 149.27 389.972ZM158.166 388.679C158.62 388.682 159.067 388.765 159.508 388.928C159.949 389.09 160.347 389.355 160.701 389.723C161.059 390.091 161.344 390.588 161.556 391.214C161.772 391.838 161.881 392.613 161.885 393.541C161.885 394.433 161.795 395.227 161.616 395.923C161.437 396.615 161.18 397.2 160.846 397.678C160.514 398.155 160.111 398.518 159.637 398.766C159.163 399.015 158.63 399.139 158.037 399.139C157.43 399.139 156.891 399.02 156.421 398.781C155.95 398.543 155.567 398.213 155.272 397.792C154.977 397.368 154.793 396.88 154.721 396.33H156.237C156.336 396.768 156.538 397.122 156.843 397.394C157.152 397.663 157.549 397.797 158.037 397.797C158.782 397.797 159.364 397.472 159.782 396.822C160.199 396.17 160.41 395.258 160.413 394.088H160.333C160.161 394.373 159.946 394.618 159.687 394.824C159.432 395.029 159.145 395.188 158.827 395.301C158.509 395.414 158.169 395.47 157.808 395.47C157.221 395.47 156.688 395.326 156.207 395.038C155.726 394.749 155.344 394.353 155.059 393.849C154.774 393.346 154.631 392.771 154.631 392.124C154.631 391.481 154.777 390.898 155.069 390.374C155.364 389.851 155.775 389.436 156.301 389.131C156.832 388.823 157.453 388.672 158.166 388.679ZM158.171 389.972C157.783 389.972 157.433 390.068 157.122 390.26C156.814 390.449 156.57 390.706 156.391 391.031C156.212 391.352 156.123 391.71 156.123 392.104C156.123 392.499 156.209 392.857 156.381 393.178C156.557 393.496 156.795 393.75 157.097 393.939C157.402 394.125 157.75 394.217 158.141 394.217C158.433 394.217 158.704 394.161 158.956 394.048C159.208 393.936 159.429 393.78 159.618 393.581C159.806 393.379 159.954 393.15 160.06 392.895C160.166 392.64 160.219 392.371 160.219 392.089C160.219 391.715 160.13 391.367 159.951 391.045C159.775 390.724 159.533 390.465 159.225 390.27C158.917 390.071 158.565 389.972 158.171 389.972ZM167.066 388.679C167.52 388.682 167.968 388.765 168.409 388.928C168.849 389.09 169.247 389.355 169.602 389.723C169.96 390.091 170.245 390.588 170.457 391.214C170.672 391.838 170.782 392.613 170.785 393.541C170.785 394.433 170.695 395.227 170.517 395.923C170.338 396.615 170.081 397.2 169.746 397.678C169.414 398.155 169.012 398.518 168.538 398.766C168.064 399.015 167.53 399.139 166.937 399.139C166.33 399.139 165.792 399.02 165.321 398.781C164.851 398.543 164.468 398.213 164.173 397.792C163.878 397.368 163.694 396.88 163.621 396.33H165.137C165.237 396.768 165.439 397.122 165.744 397.394C166.052 397.663 166.45 397.797 166.937 397.797C167.683 397.797 168.264 397.472 168.682 396.822C169.1 396.17 169.31 395.258 169.313 394.088H169.234C169.061 394.373 168.846 394.618 168.588 394.824C168.332 395.029 168.046 395.188 167.727 395.301C167.409 395.414 167.07 395.47 166.708 395.47C166.122 395.47 165.588 395.326 165.107 395.038C164.627 394.749 164.244 394.353 163.959 393.849C163.674 393.346 163.531 392.771 163.531 392.124C163.531 391.481 163.677 390.898 163.969 390.374C164.264 389.851 164.675 389.436 165.202 389.131C165.732 388.823 166.354 388.672 167.066 388.679ZM167.071 389.972C166.683 389.972 166.334 390.068 166.022 390.26C165.714 390.449 165.47 390.706 165.291 391.031C165.112 391.352 165.023 391.71 165.023 392.104C165.023 392.499 165.109 392.857 165.281 393.178C165.457 393.496 165.696 393.75 165.997 393.939C166.302 394.125 166.65 394.217 167.041 394.217C167.333 394.217 167.605 394.161 167.857 394.048C168.109 393.936 168.329 393.78 168.518 393.581C168.707 393.379 168.854 393.15 168.96 392.895C169.066 392.64 169.119 392.371 169.119 392.089C169.119 391.715 169.03 391.367 168.851 391.045C168.675 390.724 168.433 390.465 168.125 390.27C167.817 390.071 167.466 389.972 167.071 389.972ZM175.967 388.679C176.421 388.682 176.868 388.765 177.309 388.928C177.75 389.09 178.147 389.355 178.502 389.723C178.86 390.091 179.145 390.588 179.357 391.214C179.573 391.838 179.682 392.613 179.685 393.541C179.685 394.433 179.596 395.227 179.417 395.923C179.238 396.615 178.981 397.2 178.646 397.678C178.315 398.155 177.912 398.518 177.438 398.766C176.964 399.015 176.431 399.139 175.837 399.139C175.231 399.139 174.692 399.02 174.222 398.781C173.751 398.543 173.368 398.213 173.073 397.792C172.778 397.368 172.594 396.88 172.521 396.33H174.038C174.137 396.768 174.339 397.122 174.644 397.394C174.952 397.663 175.35 397.797 175.837 397.797C176.583 397.797 177.165 397.472 177.582 396.822C178 396.17 178.21 395.258 178.214 394.088H178.134C177.962 394.373 177.746 394.618 177.488 394.824C177.233 395.029 176.946 395.188 176.628 395.301C176.31 395.414 175.97 395.47 175.609 395.47C175.022 395.47 174.488 395.326 174.008 395.038C173.527 394.749 173.144 394.353 172.859 393.849C172.574 393.346 172.432 392.771 172.432 392.124C172.432 391.481 172.578 390.898 172.869 390.374C173.164 389.851 173.575 389.436 174.102 389.131C174.633 388.823 175.254 388.672 175.967 388.679ZM175.972 389.972C175.584 389.972 175.234 390.068 174.923 390.26C174.614 390.449 174.371 390.706 174.192 391.031C174.013 391.352 173.923 391.71 173.923 392.104C173.923 392.499 174.009 392.857 174.182 393.178C174.357 393.496 174.596 393.75 174.898 393.939C175.203 394.125 175.551 394.217 175.942 394.217C176.233 394.217 176.505 394.161 176.757 394.048C177.009 393.936 177.229 393.78 177.418 393.581C177.607 393.379 177.755 393.15 177.861 392.895C177.967 392.64 178.02 392.371 178.02 392.089C178.02 391.715 177.93 391.367 177.751 391.045C177.576 390.724 177.334 390.465 177.026 390.27C176.717 390.071 176.366 389.972 175.972 389.972ZM184.867 388.679C185.321 388.682 185.769 388.765 186.209 388.928C186.65 389.09 187.048 389.355 187.403 389.723C187.76 390.091 188.046 390.588 188.258 391.214C188.473 391.838 188.582 392.613 188.586 393.541C188.586 394.433 188.496 395.227 188.317 395.923C188.138 396.615 187.881 397.2 187.547 397.678C187.215 398.155 186.813 398.518 186.339 398.766C185.865 399.015 185.331 399.139 184.738 399.139C184.131 399.139 183.593 399.02 183.122 398.781C182.651 398.543 182.269 398.213 181.974 397.792C181.679 397.368 181.495 396.88 181.422 396.33H182.938C183.037 396.768 183.24 397.122 183.545 397.394C183.853 397.663 184.251 397.797 184.738 397.797C185.483 397.797 186.065 397.472 186.483 396.822C186.9 396.17 187.111 395.258 187.114 394.088H187.035C186.862 394.373 186.647 394.618 186.388 394.824C186.133 395.029 185.846 395.188 185.528 395.301C185.21 395.414 184.87 395.47 184.509 395.47C183.922 395.47 183.389 395.326 182.908 395.038C182.428 394.749 182.045 394.353 181.76 393.849C181.475 393.346 181.332 392.771 181.332 392.124C181.332 391.481 181.478 390.898 181.77 390.374C182.065 389.851 182.476 389.436 183.003 389.131C183.533 388.823 184.154 388.672 184.867 388.679ZM184.872 389.972C184.484 389.972 184.135 390.068 183.823 390.26C183.515 390.449 183.271 390.706 183.092 391.031C182.913 391.352 182.824 391.71 182.824 392.104C182.824 392.499 182.91 392.857 183.082 393.178C183.258 393.496 183.497 393.75 183.798 393.939C184.103 394.125 184.451 394.217 184.842 394.217C185.134 394.217 185.406 394.161 185.657 394.048C185.909 393.936 186.13 393.78 186.319 393.581C186.508 393.379 186.655 393.15 186.761 392.895C186.867 392.64 186.92 392.371 186.92 392.089C186.92 391.715 186.831 391.367 186.652 391.045C186.476 390.724 186.234 390.465 185.926 390.27C185.618 390.071 185.266 389.972 184.872 389.972ZM193.767 388.679C194.221 388.682 194.669 388.765 195.11 388.928C195.551 389.09 195.948 389.355 196.303 389.723C196.661 390.091 196.946 390.588 197.158 391.214C197.373 391.838 197.483 392.613 197.486 393.541C197.486 394.433 197.397 395.227 197.218 395.923C197.039 396.615 196.782 397.2 196.447 397.678C196.116 398.155 195.713 398.518 195.239 398.766C194.765 399.015 194.231 399.139 193.638 399.139C193.032 399.139 192.493 399.02 192.022 398.781C191.552 398.543 191.169 398.213 190.874 397.792C190.579 397.368 190.395 396.88 190.322 396.33H191.838C191.938 396.768 192.14 397.122 192.445 397.394C192.753 397.663 193.151 397.797 193.638 397.797C194.384 397.797 194.966 397.472 195.383 396.822C195.801 396.17 196.011 395.258 196.015 394.088H195.935C195.763 394.373 195.547 394.618 195.289 394.824C195.033 395.029 194.747 395.188 194.429 395.301C194.11 395.414 193.771 395.47 193.409 395.47C192.823 395.47 192.289 395.326 191.809 395.038C191.328 394.749 190.945 394.353 190.66 393.849C190.375 393.346 190.233 392.771 190.233 392.124C190.233 391.481 190.378 390.898 190.67 390.374C190.965 389.851 191.376 389.436 191.903 389.131C192.433 388.823 193.055 388.672 193.767 388.679ZM193.772 389.972C193.385 389.972 193.035 390.068 192.723 390.26C192.415 390.449 192.172 390.706 191.993 391.031C191.814 391.352 191.724 391.71 191.724 392.104C191.724 392.499 191.81 392.857 191.983 393.178C192.158 393.496 192.397 393.75 192.699 393.939C193.003 394.125 193.351 394.217 193.743 394.217C194.034 394.217 194.306 394.161 194.558 394.048C194.81 393.936 195.03 393.78 195.219 393.581C195.408 393.379 195.556 393.15 195.662 392.895C195.768 392.64 195.821 392.371 195.821 392.089C195.821 391.715 195.731 391.367 195.552 391.045C195.377 390.724 195.135 390.465 194.826 390.27C194.518 390.071 194.167 389.972 193.772 389.972ZM202.668 388.679C203.122 388.682 203.569 388.765 204.01 388.928C204.451 389.09 204.849 389.355 205.203 389.723C205.561 390.091 205.846 390.588 206.058 391.214C206.274 391.838 206.383 392.613 206.387 393.541C206.387 394.433 206.297 395.227 206.118 395.923C205.939 396.615 205.682 397.2 205.347 397.678C205.016 398.155 204.613 398.518 204.139 398.766C203.665 399.015 203.132 399.139 202.539 399.139C201.932 399.139 201.393 399.02 200.923 398.781C200.452 398.543 200.069 398.213 199.774 397.792C199.479 397.368 199.295 396.88 199.222 396.33H200.739C200.838 396.768 201.04 397.122 201.345 397.394C201.654 397.663 202.051 397.797 202.539 397.797C203.284 397.797 203.866 397.472 204.284 396.822C204.701 396.17 204.912 395.258 204.915 394.088H204.835C204.663 394.373 204.448 394.618 204.189 394.824C203.934 395.029 203.647 395.188 203.329 395.301C203.011 395.414 202.671 395.47 202.31 395.47C201.723 395.47 201.19 395.326 200.709 395.038C200.228 394.749 199.846 394.353 199.561 393.849C199.276 393.346 199.133 392.771 199.133 392.124C199.133 391.481 199.279 390.898 199.57 390.374C199.865 389.851 200.276 389.436 200.803 389.131C201.334 388.823 201.955 388.672 202.668 388.679ZM202.673 389.972C202.285 389.972 201.935 390.068 201.624 390.26C201.316 390.449 201.072 390.706 200.893 391.031C200.714 391.352 200.624 391.71 200.624 392.104C200.624 392.499 200.711 392.857 200.883 393.178C201.059 393.496 201.297 393.75 201.599 393.939C201.904 394.125 202.252 394.217 202.643 394.217C202.935 394.217 203.206 394.161 203.458 394.048C203.71 393.936 203.931 393.78 204.119 393.581C204.308 393.379 204.456 393.15 204.562 392.895C204.668 392.64 204.721 392.371 204.721 392.089C204.721 391.715 204.632 391.367 204.453 391.045C204.277 390.724 204.035 390.465 203.727 390.27C203.419 390.071 203.067 389.972 202.673 389.972Z" fill="#7A7A7A"/>
<rect width="247" height="30" transform="translate(598 379.5)" fill="white" fill-opacity="0.8"/>
<path d="M623.233 400V389.818H626.673C627.469 389.818 628.122 389.954 628.632 390.226C629.143 390.494 629.52 390.864 629.766 391.335C630.011 391.805 630.134 392.34 630.134 392.94C630.134 393.54 630.011 394.072 629.766 394.536C629.52 395 629.144 395.365 628.637 395.63C628.13 395.892 627.482 396.023 626.693 396.023H623.909V394.909H626.653C627.197 394.909 627.634 394.83 627.966 394.67C628.301 394.511 628.543 394.286 628.692 393.994C628.844 393.699 628.92 393.348 628.92 392.94C628.92 392.533 628.844 392.176 628.692 391.871C628.539 391.567 628.296 391.331 627.961 391.165C627.626 390.996 627.184 390.912 626.634 390.912H624.466V400H623.233ZM628.026 395.426L630.531 400H629.099L626.634 395.426H628.026ZM635.149 400.159C634.413 400.159 633.778 399.997 633.244 399.672C632.714 399.344 632.305 398.886 632.017 398.3C631.731 397.71 631.589 397.024 631.589 396.241C631.589 395.459 631.731 394.77 632.017 394.173C632.305 393.573 632.706 393.106 633.22 392.771C633.737 392.433 634.34 392.264 635.029 392.264C635.427 392.264 635.82 392.33 636.208 392.463C636.595 392.596 636.948 392.811 637.267 393.109C637.585 393.404 637.838 393.795 638.027 394.283C638.216 394.77 638.311 395.37 638.311 396.082V396.58H632.424V395.565H637.117C637.117 395.134 637.031 394.75 636.859 394.412C636.69 394.074 636.448 393.807 636.133 393.612C635.821 393.416 635.454 393.318 635.029 393.318C634.562 393.318 634.158 393.434 633.816 393.666C633.478 393.895 633.218 394.193 633.036 394.561C632.853 394.929 632.762 395.323 632.762 395.744V396.42C632.762 396.997 632.862 397.486 633.061 397.887C633.263 398.285 633.543 398.588 633.901 398.797C634.259 399.002 634.675 399.105 635.149 399.105C635.457 399.105 635.735 399.062 635.984 398.976C636.236 398.886 636.453 398.754 636.635 398.578C636.817 398.399 636.958 398.177 637.058 397.912L638.191 398.23C638.072 398.615 637.871 398.953 637.59 399.244C637.308 399.533 636.96 399.758 636.546 399.92C636.131 400.08 635.666 400.159 635.149 400.159ZM640.095 392.364H641.269V400.557C641.269 401.027 641.187 401.435 641.025 401.78C640.866 402.125 640.624 402.391 640.299 402.58C639.978 402.769 639.572 402.864 639.081 402.864C639.041 402.864 639.002 402.864 638.962 402.864C638.922 402.864 638.882 402.864 638.843 402.864V401.77C638.882 401.77 638.919 401.77 638.952 401.77C638.985 401.77 639.021 401.77 639.061 401.77C639.419 401.77 639.681 401.664 639.847 401.452C640.012 401.243 640.095 400.945 640.095 400.557V392.364ZM640.672 391.091C640.443 391.091 640.246 391.013 640.08 390.857C639.918 390.701 639.837 390.514 639.837 390.295C639.837 390.077 639.918 389.889 640.08 389.734C640.246 389.578 640.443 389.5 640.672 389.5C640.901 389.5 641.096 389.578 641.259 389.734C641.424 389.889 641.507 390.077 641.507 390.295C641.507 390.514 641.424 390.701 641.259 390.857C641.096 391.013 640.901 391.091 640.672 391.091ZM646.619 400.159C645.884 400.159 645.249 399.997 644.715 399.672C644.185 399.344 643.776 398.886 643.487 398.3C643.202 397.71 643.06 397.024 643.06 396.241C643.06 395.459 643.202 394.77 643.487 394.173C643.776 393.573 644.177 393.106 644.69 392.771C645.207 392.433 645.811 392.264 646.5 392.264C646.898 392.264 647.29 392.33 647.678 392.463C648.066 392.596 648.419 392.811 648.737 393.109C649.055 393.404 649.309 393.795 649.498 394.283C649.687 394.77 649.781 395.37 649.781 396.082V396.58H643.895V395.565H648.588C648.588 395.134 648.502 394.75 648.33 394.412C648.161 394.074 647.919 393.807 647.604 393.612C647.292 393.416 646.924 393.318 646.5 393.318C646.033 393.318 645.628 393.434 645.287 393.666C644.949 393.895 644.689 394.193 644.506 394.561C644.324 394.929 644.233 395.323 644.233 395.744V396.42C644.233 396.997 644.332 397.486 644.531 397.887C644.733 398.285 645.013 398.588 645.371 398.797C645.729 399.002 646.145 399.105 646.619 399.105C646.928 399.105 647.206 399.062 647.455 398.976C647.706 398.886 647.924 398.754 648.106 398.578C648.288 398.399 648.429 398.177 648.528 397.912L649.662 398.23C649.543 398.615 649.342 398.953 649.06 399.244C648.779 399.533 648.431 399.758 648.016 399.92C647.602 400.08 647.136 400.159 646.619 400.159ZM654.668 400.159C653.952 400.159 653.336 399.99 652.819 399.652C652.302 399.314 651.904 398.848 651.626 398.255C651.347 397.662 651.208 396.984 651.208 396.222C651.208 395.446 651.351 394.762 651.636 394.168C651.924 393.572 652.325 393.106 652.839 392.771C653.356 392.433 653.959 392.264 654.648 392.264C655.185 392.264 655.669 392.364 656.1 392.562C656.531 392.761 656.884 393.04 657.159 393.398C657.434 393.756 657.605 394.173 657.671 394.651H656.498C656.408 394.303 656.21 393.994 655.901 393.726C655.596 393.454 655.185 393.318 654.668 393.318C654.211 393.318 653.81 393.437 653.465 393.676C653.124 393.911 652.857 394.245 652.665 394.675C652.476 395.103 652.381 395.605 652.381 396.182C652.381 396.772 652.474 397.286 652.66 397.723C652.849 398.161 653.114 398.5 653.455 398.742C653.8 398.984 654.204 399.105 654.668 399.105C654.973 399.105 655.25 399.052 655.499 398.946C655.747 398.84 655.958 398.688 656.13 398.489C656.302 398.29 656.425 398.051 656.498 397.773H657.671C657.605 398.223 657.441 398.629 657.179 398.991C656.92 399.349 656.577 399.634 656.15 399.846C655.726 400.055 655.232 400.159 654.668 400.159ZM662.707 392.364V393.358H658.75V392.364H662.707ZM659.903 390.534H661.077V397.812C661.077 398.144 661.125 398.393 661.221 398.558C661.32 398.721 661.446 398.83 661.599 398.886C661.754 398.939 661.919 398.966 662.091 398.966C662.22 398.966 662.326 398.959 662.409 398.946C662.492 398.929 662.558 398.916 662.608 398.906L662.847 399.96C662.767 399.99 662.656 400.02 662.513 400.05C662.371 400.083 662.19 400.099 661.972 400.099C661.64 400.099 661.315 400.028 660.997 399.886C660.682 399.743 660.42 399.526 660.212 399.234C660.006 398.943 659.903 398.575 659.903 398.131V390.534ZM671.731 392.364V393.358H667.773V392.364H671.731ZM668.927 390.534H670.1V397.812C670.1 398.144 670.148 398.393 670.244 398.558C670.344 398.721 670.47 398.83 670.622 398.886C670.778 398.939 670.942 398.966 671.114 398.966C671.244 398.966 671.35 398.959 671.433 398.946C671.515 398.929 671.582 398.916 671.631 398.906L671.87 399.96C671.79 399.99 671.679 400.02 671.537 400.05C671.394 400.083 671.214 400.099 670.995 400.099C670.664 400.099 670.339 400.028 670.021 399.886C669.706 399.743 669.444 399.526 669.235 399.234C669.03 398.943 668.927 398.575 668.927 398.131V390.534ZM674.833 395.406V400H673.66V389.818H674.833V393.557H674.933C675.112 393.162 675.38 392.849 675.738 392.617C676.099 392.382 676.58 392.264 677.18 392.264C677.7 392.264 678.156 392.369 678.547 392.577C678.938 392.783 679.241 393.099 679.457 393.527C679.675 393.951 679.785 394.491 679.785 395.148V400H678.612V395.227C678.612 394.621 678.454 394.152 678.139 393.82C677.828 393.486 677.395 393.318 676.842 393.318C676.457 393.318 676.112 393.399 675.808 393.562C675.506 393.724 675.267 393.961 675.092 394.273C674.919 394.584 674.833 394.962 674.833 395.406ZM681.931 400V392.364H683.105V400H681.931ZM682.528 391.091C682.299 391.091 682.102 391.013 681.936 390.857C681.774 390.701 681.693 390.514 681.693 390.295C681.693 390.077 681.774 389.889 681.936 389.734C682.102 389.578 682.299 389.5 682.528 389.5C682.757 389.5 682.952 389.578 683.115 389.734C683.28 389.889 683.363 390.077 683.363 390.295C683.363 390.514 683.28 390.701 683.115 390.857C682.952 391.013 682.757 391.091 682.528 391.091ZM690.663 394.074L689.609 394.372C689.542 394.196 689.445 394.026 689.315 393.86C689.189 393.691 689.017 393.552 688.798 393.442C688.58 393.333 688.299 393.278 687.958 393.278C687.491 393.278 687.101 393.386 686.79 393.602C686.482 393.814 686.327 394.084 686.327 394.412C686.327 394.704 686.433 394.934 686.646 395.103C686.858 395.272 687.189 395.413 687.64 395.526L688.773 395.804C689.456 395.97 689.965 396.223 690.3 396.565C690.634 396.903 690.802 397.339 690.802 397.872C690.802 398.31 690.676 398.701 690.424 399.045C690.175 399.39 689.827 399.662 689.38 399.861C688.933 400.06 688.412 400.159 687.819 400.159C687.04 400.159 686.395 399.99 685.885 399.652C685.375 399.314 685.051 398.82 684.915 398.17L686.029 397.892C686.135 398.303 686.336 398.611 686.631 398.817C686.929 399.022 687.318 399.125 687.799 399.125C688.346 399.125 688.78 399.009 689.102 398.777C689.426 398.542 689.589 398.26 689.589 397.932C689.589 397.667 689.496 397.445 689.31 397.266C689.125 397.083 688.84 396.947 688.455 396.858L687.183 396.56C686.483 396.394 685.969 396.137 685.641 395.789C685.317 395.438 685.154 394.999 685.154 394.472C685.154 394.041 685.275 393.66 685.517 393.328C685.762 392.997 686.095 392.737 686.516 392.548C686.941 392.359 687.421 392.264 687.958 392.264C688.714 392.264 689.307 392.43 689.738 392.761C690.172 393.093 690.48 393.53 690.663 394.074ZM696.506 402.864V392.364H697.639V393.577H697.778C697.864 393.444 697.984 393.275 698.136 393.07C698.292 392.861 698.514 392.675 698.802 392.513C699.094 392.347 699.488 392.264 699.986 392.264C700.629 392.264 701.195 392.425 701.686 392.746C702.176 393.068 702.559 393.524 702.834 394.114C703.109 394.704 703.247 395.4 703.247 396.202C703.247 397.01 703.109 397.711 702.834 398.305C702.559 398.895 702.178 399.352 701.691 399.677C701.204 399.998 700.642 400.159 700.006 400.159C699.515 400.159 699.122 400.078 698.827 399.915C698.532 399.75 698.305 399.562 698.146 399.354C697.987 399.142 697.864 398.966 697.778 398.827H697.679V402.864H696.506ZM697.659 396.182C697.659 396.759 697.743 397.267 697.912 397.708C698.081 398.146 698.328 398.489 698.653 398.737C698.978 398.982 699.376 399.105 699.846 399.105C700.337 399.105 700.746 398.976 701.074 398.717C701.406 398.455 701.654 398.104 701.82 397.663C701.989 397.219 702.074 396.725 702.074 396.182C702.074 395.645 701.991 395.161 701.825 394.73C701.663 394.296 701.416 393.953 701.084 393.701C700.756 393.446 700.344 393.318 699.846 393.318C699.369 393.318 698.968 393.439 698.643 393.681C698.318 393.92 698.073 394.254 697.907 394.685C697.742 395.113 697.659 395.612 697.659 396.182ZM705.037 400V392.364H706.17V393.517H706.25C706.389 393.139 706.641 392.833 707.006 392.597C707.37 392.362 707.781 392.244 708.238 392.244C708.325 392.244 708.432 392.246 708.562 392.249C708.691 392.253 708.789 392.258 708.855 392.264V393.457C708.815 393.447 708.724 393.433 708.581 393.413C708.442 393.389 708.295 393.378 708.139 393.378C707.768 393.378 707.436 393.456 707.145 393.612C706.856 393.764 706.628 393.976 706.459 394.248C706.293 394.516 706.21 394.823 706.21 395.168V400H705.037ZM713.116 400.159C712.426 400.159 711.821 399.995 711.301 399.667C710.784 399.339 710.38 398.88 710.088 398.29C709.8 397.7 709.655 397.01 709.655 396.222C709.655 395.426 709.8 394.732 710.088 394.138C710.38 393.545 710.784 393.085 711.301 392.756C711.821 392.428 712.426 392.264 713.116 392.264C713.805 392.264 714.408 392.428 714.925 392.756C715.446 393.085 715.85 393.545 716.138 394.138C716.43 394.732 716.576 395.426 716.576 396.222C716.576 397.01 716.43 397.7 716.138 398.29C715.85 398.88 715.446 399.339 714.925 399.667C714.408 399.995 713.805 400.159 713.116 400.159ZM713.116 399.105C713.639 399.105 714.07 398.971 714.408 398.702C714.746 398.434 714.997 398.081 715.159 397.643C715.321 397.206 715.403 396.732 715.403 396.222C715.403 395.711 715.321 395.236 715.159 394.795C714.997 394.354 714.746 393.998 714.408 393.726C714.07 393.454 713.639 393.318 713.116 393.318C712.592 393.318 712.161 393.454 711.823 393.726C711.485 393.998 711.235 394.354 711.072 394.795C710.91 395.236 710.829 395.711 710.829 396.222C710.829 396.732 710.91 397.206 711.072 397.643C711.235 398.081 711.485 398.434 711.823 398.702C712.161 398.971 712.592 399.105 713.116 399.105ZM718.367 402.864V392.364H719.5V393.577H719.64C719.726 393.444 719.845 393.275 719.998 393.07C720.153 392.861 720.375 392.675 720.664 392.513C720.955 392.347 721.35 392.264 721.847 392.264C722.49 392.264 723.057 392.425 723.547 392.746C724.038 393.068 724.421 393.524 724.696 394.114C724.971 394.704 725.108 395.4 725.108 396.202C725.108 397.01 724.971 397.711 724.696 398.305C724.421 398.895 724.039 399.352 723.552 399.677C723.065 399.998 722.503 400.159 721.867 400.159C721.376 400.159 720.984 400.078 720.689 399.915C720.394 399.75 720.167 399.562 720.007 399.354C719.848 399.142 719.726 398.966 719.64 398.827H719.54V402.864H718.367ZM719.52 396.182C719.52 396.759 719.605 397.267 719.774 397.708C719.943 398.146 720.19 398.489 720.515 398.737C720.839 398.982 721.237 399.105 721.708 399.105C722.198 399.105 722.608 398.976 722.936 398.717C723.267 398.455 723.516 398.104 723.681 397.663C723.85 397.219 723.935 396.725 723.935 396.182C723.935 395.645 723.852 395.161 723.686 394.73C723.524 394.296 723.277 393.953 722.946 393.701C722.618 393.446 722.205 393.318 721.708 393.318C721.23 393.318 720.829 393.439 720.505 393.681C720.18 393.92 719.935 394.254 719.769 394.685C719.603 395.113 719.52 395.612 719.52 396.182ZM730.1 400.159C729.364 400.159 728.729 399.997 728.196 399.672C727.665 399.344 727.256 398.886 726.968 398.3C726.683 397.71 726.54 397.024 726.54 396.241C726.54 395.459 726.683 394.77 726.968 394.173C727.256 393.573 727.657 393.106 728.171 392.771C728.688 392.433 729.291 392.264 729.98 392.264C730.378 392.264 730.771 392.33 731.159 392.463C731.547 392.596 731.9 392.811 732.218 393.109C732.536 393.404 732.789 393.795 732.978 394.283C733.167 394.77 733.262 395.37 733.262 396.082V396.58H727.375V395.565H732.069C732.069 395.134 731.982 394.75 731.81 394.412C731.641 394.074 731.399 393.807 731.084 393.612C730.773 393.416 730.405 393.318 729.98 393.318C729.513 393.318 729.109 393.434 728.767 393.666C728.429 393.895 728.169 394.193 727.987 394.561C727.805 394.929 727.713 395.323 727.713 395.744V396.42C727.713 396.997 727.813 397.486 728.012 397.887C728.214 398.285 728.494 398.588 728.852 398.797C729.21 399.002 729.626 399.105 730.1 399.105C730.408 399.105 730.686 399.062 730.935 398.976C731.187 398.886 731.404 398.754 731.586 398.578C731.769 398.399 731.909 398.177 732.009 397.912L733.142 398.23C733.023 398.615 732.823 398.953 732.541 399.244C732.259 399.533 731.911 399.758 731.497 399.92C731.083 400.08 730.617 400.159 730.1 400.159ZM735.047 400V392.364H736.18V393.517H736.26C736.399 393.139 736.651 392.833 737.015 392.597C737.38 392.362 737.791 392.244 738.248 392.244C738.334 392.244 738.442 392.246 738.571 392.249C738.701 392.253 738.798 392.258 738.865 392.264V393.457C738.825 393.447 738.734 393.433 738.591 393.413C738.452 393.389 738.305 393.378 738.149 393.378C737.778 393.378 737.446 393.456 737.154 393.612C736.866 393.764 736.637 393.976 736.468 394.248C736.303 394.516 736.22 394.823 736.22 395.168V400H735.047ZM744.055 392.364V393.358H740.098V392.364H744.055ZM741.251 390.534H742.424V397.812C742.424 398.144 742.472 398.393 742.569 398.558C742.668 398.721 742.794 398.83 742.946 398.886C743.102 398.939 743.266 398.966 743.439 398.966C743.568 398.966 743.674 398.959 743.757 398.946C743.84 398.929 743.906 398.916 743.956 398.906L744.194 399.96C744.115 399.99 744.004 400.02 743.861 400.05C743.719 400.083 743.538 400.099 743.319 400.099C742.988 400.099 742.663 400.028 742.345 399.886C742.03 399.743 741.768 399.526 741.559 399.234C741.354 398.943 741.251 398.575 741.251 398.131V390.534ZM746.576 402.864C746.377 402.864 746.199 402.847 746.044 402.814C745.888 402.784 745.78 402.754 745.721 402.724L746.019 401.69C746.304 401.763 746.556 401.79 746.775 401.77C746.993 401.75 747.187 401.652 747.356 401.477C747.529 401.304 747.686 401.024 747.828 400.636L748.047 400.04L745.223 392.364H746.496L748.604 398.449H748.684L750.792 392.364H752.064L748.823 401.114C748.677 401.508 748.496 401.835 748.281 402.093C748.065 402.355 747.815 402.549 747.53 402.675C747.248 402.801 746.93 402.864 746.576 402.864Z" fill="#424242"/>
<path d="M816 389.5L806 399.5" stroke="#122B49" stroke-width="2" stroke-linecap="round" stroke-linejoin="round"/>
<path d="M806 389.5L816 399.5" stroke="#122B49" stroke-width="2" stroke-linecap="round" stroke-linejoin="round"/>
<path d="M429.5 174H424.5L422 177H419C418.47 177 417.961 177.211 417.586 177.586C417.211 177.961 417 178.47 417 179V188C417 188.53 417.211 189.039 417.586 189.414C417.961 189.789 418.47 190 419 190H435C435.53 190 436.039 189.789 436.414 189.414C436.789 189.039 437 188.53 437 188V179C437 178.47 436.789 177.961 436.414 177.586C436.039 177.211 435.53 177 435 177H432L429.5 174Z" stroke="#424242" stroke-width="2" stroke-linecap="round" stroke-linejoin="round"/>
<path d="M427 186C428.657 186 430 184.657 430 183C430 181.343 428.657 180 427 180C425.343 180 424 181.343 424 183C424 184.657 425.343 186 427 186Z" stroke="#424242" stroke-width="2" stroke-linecap="round" stroke-linejoin="round"/>
<rect x="339" y="204" width="176" height="40" rx="8" fill="#122B49"/>
<path d="M352 224H366" stroke="white" stroke-width="2" stroke-linecap="round" stroke-linejoin="round"/>
<path d="M359 217V231" stroke="white" stroke-width="2" stroke-linecap="round" stroke-linejoin="round"/>
<path d="M381.261 230H379.398L383.585 218.364H385.614L389.801 230H387.938L384.648 220.477H384.557L381.261 230ZM381.574 225.443H387.619V226.92H381.574V225.443ZM394.472 230.17C393.767 230.17 393.138 229.991 392.585 229.631C392.036 229.267 391.604 228.75 391.29 228.08C390.979 227.405 390.824 226.597 390.824 225.653C390.824 224.71 390.981 223.903 391.295 223.233C391.614 222.562 392.049 222.049 392.602 221.693C393.155 221.337 393.782 221.159 394.483 221.159C395.025 221.159 395.46 221.25 395.79 221.432C396.123 221.61 396.381 221.818 396.562 222.057C396.748 222.295 396.892 222.506 396.994 222.688H397.097V218.364H398.795V230H397.136V228.642H396.994C396.892 228.828 396.744 229.04 396.551 229.278C396.362 229.517 396.1 229.725 395.767 229.903C395.434 230.081 395.002 230.17 394.472 230.17ZM394.847 228.722C395.335 228.722 395.748 228.593 396.085 228.335C396.426 228.074 396.684 227.712 396.858 227.25C397.036 226.788 397.125 226.25 397.125 225.636C397.125 225.03 397.038 224.5 396.864 224.045C396.689 223.591 396.434 223.237 396.097 222.983C395.759 222.729 395.343 222.602 394.847 222.602C394.335 222.602 393.909 222.735 393.568 223C393.227 223.265 392.97 223.627 392.795 224.085C392.625 224.544 392.54 225.061 392.54 225.636C392.54 226.22 392.627 226.744 392.801 227.21C392.975 227.676 393.233 228.045 393.574 228.318C393.919 228.587 394.343 228.722 394.847 228.722ZM404.487 230.17C403.783 230.17 403.154 229.991 402.601 229.631C402.052 229.267 401.62 228.75 401.305 228.08C400.995 227.405 400.839 226.597 400.839 225.653C400.839 224.71 400.997 223.903 401.311 223.233C401.629 222.562 402.065 222.049 402.618 221.693C403.171 221.337 403.798 221.159 404.499 221.159C405.04 221.159 405.476 221.25 405.805 221.432C406.139 221.61 406.396 221.818 406.578 222.057C406.764 222.295 406.908 222.506 407.01 222.688H407.112V218.364H408.811V230H407.152V228.642H407.01C406.908 228.828 406.76 229.04 406.567 229.278C406.377 229.517 406.116 229.725 405.783 229.903C405.449 230.081 405.018 230.17 404.487 230.17ZM404.862 228.722C405.351 228.722 405.764 228.593 406.101 228.335C406.442 228.074 406.699 227.712 406.874 227.25C407.052 226.788 407.141 226.25 407.141 225.636C407.141 225.03 407.054 224.5 406.879 224.045C406.705 223.591 406.449 223.237 406.112 222.983C405.775 222.729 405.358 222.602 404.862 222.602C404.351 222.602 403.925 222.735 403.584 223C403.243 223.265 402.985 223.627 402.811 224.085C402.641 224.544 402.555 225.061 402.555 225.636C402.555 226.22 402.643 226.744 402.817 227.21C402.991 227.676 403.249 228.045 403.589 228.318C403.934 228.587 404.358 228.722 404.862 228.722ZM415.607 230V218.364H419.754C420.66 218.364 421.41 218.528 422.004 218.858C422.599 219.187 423.044 219.638 423.339 220.21C423.635 220.778 423.783 221.419 423.783 222.131C423.783 222.847 423.633 223.491 423.334 224.062C423.038 224.631 422.591 225.081 421.993 225.415C421.398 225.744 420.65 225.909 419.749 225.909H416.896V224.42H419.589C420.161 224.42 420.625 224.322 420.982 224.125C421.338 223.924 421.599 223.652 421.766 223.307C421.932 222.962 422.016 222.57 422.016 222.131C422.016 221.691 421.932 221.301 421.766 220.96C421.599 220.619 421.336 220.352 420.976 220.159C420.62 219.966 420.15 219.869 419.567 219.869H417.362V230H415.607ZM427.403 224.818V230H425.705V218.364H427.381V222.693H427.489C427.693 222.223 428.006 221.85 428.426 221.574C428.847 221.297 429.396 221.159 430.074 221.159C430.672 221.159 431.195 221.282 431.642 221.528C432.093 221.775 432.441 222.142 432.688 222.631C432.938 223.116 433.062 223.722 433.062 224.449V230H431.364V224.653C431.364 224.013 431.199 223.517 430.869 223.165C430.54 222.809 430.081 222.631 429.494 222.631C429.093 222.631 428.733 222.716 428.415 222.886C428.1 223.057 427.852 223.307 427.67 223.636C427.492 223.962 427.403 224.356 427.403 224.818ZM439.006 230.176C438.188 230.176 437.473 229.989 436.864 229.614C436.254 229.239 435.78 228.714 435.443 228.04C435.106 227.366 434.938 226.578 434.938 225.676C434.938 224.771 435.106 223.979 435.443 223.301C435.78 222.623 436.254 222.097 436.864 221.722C437.473 221.347 438.188 221.159 439.006 221.159C439.824 221.159 440.538 221.347 441.148 221.722C441.758 222.097 442.231 222.623 442.568 223.301C442.905 223.979 443.074 224.771 443.074 225.676C443.074 226.578 442.905 227.366 442.568 228.04C442.231 228.714 441.758 229.239 441.148 229.614C440.538 229.989 439.824 230.176 439.006 230.176ZM439.011 228.75C439.542 228.75 439.981 228.61 440.33 228.33C440.678 228.049 440.936 227.676 441.102 227.21C441.273 226.744 441.358 226.231 441.358 225.67C441.358 225.114 441.273 224.602 441.102 224.136C440.936 223.667 440.678 223.29 440.33 223.006C439.981 222.722 439.542 222.58 439.011 222.58C438.477 222.58 438.034 222.722 437.682 223.006C437.333 223.29 437.074 223.667 436.903 224.136C436.737 224.602 436.653 225.114 436.653 225.67C436.653 226.231 436.737 226.744 436.903 227.21C437.074 227.676 437.333 228.049 437.682 228.33C438.034 228.61 438.477 228.75 439.011 228.75ZM449.044 221.273V222.636H444.277V221.273H449.044ZM445.555 219.182H447.254V227.438C447.254 227.767 447.304 228.015 447.402 228.182C447.5 228.345 447.627 228.456 447.783 228.517C447.942 228.574 448.114 228.602 448.3 228.602C448.436 228.602 448.555 228.593 448.658 228.574C448.76 228.555 448.839 228.54 448.896 228.528L449.203 229.932C449.105 229.97 448.964 230.008 448.783 230.045C448.601 230.087 448.374 230.11 448.101 230.114C447.654 230.121 447.237 230.042 446.851 229.875C446.464 229.708 446.152 229.451 445.913 229.102C445.675 228.754 445.555 228.316 445.555 227.79V219.182ZM454.506 230.176C453.688 230.176 452.973 229.989 452.364 229.614C451.754 229.239 451.28 228.714 450.943 228.04C450.606 227.366 450.438 226.578 450.438 225.676C450.438 224.771 450.606 223.979 450.943 223.301C451.28 222.623 451.754 222.097 452.364 221.722C452.973 221.347 453.688 221.159 454.506 221.159C455.324 221.159 456.038 221.347 456.648 221.722C457.258 222.097 457.731 222.623 458.068 223.301C458.405 223.979 458.574 224.771 458.574 225.676C458.574 226.578 458.405 227.366 458.068 228.04C457.731 228.714 457.258 229.239 456.648 229.614C456.038 229.989 455.324 230.176 454.506 230.176ZM454.511 228.75C455.042 228.75 455.481 228.61 455.83 228.33C456.178 228.049 456.436 227.676 456.602 227.21C456.773 226.744 456.858 226.231 456.858 225.67C456.858 225.114 456.773 224.602 456.602 224.136C456.436 223.667 456.178 223.29 455.83 223.006C455.481 222.722 455.042 222.58 454.511 222.58C453.977 222.58 453.534 222.722 453.182 223.006C452.833 223.29 452.574 223.667 452.403 224.136C452.237 224.602 452.153 225.114 452.153 225.67C452.153 226.231 452.237 226.744 452.403 227.21C452.574 227.676 452.833 228.049 453.182 228.33C453.534 228.61 453.977 228.75 454.511 228.75ZM467.01 223.403L465.47 223.676C465.406 223.479 465.304 223.292 465.163 223.114C465.027 222.936 464.841 222.79 464.607 222.676C464.372 222.562 464.078 222.506 463.726 222.506C463.245 222.506 462.843 222.614 462.521 222.83C462.199 223.042 462.038 223.316 462.038 223.653C462.038 223.945 462.146 224.18 462.362 224.358C462.578 224.536 462.927 224.682 463.408 224.795L464.794 225.114C465.597 225.299 466.196 225.585 466.589 225.972C466.983 226.358 467.18 226.86 467.18 227.477C467.18 228 467.029 228.466 466.726 228.875C466.427 229.28 466.008 229.598 465.47 229.83C464.936 230.061 464.317 230.176 463.612 230.176C462.635 230.176 461.838 229.968 461.22 229.551C460.603 229.131 460.224 228.534 460.084 227.761L461.726 227.511C461.828 227.939 462.038 228.263 462.357 228.483C462.675 228.699 463.089 228.807 463.601 228.807C464.158 228.807 464.603 228.691 464.936 228.46C465.269 228.225 465.436 227.939 465.436 227.602C465.436 227.33 465.334 227.1 465.129 226.915C464.929 226.729 464.62 226.589 464.203 226.494L462.726 226.17C461.911 225.985 461.309 225.689 460.919 225.284C460.533 224.879 460.339 224.366 460.339 223.744C460.339 223.229 460.483 222.778 460.771 222.392C461.059 222.006 461.457 221.705 461.964 221.489C462.472 221.269 463.054 221.159 463.709 221.159C464.652 221.159 465.394 221.364 465.936 221.773C466.478 222.178 466.836 222.722 467.01 223.403ZM482.811 218.364V230H481.197L475.283 221.466H475.175V230H473.419V218.364H475.044L480.964 226.909H481.072V218.364H482.811ZM488.912 230.176C488.094 230.176 487.38 229.989 486.77 229.614C486.16 229.239 485.687 228.714 485.349 228.04C485.012 227.366 484.844 226.578 484.844 225.676C484.844 224.771 485.012 223.979 485.349 223.301C485.687 222.623 486.16 222.097 486.77 221.722C487.38 221.347 488.094 221.159 488.912 221.159C489.73 221.159 490.444 221.347 491.054 221.722C491.664 222.097 492.137 222.623 492.474 223.301C492.812 223.979 492.98 224.771 492.98 225.676C492.98 226.578 492.812 227.366 492.474 228.04C492.137 228.714 491.664 229.239 491.054 229.614C490.444 229.989 489.73 230.176 488.912 230.176ZM488.918 228.75C489.448 228.75 489.887 228.61 490.236 228.33C490.584 228.049 490.842 227.676 491.009 227.21C491.179 226.744 491.264 226.231 491.264 225.67C491.264 225.114 491.179 224.602 491.009 224.136C490.842 223.667 490.584 223.29 490.236 223.006C489.887 222.722 489.448 222.58 488.918 222.58C488.384 222.58 487.94 222.722 487.588 223.006C487.24 223.29 486.98 223.667 486.81 224.136C486.643 224.602 486.56 225.114 486.56 225.67C486.56 226.231 486.643 226.744 486.81 227.21C486.98 227.676 487.24 228.049 487.588 228.33C487.94 228.61 488.384 228.75 488.918 228.75ZM496.503 230L493.935 221.273H495.69L497.401 227.682H497.486L499.202 221.273H500.957L502.662 227.653H502.747L504.446 221.273H506.202L503.639 230H501.906L500.134 223.699H500.003L498.23 230H496.503Z" fill="white"/>
</g>
<defs>
<filter id="filter0_d_5_8596" x="0" y="0" width="853" height="421.5" filterUnits="userSpaceOnUse" color-interpolation-filters="sRGB">
<feFlood flood-opacity="0" result="BackgroundImageFix"/>
<feColorMatrix in="SourceAlpha" type="matrix" values="0 0 0 0 0 0 0 0 0 0 0 0 0 0 0 0 0 0 127 0" result="hardAlpha"/>
<feOffset dy="4"/>
<feGaussianBlur stdDeviation="4"/>
<feComposite in2="hardAlpha" operator="out"/>
<feColorMatrix type="matrix" values="0 0 0 0 0.284948 0 0 0 0 0.246699 0 0 0 0 0.202075 0 0 0 0.25 0"/>
<feBlend mode="normal" in2="BackgroundImageFix" result="effect1_dropShadow_5_8596"/>
<feBlend mode="normal" in="SourceGraphic" in2="effect1_dropShadow_5_8596" result="shape"/>
</filter>
<linearGradient id="paint0_linear_5_8596" x1="394.002" y1="2.10976e-07" x2="394.002" y2="29" gradientUnits="userSpaceOnUse">
<stop stop-color="white" stop-opacity="0.8"/>
<stop offset="1" stop-color="white" stop-opacity="0.6"/>
</linearGradient>
</defs>
</svg>
