<svg width="136" height="96" viewBox="0 0 136 96" fill="none" xmlns="http://www.w3.org/2000/svg">
<path d="M60.0039 48.2992C60.0039 48.2992 60.0039 26.9614 60.0039 26.526C60.0039 26.0905 76.333 26.0901 76.333 26.526C76.333 26.9618 76.333 48.2992 76.333 48.2992" stroke="#7A7A7A" stroke-width="1.8"/>
<path fill-rule="evenodd" clip-rule="evenodd" d="M53.7127 16.5858C53.127 17.1716 53.127 18.1144 53.127 20V46C53.127 47.8856 53.127 48.8284 53.7127 49.4142C54.2985 50 55.2413 50 57.127 50H79.207C81.0926 50 82.0354 50 82.6212 49.4142C83.207 48.8284 83.207 47.8856 83.207 46V20C83.207 18.1144 83.207 17.1716 82.6212 16.5858C82.0354 16 81.0926 16 79.207 16H57.127C55.2413 16 54.2985 16 53.7127 16.5858ZM81.3723 17.8382H54.8926V48.1626H81.3723V17.8382Z" fill="#7A7A7A"/>
<path d="M68.168 27.0488V48.0921" stroke="#7A7A7A" stroke-width="1.8"/>
<path d="M62.7108 20.3869C63.1059 19.9649 63.7755 19.9649 64.1706 20.3869L65.446 21.7489C66.0442 22.3877 65.5913 23.4324 64.7161 23.4324H62.1653C61.2901 23.4324 60.8371 22.3877 61.4353 21.7489L62.7108 20.3869Z" fill="#7A7A7A"/>
<path d="M71.7342 23.078C72.1293 23.4999 72.7989 23.4999 73.194 23.078L74.4695 21.716C75.0677 21.0771 74.6147 20.0324 73.7396 20.0324H71.1887C70.3135 20.0324 69.8606 21.0771 70.4588 21.716L71.7342 23.078Z" fill="#7A7A7A"/>
<path d="M58.399 77V66.8182H59.6319V75.9062H64.3649V77H58.399ZM66.1149 77V69.3636H67.2882V77H66.1149ZM66.7115 68.0909C66.4828 68.0909 66.2856 68.013 66.1199 67.8572C65.9574 67.7015 65.8762 67.5142 65.8762 67.2955C65.8762 67.0767 65.9574 66.8894 66.1199 66.7337C66.2856 66.5779 66.4828 66.5 66.7115 66.5C66.9402 66.5 67.1357 66.5779 67.2981 66.7337C67.4638 66.8894 67.5467 67.0767 67.5467 67.2955C67.5467 67.5142 67.4638 67.7015 67.2981 67.8572C67.1357 68.013 66.9402 68.0909 66.7115 68.0909ZM72.8377 69.3636V70.358H68.7212V69.3636H72.8377ZM69.9542 77V68.3097C69.9542 67.8722 70.0569 67.5076 70.2624 67.2159C70.4679 66.9242 70.7347 66.7055 71.0629 66.5597C71.391 66.4138 71.7373 66.3409 72.1019 66.3409C72.3903 66.3409 72.6256 66.3641 72.8079 66.4105C72.9902 66.4569 73.1261 66.5 73.2156 66.5398L72.8775 67.554C72.8178 67.5341 72.735 67.5092 72.6289 67.4794C72.5262 67.4496 72.3903 67.4347 72.2212 67.4347C71.8335 67.4347 71.5534 67.5324 71.381 67.728C71.212 67.9235 71.1275 68.2102 71.1275 68.5881V77H69.9542ZM77.8031 69.3636V70.358H73.8457V69.3636H77.8031ZM74.9991 67.5341H76.1724V74.8125C76.1724 75.1439 76.2205 75.3925 76.3166 75.5582C76.416 75.7206 76.542 75.83 76.6944 75.8864C76.8502 75.9394 77.0143 75.9659 77.1866 75.9659C77.3159 75.9659 77.4219 75.9593 77.5048 75.946C77.5877 75.9295 77.6539 75.9162 77.7037 75.9062L77.9423 76.9602C77.8627 76.9901 77.7517 77.0199 77.6092 77.0497C77.4667 77.0829 77.286 77.0994 77.0673 77.0994C76.7359 77.0994 76.411 77.0282 76.0929 76.8857C75.778 76.7431 75.5162 76.526 75.3074 76.2344C75.1019 75.9427 74.9991 75.5748 74.9991 75.1307V67.5341Z" fill="#7A7A7A"/>
</svg>
