<svg width="22" height="22" viewBox="0 0 22 22" fill="none" xmlns="http://www.w3.org/2000/svg">
<path d="M18.1181 9.05877C18.1181 14.8823 11.0005 20.7058 11.0005 20.7058C11.0005 20.7058 3.88281 14.8823 3.88281 9.05877C3.88281 6.99945 4.63271 5.02446 5.96752 3.5683C7.30234 2.11213 9.11274 1.29407 11.0005 1.29407C12.8882 1.29407 14.6986 2.11213 16.0334 3.5683C17.3682 5.02446 18.1181 6.99945 18.1181 9.05877Z" fill="#122B49" stroke="#122B49" stroke-width="2" stroke-linecap="round" stroke-linejoin="round"/>
<path d="M10.9998 10.3529C12.0719 10.3529 12.9409 9.48384 12.9409 8.41176C12.9409 7.33968 12.0719 6.47058 10.9998 6.47058C9.92769 6.47058 9.05859 7.33968 9.05859 8.41176C9.05859 9.48384 9.92769 10.3529 10.9998 10.3529Z" fill="white" stroke="white" stroke-width="2" stroke-linecap="round" stroke-linejoin="round"/>
</svg>
