<svg width="135" height="96" viewBox="0 0 135 96" fill="none" xmlns="http://www.w3.org/2000/svg">
<path d="M79.9082 17.9023L79.9082 49.0397" stroke="#7A7A7A" stroke-width="1.8" stroke-linecap="round"/>
<path d="M75.1449 49.2674C73.9333 49.4652 73.4495 49.6634 71.7523 50.6523C70.0551 51.6412 70.783 52.6307 71.7523 52.6307C72.7216 52.6307 85.3229 52.4332 87.7462 52.6307C90.1695 52.8282 88.4732 51.3824 87.7462 51.2458C87.0192 51.1092 85.0805 51.444 84.1112 51.2458C83.1419 51.0476 82.9008 49.6627 81.4456 49.2674C79.9903 48.872 76.3566 49.0695 75.1449 49.2674Z" fill="#7A7A7A" stroke="#7A7A7A" stroke-width="0.988904" stroke-linecap="round"/>
<path d="M67.5098 25.5742C67.5098 25.5742 72.5313 33.697 73.0021 33.697C73.4729 33.697 79.9068 31.1761 79.9068 31.1761" stroke="#7A7A7A" stroke-width="1.8" stroke-linecap="round"/>
<path d="M61.002 40H47.002L49.7397 48H57.9728L61.002 40Z" fill="#7A7A7A" stroke="#7A7A7A" stroke-width="0.988904" stroke-linecap="round"/>
<path d="M53.4973 25.5C53.4973 25.5 45.502 31.5 46.0225 31.8056C46.5431 32.1111 53.4973 35 53.4973 35" stroke="#7A7A7A" stroke-width="1.8" stroke-linecap="round"/>
<path d="M67.002 45L66.8613 52.6503" stroke="#7A7A7A" stroke-width="1.8" stroke-linecap="round"/>
<path d="M55.7695 43.625V52.6503" stroke="#7A7A7A" stroke-width="1.8" stroke-linecap="round"/>
<mask id="path-8-inside-1_67_5922" fill="white">
<path fill-rule="evenodd" clip-rule="evenodd" d="M60.9922 24C63.2013 24 64.9922 22.2091 64.9922 20C64.9922 17.7909 63.2013 16 60.9922 16C58.783 16 56.9922 17.7909 56.9922 20C56.9922 22.2091 58.783 24 60.9922 24ZM60.9922 23C62.649 23 63.9922 21.8807 63.9922 20.5C63.9922 19.1193 62.649 18 60.9922 18C59.3353 18 57.9922 19.1193 57.9922 20.5C57.9922 21.8807 59.3353 23 60.9922 23Z"/>
</mask>
<path fill-rule="evenodd" clip-rule="evenodd" d="M60.9922 24C63.2013 24 64.9922 22.2091 64.9922 20C64.9922 17.7909 63.2013 16 60.9922 16C58.783 16 56.9922 17.7909 56.9922 20C56.9922 22.2091 58.783 24 60.9922 24ZM60.9922 23C62.649 23 63.9922 21.8807 63.9922 20.5C63.9922 19.1193 62.649 18 60.9922 18C59.3353 18 57.9922 19.1193 57.9922 20.5C57.9922 21.8807 59.3353 23 60.9922 23Z" fill="#7A7A7A"/>
<path d="M64.4977 20C64.4977 21.9361 62.9282 23.5055 60.9922 23.5055V24.4945C63.4744 24.4945 65.4866 22.4822 65.4866 20H64.4977ZM60.9922 16.4945C62.9282 16.4945 64.4977 18.0639 64.4977 20H65.4866C65.4866 17.5178 63.4744 15.5055 60.9922 15.5055V16.4945ZM57.4866 20C57.4866 18.0639 59.0561 16.4945 60.9922 16.4945V15.5055C58.51 15.5055 56.4977 17.5178 56.4977 20H57.4866ZM60.9922 23.5055C59.0561 23.5055 57.4866 21.9361 57.4866 20H56.4977C56.4977 22.4822 58.51 24.4945 60.9922 24.4945V23.5055ZM63.4977 20.5C63.4977 21.5271 62.4642 22.5055 60.9922 22.5055V23.4945C62.8339 23.4945 64.4866 22.2344 64.4866 20.5H63.4977ZM60.9922 18.4945C62.4642 18.4945 63.4977 19.4729 63.4977 20.5H64.4866C64.4866 18.7656 62.8339 17.5055 60.9922 17.5055V18.4945ZM58.4866 20.5C58.4866 19.4729 59.5202 18.4945 60.9922 18.4945V17.5055C59.1505 17.5055 57.4977 18.7656 57.4977 20.5H58.4866ZM60.9922 22.5055C59.5202 22.5055 58.4866 21.5271 58.4866 20.5H57.4977C57.4977 22.2344 59.1505 23.4945 60.9922 23.4945V22.5055Z" fill="#7A7A7A" mask="url(#path-8-inside-1_67_5922)"/>
<path d="M51.4833 41.8939L56.1362 30.9883H65.1318L69.4745 44.075H50.5527L51.4833 41.8939Z" stroke="#7A7A7A" stroke-width="1.97781" stroke-linecap="round"/>
<path d="M53.8145 25.5742H67.5164" stroke="#7A7A7A" stroke-width="1.8" stroke-linecap="round"/>
<path d="M55.7678 30.7637L54.4629 26.0254" stroke="#7A7A7A" stroke-width="1.97781" stroke-linecap="round"/>
<path d="M65.5564 30.7637L66.8613 26.0254" stroke="#7A7A7A" stroke-width="1.97781" stroke-linecap="round"/>
<path d="M48.0209 40C48.0209 40 47.6846 37.7828 49.8462 36.3021C52.0079 34.8215 55.6397 34.3279 57.9116 36.302C60.1834 38.2761 59.9983 39.9993 59.9983 39.9993" stroke="#7A7A7A" stroke-width="1.8" stroke-linecap="round"/>
<path d="M8.73295 66.8182H10.2045L13.6648 75.2699H13.7841L17.2443 66.8182H18.7159V77H17.5625V69.2642H17.4631L14.2812 77H13.1676L9.9858 69.2642H9.88636V77H8.73295V66.8182ZM23.2761 77.179C22.7922 77.179 22.353 77.0878 21.9586 76.9055C21.5642 76.7199 21.251 76.4531 21.019 76.1051C20.787 75.7538 20.671 75.3295 20.671 74.8324C20.671 74.3949 20.7572 74.0402 20.9295 73.7685C21.1019 73.4934 21.3322 73.2779 21.6206 73.1222C21.9089 72.9664 22.2271 72.8504 22.5751 72.7741C22.9264 72.6946 23.2794 72.6316 23.6341 72.5852C24.0981 72.5256 24.4743 72.4808 24.7626 72.451C25.0543 72.4179 25.2664 72.3632 25.399 72.2869C25.5349 72.2107 25.6028 72.0781 25.6028 71.8892V71.8494C25.6028 71.3589 25.4686 70.9777 25.2001 70.706C24.935 70.4342 24.5323 70.2983 23.992 70.2983C23.4319 70.2983 22.9927 70.4209 22.6745 70.6662C22.3564 70.9115 22.1326 71.1733 22.0034 71.4517L20.8897 71.054C21.0886 70.59 21.3538 70.2287 21.6852 69.9702C22.0199 69.7083 22.3845 69.526 22.7789 69.4233C23.1767 69.3172 23.5678 69.2642 23.9522 69.2642C24.1975 69.2642 24.4792 69.294 24.7974 69.3537C25.1189 69.41 25.4288 69.5277 25.7271 69.7067C26.0287 69.8857 26.2789 70.1558 26.4778 70.517C26.6767 70.8783 26.7761 71.3622 26.7761 71.9688V77H25.6028V75.9659H25.5431C25.4636 76.1316 25.331 76.3089 25.1454 76.4979C24.9598 76.6868 24.7129 76.8475 24.4047 76.9801C24.0964 77.1127 23.7202 77.179 23.2761 77.179ZM23.4551 76.125C23.9191 76.125 24.3102 76.0339 24.6284 75.8516C24.9499 75.6693 25.1918 75.4339 25.3542 75.1456C25.5199 74.8572 25.6028 74.554 25.6028 74.2358V73.1619C25.5531 73.2216 25.4437 73.2763 25.2747 73.326C25.109 73.3724 24.9167 73.4138 24.698 73.4503C24.4825 73.4834 24.2721 73.5133 24.0666 73.5398C23.8644 73.563 23.7003 73.5829 23.5744 73.5994C23.2695 73.6392 22.9844 73.7038 22.7193 73.7933C22.4574 73.8795 22.2453 74.0104 22.0829 74.1861C21.9238 74.3584 21.8443 74.5937 21.8443 74.892C21.8443 75.2997 21.9951 75.608 22.2967 75.8168C22.6016 76.0223 22.9877 76.125 23.4551 76.125ZM28.9176 77V69.3636H30.0909V77H28.9176ZM29.5142 68.0909C29.2855 68.0909 29.0883 68.013 28.9226 67.8572C28.7602 67.7015 28.679 67.5142 28.679 67.2955C28.679 67.0767 28.7602 66.8894 28.9226 66.7337C29.0883 66.5779 29.2855 66.5 29.5142 66.5C29.7429 66.5 29.9384 66.5779 30.1009 66.7337C30.2666 66.8894 30.3494 67.0767 30.3494 67.2955C30.3494 67.5142 30.2666 67.7015 30.1009 67.8572C29.9384 68.013 29.7429 68.0909 29.5142 68.0909ZM33.4132 72.4062V77H32.2399V69.3636H33.3734V70.5568H33.4728C33.6518 70.169 33.9236 69.8575 34.2882 69.6222C34.6528 69.3835 35.1234 69.2642 35.7001 69.2642C36.2172 69.2642 36.6696 69.3703 37.0574 69.5824C37.4451 69.7912 37.7467 70.1094 37.9622 70.5369C38.1776 70.9612 38.2853 71.4981 38.2853 72.1477V77H37.112V72.2273C37.112 71.6274 36.9563 71.16 36.6447 70.8253C36.3332 70.4872 35.9056 70.3182 35.362 70.3182C34.9875 70.3182 34.6528 70.3994 34.3578 70.5618C34.0661 70.7242 33.8358 70.9612 33.6667 71.2727C33.4977 71.5843 33.4132 71.9621 33.4132 72.4062ZM43.7504 69.3636V70.358H39.793V69.3636H43.7504ZM40.9464 67.5341H42.1197V74.8125C42.1197 75.1439 42.1677 75.3925 42.2638 75.5582C42.3633 75.7206 42.4892 75.83 42.6417 75.8864C42.7975 75.9394 42.9615 75.9659 43.1339 75.9659C43.2631 75.9659 43.3692 75.9593 43.4521 75.946C43.5349 75.9295 43.6012 75.9162 43.6509 75.9062L43.8896 76.9602C43.81 76.9901 43.699 77.0199 43.5565 77.0497C43.4139 77.0829 43.2333 77.0994 43.0146 77.0994C42.6831 77.0994 42.3583 77.0282 42.0401 76.8857C41.7253 76.7431 41.4634 76.526 41.2546 76.2344C41.0491 75.9427 40.9464 75.5748 40.9464 75.1307V67.5341ZM48.6349 77.1591C47.8991 77.1591 47.2644 76.9967 46.7308 76.6719C46.2005 76.3438 45.7912 75.8864 45.5028 75.2997C45.2178 74.7098 45.0753 74.0237 45.0753 73.2415C45.0753 72.4593 45.2178 71.7699 45.5028 71.1733C45.7912 70.5734 46.1922 70.1061 46.706 69.7713C47.223 69.4332 47.8262 69.2642 48.5156 69.2642C48.9134 69.2642 49.3061 69.3305 49.6939 69.4631C50.0817 69.5956 50.4347 69.8111 50.7528 70.1094C51.071 70.4044 51.3246 70.7955 51.5135 71.2827C51.7024 71.7699 51.7969 72.3698 51.7969 73.0824V73.5795H45.9105V72.5653H50.6037C50.6037 72.1345 50.5175 71.75 50.3452 71.4119C50.1761 71.0739 49.9342 70.8071 49.6193 70.6115C49.3078 70.416 48.9399 70.3182 48.5156 70.3182C48.0483 70.3182 47.6439 70.4342 47.3026 70.6662C46.9645 70.8949 46.7043 71.1932 46.522 71.5611C46.3397 71.929 46.2486 72.3234 46.2486 72.7443V73.4205C46.2486 73.9972 46.348 74.486 46.5469 74.8871C46.7491 75.2848 47.0291 75.5881 47.3871 75.7969C47.745 76.0024 48.161 76.1051 48.6349 76.1051C48.9432 76.1051 49.2216 76.062 49.4702 75.9759C49.7221 75.8864 49.9392 75.7538 50.1214 75.5781C50.3037 75.3991 50.4446 75.1771 50.544 74.9119L51.6776 75.2301C51.5582 75.6146 51.3577 75.9527 51.076 76.2443C50.7943 76.5327 50.4463 76.758 50.032 76.9205C49.6177 77.0795 49.152 77.1591 48.6349 77.1591ZM54.755 72.4062V77H53.5817V69.3636H54.7152V70.5568H54.8146C54.9936 70.169 55.2654 69.8575 55.63 69.6222C55.9946 69.3835 56.4652 69.2642 57.0419 69.2642C57.5589 69.2642 58.0114 69.3703 58.3991 69.5824C58.7869 69.7912 59.0885 70.1094 59.304 70.5369C59.5194 70.9612 59.6271 71.4981 59.6271 72.1477V77H58.4538V72.2273C58.4538 71.6274 58.2981 71.16 57.9865 70.8253C57.675 70.4872 57.2474 70.3182 56.7038 70.3182C56.3293 70.3182 55.9946 70.3994 55.6996 70.5618C55.4079 70.7242 55.1776 70.9612 55.0085 71.2727C54.8395 71.5843 54.755 71.9621 54.755 72.4062ZM64.0183 77.179C63.5344 77.179 63.0952 77.0878 62.7008 76.9055C62.3064 76.7199 61.9932 76.4531 61.7612 76.1051C61.5292 75.7538 61.4132 75.3295 61.4132 74.8324C61.4132 74.3949 61.4993 74.0402 61.6717 73.7685C61.844 73.4934 62.0744 73.2779 62.3627 73.1222C62.6511 72.9664 62.9693 72.8504 63.3173 72.7741C63.6686 72.6946 64.0216 72.6316 64.3762 72.5852C64.8403 72.5256 65.2164 72.4808 65.5048 72.451C65.7965 72.4179 66.0086 72.3632 66.1412 72.2869C66.277 72.2107 66.345 72.0781 66.345 71.8892V71.8494C66.345 71.3589 66.2108 70.9777 65.9423 70.706C65.6771 70.4342 65.2744 70.2983 64.7342 70.2983C64.1741 70.2983 63.7349 70.4209 63.4167 70.6662C63.0985 70.9115 62.8748 71.1733 62.7456 71.4517L61.6319 71.054C61.8308 70.59 62.0959 70.2287 62.4274 69.9702C62.7621 69.7083 63.1267 69.526 63.5211 69.4233C63.9189 69.3172 64.31 69.2642 64.6944 69.2642C64.9397 69.2642 65.2214 69.294 65.5396 69.3537C65.8611 69.41 66.171 69.5277 66.4693 69.7067C66.7709 69.8857 67.0211 70.1558 67.22 70.517C67.4189 70.8783 67.5183 71.3622 67.5183 71.9688V77H66.345V75.9659H66.2853C66.2058 76.1316 66.0732 76.3089 65.8876 76.4979C65.702 76.6868 65.4551 76.8475 65.1468 76.9801C64.8386 77.1127 64.4624 77.179 64.0183 77.179ZM64.1973 76.125C64.6613 76.125 65.0524 76.0339 65.3706 75.8516C65.6921 75.6693 65.934 75.4339 66.0964 75.1456C66.2621 74.8572 66.345 74.554 66.345 74.2358V73.1619C66.2953 73.2216 66.1859 73.2763 66.0169 73.326C65.8511 73.3724 65.6589 73.4138 65.4402 73.4503C65.2247 73.4834 65.0143 73.5133 64.8088 73.5398C64.6066 73.563 64.4425 73.5829 64.3166 73.5994C64.0117 73.6392 63.7266 73.7038 63.4615 73.7933C63.1996 73.8795 62.9875 74.0104 62.8251 74.1861C62.666 74.3584 62.5865 74.5937 62.5865 74.892C62.5865 75.2997 62.7373 75.608 63.0389 75.8168C63.3438 76.0223 63.7299 76.125 64.1973 76.125ZM70.8331 72.4062V77H69.6598V69.3636H70.7933V70.5568H70.8928C71.0717 70.169 71.3435 69.8575 71.7081 69.6222C72.0727 69.3835 72.5433 69.2642 73.12 69.2642C73.6371 69.2642 74.0895 69.3703 74.4773 69.5824C74.8651 69.7912 75.1667 70.1094 75.3821 70.5369C75.5975 70.9612 75.7053 71.4981 75.7053 72.1477V77H74.532V72.2273C74.532 71.6274 74.3762 71.16 74.0646 70.8253C73.7531 70.4872 73.3255 70.3182 72.782 70.3182C72.4074 70.3182 72.0727 70.3994 71.7777 70.5618C71.486 70.7242 71.2557 70.9612 71.0866 71.2727C70.9176 71.5843 70.8331 71.9621 70.8331 72.4062ZM80.9515 77.1591C80.2356 77.1591 79.6191 76.9901 79.1021 76.652C78.585 76.3139 78.1873 75.8482 77.9089 75.255C77.6305 74.6617 77.4913 73.9839 77.4913 73.2216C77.4913 72.446 77.6338 71.7616 77.9189 71.1683C78.2072 70.5717 78.6083 70.1061 79.122 69.7713C79.639 69.4332 80.2422 69.2642 80.9316 69.2642C81.4686 69.2642 81.9525 69.3636 82.3833 69.5625C82.8142 69.7614 83.1672 70.0398 83.4423 70.3977C83.7174 70.7557 83.8881 71.1733 83.9544 71.6506H82.7811C82.6916 71.3026 82.4927 70.9943 82.1845 70.7259C81.8796 70.4541 81.4686 70.3182 80.9515 70.3182C80.4941 70.3182 80.0931 70.4375 79.7484 70.6761C79.407 70.9115 79.1402 71.2446 78.948 71.6754C78.7591 72.103 78.6646 72.6051 78.6646 73.1818C78.6646 73.7718 78.7574 74.2855 78.943 74.723C79.1319 75.1605 79.3971 75.5002 79.7385 75.7422C80.0832 75.9841 80.4875 76.1051 80.9515 76.1051C81.2565 76.1051 81.5332 76.0521 81.7818 75.946C82.0304 75.84 82.2408 75.6875 82.4132 75.4886C82.5855 75.2898 82.7082 75.0511 82.7811 74.7727H83.9544C83.8881 75.2235 83.724 75.6295 83.4622 75.9908C83.2037 76.3487 82.8606 76.6338 82.4331 76.8459C82.0088 77.0547 81.515 77.1591 80.9515 77.1591ZM88.8713 77.1591C88.1355 77.1591 87.5008 76.9967 86.9672 76.6719C86.4368 76.3438 86.0275 75.8864 85.7392 75.2997C85.4541 74.7098 85.3116 74.0237 85.3116 73.2415C85.3116 72.4593 85.4541 71.7699 85.7392 71.1733C86.0275 70.5734 86.4286 70.1061 86.9423 69.7713C87.4593 69.4332 88.0626 69.2642 88.752 69.2642C89.1497 69.2642 89.5424 69.3305 89.9302 69.4631C90.318 69.5956 90.671 69.8111 90.9892 70.1094C91.3074 70.4044 91.5609 70.7955 91.7498 71.2827C91.9387 71.7699 92.0332 72.3698 92.0332 73.0824V73.5795H86.1468V72.5653H90.84C90.84 72.1345 90.7538 71.75 90.5815 71.4119C90.4125 71.0739 90.1705 70.8071 89.8556 70.6115C89.5441 70.416 89.1762 70.3182 88.752 70.3182C88.2846 70.3182 87.8803 70.4342 87.5389 70.6662C87.2008 70.8949 86.9406 71.1932 86.7583 71.5611C86.5761 71.929 86.4849 72.3234 86.4849 72.7443V73.4205C86.4849 73.9972 86.5843 74.486 86.7832 74.8871C86.9854 75.2848 87.2654 75.5881 87.6234 75.7969C87.9814 76.0024 88.3973 76.1051 88.8713 76.1051C89.1795 76.1051 89.4579 76.062 89.7065 75.9759C89.9584 75.8864 90.1755 75.7538 90.3578 75.5781C90.5401 75.3991 90.6809 75.1771 90.7804 74.9119L91.9139 75.2301C91.7946 75.6146 91.594 75.9527 91.3123 76.2443C91.0306 76.5327 90.6826 76.758 90.2683 76.9205C89.854 77.0795 89.3883 77.1591 88.8713 77.1591ZM103.165 71.0739L102.111 71.3722C102.044 71.1965 101.947 71.0258 101.817 70.8601C101.691 70.6911 101.519 70.5518 101.3 70.4425C101.081 70.3331 100.801 70.2784 100.46 70.2784C99.9927 70.2784 99.6033 70.3861 99.2917 70.6016C98.9835 70.8137 98.8294 71.0838 98.8294 71.4119C98.8294 71.7036 98.9354 71.9339 99.1475 72.103C99.3597 72.272 99.6911 72.4129 100.142 72.5256L101.275 72.804C101.958 72.9697 102.467 73.2232 102.802 73.5646C103.136 73.9027 103.304 74.3385 103.304 74.8722C103.304 75.3097 103.178 75.7008 102.926 76.0455C102.677 76.3902 102.329 76.6619 101.882 76.8608C101.434 77.0597 100.914 77.1591 100.321 77.1591C99.542 77.1591 98.8973 76.9901 98.3869 76.652C97.8765 76.3139 97.5533 75.8201 97.4174 75.1705L98.5311 74.892C98.6371 75.303 98.8377 75.6113 99.1326 75.8168C99.4309 76.0223 99.8204 76.125 100.301 76.125C100.848 76.125 101.282 76.009 101.604 75.777C101.928 75.5417 102.091 75.2599 102.091 74.9318C102.091 74.6667 101.998 74.4446 101.812 74.2656C101.627 74.0833 101.342 73.9474 100.957 73.858L99.6845 73.5597C98.9851 73.3939 98.4714 73.1371 98.1433 72.7891C97.8185 72.4377 97.6561 71.9986 97.6561 71.4716C97.6561 71.0407 97.777 70.6596 98.019 70.3281C98.2643 69.9967 98.5974 69.7365 99.0183 69.5476C99.4425 69.3587 99.9231 69.2642 100.46 69.2642C101.216 69.2642 101.809 69.4299 102.24 69.7614C102.674 70.0928 102.982 70.5303 103.165 71.0739ZM108.391 69.3636V70.358H104.434V69.3636H108.391ZM105.587 67.5341H106.76V74.8125C106.76 75.1439 106.808 75.3925 106.904 75.5582C107.004 75.7206 107.13 75.83 107.282 75.8864C107.438 75.9394 107.602 75.9659 107.775 75.9659C107.904 75.9659 108.01 75.9593 108.093 75.946C108.176 75.9295 108.242 75.9162 108.292 75.9062L108.53 76.9602C108.451 76.9901 108.34 77.0199 108.197 77.0497C108.055 77.0829 107.874 77.0994 107.655 77.0994C107.324 77.0994 106.999 77.0282 106.681 76.8857C106.366 76.7431 106.104 76.526 105.895 76.2344C105.69 75.9427 105.587 75.5748 105.587 75.1307V67.5341ZM112.403 77.179C111.919 77.179 111.48 77.0878 111.086 76.9055C110.691 76.7199 110.378 76.4531 110.146 76.1051C109.914 75.7538 109.798 75.3295 109.798 74.8324C109.798 74.3949 109.884 74.0402 110.056 73.7685C110.229 73.4934 110.459 73.2779 110.748 73.1222C111.036 72.9664 111.354 72.8504 111.702 72.7741C112.053 72.6946 112.406 72.6316 112.761 72.5852C113.225 72.5256 113.601 72.4808 113.89 72.451C114.181 72.4179 114.393 72.3632 114.526 72.2869C114.662 72.2107 114.73 72.0781 114.73 71.8892V71.8494C114.73 71.3589 114.596 70.9777 114.327 70.706C114.062 70.4342 113.659 70.2983 113.119 70.2983C112.559 70.2983 112.12 70.4209 111.801 70.6662C111.483 70.9115 111.26 71.1733 111.13 71.4517L110.017 71.054C110.216 70.59 110.481 70.2287 110.812 69.9702C111.147 69.7083 111.511 69.526 111.906 69.4233C112.304 69.3172 112.695 69.2642 113.079 69.2642C113.324 69.2642 113.606 69.294 113.924 69.3537C114.246 69.41 114.556 69.5277 114.854 69.7067C115.156 69.8857 115.406 70.1558 115.605 70.517C115.804 70.8783 115.903 71.3622 115.903 71.9688V77H114.73V75.9659H114.67C114.591 76.1316 114.458 76.3089 114.272 76.4979C114.087 76.6868 113.84 76.8475 113.532 76.9801C113.223 77.1127 112.847 77.179 112.403 77.179ZM112.582 76.125C113.046 76.125 113.437 76.0339 113.755 75.8516C114.077 75.6693 114.319 75.4339 114.481 75.1456C114.647 74.8572 114.73 74.554 114.73 74.2358V73.1619C114.68 73.2216 114.571 73.2763 114.402 73.326C114.236 73.3724 114.044 73.4138 113.825 73.4503C113.609 73.4834 113.399 73.5133 113.194 73.5398C112.991 73.563 112.827 73.5829 112.701 73.5994C112.396 73.6392 112.111 73.7038 111.846 73.7933C111.584 73.8795 111.372 74.0104 111.21 74.1861C111.051 74.3584 110.971 74.5937 110.971 74.892C110.971 75.2997 111.122 75.608 111.424 75.8168C111.729 76.0223 112.115 76.125 112.582 76.125ZM121.445 69.3636V70.358H117.329V69.3636H121.445ZM118.562 77V68.3097C118.562 67.8722 118.664 67.5076 118.87 67.2159C119.075 66.9242 119.342 66.7055 119.67 66.5597C119.998 66.4138 120.345 66.3409 120.709 66.3409C120.998 66.3409 121.233 66.3641 121.415 66.4105C121.598 66.4569 121.733 66.5 121.823 66.5398L121.485 67.554C121.425 67.5341 121.342 67.5092 121.236 67.4794C121.134 67.4496 120.998 67.4347 120.829 67.4347C120.441 67.4347 120.161 67.5324 119.988 67.728C119.819 67.9235 119.735 68.2102 119.735 68.5881V77H118.562ZM126.49 69.3636V70.358H122.374V69.3636H126.49ZM123.607 77V68.3097C123.607 67.8722 123.709 67.5076 123.915 67.2159C124.12 66.9242 124.387 66.7055 124.715 66.5597C125.043 66.4138 125.39 66.3409 125.754 66.3409C126.043 66.3409 126.278 66.3641 126.46 66.4105C126.643 66.4569 126.778 66.5 126.868 66.5398L126.53 67.554C126.47 67.5341 126.387 67.5092 126.281 67.4794C126.179 67.4496 126.043 67.4347 125.874 67.4347C125.486 67.4347 125.206 67.5324 125.033 67.728C124.864 67.9235 124.78 68.2102 124.78 68.5881V77H123.607Z" fill="#7A7A7A"/>
</svg>
