<svg width="1440" height="73" viewBox="0 0 1440 73" fill="none" xmlns="http://www.w3.org/2000/svg">
<rect x="-0.5" y="-0.5" width="1441" height="73" fill="#FCF8F4"/>
<rect x="-0.5" y="-0.5" width="1441" height="73" stroke="#F6EFE6"/>
<path d="M107.478 36.03L83.8089 15.5124L72.2896 25.4211L60 36.03V29.3075L83.8089 9L107.478 29.3075V36.03Z" fill="url(#paint0_linear_5_9134)"/>
<path d="M69.7334 31.775L83.8434 19.0303L97.7438 31.705L83.8434 20.4308L69.7334 31.775Z" fill="#AC8259"/>
<rect x="79.6592" y="28.7749" width="3.36125" height="3.36125" fill="url(#paint1_linear_5_9134)"/>
<rect x="84.4565" y="28.7749" width="3.36125" height="3.36125" fill="url(#paint2_linear_5_9134)"/>
<rect x="79.6592" y="33.5723" width="3.36125" height="3.36125" fill="url(#paint3_linear_5_9134)"/>
<rect x="84.4565" y="33.5723" width="3.36125" height="3.36125" fill="url(#paint4_linear_5_9134)"/>
<path d="M64.124 44.9096L62.774 44.6756V43.5596H65.402C65.798 43.5596 66.332 43.5356 67.004 43.4876C67.16 43.4756 67.394 43.4636 67.706 43.4516C68.03 43.4396 68.318 43.4336 68.57 43.4336C70.778 43.4336 72.428 43.9856 73.52 45.0896C74.624 46.1936 75.176 47.7596 75.176 49.7876C75.176 51.2036 74.9 52.4636 74.348 53.5676C73.808 54.6716 73.034 55.5356 72.026 56.1596C71.018 56.7716 69.842 57.0776 68.498 57.0776C68.15 57.0776 67.604 57.0536 66.86 57.0056C66.164 56.9576 65.69 56.9336 65.438 56.9336H62.702V55.8536L64.124 55.6736V44.9096ZM66.734 55.7276C67.142 55.8356 67.712 55.8896 68.444 55.8896C69.644 55.8656 70.586 55.3856 71.27 54.4496C71.954 53.5016 72.296 52.0856 72.296 50.2016C72.296 48.4136 71.96 47.0336 71.288 46.0616C70.616 45.0776 69.572 44.5856 68.156 44.5856C67.856 44.5856 67.568 44.6036 67.292 44.6396C67.028 44.6756 66.842 44.6996 66.734 44.7116V55.7276ZM78.1054 61.4156C77.8894 61.4156 77.6554 61.3976 77.4034 61.3616C77.1634 61.3256 76.9894 61.2836 76.8814 61.2356V59.3096C76.9654 59.3576 77.1334 59.4056 77.3854 59.4536C77.6374 59.5016 77.8654 59.5256 78.0694 59.5256C78.6694 59.5256 79.1614 59.3276 79.5454 58.9316C79.9414 58.5356 80.3074 57.8696 80.6434 56.9336H79.6714L76.2874 48.2036L75.4774 47.9696V46.9256H80.4274V47.9696L79.1134 48.1856L80.7154 53.1716L81.3634 55.2956L81.9214 53.1716L83.3974 48.1856L82.2634 47.9696V46.9256H86.1694V47.9696L85.2874 48.1856C84.6274 50.2016 83.9734 52.1456 83.3254 54.0176C82.6774 55.8896 82.2994 56.9396 82.1914 57.1676C81.8074 58.1756 81.4414 58.9796 81.0934 59.5796C80.7454 60.1796 80.3314 60.6356 79.8514 60.9476C79.3714 61.2596 78.7894 61.4156 78.1054 61.4156ZM87.8657 43.7756L86.5337 43.5416V42.5696L89.8637 42.1736H89.8997L90.3857 42.5156V55.7096L91.6997 55.8536V56.9336H86.6057V55.8536L87.8657 55.6916V43.7756ZM92.7409 54.1256C92.7409 53.0336 93.2869 52.2116 94.3789 51.6596C95.4829 51.1076 96.9049 50.8256 98.6449 50.8136V50.3996C98.6449 49.9076 98.5909 49.5236 98.4829 49.2476C98.3869 48.9716 98.2009 48.7676 97.9249 48.6356C97.6609 48.4916 97.2709 48.4196 96.7549 48.4196C96.1669 48.4196 95.6389 48.4976 95.1709 48.6536C94.7029 48.7976 94.2169 48.9896 93.7129 49.2296L93.1549 48.0776C93.3349 47.9216 93.6349 47.7356 94.0549 47.5196C94.4869 47.3036 94.9969 47.1176 95.5849 46.9616C96.1729 46.7936 96.7789 46.7096 97.4029 46.7096C98.3269 46.7096 99.0469 46.8296 99.5629 47.0696C100.091 47.3096 100.469 47.6936 100.697 48.2216C100.925 48.7496 101.039 49.4576 101.039 50.3456V55.8536H102.011V56.8616C101.771 56.9216 101.429 56.9816 100.985 57.0416C100.541 57.1016 100.151 57.1316 99.8149 57.1316C99.4069 57.1316 99.1309 57.0716 98.9869 56.9516C98.8549 56.8316 98.7889 56.5856 98.7889 56.2136V55.7276C98.4649 56.0876 98.0449 56.4116 97.5289 56.6996C97.0129 56.9876 96.4309 57.1316 95.7829 57.1316C95.2309 57.1316 94.7209 57.0176 94.2529 56.7896C93.7969 56.5496 93.4309 56.2076 93.1549 55.7636C92.8789 55.3076 92.7409 54.7616 92.7409 54.1256ZM96.9349 55.6376C97.1869 55.6376 97.4749 55.5656 97.7989 55.4216C98.1229 55.2656 98.4049 55.0796 98.6449 54.8636V51.9116C97.5649 51.9116 96.7549 52.0976 96.2149 52.4696C95.6869 52.8296 95.4229 53.2976 95.4229 53.8736C95.4229 54.4496 95.5549 54.8876 95.8189 55.1876C96.0949 55.4876 96.4669 55.6376 96.9349 55.6376ZM104.142 48.6356L102.99 48.3116V47.0696L105.978 46.6916H106.032L106.482 47.0516V47.7536L106.464 48.1856C106.884 47.7896 107.43 47.4476 108.102 47.1596C108.774 46.8716 109.452 46.7276 110.136 46.7276C110.868 46.7276 111.438 46.8656 111.846 47.1416C112.266 47.4056 112.566 47.8256 112.746 48.4016C112.926 48.9776 113.016 49.7576 113.016 50.7416V55.7096L114.114 55.8536V56.9336H109.47V55.8536L110.442 55.7096V50.7416C110.442 50.1176 110.4 49.6316 110.316 49.2836C110.232 48.9236 110.076 48.6656 109.848 48.5096C109.632 48.3416 109.32 48.2576 108.912 48.2576C108.228 48.2576 107.496 48.5516 106.716 49.1396V55.6916L107.796 55.8536V56.9336H103.098V55.8536L104.142 55.6916V48.6356ZM120.972 44.9096L119.532 44.6756V43.5596H129.126L129.36 46.5836H128.1L127.506 44.8016L123.618 44.6396V49.4816L126.12 49.4276L126.408 47.9516H127.56V52.3076H126.408L126.12 50.7596L123.618 50.7056V55.7816L127.974 55.5656L129.018 53.2616L130.368 53.6396L129.9 56.9336H119.55V55.8536L120.972 55.6736V44.9096ZM133.451 55.4576C133.547 55.6016 133.763 55.7396 134.099 55.8716C134.447 55.9916 134.795 56.0516 135.143 56.0516C135.707 56.0516 136.127 55.9376 136.403 55.7096C136.691 55.4696 136.835 55.1576 136.835 54.7736C136.835 54.3776 136.661 54.0596 136.313 53.8196C135.965 53.5676 135.377 53.2616 134.549 52.9016L134.045 52.6856C133.217 52.3376 132.599 51.9176 132.191 51.4256C131.783 50.9336 131.579 50.2976 131.579 49.5176C131.579 48.9776 131.741 48.4976 132.065 48.0776C132.389 47.6456 132.845 47.3096 133.433 47.0696C134.021 46.8296 134.699 46.7096 135.467 46.7096C136.031 46.7096 136.511 46.7456 136.907 46.8176C137.315 46.8896 137.741 46.9856 138.185 47.1056C138.425 47.1896 138.605 47.2376 138.725 47.2496V49.6076H137.303L136.889 48.2396C136.817 48.1196 136.655 48.0116 136.403 47.9156C136.151 47.8196 135.863 47.7716 135.539 47.7716C135.047 47.7716 134.651 47.8796 134.351 48.0956C134.063 48.2996 133.919 48.5876 133.919 48.9596C133.919 49.2956 134.021 49.5776 134.225 49.8056C134.429 50.0216 134.651 50.1896 134.891 50.3096C135.131 50.4296 135.575 50.6276 136.223 50.9036C136.871 51.1796 137.405 51.4436 137.825 51.6956C138.257 51.9476 138.611 52.2776 138.887 52.6856C139.175 53.0816 139.319 53.5676 139.319 54.1436C139.319 55.0316 138.971 55.7516 138.275 56.3036C137.579 56.8556 136.577 57.1316 135.269 57.1316C134.657 57.1316 134.105 57.0776 133.613 56.9696C133.133 56.8616 132.575 56.7176 131.939 56.5376L131.543 56.4116V54.0356H133.037L133.451 55.4576ZM143.811 57.0956C143.055 57.0956 142.497 56.9216 142.137 56.5736C141.777 56.2256 141.597 55.6736 141.597 54.9176V48.3116H140.427V47.3756C140.523 47.3396 140.697 47.2796 140.949 47.1956C141.201 47.0996 141.393 47.0216 141.525 46.9616C141.729 46.8056 141.903 46.5356 142.047 46.1516C142.155 45.8996 142.353 45.2756 142.641 44.2796H144.081L144.153 46.9256H146.907V48.3116H144.171V53.3696C144.171 54.0416 144.189 54.5156 144.225 54.7916C144.261 55.0676 144.339 55.2476 144.459 55.3316C144.579 55.4036 144.789 55.4396 145.089 55.4396C145.389 55.4396 145.701 55.4096 146.025 55.3496C146.349 55.2776 146.619 55.1936 146.835 55.0976L147.177 56.1056C146.841 56.3576 146.349 56.5856 145.701 56.7896C145.053 56.9936 144.423 57.0956 143.811 57.0956ZM147.936 54.1256C147.936 53.0336 148.482 52.2116 149.574 51.6596C150.678 51.1076 152.1 50.8256 153.84 50.8136V50.3996C153.84 49.9076 153.786 49.5236 153.678 49.2476C153.582 48.9716 153.396 48.7676 153.12 48.6356C152.856 48.4916 152.466 48.4196 151.95 48.4196C151.362 48.4196 150.834 48.4976 150.366 48.6536C149.898 48.7976 149.412 48.9896 148.908 49.2296L148.35 48.0776C148.53 47.9216 148.83 47.7356 149.25 47.5196C149.682 47.3036 150.192 47.1176 150.78 46.9616C151.368 46.7936 151.974 46.7096 152.598 46.7096C153.522 46.7096 154.242 46.8296 154.758 47.0696C155.286 47.3096 155.664 47.6936 155.892 48.2216C156.12 48.7496 156.234 49.4576 156.234 50.3456V55.8536H157.206V56.8616C156.966 56.9216 156.624 56.9816 156.18 57.0416C155.736 57.1016 155.346 57.1316 155.01 57.1316C154.602 57.1316 154.326 57.0716 154.182 56.9516C154.05 56.8316 153.984 56.5856 153.984 56.2136V55.7276C153.66 56.0876 153.24 56.4116 152.724 56.6996C152.208 56.9876 151.626 57.1316 150.978 57.1316C150.426 57.1316 149.916 57.0176 149.448 56.7896C148.992 56.5496 148.626 56.2076 148.35 55.7636C148.074 55.3076 147.936 54.7616 147.936 54.1256ZM152.13 55.6376C152.382 55.6376 152.67 55.5656 152.994 55.4216C153.318 55.2656 153.6 55.0796 153.84 54.8636V51.9116C152.76 51.9116 151.95 52.0976 151.41 52.4696C150.882 52.8296 150.618 53.2976 150.618 53.8736C150.618 54.4496 150.75 54.8876 151.014 55.1876C151.29 55.4876 151.662 55.6376 152.13 55.6376ZM161.354 57.0956C160.598 57.0956 160.04 56.9216 159.68 56.5736C159.32 56.2256 159.14 55.6736 159.14 54.9176V48.3116H157.97V47.3756C158.066 47.3396 158.24 47.2796 158.492 47.1956C158.744 47.0996 158.936 47.0216 159.068 46.9616C159.272 46.8056 159.446 46.5356 159.59 46.1516C159.698 45.8996 159.896 45.2756 160.184 44.2796H161.624L161.696 46.9256H164.45V48.3116H161.714V53.3696C161.714 54.0416 161.732 54.5156 161.768 54.7916C161.804 55.0676 161.882 55.2476 162.002 55.3316C162.122 55.4036 162.332 55.4396 162.632 55.4396C162.932 55.4396 163.244 55.4096 163.568 55.3496C163.892 55.2776 164.162 55.1936 164.378 55.0976L164.72 56.1056C164.384 56.3576 163.892 56.5856 163.244 56.7896C162.596 56.9936 161.966 57.0956 161.354 57.0956ZM170.213 57.1316C168.629 57.1316 167.447 56.6696 166.667 55.7456C165.899 54.8096 165.515 53.5376 165.515 51.9296C165.515 50.8496 165.713 49.9136 166.109 49.1216C166.517 48.3296 167.087 47.7236 167.819 47.3036C168.551 46.8836 169.397 46.6736 170.357 46.6736C171.557 46.6736 172.481 46.9916 173.129 47.6276C173.777 48.2516 174.113 49.1456 174.137 50.3096C174.137 51.1016 174.089 51.6896 173.993 52.0736H168.143C168.191 53.1656 168.449 54.0176 168.917 54.6296C169.385 55.2296 170.051 55.5296 170.915 55.5296C171.383 55.5296 171.863 55.4516 172.355 55.2956C172.859 55.1396 173.255 54.9536 173.543 54.7376L173.993 55.7276C173.669 56.0756 173.141 56.3996 172.409 56.6996C171.689 56.9876 170.957 57.1316 170.213 57.1316ZM171.617 50.9936C171.641 50.6576 171.653 50.3996 171.653 50.2196C171.653 48.6236 171.119 47.8256 170.051 47.8256C169.463 47.8256 169.007 48.0596 168.683 48.5276C168.359 48.9956 168.179 49.8176 168.143 50.9936H171.617Z" fill="#B0854C"/>
<path d="M439.885 56V45.8182H443.902C444.674 45.8182 445.332 45.9657 445.876 46.2607C446.419 46.5523 446.834 46.9583 447.119 47.4787C447.407 47.9957 447.551 48.5923 447.551 49.2685C447.551 49.9446 447.405 50.5412 447.114 51.0582C446.822 51.5753 446.399 51.978 445.846 52.2663C445.296 52.5547 444.629 52.6989 443.847 52.6989H441.287V50.9737H443.499C443.914 50.9737 444.255 50.9025 444.523 50.7599C444.795 50.6141 444.997 50.4136 445.13 50.1584C445.266 49.8999 445.334 49.6032 445.334 49.2685C445.334 48.9304 445.266 48.6354 445.13 48.3835C444.997 48.1283 444.795 47.9311 444.523 47.7919C444.252 47.6494 443.907 47.5781 443.489 47.5781H442.038V56H439.885ZM448.949 56V45.8182H452.966C453.735 45.8182 454.392 45.9557 454.935 46.2308C455.482 46.5026 455.898 46.8887 456.183 47.3892C456.471 47.8864 456.616 48.4714 456.616 49.1442C456.616 49.8203 456.47 50.402 456.178 50.8892C455.886 51.3731 455.464 51.7443 454.91 52.0028C454.36 52.2614 453.694 52.3906 452.912 52.3906H450.222V50.6605H452.564C452.975 50.6605 453.316 50.6042 453.588 50.4915C453.86 50.3788 454.062 50.2098 454.194 49.9844C454.33 49.759 454.398 49.4789 454.398 49.1442C454.398 48.8061 454.33 48.5211 454.194 48.2891C454.062 48.0571 453.858 47.8814 453.583 47.7621C453.311 47.6394 452.968 47.5781 452.554 47.5781H451.102V56H448.949ZM454.448 51.3665L456.979 56H454.602L452.126 51.3665H454.448ZM467.493 50.9091C467.493 52.0194 467.283 52.964 466.862 53.7429C466.444 54.5218 465.874 55.1167 465.152 55.5277C464.433 55.9354 463.624 56.1392 462.726 56.1392C461.821 56.1392 461.009 55.9337 460.29 55.5227C459.57 55.1117 459.002 54.5168 458.584 53.7379C458.167 52.959 457.958 52.0161 457.958 50.9091C457.958 49.7988 458.167 48.8542 458.584 48.0753C459.002 47.2964 459.57 46.7031 460.29 46.2955C461.009 45.8845 461.821 45.679 462.726 45.679C463.624 45.679 464.433 45.8845 465.152 46.2955C465.874 46.7031 466.444 47.2964 466.862 48.0753C467.283 48.8542 467.493 49.7988 467.493 50.9091ZM465.311 50.9091C465.311 50.1899 465.203 49.5833 464.988 49.0895C464.776 48.5956 464.476 48.2211 464.088 47.9659C463.7 47.7107 463.246 47.5831 462.726 47.5831C462.205 47.5831 461.751 47.7107 461.363 47.9659C460.976 48.2211 460.674 48.5956 460.459 49.0895C460.247 49.5833 460.14 50.1899 460.14 50.9091C460.14 51.6283 460.247 52.2348 460.459 52.7287C460.674 53.2225 460.976 53.5971 461.363 53.8523C461.751 54.1075 462.205 54.2351 462.726 54.2351C463.246 54.2351 463.7 54.1075 464.088 53.8523C464.476 53.5971 464.776 53.2225 464.988 52.7287C465.203 52.2348 465.311 51.6283 465.311 50.9091ZM469.088 56V45.8182H473.105C473.877 45.8182 474.535 45.9657 475.079 46.2607C475.622 46.5523 476.037 46.9583 476.322 47.4787C476.61 47.9957 476.754 48.5923 476.754 49.2685C476.754 49.9446 476.608 50.5412 476.317 51.0582C476.025 51.5753 475.603 51.978 475.049 52.2663C474.499 52.5547 473.833 52.6989 473.05 52.6989H470.49V50.9737H472.702C473.117 50.9737 473.458 50.9025 473.727 50.7599C473.998 50.6141 474.201 50.4136 474.333 50.1584C474.469 49.8999 474.537 49.6032 474.537 49.2685C474.537 48.9304 474.469 48.6354 474.333 48.3835C474.201 48.1283 473.998 47.9311 473.727 47.7919C473.455 47.6494 473.11 47.5781 472.692 47.5781H471.241V56H469.088ZM478.153 56V45.8182H485.013V47.593H480.305V50.0192H484.66V51.794H480.305V54.2251H485.033V56H478.153ZM486.725 56V45.8182H490.742C491.511 45.8182 492.167 45.9557 492.711 46.2308C493.257 46.5026 493.673 46.8887 493.958 47.3892C494.247 47.8864 494.391 48.4714 494.391 49.1442C494.391 49.8203 494.245 50.402 493.953 50.8892C493.662 51.3731 493.239 51.7443 492.686 52.0028C492.136 52.2614 491.469 52.3906 490.687 52.3906H487.998V50.6605H490.339C490.75 50.6605 491.092 50.6042 491.363 50.4915C491.635 50.3788 491.837 50.2098 491.97 49.9844C492.106 49.759 492.174 49.4789 492.174 49.1442C492.174 48.8061 492.106 48.5211 491.97 48.2891C491.837 48.0571 491.633 47.8814 491.358 47.7621C491.087 47.6394 490.743 47.5781 490.329 47.5781H488.877V56H486.725ZM492.223 51.3665L494.754 56H492.377L489.902 51.3665H492.223ZM495.525 47.593V45.8182H503.887V47.593H500.77V56H498.642V47.593H495.525ZM507.417 45.8182V56H505.264V45.8182H507.417ZM509.188 56V45.8182H516.048V47.593H511.34V50.0192H515.695V51.794H511.34V54.2251H516.068V56H509.188ZM523.283 48.7464C523.244 48.3454 523.073 48.0339 522.771 47.8118C522.47 47.5897 522.06 47.4787 521.543 47.4787C521.192 47.4787 520.895 47.5284 520.653 47.6278C520.411 47.724 520.226 47.8582 520.097 48.0305C519.971 48.2029 519.908 48.3984 519.908 48.6172C519.901 48.7995 519.939 48.9586 520.022 49.0945C520.108 49.2304 520.226 49.348 520.375 49.4474C520.524 49.5436 520.696 49.6281 520.892 49.701C521.088 49.7706 521.296 49.8303 521.518 49.88L522.433 50.0987C522.877 50.1982 523.285 50.3307 523.656 50.4964C524.027 50.6622 524.349 50.866 524.621 51.108C524.893 51.3499 525.103 51.6349 525.252 51.9631C525.405 52.2912 525.482 52.6674 525.486 53.0916C525.482 53.7147 525.323 54.255 525.009 54.7124C524.697 55.1664 524.246 55.5194 523.656 55.7713C523.07 56.0199 522.362 56.1442 521.533 56.1442C520.711 56.1442 519.996 56.0182 519.386 55.7663C518.779 55.5144 518.305 55.1416 517.964 54.6477C517.626 54.1506 517.448 53.5357 517.432 52.8033H519.515C519.538 53.1446 519.636 53.4297 519.808 53.6584C519.984 53.8838 520.218 54.0545 520.509 54.1705C520.804 54.2831 521.137 54.3395 521.509 54.3395C521.873 54.3395 522.19 54.2865 522.458 54.1804C522.73 54.0743 522.94 53.9268 523.089 53.7379C523.239 53.549 523.313 53.3319 523.313 53.0866C523.313 52.858 523.245 52.6657 523.109 52.5099C522.977 52.3542 522.781 52.2216 522.523 52.1122C522.268 52.0028 521.954 51.9034 521.583 51.8139L520.474 51.5355C519.616 51.3267 518.938 51.0002 518.441 50.5561C517.944 50.112 517.697 49.5137 517.7 48.7614C517.697 48.1449 517.861 47.6063 518.192 47.1456C518.527 46.6849 518.986 46.3253 519.57 46.0668C520.153 45.8082 520.816 45.679 521.558 45.679C522.314 45.679 522.973 45.8082 523.537 46.0668C524.104 46.3253 524.545 46.6849 524.859 47.1456C525.174 47.6063 525.337 48.1399 525.347 48.7464H523.283Z" fill="black"/>
<path d="M579.885 45.8182H582.54L585.344 52.6591H585.463L588.267 45.8182H590.922V56H588.834V49.3729H588.749L586.114 55.9503H584.692L582.058 49.348H581.973V56H579.885V45.8182ZM592.099 45.8182H594.51L596.832 50.2031H596.931L599.253 45.8182H601.664L597.95 52.4006V56H595.813V52.4006L592.099 45.8182ZM609.69 56H606.08V45.8182H609.719C610.744 45.8182 611.625 46.022 612.364 46.4297C613.103 46.834 613.672 47.4157 614.07 48.1747C614.471 48.9337 614.671 49.8419 614.671 50.8991C614.671 51.9598 614.471 52.8712 614.07 53.6335C613.672 54.3958 613.1 54.9808 612.354 55.3885C611.612 55.7962 610.724 56 609.69 56ZM608.233 54.1555H609.6C610.237 54.1555 610.772 54.0429 611.206 53.8175C611.643 53.5888 611.972 53.2358 612.19 52.7585C612.412 52.2779 612.523 51.6581 612.523 50.8991C612.523 50.1468 612.412 49.532 612.19 49.0547C611.972 48.5774 611.645 48.2261 611.211 48.0007C610.777 47.7753 610.241 47.6626 609.605 47.6626H608.233V54.1555ZM617.447 56H615.14L618.655 45.8182H621.429L624.939 56H622.632L620.081 48.1449H620.002L617.447 56ZM617.302 51.9979H622.751V53.6783H617.302V51.9979ZM631.455 48.7464C631.415 48.3454 631.245 48.0339 630.943 47.8118C630.642 47.5897 630.232 47.4787 629.715 47.4787C629.364 47.4787 629.067 47.5284 628.825 47.6278C628.583 47.724 628.398 47.8582 628.268 48.0305C628.143 48.2029 628.08 48.3984 628.08 48.6172C628.073 48.7995 628.111 48.9586 628.194 49.0945C628.28 49.2304 628.398 49.348 628.547 49.4474C628.696 49.5436 628.868 49.6281 629.064 49.701C629.259 49.7706 629.468 49.8303 629.69 49.88L630.605 50.0987C631.049 50.1982 631.457 50.3307 631.828 50.4964C632.199 50.6622 632.521 50.866 632.793 51.108C633.064 51.3499 633.275 51.6349 633.424 51.9631C633.576 52.2912 633.654 52.6674 633.658 53.0916C633.654 53.7147 633.495 54.255 633.18 54.7124C632.869 55.1664 632.418 55.5194 631.828 55.7713C631.241 56.0199 630.534 56.1442 629.705 56.1442C628.883 56.1442 628.167 56.0182 627.558 55.7663C626.951 55.5144 626.477 55.1416 626.136 54.6477C625.798 54.1506 625.62 53.5357 625.604 52.8033H627.687C627.71 53.1446 627.808 53.4297 627.98 53.6584C628.156 53.8838 628.389 54.0545 628.681 54.1705C628.976 54.2831 629.309 54.3395 629.68 54.3395C630.045 54.3395 630.362 54.2865 630.63 54.1804C630.902 54.0743 631.112 53.9268 631.261 53.7379C631.411 53.549 631.485 53.3319 631.485 53.0866C631.485 52.858 631.417 52.6657 631.281 52.5099C631.149 52.3542 630.953 52.2216 630.695 52.1122C630.439 52.0028 630.126 51.9034 629.755 51.8139L628.646 51.5355C627.788 51.3267 627.11 51.0002 626.613 50.5561C626.116 50.112 625.869 49.5137 625.872 48.7614C625.869 48.1449 626.033 47.6063 626.364 47.1456C626.699 46.6849 627.158 46.3253 627.741 46.0668C628.325 45.8082 628.988 45.679 629.73 45.679C630.486 45.679 631.145 45.8082 631.709 46.0668C632.276 46.3253 632.716 46.6849 633.031 47.1456C633.346 47.6063 633.509 48.1399 633.518 48.7464H631.455ZM635.106 56V45.8182H637.258V50.0192H641.628V45.8182H643.776V56H641.628V51.794H637.258V56H635.106ZM645.551 56V45.8182H649.628C650.377 45.8182 651.001 45.9292 651.502 46.1513C652.002 46.3733 652.379 46.6816 652.631 47.076C652.882 47.4671 653.008 47.9179 653.008 48.4283C653.008 48.826 652.929 49.1757 652.77 49.4773C652.611 49.7756 652.392 50.0208 652.113 50.2131C651.838 50.402 651.523 50.5362 651.169 50.6158V50.7152C651.557 50.7318 651.92 50.8411 652.258 51.0433C652.599 51.2455 652.876 51.5289 653.088 51.8935C653.3 52.2547 653.406 52.6856 653.406 53.1861C653.406 53.7263 653.272 54.2086 653.003 54.6328C652.738 55.0537 652.345 55.3868 651.825 55.6321C651.305 55.8774 650.663 56 649.901 56H645.551ZM647.704 54.2401H649.459C650.059 54.2401 650.496 54.1257 650.771 53.897C651.046 53.665 651.184 53.3568 651.184 52.9723C651.184 52.6906 651.116 52.442 650.98 52.2266C650.844 52.0111 650.65 51.8421 650.398 51.7195C650.15 51.5968 649.853 51.5355 649.508 51.5355H647.704V54.2401ZM647.704 50.0788H649.3C649.595 50.0788 649.856 50.0275 650.085 49.9247C650.317 49.8187 650.499 49.6695 650.632 49.4773C650.768 49.285 650.836 49.0547 650.836 48.7862C650.836 48.4183 650.705 48.1217 650.443 47.8963C650.184 47.6709 649.817 47.5582 649.339 47.5582H647.704V50.0788ZM664.163 50.9091C664.163 52.0194 663.953 52.964 663.532 53.7429C663.114 54.5218 662.544 55.1167 661.822 55.5277C661.103 55.9354 660.294 56.1392 659.396 56.1392C658.491 56.1392 657.679 55.9337 656.96 55.5227C656.24 55.1117 655.672 54.5168 655.254 53.7379C654.837 52.959 654.628 52.0161 654.628 50.9091C654.628 49.7988 654.837 48.8542 655.254 48.0753C655.672 47.2964 656.24 46.7031 656.96 46.2955C657.679 45.8845 658.491 45.679 659.396 45.679C660.294 45.679 661.103 45.8845 661.822 46.2955C662.544 46.7031 663.114 47.2964 663.532 48.0753C663.953 48.8542 664.163 49.7988 664.163 50.9091ZM661.981 50.9091C661.981 50.1899 661.873 49.5833 661.658 49.0895C661.446 48.5956 661.146 48.2211 660.758 47.9659C660.37 47.7107 659.916 47.5831 659.396 47.5831C658.875 47.5831 658.421 47.7107 658.033 47.9659C657.646 48.2211 657.344 48.5956 657.129 49.0895C656.916 49.5833 656.81 50.1899 656.81 50.9091C656.81 51.6283 656.916 52.2348 657.129 52.7287C657.344 53.2225 657.646 53.5971 658.033 53.8523C658.421 54.1075 658.875 54.2351 659.396 54.2351C659.916 54.2351 660.37 54.1075 660.758 53.8523C661.146 53.5971 661.446 53.2225 661.658 52.7287C661.873 52.2348 661.981 51.6283 661.981 50.9091ZM666.939 56H664.632L668.147 45.8182H670.921L674.431 56H672.124L669.574 48.1449H669.494L666.939 56ZM666.795 51.9979H672.243V53.6783H666.795V51.9979ZM675.656 56V45.8182H679.673C680.442 45.8182 681.099 45.9557 681.642 46.2308C682.189 46.5026 682.605 46.8887 682.89 47.3892C683.178 47.8864 683.323 48.4714 683.323 49.1442C683.323 49.8203 683.177 50.402 682.885 50.8892C682.593 51.3731 682.171 51.7443 681.617 52.0028C681.067 52.2614 680.401 52.3906 679.619 52.3906H676.929V50.6605H679.271C679.682 50.6605 680.023 50.6042 680.295 50.4915C680.567 50.3788 680.769 50.2098 680.901 49.9844C681.037 49.759 681.105 49.4789 681.105 49.1442C681.105 48.8061 681.037 48.5211 680.901 48.2891C680.769 48.0571 680.565 47.8814 680.29 47.7621C680.018 47.6394 679.675 47.5781 679.261 47.5781H677.809V56H675.656ZM681.155 51.3665L683.686 56H681.309L678.833 51.3665H681.155ZM688.453 56H684.844V45.8182H688.483C689.507 45.8182 690.389 46.022 691.128 46.4297C691.867 46.834 692.436 47.4157 692.833 48.1747C693.234 48.9337 693.435 49.8419 693.435 50.8991C693.435 51.9598 693.234 52.8712 692.833 53.6335C692.436 54.3958 691.864 54.9808 691.118 55.3885C690.376 55.7962 689.487 56 688.453 56ZM686.997 54.1555H688.364C689 54.1555 689.535 54.0429 689.97 53.8175C690.407 53.5888 690.735 53.2358 690.954 52.7585C691.176 52.2779 691.287 51.6581 691.287 50.8991C691.287 50.1468 691.176 49.532 690.954 49.0547C690.735 48.5774 690.409 48.2261 689.975 48.0007C689.54 47.7753 689.005 47.6626 688.369 47.6626H686.997V54.1555ZM698.864 45.3409L695.583 57.5312H693.758L697.039 45.3409H698.864ZM701.679 56H699.372L702.887 45.8182H705.661L709.171 56H706.864L704.314 48.1449H704.234L701.679 56ZM701.535 51.9979H706.984V53.6783H701.535V51.9979ZM718.902 49.3828H716.724C716.684 49.1011 716.603 48.8509 716.481 48.6321C716.358 48.41 716.201 48.2211 716.008 48.0653C715.816 47.9096 715.594 47.7902 715.342 47.7074C715.094 47.6245 714.823 47.5831 714.532 47.5831C714.005 47.5831 713.546 47.714 713.155 47.9759C712.764 48.2344 712.46 48.6122 712.245 49.1094C712.029 49.6032 711.922 50.2031 711.922 50.9091C711.922 51.6349 712.029 52.2448 712.245 52.7386C712.464 53.2325 712.769 53.6054 713.16 53.8572C713.551 54.1091 714.003 54.2351 714.517 54.2351C714.805 54.2351 715.072 54.197 715.317 54.1207C715.566 54.0445 715.786 53.9335 715.979 53.7876C716.171 53.6385 716.33 53.4579 716.456 53.2457C716.585 53.0336 716.675 52.7917 716.724 52.5199L718.902 52.5298C718.845 52.9972 718.705 53.4479 718.479 53.8821C718.257 54.313 717.957 54.6991 717.579 55.0405C717.205 55.3786 716.757 55.647 716.237 55.8459C715.72 56.0414 715.135 56.1392 714.482 56.1392C713.574 56.1392 712.762 55.9337 712.046 55.5227C711.333 55.1117 710.77 54.5168 710.356 53.7379C709.945 52.959 709.739 52.0161 709.739 50.9091C709.739 49.7988 709.948 48.8542 710.366 48.0753C710.783 47.2964 711.35 46.7031 712.066 46.2955C712.782 45.8845 713.587 45.679 714.482 45.679C715.072 45.679 715.619 45.7618 716.123 45.9276C716.63 46.0933 717.079 46.3352 717.47 46.6534C717.861 46.9683 718.179 47.3544 718.425 47.8118C718.673 48.2692 718.832 48.7929 718.902 49.3828ZM720.058 47.593V45.8182H728.42V47.593H725.303V56H723.175V47.593H720.058ZM731.95 45.8182V56H729.797V45.8182H731.95ZM735.56 45.8182L738.021 53.554H738.116L740.582 45.8182H742.968L739.458 56H736.684L733.169 45.8182H735.56ZM746.346 45.8182V56H744.194V45.8182H746.346ZM747.73 47.593V45.8182H756.092V47.593H752.975V56H750.847V47.593H747.73ZM756.872 45.8182H759.284L761.605 50.2031H761.705L764.026 45.8182H766.438L762.724 52.4006V56H760.586V52.4006L756.872 45.8182Z" fill="black"/>
<path d="M819.885 56V45.8182H822.038V54.2251H826.403V56H819.885ZM829.981 45.8182V56H827.828V45.8182H829.981ZM837.276 48.7464C837.236 48.3454 837.065 48.0339 836.763 47.8118C836.462 47.5897 836.053 47.4787 835.536 47.4787C835.184 47.4787 834.888 47.5284 834.646 47.6278C834.404 47.724 834.218 47.8582 834.089 48.0305C833.963 48.2029 833.9 48.3984 833.9 48.6172C833.893 48.7995 833.931 48.9586 834.014 49.0945C834.1 49.2304 834.218 49.348 834.367 49.4474C834.516 49.5436 834.689 49.6281 834.884 49.701C835.08 49.7706 835.289 49.8303 835.511 49.88L836.425 50.0987C836.87 50.1982 837.277 50.3307 837.648 50.4964C838.02 50.6622 838.341 50.866 838.613 51.108C838.885 51.3499 839.095 51.6349 839.244 51.9631C839.397 52.2912 839.475 52.6674 839.478 53.0916C839.475 53.7147 839.316 54.255 839.001 54.7124C838.689 55.1664 838.238 55.5194 837.648 55.7713C837.062 56.0199 836.354 56.1442 835.526 56.1442C834.704 56.1442 833.988 56.0182 833.378 55.7663C832.771 55.5144 832.297 55.1416 831.956 54.6477C831.618 54.1506 831.441 53.5357 831.424 52.8033H833.507C833.53 53.1446 833.628 53.4297 833.8 53.6584C833.976 53.8838 834.21 54.0545 834.501 54.1705C834.796 54.2831 835.129 54.3395 835.501 54.3395C835.865 54.3395 836.182 54.2865 836.45 54.1804C836.722 54.0743 836.933 53.9268 837.082 53.7379C837.231 53.549 837.305 53.3319 837.305 53.0866C837.305 52.858 837.237 52.6657 837.102 52.5099C836.969 52.3542 836.773 52.2216 836.515 52.1122C836.26 52.0028 835.946 51.9034 835.575 51.8139L834.467 51.5355C833.608 51.3267 832.93 51.0002 832.433 50.5561C831.936 50.112 831.689 49.5137 831.692 48.7614C831.689 48.1449 831.853 47.6063 832.185 47.1456C832.519 46.6849 832.978 46.3253 833.562 46.0668C834.145 45.8082 834.808 45.679 835.55 45.679C836.306 45.679 836.966 45.8082 837.529 46.0668C838.096 46.3253 838.537 46.6849 838.852 47.1456C839.166 47.6063 839.329 48.1399 839.339 48.7464H837.276ZM840.538 47.593V45.8182H848.9V47.593H845.783V56H843.655V47.593H840.538ZM852.921 45.8182H855.332L857.654 50.2031H857.754L860.075 45.8182H862.487L858.773 52.4006V56H856.635V52.4006L852.921 45.8182ZM872.404 50.9091C872.404 52.0194 872.193 52.964 871.772 53.7429C871.355 54.5218 870.785 55.1167 870.062 55.5277C869.343 55.9354 868.534 56.1392 867.636 56.1392C866.731 56.1392 865.919 55.9337 865.2 55.5227C864.481 55.1117 863.912 54.5168 863.494 53.7379C863.077 52.959 862.868 52.0161 862.868 50.9091C862.868 49.7988 863.077 48.8542 863.494 48.0753C863.912 47.2964 864.481 46.7031 865.2 46.2955C865.919 45.8845 866.731 45.679 867.636 45.679C868.534 45.679 869.343 45.8845 870.062 46.2955C870.785 46.7031 871.355 47.2964 871.772 48.0753C872.193 48.8542 872.404 49.7988 872.404 50.9091ZM870.221 50.9091C870.221 50.1899 870.113 49.5833 869.898 49.0895C869.686 48.5956 869.386 48.2211 868.998 47.9659C868.61 47.7107 868.156 47.5831 867.636 47.5831C867.115 47.5831 866.661 47.7107 866.274 47.9659C865.886 48.2211 865.584 48.5956 865.369 49.0895C865.157 49.5833 865.051 50.1899 865.051 50.9091C865.051 51.6283 865.157 52.2348 865.369 52.7287C865.584 53.2225 865.886 53.5971 866.274 53.8523C866.661 54.1075 867.115 54.2351 867.636 54.2351C868.156 54.2351 868.61 54.1075 868.998 53.8523C869.386 53.5971 869.686 53.2225 869.898 52.7287C870.113 52.2348 870.221 51.6283 870.221 50.9091ZM880.287 45.8182H882.44V52.4304C882.44 53.1728 882.263 53.8224 881.908 54.3793C881.557 54.9361 881.065 55.3703 880.431 55.6818C879.798 55.9901 879.061 56.1442 878.219 56.1442C877.374 56.1442 876.635 55.9901 876.002 55.6818C875.369 55.3703 874.877 54.9361 874.525 54.3793C874.174 53.8224 873.998 53.1728 873.998 52.4304V45.8182H876.151V52.2464C876.151 52.6342 876.235 52.9789 876.404 53.2805C876.577 53.5821 876.819 53.8191 877.13 53.9915C877.442 54.1638 877.805 54.25 878.219 54.25C878.637 54.25 879 54.1638 879.308 53.9915C879.619 53.8191 879.86 53.5821 880.029 53.2805C880.201 52.9789 880.287 52.6342 880.287 52.2464V45.8182ZM884.211 56V45.8182H888.228C888.997 45.8182 889.653 45.9557 890.197 46.2308C890.744 46.5026 891.16 46.8887 891.445 47.3892C891.733 47.8864 891.877 48.4714 891.877 49.1442C891.877 49.8203 891.731 50.402 891.44 50.8892C891.148 51.3731 890.726 51.7443 890.172 52.0028C889.622 52.2614 888.956 52.3906 888.173 52.3906H885.484V50.6605H887.825C888.236 50.6605 888.578 50.6042 888.85 50.4915C889.121 50.3788 889.324 50.2098 889.456 49.9844C889.592 49.759 889.66 49.4789 889.66 49.1442C889.66 48.8061 889.592 48.5211 889.456 48.2891C889.324 48.0571 889.12 47.8814 888.845 47.7621C888.573 47.6394 888.23 47.5781 887.816 47.5781H886.364V56H884.211ZM889.71 51.3665L892.24 56H889.864L887.388 51.3665H889.71ZM896.639 56V45.8182H900.656C901.428 45.8182 902.086 45.9657 902.63 46.2607C903.173 46.5523 903.587 46.9583 903.873 47.4787C904.161 47.9957 904.305 48.5923 904.305 49.2685C904.305 49.9446 904.159 50.5412 903.868 51.0582C903.576 51.5753 903.153 51.978 902.6 52.2663C902.05 52.5547 901.383 52.6989 900.601 52.6989H898.041V50.9737H900.253C900.667 50.9737 901.009 50.9025 901.277 50.7599C901.549 50.6141 901.751 50.4136 901.884 50.1584C902.02 49.8999 902.088 49.6032 902.088 49.2685C902.088 48.9304 902.02 48.6354 901.884 48.3835C901.751 48.1283 901.549 47.9311 901.277 47.7919C901.006 47.6494 900.661 47.5781 900.243 47.5781H898.792V56H896.639ZM905.703 56V45.8182H909.72C910.489 45.8182 911.146 45.9557 911.689 46.2308C912.236 46.5026 912.652 46.8887 912.937 47.3892C913.225 47.8864 913.369 48.4714 913.369 49.1442C913.369 49.8203 913.224 50.402 912.932 50.8892C912.64 51.3731 912.218 51.7443 911.664 52.0028C911.114 52.2614 910.448 52.3906 909.666 52.3906H906.976V50.6605H909.318C909.729 50.6605 910.07 50.6042 910.342 50.4915C910.614 50.3788 910.816 50.2098 910.948 49.9844C911.084 49.759 911.152 49.4789 911.152 49.1442C911.152 48.8061 911.084 48.5211 910.948 48.2891C910.816 48.0571 910.612 47.8814 910.337 47.7621C910.065 47.6394 909.722 47.5781 909.308 47.5781H907.856V56H905.703ZM911.202 51.3665L913.732 56H911.356L908.88 51.3665H911.202ZM924.247 50.9091C924.247 52.0194 924.037 52.964 923.616 53.7429C923.198 54.5218 922.628 55.1167 921.906 55.5277C921.186 55.9354 920.378 56.1392 919.48 56.1392C918.575 56.1392 917.763 55.9337 917.044 55.5227C916.324 55.1117 915.756 54.5168 915.338 53.7379C914.921 52.959 914.712 52.0161 914.712 50.9091C914.712 49.7988 914.921 48.8542 915.338 48.0753C915.756 47.2964 916.324 46.7031 917.044 46.2955C917.763 45.8845 918.575 45.679 919.48 45.679C920.378 45.679 921.186 45.8845 921.906 46.2955C922.628 46.7031 923.198 47.2964 923.616 48.0753C924.037 48.8542 924.247 49.7988 924.247 50.9091ZM922.065 50.9091C922.065 50.1899 921.957 49.5833 921.742 49.0895C921.53 48.5956 921.23 48.2211 920.842 47.9659C920.454 47.7107 920 47.5831 919.48 47.5831C918.959 47.5831 918.505 47.7107 918.117 47.9659C917.73 48.2211 917.428 48.5956 917.213 49.0895C917 49.5833 916.894 50.1899 916.894 50.9091C916.894 51.6283 917 52.2348 917.213 52.7287C917.428 53.2225 917.73 53.5971 918.117 53.8523C918.505 54.1075 918.959 54.2351 919.48 54.2351C920 54.2351 920.454 54.1075 920.842 53.8523C921.23 53.5971 921.53 53.2225 921.742 52.7287C921.957 52.2348 922.065 51.6283 922.065 50.9091ZM925.842 56V45.8182H929.859C930.631 45.8182 931.289 45.9657 931.833 46.2607C932.376 46.5523 932.791 46.9583 933.076 47.4787C933.364 47.9957 933.508 48.5923 933.508 49.2685C933.508 49.9446 933.362 50.5412 933.071 51.0582C932.779 51.5753 932.356 51.978 931.803 52.2663C931.253 52.5547 930.587 52.6989 929.804 52.6989H927.244V50.9737H929.456C929.871 50.9737 930.212 50.9025 930.48 50.7599C930.752 50.6141 930.954 50.4136 931.087 50.1584C931.223 49.8999 931.291 49.6032 931.291 49.2685C931.291 48.9304 931.223 48.6354 931.087 48.3835C930.954 48.1283 930.752 47.9311 930.48 47.7919C930.209 47.6494 929.864 47.5781 929.446 47.5781H927.995V56H925.842ZM934.906 56V45.8182H941.767V47.593H937.059V50.0192H941.414V51.794H937.059V54.2251H941.787V56H934.906ZM943.479 56V45.8182H947.496C948.265 45.8182 948.921 45.9557 949.464 46.2308C950.011 46.5026 950.427 46.8887 950.712 47.3892C951.001 47.8864 951.145 48.4714 951.145 49.1442C951.145 49.8203 950.999 50.402 950.707 50.8892C950.416 51.3731 949.993 51.7443 949.44 52.0028C948.889 52.2614 948.223 52.3906 947.441 52.3906H944.751V50.6605H947.093C947.504 50.6605 947.845 50.6042 948.117 50.4915C948.389 50.3788 948.591 50.2098 948.724 49.9844C948.86 49.759 948.928 49.4789 948.928 49.1442C948.928 48.8061 948.86 48.5211 948.724 48.2891C948.591 48.0571 948.387 47.8814 948.112 47.7621C947.84 47.6394 947.497 47.5781 947.083 47.5781H945.631V56H943.479ZM948.977 51.3665L951.508 56H949.131L946.656 51.3665H948.977ZM952.278 47.593V45.8182H960.641V47.593H957.523V56H955.396V47.593H952.278ZM961.421 45.8182H963.832L966.154 50.2031H966.254L968.575 45.8182H970.987L967.273 52.4006V56H965.135V52.4006L961.421 45.8182Z" fill="black"/>
<path d="M819 58.7841H971.275V59.7386H819V58.7841Z" fill="black"/>
<path d="M1033.87 49.3828H1031.69C1031.65 49.1011 1031.57 48.8509 1031.45 48.6321C1031.32 48.41 1031.17 48.2211 1030.98 48.0653C1030.78 47.9096 1030.56 47.7902 1030.31 47.7074C1030.06 47.6245 1029.79 47.5831 1029.5 47.5831C1028.97 47.5831 1028.51 47.714 1028.12 47.9759C1027.73 48.2344 1027.43 48.6122 1027.21 49.1094C1027 49.6032 1026.89 50.2031 1026.89 50.9091C1026.89 51.6349 1027 52.2448 1027.21 52.7386C1027.43 53.2325 1027.74 53.6054 1028.13 53.8572C1028.52 54.1091 1028.97 54.2351 1029.48 54.2351C1029.77 54.2351 1030.04 54.197 1030.28 54.1207C1030.53 54.0445 1030.75 53.9335 1030.95 53.7876C1031.14 53.6385 1031.3 53.4579 1031.42 53.2457C1031.55 53.0336 1031.64 52.7917 1031.69 52.5199L1033.87 52.5298C1033.81 52.9972 1033.67 53.4479 1033.45 53.8821C1033.22 54.313 1032.92 54.6991 1032.55 55.0405C1032.17 55.3786 1031.72 55.647 1031.2 55.8459C1030.69 56.0414 1030.1 56.1392 1029.45 56.1392C1028.54 56.1392 1027.73 55.9337 1027.01 55.5227C1026.3 55.1117 1025.74 54.5168 1025.32 53.7379C1024.91 52.959 1024.71 52.0161 1024.71 50.9091C1024.71 49.7988 1024.91 48.8542 1025.33 48.0753C1025.75 47.2964 1026.32 46.7031 1027.03 46.2955C1027.75 45.8845 1028.55 45.679 1029.45 45.679C1030.04 45.679 1030.59 45.7618 1031.09 45.9276C1031.6 46.0933 1032.05 46.3352 1032.44 46.6534C1032.83 46.9683 1033.15 47.3544 1033.39 47.8118C1033.64 48.2692 1033.8 48.7929 1033.87 49.3828ZM1044.77 50.9091C1044.77 52.0194 1044.56 52.964 1044.14 53.7429C1043.72 54.5218 1043.15 55.1167 1042.43 55.5277C1041.71 55.9354 1040.9 56.1392 1040 56.1392C1039.1 56.1392 1038.28 55.9337 1037.56 55.5227C1036.85 55.1117 1036.28 54.5168 1035.86 53.7379C1035.44 52.959 1035.23 52.0161 1035.23 50.9091C1035.23 49.7988 1035.44 48.8542 1035.86 48.0753C1036.28 47.2964 1036.85 46.7031 1037.56 46.2955C1038.28 45.8845 1039.1 45.679 1040 45.679C1040.9 45.679 1041.71 45.8845 1042.43 46.2955C1043.15 46.7031 1043.72 47.2964 1044.14 48.0753C1044.56 48.8542 1044.77 49.7988 1044.77 50.9091ZM1042.59 50.9091C1042.59 50.1899 1042.48 49.5833 1042.26 49.0895C1042.05 48.5956 1041.75 48.2211 1041.36 47.9659C1040.98 47.7107 1040.52 47.5831 1040 47.5831C1039.48 47.5831 1039.03 47.7107 1038.64 47.9659C1038.25 48.2211 1037.95 48.5956 1037.73 49.0895C1037.52 49.5833 1037.42 50.1899 1037.42 50.9091C1037.42 51.6283 1037.52 52.2348 1037.73 52.7287C1037.95 53.2225 1038.25 53.5971 1038.64 53.8523C1039.03 54.1075 1039.48 54.2351 1040 54.2351C1040.52 54.2351 1040.98 54.1075 1041.36 53.8523C1041.75 53.5971 1042.05 53.2225 1042.26 52.7287C1042.48 52.2348 1042.59 51.6283 1042.59 50.9091ZM1054.88 45.8182V56H1053.02L1048.59 49.5916H1048.52V56H1046.36V45.8182H1048.25L1052.65 52.2216H1052.74V45.8182H1054.88ZM1056.27 47.593V45.8182H1064.63V47.593H1061.52V56H1059.39V47.593H1056.27ZM1066.52 56H1064.21L1067.73 45.8182H1070.5L1074.01 56H1071.71L1069.16 48.1449H1069.08L1066.52 56ZM1066.38 51.9979H1071.83V53.6783H1066.38V51.9979ZM1083.74 49.3828H1081.57C1081.53 49.1011 1081.45 48.8509 1081.32 48.6321C1081.2 48.41 1081.04 48.2211 1080.85 48.0653C1080.66 47.9096 1080.44 47.7902 1080.18 47.7074C1079.94 47.6245 1079.67 47.5831 1079.37 47.5831C1078.85 47.5831 1078.39 47.714 1078 47.9759C1077.61 48.2344 1077.3 48.6122 1077.09 49.1094C1076.87 49.6032 1076.76 50.2031 1076.76 50.9091C1076.76 51.6349 1076.87 52.2448 1077.09 52.7386C1077.31 53.2325 1077.61 53.6054 1078 53.8572C1078.39 54.1091 1078.84 54.2351 1079.36 54.2351C1079.65 54.2351 1079.91 54.197 1080.16 54.1207C1080.41 54.0445 1080.63 53.9335 1080.82 53.7876C1081.01 53.6385 1081.17 53.4579 1081.3 53.2457C1081.43 53.0336 1081.52 52.7917 1081.57 52.5199L1083.74 52.5298C1083.69 52.9972 1083.55 53.4479 1083.32 53.8821C1083.1 54.313 1082.8 54.6991 1082.42 55.0405C1082.05 55.3786 1081.6 55.647 1081.08 55.8459C1080.56 56.0414 1079.98 56.1392 1079.32 56.1392C1078.42 56.1392 1077.6 55.9337 1076.89 55.5227C1076.18 55.1117 1075.61 54.5168 1075.2 53.7379C1074.79 52.959 1074.58 52.0161 1074.58 50.9091C1074.58 49.7988 1074.79 48.8542 1075.21 48.0753C1075.63 47.2964 1076.19 46.7031 1076.91 46.2955C1077.62 45.8845 1078.43 45.679 1079.32 45.679C1079.91 45.679 1080.46 45.7618 1080.96 45.9276C1081.47 46.0933 1081.92 46.3352 1082.31 46.6534C1082.7 46.9683 1083.02 47.3544 1083.27 47.8118C1083.51 48.2692 1083.67 48.7929 1083.74 49.3828ZM1084.9 47.593V45.8182H1093.26V47.593H1090.14V56H1088.02V47.593H1084.9ZM1104.17 45.8182H1106.32V52.4304C1106.32 53.1728 1106.14 53.8224 1105.79 54.3793C1105.44 54.9361 1104.95 55.3703 1104.31 55.6818C1103.68 55.9901 1102.94 56.1442 1102.1 56.1442C1101.25 56.1442 1100.52 55.9901 1099.88 55.6818C1099.25 55.3703 1098.76 54.9361 1098.41 54.3793C1098.05 53.8224 1097.88 53.1728 1097.88 52.4304V45.8182H1100.03V52.2464C1100.03 52.6342 1100.12 52.9789 1100.29 53.2805C1100.46 53.5821 1100.7 53.8191 1101.01 53.9915C1101.32 54.1638 1101.69 54.25 1102.1 54.25C1102.52 54.25 1102.88 54.1638 1103.19 53.9915C1103.5 53.8191 1103.74 53.5821 1103.91 53.2805C1104.08 52.9789 1104.17 52.6342 1104.17 52.2464V45.8182ZM1113.62 48.7464C1113.58 48.3454 1113.4 48.0339 1113.1 47.8118C1112.8 47.5897 1112.39 47.4787 1111.88 47.4787C1111.52 47.4787 1111.23 47.5284 1110.99 47.6278C1110.74 47.724 1110.56 47.8582 1110.43 48.0305C1110.3 48.2029 1110.24 48.3984 1110.24 48.6172C1110.23 48.7995 1110.27 48.9586 1110.35 49.0945C1110.44 49.2304 1110.56 49.348 1110.71 49.4474C1110.86 49.5436 1111.03 49.6281 1111.22 49.701C1111.42 49.7706 1111.63 49.8303 1111.85 49.88L1112.77 50.0987C1113.21 50.1982 1113.62 50.3307 1113.99 50.4964C1114.36 50.6622 1114.68 50.866 1114.95 51.108C1115.22 51.3499 1115.44 51.6349 1115.58 51.9631C1115.74 52.2912 1115.81 52.6674 1115.82 53.0916C1115.81 53.7147 1115.66 54.255 1115.34 54.7124C1115.03 55.1664 1114.58 55.5194 1113.99 55.7713C1113.4 56.0199 1112.69 56.1442 1111.87 56.1442C1111.04 56.1442 1110.33 56.0182 1109.72 55.7663C1109.11 55.5144 1108.64 55.1416 1108.3 54.6477C1107.96 54.1506 1107.78 53.5357 1107.76 52.8033H1109.85C1109.87 53.1446 1109.97 53.4297 1110.14 53.6584C1110.32 53.8838 1110.55 54.0545 1110.84 54.1705C1111.14 54.2831 1111.47 54.3395 1111.84 54.3395C1112.21 54.3395 1112.52 54.2865 1112.79 54.1804C1113.06 54.0743 1113.27 53.9268 1113.42 53.7379C1113.57 53.549 1113.65 53.3319 1113.65 53.0866C1113.65 52.858 1113.58 52.6657 1113.44 52.5099C1113.31 52.3542 1113.11 52.2216 1112.85 52.1122C1112.6 52.0028 1112.29 51.9034 1111.92 51.8139L1110.81 51.5355C1109.95 51.3267 1109.27 51.0002 1108.77 50.5561C1108.28 50.112 1108.03 49.5137 1108.03 48.7614C1108.03 48.1449 1108.19 47.6063 1108.52 47.1456C1108.86 46.6849 1109.32 46.3253 1109.9 46.0668C1110.48 45.8082 1111.15 45.679 1111.89 45.679C1112.65 45.679 1113.31 45.8082 1113.87 46.0668C1114.44 46.3253 1114.88 46.6849 1115.19 47.1456C1115.51 47.6063 1115.67 48.1399 1115.68 48.7464H1113.62Z" fill="black"/>
<path d="M1169.88 45.8182H1172.54L1175.34 52.6591H1175.46L1178.27 45.8182H1180.92V56H1178.83V49.3729H1178.75L1176.11 55.9503H1174.69L1172.06 49.348H1171.97V56H1169.88V45.8182ZM1192.05 50.9091C1192.05 52.0194 1191.84 52.964 1191.42 53.7429C1191 54.5218 1190.43 55.1167 1189.71 55.5277C1188.99 55.9354 1188.18 56.1392 1187.28 56.1392C1186.38 56.1392 1185.57 55.9337 1184.85 55.5227C1184.13 55.1117 1183.56 54.5168 1183.14 53.7379C1182.73 52.959 1182.52 52.0161 1182.52 50.9091C1182.52 49.7988 1182.73 48.8542 1183.14 48.0753C1183.56 47.2964 1184.13 46.7031 1184.85 46.2955C1185.57 45.8845 1186.38 45.679 1187.28 45.679C1188.18 45.679 1188.99 45.8845 1189.71 46.2955C1190.43 46.7031 1191 47.2964 1191.42 48.0753C1191.84 48.8542 1192.05 49.7988 1192.05 50.9091ZM1189.87 50.9091C1189.87 50.1899 1189.76 49.5833 1189.55 49.0895C1189.33 48.5956 1189.03 48.2211 1188.65 47.9659C1188.26 47.7107 1187.8 47.5831 1187.28 47.5831C1186.76 47.5831 1186.31 47.7107 1185.92 47.9659C1185.53 48.2211 1185.23 48.5956 1185.02 49.0895C1184.81 49.5833 1184.7 50.1899 1184.7 50.9091C1184.7 51.6283 1184.81 52.2348 1185.02 52.7287C1185.23 53.2225 1185.53 53.5971 1185.92 53.8523C1186.31 54.1075 1186.76 54.2351 1187.28 54.2351C1187.8 54.2351 1188.26 54.1075 1188.65 53.8523C1189.03 53.5971 1189.33 53.2225 1189.55 52.7287C1189.76 52.2348 1189.87 51.6283 1189.87 50.9091ZM1193.65 56V45.8182H1197.66C1198.43 45.8182 1199.09 45.9557 1199.63 46.2308C1200.18 46.5026 1200.6 46.8887 1200.88 47.3892C1201.17 47.8864 1201.31 48.4714 1201.31 49.1442C1201.31 49.8203 1201.17 50.402 1200.88 50.8892C1200.58 51.3731 1200.16 51.7443 1199.61 52.0028C1199.06 52.2614 1198.39 52.3906 1197.61 52.3906H1194.92V50.6605H1197.26C1197.67 50.6605 1198.01 50.6042 1198.29 50.4915C1198.56 50.3788 1198.76 50.2098 1198.89 49.9844C1199.03 49.759 1199.1 49.4789 1199.1 49.1442C1199.1 48.8061 1199.03 48.5211 1198.89 48.2891C1198.76 48.0571 1198.56 47.8814 1198.28 47.7621C1198.01 47.6394 1197.67 47.5781 1197.25 47.5781H1195.8V56H1193.65ZM1199.15 51.3665L1201.68 56H1199.3L1196.82 51.3665H1199.15ZM1202.83 56V45.8182H1209.69V47.593H1204.99V50.0192H1209.34V51.794H1204.99V54.2251H1209.71V56H1202.83Z" fill="black"/>
<line x1="1261.7" y1="35" x2="1261.7" y2="59" stroke="black" stroke-width="1.4"/>
<path d="M1306 43L1312 49" stroke="black" stroke-width="2" stroke-linecap="round" stroke-linejoin="round"/>
<path d="M1305 49L1311 43L1313 40" stroke="black" stroke-width="2" stroke-linecap="round" stroke-linejoin="round"/>
<path d="M1303 40H1315" stroke="black" stroke-width="2" stroke-linecap="round" stroke-linejoin="round"/>
<path d="M1308 37H1309" stroke="black" stroke-width="2" stroke-linecap="round" stroke-linejoin="round"/>
<path d="M1323 57L1318 47L1313 57" stroke="black" stroke-width="2" stroke-linecap="round" stroke-linejoin="round"/>
<path d="M1315 53H1321" stroke="black" stroke-width="2" stroke-linecap="round" stroke-linejoin="round"/>
<path d="M1369.5 46.375C1371.92 46.375 1373.88 44.4162 1373.88 42C1373.88 39.5838 1371.92 37.625 1369.5 37.625C1367.08 37.625 1365.12 39.5838 1365.12 42C1365.12 44.4162 1367.08 46.375 1369.5 46.375Z" stroke="black" stroke-width="2" stroke-linecap="round" stroke-linejoin="round"/>
<path d="M1376.5 53.375C1376.5 51.5185 1375.76 49.738 1374.45 48.4253C1373.14 47.1125 1371.36 46.375 1369.5 46.375C1367.64 46.375 1365.86 47.1125 1364.55 48.4253C1363.24 49.738 1362.5 51.5185 1362.5 53.375" stroke="black" stroke-width="2" stroke-linecap="round" stroke-linejoin="round"/>
<defs>
<linearGradient id="paint0_linear_5_9134" x1="83.7388" y1="9" x2="83.7388" y2="36.03" gradientUnits="userSpaceOnUse">
<stop stop-color="#A87E47"/>
<stop offset="0.49" stop-color="#FFDEC2"/>
<stop offset="1" stop-color="#AE7F41"/>
</linearGradient>
<linearGradient id="paint1_linear_5_9134" x1="81.3398" y1="28.7749" x2="81.3398" y2="32.1362" gradientUnits="userSpaceOnUse">
<stop stop-color="#A57A46"/>
<stop offset="1" stop-color="#F7D9BC"/>
</linearGradient>
<linearGradient id="paint2_linear_5_9134" x1="86.1372" y1="28.7749" x2="86.1372" y2="32.1362" gradientUnits="userSpaceOnUse">
<stop stop-color="#A57A46"/>
<stop offset="1" stop-color="#F7D9BC"/>
</linearGradient>
<linearGradient id="paint3_linear_5_9134" x1="81.3398" y1="33.5723" x2="81.3398" y2="36.9335" gradientUnits="userSpaceOnUse">
<stop stop-color="#A57A46"/>
<stop offset="1" stop-color="#F7D9BC"/>
</linearGradient>
<linearGradient id="paint4_linear_5_9134" x1="86.1372" y1="33.5723" x2="86.1372" y2="36.9335" gradientUnits="userSpaceOnUse">
<stop stop-color="#A57A46"/>
<stop offset="1" stop-color="#F7D9BC"/>
</linearGradient>
</defs>
</svg>
