<svg width="135" height="96" viewBox="0 0 135 96" fill="none" xmlns="http://www.w3.org/2000/svg">
<g clip-path="url(#clip0_67_5909)">
<path d="M83.3363 26.9811L79.9363 30.7009L77.3863 23.8192C77.1459 23.115 76.716 22.5069 76.1533 22.0753C75.5907 21.6437 74.9217 21.4087 74.2345 21.4014H61.9163C61.2236 21.384 60.5425 21.5985 59.9643 22.0164C59.3862 22.4342 58.9385 23.0353 58.6812 23.7393L56.1363 30.7009L52.7363 26.9811" stroke="#7A7A7A" stroke-width="2" stroke-linecap="round" stroke-linejoin="round"/>
<path d="M59.5371 38.1406H59.5541" stroke="#7A7A7A" stroke-width="2" stroke-linecap="round" stroke-linejoin="round"/>
<path d="M76.5371 38.1406H76.5541" stroke="#7A7A7A" stroke-width="2" stroke-linecap="round" stroke-linejoin="round"/>
<path d="M79.9363 30.7012H56.1363C54.2586 30.7012 52.7363 32.3666 52.7363 34.421V41.8606C52.7363 43.915 54.2586 45.5804 56.1363 45.5804H79.9363C81.8141 45.5804 83.3363 43.915 83.3363 41.8606V34.421C83.3363 32.3666 81.8141 30.7012 79.9363 30.7012Z" stroke="#7A7A7A" stroke-width="2" stroke-linecap="round" stroke-linejoin="round"/>
<path d="M56.1367 45.5801V49.2999" stroke="#7A7A7A" stroke-width="2" stroke-linecap="round" stroke-linejoin="round"/>
<path d="M79.9355 45.5801V49.2999" stroke="#7A7A7A" stroke-width="2" stroke-linecap="round" stroke-linejoin="round"/>
</g>
<path d="M10.733 77V66.8182H14.1733C14.9688 66.8182 15.6217 66.9541 16.1321 67.2259C16.6425 67.4943 17.0204 67.8639 17.2656 68.3345C17.5109 68.8052 17.6335 69.3404 17.6335 69.9403C17.6335 70.5402 17.5109 71.0722 17.2656 71.5362C17.0204 72.0002 16.6442 72.3648 16.1371 72.63C15.63 72.8918 14.982 73.0227 14.1932 73.0227H11.4091V71.9091H14.1534C14.697 71.9091 15.1345 71.8295 15.4659 71.6705C15.8007 71.5114 16.0426 71.286 16.1918 70.9943C16.3442 70.6993 16.4205 70.348 16.4205 69.9403C16.4205 69.5327 16.3442 69.1764 16.1918 68.8714C16.0393 68.5665 15.7957 68.3312 15.4609 68.1655C15.1262 67.9964 14.6837 67.9119 14.1335 67.9119H11.9659V77H10.733ZM15.5256 72.4261L18.0312 77H16.5994L14.1335 72.4261H15.5256ZM22.6486 77.1591C21.9128 77.1591 21.2781 76.9967 20.7445 76.6719C20.2142 76.3438 19.8049 75.8864 19.5165 75.2997C19.2315 74.7098 19.089 74.0237 19.089 73.2415C19.089 72.4593 19.2315 71.7699 19.5165 71.1733C19.8049 70.5734 20.2059 70.1061 20.7196 69.7713C21.2367 69.4332 21.8399 69.2642 22.5293 69.2642C22.927 69.2642 23.3198 69.3305 23.7076 69.4631C24.0953 69.5956 24.4483 69.8111 24.7665 70.1094C25.0847 70.4044 25.3382 70.7955 25.5272 71.2827C25.7161 71.7699 25.8105 72.3698 25.8105 73.0824V73.5795H19.9242V72.5653H24.6174C24.6174 72.1345 24.5312 71.75 24.3588 71.4119C24.1898 71.0739 23.9479 70.8071 23.633 70.6115C23.3214 70.416 22.9535 70.3182 22.5293 70.3182C22.062 70.3182 21.6576 70.4342 21.3162 70.6662C20.9782 70.8949 20.718 71.1932 20.5357 71.5611C20.3534 71.929 20.2623 72.3234 20.2623 72.7443V73.4205C20.2623 73.9972 20.3617 74.486 20.5605 74.8871C20.7627 75.2848 21.0428 75.5881 21.4007 75.7969C21.7587 76.0024 22.1747 76.1051 22.6486 76.1051C22.9569 76.1051 23.2353 76.062 23.4838 75.9759C23.7357 75.8864 23.9528 75.7538 24.1351 75.5781C24.3174 75.3991 24.4583 75.1771 24.5577 74.9119L25.6912 75.2301C25.5719 75.6146 25.3714 75.9527 25.0897 76.2443C24.8079 76.5327 24.4599 76.758 24.0456 76.9205C23.6313 77.0795 23.1657 77.1591 22.6486 77.1591ZM33.0044 71.0739L31.9505 71.3722C31.8842 71.1965 31.7864 71.0258 31.6571 70.8601C31.5312 70.6911 31.3588 70.5518 31.1401 70.4425C30.9213 70.3331 30.6413 70.2784 30.2999 70.2784C29.8326 70.2784 29.4431 70.3861 29.1316 70.6016C28.8233 70.8137 28.6692 71.0838 28.6692 71.4119C28.6692 71.7036 28.7753 71.9339 28.9874 72.103C29.1995 72.272 29.531 72.4129 29.9817 72.5256L31.1152 72.804C31.798 72.9697 32.3068 73.2232 32.6415 73.5646C32.9763 73.9027 33.1436 74.3385 33.1436 74.8722C33.1436 75.3097 33.0177 75.7008 32.7658 76.0455C32.5172 76.3902 32.1692 76.6619 31.7218 76.8608C31.2743 77.0597 30.754 77.1591 30.1607 77.1591C29.3818 77.1591 28.7372 76.9901 28.2267 76.652C27.7163 76.3139 27.3932 75.8201 27.2573 75.1705L28.3709 74.892C28.477 75.303 28.6775 75.6113 28.9725 75.8168C29.2708 76.0223 29.6602 76.125 30.1408 76.125C30.6877 76.125 31.1219 76.009 31.4434 75.777C31.7682 75.5417 31.9306 75.2599 31.9306 74.9318C31.9306 74.6667 31.8378 74.4446 31.6522 74.2656C31.4666 74.0833 31.1815 73.9474 30.7971 73.858L29.5243 73.5597C28.825 73.3939 28.3113 73.1371 27.9831 72.7891C27.6583 72.4377 27.4959 71.9986 27.4959 71.4716C27.4959 71.0407 27.6169 70.6596 27.8588 70.3281C28.1041 69.9967 28.4372 69.7365 28.8581 69.5476C29.2824 69.3587 29.763 69.2642 30.2999 69.2642C31.0556 69.2642 31.6489 69.4299 32.0797 69.7614C32.5139 70.0928 32.8221 70.5303 33.0044 71.0739ZM38.1115 77.1591C37.3757 77.1591 36.741 76.9967 36.2074 76.6719C35.6771 76.3438 35.2678 75.8864 34.9794 75.2997C34.6944 74.7098 34.5518 74.0237 34.5518 73.2415C34.5518 72.4593 34.6944 71.7699 34.9794 71.1733C35.2678 70.5734 35.6688 70.1061 36.1825 69.7713C36.6996 69.4332 37.3028 69.2642 37.9922 69.2642C38.3899 69.2642 38.7827 69.3305 39.1705 69.4631C39.5582 69.5956 39.9112 69.8111 40.2294 70.1094C40.5476 70.4044 40.8011 70.7955 40.9901 71.2827C41.179 71.7699 41.2734 72.3698 41.2734 73.0824V73.5795H35.3871V72.5653H40.0803C40.0803 72.1345 39.9941 71.75 39.8217 71.4119C39.6527 71.0739 39.4107 70.8071 39.0959 70.6115C38.7843 70.416 38.4164 70.3182 37.9922 70.3182C37.5249 70.3182 37.1205 70.4342 36.7791 70.6662C36.4411 70.8949 36.1809 71.1932 35.9986 71.5611C35.8163 71.929 35.7251 72.3234 35.7251 72.7443V73.4205C35.7251 73.9972 35.8246 74.486 36.0234 74.8871C36.2256 75.2848 36.5057 75.5881 36.8636 75.7969C37.2216 76.0024 37.6375 76.1051 38.1115 76.1051C38.4197 76.1051 38.6982 76.062 38.9467 75.9759C39.1986 75.8864 39.4157 75.7538 39.598 75.5781C39.7803 75.3991 39.9212 75.1771 40.0206 74.9119L41.1541 75.2301C41.0348 75.6146 40.8343 75.9527 40.5526 76.2443C40.2708 76.5327 39.9228 76.758 39.5085 76.9205C39.0942 77.0795 38.6286 77.1591 38.1115 77.1591ZM43.0582 77V69.3636H44.1918V70.517H44.2713C44.4105 70.1392 44.6624 69.8326 45.027 69.5973C45.3916 69.362 45.8026 69.2443 46.2599 69.2443C46.3461 69.2443 46.4538 69.246 46.5831 69.2493C46.7124 69.2526 46.8101 69.2576 46.8764 69.2642V70.4574C46.8366 70.4474 46.7455 70.4325 46.603 70.4126C46.4638 70.3894 46.3163 70.3778 46.1605 70.3778C45.7893 70.3778 45.4579 70.4557 45.1662 70.6115C44.8778 70.764 44.6491 70.9761 44.4801 71.2479C44.3144 71.5163 44.2315 71.8229 44.2315 72.1676V77H43.0582ZM54.744 69.3636L51.9201 77H50.7269L47.9031 69.3636H49.1758L51.2837 75.4489H51.3633L53.4712 69.3636H54.744ZM59.2209 77.1591C58.4851 77.1591 57.8504 76.9967 57.3168 76.6719C56.7865 76.3438 56.3771 75.8864 56.0888 75.2997C55.8037 74.7098 55.6612 74.0237 55.6612 73.2415C55.6612 72.4593 55.8037 71.7699 56.0888 71.1733C56.3771 70.5734 56.7782 70.1061 57.2919 69.7713C57.8089 69.4332 58.4122 69.2642 59.1016 69.2642C59.4993 69.2642 59.892 69.3305 60.2798 69.4631C60.6676 69.5956 61.0206 69.8111 61.3388 70.1094C61.657 70.4044 61.9105 70.7955 62.0994 71.2827C62.2884 71.7699 62.3828 72.3698 62.3828 73.0824V73.5795H56.4964V72.5653H61.1896C61.1896 72.1345 61.1035 71.75 60.9311 71.4119C60.7621 71.0739 60.5201 70.8071 60.2053 70.6115C59.8937 70.416 59.5258 70.3182 59.1016 70.3182C58.6342 70.3182 58.2299 70.4342 57.8885 70.6662C57.5504 70.8949 57.2902 71.1932 57.108 71.5611C56.9257 71.929 56.8345 72.3234 56.8345 72.7443V73.4205C56.8345 73.9972 56.9339 74.486 57.1328 74.8871C57.335 75.2848 57.6151 75.5881 57.973 75.7969C58.331 76.0024 58.7469 76.1051 59.2209 76.1051C59.5291 76.1051 59.8075 76.062 60.0561 75.9759C60.308 75.8864 60.5251 75.7538 60.7074 75.5781C60.8897 75.3991 61.0305 75.1771 61.13 74.9119L62.2635 75.2301C62.1442 75.6146 61.9437 75.9527 61.6619 76.2443C61.3802 76.5327 61.0322 76.758 60.6179 76.9205C60.2036 77.0795 59.7379 77.1591 59.2209 77.1591ZM67.0511 77.1591C66.4148 77.1591 65.853 76.9983 65.3658 76.6768C64.8786 76.352 64.4974 75.8946 64.2223 75.3047C63.9472 74.7114 63.8097 74.0104 63.8097 73.2017C63.8097 72.3996 63.9472 71.7036 64.2223 71.1136C64.4974 70.5237 64.8802 70.0679 65.3707 69.7464C65.8613 69.425 66.428 69.2642 67.071 69.2642C67.5682 69.2642 67.9609 69.3471 68.2493 69.5128C68.541 69.6752 68.763 69.8608 68.9155 70.0696C69.0713 70.2751 69.1922 70.4441 69.2784 70.5767H69.3778V66.8182H70.5511V77H69.4176V75.8267H69.2784C69.1922 75.9659 69.0696 76.1416 68.9105 76.3537C68.7514 76.5625 68.5244 76.7498 68.2294 76.9155C67.9344 77.0779 67.5417 77.1591 67.0511 77.1591ZM67.2102 76.1051C67.6809 76.1051 68.0786 75.9825 68.4034 75.7372C68.7282 75.4886 68.9751 75.1456 69.1442 74.7081C69.3132 74.2673 69.3977 73.7585 69.3977 73.1818C69.3977 72.6117 69.3149 72.1129 69.1491 71.6854C68.9834 71.2545 68.7382 70.9197 68.4134 70.6811C68.0885 70.4392 67.6875 70.3182 67.2102 70.3182C66.7131 70.3182 66.2988 70.4458 65.9673 70.701C65.6392 70.9529 65.3923 71.2959 65.2266 71.7301C65.0642 72.161 64.983 72.6449 64.983 73.1818C64.983 73.7254 65.0658 74.2192 65.2315 74.6634C65.4006 75.1042 65.6491 75.4555 65.9773 75.7173C66.3087 75.9759 66.7197 76.1051 67.2102 76.1051ZM76.9595 77V66.8182H80.3999C81.1986 66.8182 81.8516 66.9624 82.3587 67.2507C82.8691 67.5357 83.2469 67.9219 83.4922 68.4091C83.7375 68.8963 83.8601 69.4399 83.8601 70.0398C83.8601 70.6397 83.7375 71.1849 83.4922 71.6754C83.2502 72.166 82.8757 72.5571 82.3686 72.8487C81.8615 73.1371 81.2119 73.2812 80.4197 73.2812H77.9538V72.1875H80.38C80.9268 72.1875 81.366 72.093 81.6974 71.9041C82.0289 71.7152 82.2692 71.46 82.4183 71.1385C82.5708 70.8137 82.647 70.4474 82.647 70.0398C82.647 69.6321 82.5708 69.2675 82.4183 68.946C82.2692 68.6245 82.0272 68.3726 81.6925 68.1903C81.3577 68.0047 80.9136 67.9119 80.3601 67.9119H78.1925V77H76.9595ZM87.9343 77.179C87.4504 77.179 87.0112 77.0878 86.6168 76.9055C86.2224 76.7199 85.9092 76.4531 85.6772 76.1051C85.4452 75.7538 85.3292 75.3295 85.3292 74.8324C85.3292 74.3949 85.4154 74.0402 85.5877 73.7685C85.7601 73.4934 85.9904 73.2779 86.2788 73.1222C86.5671 72.9664 86.8853 72.8504 87.2333 72.7741C87.5846 72.6946 87.9376 72.6316 88.2923 72.5852C88.7563 72.5256 89.1325 72.4808 89.4208 72.451C89.7125 72.4179 89.9246 72.3632 90.0572 72.2869C90.1931 72.2107 90.261 72.0781 90.261 71.8892V71.8494C90.261 71.3589 90.1268 70.9777 89.8583 70.706C89.5932 70.4342 89.1905 70.2983 88.6502 70.2983C88.0901 70.2983 87.6509 70.4209 87.3327 70.6662C87.0146 70.9115 86.7908 71.1733 86.6616 71.4517L85.5479 71.054C85.7468 70.59 86.012 70.2287 86.3434 69.9702C86.6781 69.7083 87.0427 69.526 87.4371 69.4233C87.8349 69.3172 88.226 69.2642 88.6104 69.2642C88.8557 69.2642 89.1374 69.294 89.4556 69.3537C89.7771 69.41 90.087 69.5277 90.3853 69.7067C90.6869 69.8857 90.9371 70.1558 91.136 70.517C91.3349 70.8783 91.4343 71.3622 91.4343 71.9688V77H90.261V75.9659H90.2013C90.1218 76.1316 89.9892 76.3089 89.8036 76.4979C89.618 76.6868 89.3711 76.8475 89.0629 76.9801C88.7546 77.1127 88.3784 77.179 87.9343 77.179ZM88.1133 76.125C88.5773 76.125 88.9684 76.0339 89.2866 75.8516C89.6081 75.6693 89.85 75.4339 90.0124 75.1456C90.1781 74.8572 90.261 74.554 90.261 74.2358V73.1619C90.2113 73.2216 90.1019 73.2763 89.9329 73.326C89.7672 73.3724 89.5749 73.4138 89.3562 73.4503C89.1407 73.4834 88.9303 73.5133 88.7248 73.5398C88.5226 73.563 88.3585 73.5829 88.2326 73.5994C87.9277 73.6392 87.6426 73.7038 87.3775 73.7933C87.1156 73.8795 86.9035 74.0104 86.7411 74.1861C86.582 74.3584 86.5025 74.5937 86.5025 74.892C86.5025 75.2997 86.6533 75.608 86.9549 75.8168C87.2598 76.0223 87.646 76.125 88.1133 76.125ZM93.5758 77V69.3636H94.7093V70.517H94.7889C94.9281 70.1392 95.18 69.8326 95.5446 69.5973C95.9092 69.362 96.3201 69.2443 96.7775 69.2443C96.8637 69.2443 96.9714 69.246 97.1007 69.2493C97.2299 69.2526 97.3277 69.2576 97.394 69.2642V70.4574C97.3542 70.4474 97.2631 70.4325 97.1206 70.4126C96.9814 70.3894 96.8339 70.3778 96.6781 70.3778C96.3069 70.3778 95.9754 70.4557 95.6838 70.6115C95.3954 70.764 95.1667 70.9761 94.9977 71.2479C94.832 71.5163 94.7491 71.8229 94.7491 72.1676V77H93.5758ZM99.8786 74.2159L99.8587 72.7642H100.097L103.438 69.3636H104.89L101.33 72.9631H101.231L99.8786 74.2159ZM98.7848 77V66.8182H99.9581V77H98.7848ZM103.637 77L100.654 73.2216L101.489 72.4062L105.129 77H103.637ZM106.4 77V69.3636H107.573V77H106.4ZM106.997 68.0909C106.768 68.0909 106.571 68.013 106.405 67.8572C106.243 67.7015 106.161 67.5142 106.161 67.2955C106.161 67.0767 106.243 66.8894 106.405 66.7337C106.571 66.5779 106.768 66.5 106.997 66.5C107.225 66.5 107.421 66.5779 107.583 66.7337C107.749 66.8894 107.832 67.0767 107.832 67.2955C107.832 67.5142 107.749 67.7015 107.583 67.8572C107.421 68.013 107.225 68.0909 106.997 68.0909ZM110.896 72.4062V77H109.722V69.3636H110.856V70.5568H110.955C111.134 70.169 111.406 69.8575 111.771 69.6222C112.135 69.3835 112.606 69.2642 113.183 69.2642C113.7 69.2642 114.152 69.3703 114.54 69.5824C114.928 69.7912 115.229 70.1094 115.445 70.5369C115.66 70.9612 115.768 71.4981 115.768 72.1477V77H114.594V72.2273C114.594 71.6274 114.439 71.16 114.127 70.8253C113.816 70.4872 113.388 70.3182 112.844 70.3182C112.47 70.3182 112.135 70.3994 111.84 70.5618C111.549 70.7242 111.318 70.9612 111.149 71.2727C110.98 71.5843 110.896 71.9621 110.896 72.4062ZM120.994 80.0227C120.427 80.0227 119.94 79.9498 119.532 79.804C119.125 79.6615 118.785 79.4725 118.513 79.2372C118.245 79.0052 118.031 78.7566 117.872 78.4915L118.807 77.8352C118.913 77.9744 119.047 78.1335 119.209 78.3125C119.372 78.4948 119.594 78.6522 119.876 78.7848C120.161 78.9207 120.533 78.9886 120.994 78.9886C121.611 78.9886 122.119 78.8395 122.52 78.5412C122.921 78.2429 123.122 77.7756 123.122 77.1392V75.5881H123.023C122.936 75.7273 122.814 75.8996 122.655 76.1051C122.499 76.3073 122.273 76.4879 121.979 76.647C121.687 76.8028 121.292 76.8807 120.795 76.8807C120.179 76.8807 119.625 76.7348 119.135 76.4432C118.648 76.1515 118.261 75.7273 117.976 75.1705C117.695 74.6136 117.554 73.9375 117.554 73.142C117.554 72.3598 117.691 71.6787 117.966 71.0987C118.242 70.5154 118.624 70.0646 119.115 69.7464C119.605 69.425 120.172 69.2642 120.815 69.2642C121.312 69.2642 121.707 69.3471 121.998 69.5128C122.293 69.6752 122.519 69.8608 122.675 70.0696C122.834 70.2751 122.956 70.4441 123.042 70.5767H123.162V69.3636H124.295V77.2188C124.295 77.875 124.146 78.4086 123.848 78.8196C123.553 79.2339 123.155 79.5372 122.655 79.7294C122.157 79.925 121.604 80.0227 120.994 80.0227ZM120.954 75.8267C121.425 75.8267 121.823 75.719 122.148 75.5036C122.472 75.2881 122.719 74.9782 122.888 74.5739C123.057 74.1695 123.142 73.6856 123.142 73.1222C123.142 72.572 123.059 72.0864 122.893 71.6655C122.728 71.2446 122.482 70.9148 122.157 70.6761C121.833 70.4375 121.432 70.3182 120.954 70.3182C120.457 70.3182 120.043 70.4441 119.711 70.696C119.383 70.9479 119.136 71.286 118.971 71.7102C118.808 72.1345 118.727 72.6051 118.727 73.1222C118.727 73.6525 118.81 74.1214 118.976 74.5291C119.145 74.9335 119.393 75.2517 119.721 75.4837C120.053 75.7124 120.464 75.8267 120.954 75.8267Z" fill="#7A7A7A"/>
<defs>
<clipPath id="clip0_67_5909">
<rect width="34" height="36" fill="white" transform="translate(50.5 16)"/>
</clipPath>
</defs>
</svg>
