<svg width="136" height="96" viewBox="0 0 136 96" fill="none" xmlns="http://www.w3.org/2000/svg">
<path d="M75.2487 45.75V42.9167C74.873 42.9167 74.5126 42.7674 74.247 42.5017C73.9813 42.2361 73.832 41.8757 73.832 41.5V40.0833C73.832 39.3319 74.1305 38.6112 74.6619 38.0799C75.1932 37.5485 75.9139 37.25 76.6654 37.25H79.4987C80.2501 37.25 80.9708 37.5485 81.5022 38.0799C82.0335 38.6112 82.332 39.3319 82.332 40.0833V41.5C82.332 41.8757 82.1828 42.2361 81.9171 42.5017C81.6514 42.7674 81.2911 42.9167 80.9154 42.9167" stroke="#7A7A7A" stroke-width="2" stroke-linecap="round" stroke-linejoin="round"/>
<path d="M78.0833 37.25V25.2083C78.0833 23.8933 77.5609 22.6321 76.6311 21.7023C75.7012 20.7724 74.44 20.25 73.125 20.25C71.81 20.25 70.5488 20.7724 69.6189 21.7023C68.6891 22.6321 68.1667 23.8933 68.1667 25.2083V40.7917C68.1667 42.1067 67.6443 43.3679 66.7144 44.2977C65.7845 45.2276 64.5234 45.75 63.2083 45.75C61.8933 45.75 60.6321 45.2276 59.7023 44.2977C58.7724 43.3679 58.25 42.1067 58.25 40.7917V28.75" stroke="#7A7A7A" stroke-width="2" stroke-linecap="round" stroke-linejoin="round"/>
<path d="M80.9167 45.7493V42.916H75.25" stroke="#7A7A7A" stroke-width="2" stroke-linecap="round" stroke-linejoin="round"/>
<path d="M55.416 23.0833H61.0827V20.25" stroke="#7A7A7A" stroke-width="2" stroke-linecap="round" stroke-linejoin="round"/>
<path d="M61.0833 23.0833C61.4591 23.0833 61.8194 23.2326 62.0851 23.4983C62.3507 23.7639 62.5 24.1243 62.5 24.5V25.9167C62.5 26.6681 62.2015 27.3888 61.6701 27.9201C61.1388 28.4515 60.4181 28.75 59.6667 28.75H56.8333C56.0819 28.75 55.3612 28.4515 54.8299 27.9201C54.2985 27.3888 54 26.6681 54 25.9167V24.5C54 24.1243 54.1493 23.7639 54.4149 23.4983C54.6806 23.2326 55.0409 23.0833 55.4167 23.0833V20.25" stroke="#7A7A7A" stroke-width="2" stroke-linecap="round" stroke-linejoin="round"/>
<path d="M5.39897 77V66.8182H8.83931C9.63808 66.8182 10.291 66.9624 10.7981 67.2507C11.3085 67.5357 11.6864 67.9219 11.9316 68.4091C12.1769 68.8963 12.2995 69.4399 12.2995 70.0398C12.2995 70.6397 12.1769 71.1849 11.9316 71.6754C11.6897 72.166 11.3152 72.5571 10.8081 72.8487C10.301 73.1371 9.65134 73.2812 8.8592 73.2812H6.39329V72.1875H8.81942C9.3663 72.1875 9.80546 72.093 10.1369 71.9041C10.4683 71.7152 10.7086 71.46 10.8578 71.1385C11.0102 70.8137 11.0865 70.4474 11.0865 70.0398C11.0865 69.6321 11.0102 69.2675 10.8578 68.946C10.7086 68.6245 10.4667 68.3726 10.1319 68.1903C9.79717 68.0047 9.35304 67.9119 8.79954 67.9119H6.63192V77H5.39897ZM17.1468 77.1591C16.4574 77.1591 15.8526 76.995 15.3322 76.6669C14.8152 76.3388 14.4108 75.8797 14.1191 75.2898C13.8308 74.6998 13.6866 74.0104 13.6866 73.2216C13.6866 72.4261 13.8308 71.7318 14.1191 71.1385C14.4108 70.5452 14.8152 70.0845 15.3322 69.7564C15.8526 69.4283 16.4574 69.2642 17.1468 69.2642C17.8362 69.2642 18.4395 69.4283 18.9565 69.7564C19.4769 70.0845 19.8812 70.5452 20.1696 71.1385C20.4612 71.7318 20.6071 72.4261 20.6071 73.2216C20.6071 74.0104 20.4612 74.6998 20.1696 75.2898C19.8812 75.8797 19.4769 76.3388 18.9565 76.6669C18.4395 76.995 17.8362 77.1591 17.1468 77.1591ZM17.1468 76.1051C17.6705 76.1051 18.1014 75.9709 18.4395 75.7024C18.7775 75.4339 19.0278 75.081 19.1902 74.6435C19.3526 74.206 19.4338 73.732 19.4338 73.2216C19.4338 72.7112 19.3526 72.2356 19.1902 71.7947C19.0278 71.3539 18.7775 70.9976 18.4395 70.7259C18.1014 70.4541 17.6705 70.3182 17.1468 70.3182C16.6232 70.3182 16.1923 70.4541 15.8542 70.7259C15.5162 70.9976 15.2659 71.3539 15.1035 71.7947C14.9411 72.2356 14.8599 72.7112 14.8599 73.2216C14.8599 73.732 14.9411 74.206 15.1035 74.6435C15.2659 75.081 15.5162 75.4339 15.8542 75.7024C16.1923 75.9709 16.6232 76.1051 17.1468 76.1051ZM23.8684 77L21.5417 69.3636H22.7747L24.4252 75.2102H24.5048L26.1355 69.3636H27.3883L28.9991 75.1903H29.0787L30.7292 69.3636H31.9622L29.6355 77H28.4821L26.8116 71.1335H26.6923L25.0218 77H23.8684ZM36.4553 77.1591C35.7195 77.1591 35.0848 76.9967 34.5511 76.6719C34.0208 76.3438 33.6115 75.8864 33.3232 75.2997C33.0381 74.7098 32.8956 74.0237 32.8956 73.2415C32.8956 72.4593 33.0381 71.7699 33.3232 71.1733C33.6115 70.5734 34.0125 70.1061 34.5263 69.7713C35.0433 69.4332 35.6465 69.2642 36.3359 69.2642C36.7337 69.2642 37.1264 69.3305 37.5142 69.4631C37.902 69.5956 38.255 69.8111 38.5732 70.1094C38.8913 70.4044 39.1449 70.7955 39.3338 71.2827C39.5227 71.7699 39.6172 72.3698 39.6172 73.0824V73.5795H33.7308V72.5653H38.424C38.424 72.1345 38.3378 71.75 38.1655 71.4119C37.9964 71.0739 37.7545 70.8071 37.4396 70.6115C37.1281 70.416 36.7602 70.3182 36.3359 70.3182C35.8686 70.3182 35.4643 70.4342 35.1229 70.6662C34.7848 70.8949 34.5246 71.1932 34.3423 71.5611C34.16 71.929 34.0689 72.3234 34.0689 72.7443V73.4205C34.0689 73.9972 34.1683 74.486 34.3672 74.8871C34.5694 75.2848 34.8494 75.5881 35.2074 75.7969C35.5653 76.0024 35.9813 76.1051 36.4553 76.1051C36.7635 76.1051 37.0419 76.062 37.2905 75.9759C37.5424 75.8864 37.7595 75.7538 37.9418 75.5781C38.1241 75.3991 38.2649 75.1771 38.3643 74.9119L39.4979 75.2301C39.3786 75.6146 39.178 75.9527 38.8963 76.2443C38.6146 76.5327 38.2666 76.758 37.8523 76.9205C37.438 77.0795 36.9723 77.1591 36.4553 77.1591ZM41.402 77V69.3636H42.5355V70.517H42.6151C42.7543 70.1392 43.0062 69.8326 43.3707 69.5973C43.7353 69.362 44.1463 69.2443 44.6037 69.2443C44.6899 69.2443 44.7976 69.246 44.9268 69.2493C45.0561 69.2526 45.1539 69.2576 45.2202 69.2642V70.4574C45.1804 70.4474 45.0893 70.4325 44.9467 70.4126C44.8075 70.3894 44.66 70.3778 44.5043 70.3778C44.133 70.3778 43.8016 70.4557 43.5099 70.6115C43.2216 70.764 42.9929 70.9761 42.8239 71.2479C42.6581 71.5163 42.5753 71.8229 42.5753 72.1676V77H41.402ZM50.7076 77V66.8182H54.2672C54.9765 66.8182 55.5615 66.9408 56.0222 67.1861C56.4829 67.428 56.8259 67.7545 57.0513 68.1655C57.2767 68.5732 57.3894 69.0256 57.3894 69.5227C57.3894 69.9602 57.3115 70.3215 57.1557 70.6065C57.0033 70.8916 56.8011 71.117 56.5492 71.2827C56.3006 71.4484 56.0305 71.571 55.7388 71.6506V71.75C56.0504 71.7699 56.3636 71.8793 56.6784 72.0781C56.9933 72.277 57.2568 72.562 57.4689 72.9332C57.681 73.3045 57.7871 73.7585 57.7871 74.2955C57.7871 74.8059 57.6711 75.2649 57.4391 75.6726C57.2071 76.0803 56.8409 76.4034 56.3404 76.642C55.8399 76.8807 55.1886 77 54.3865 77H50.7076ZM51.9405 75.9062H54.3865C55.1919 75.9062 55.7637 75.7505 56.1017 75.4389C56.4431 75.1241 56.6138 74.7429 56.6138 74.2955C56.6138 73.9508 56.526 73.6326 56.3503 73.3409C56.1747 73.0459 55.9244 72.8106 55.5996 72.6349C55.2748 72.456 54.8903 72.3665 54.4462 72.3665H51.9405V75.9062ZM51.9405 71.2926H54.2275C54.5987 71.2926 54.9334 71.2197 55.2317 71.0739C55.5333 70.928 55.772 70.7225 55.9476 70.4574C56.1266 70.1922 56.2161 69.8807 56.2161 69.5227C56.2161 69.0753 56.0603 68.6958 55.7488 68.3842C55.4372 68.0694 54.9434 67.9119 54.2672 67.9119H51.9405V71.2926ZM61.9011 77.179C61.4172 77.179 60.978 77.0878 60.5836 76.9055C60.1892 76.7199 59.876 76.4531 59.644 76.1051C59.412 75.7538 59.296 75.3295 59.296 74.8324C59.296 74.3949 59.3822 74.0402 59.5545 73.7685C59.7269 73.4934 59.9572 73.2779 60.2456 73.1222C60.5339 72.9664 60.8521 72.8504 61.2001 72.7741C61.5514 72.6946 61.9044 72.6316 62.2591 72.5852C62.7231 72.5256 63.0993 72.4808 63.3876 72.451C63.6793 72.4179 63.8914 72.3632 64.024 72.2869C64.1599 72.2107 64.2278 72.0781 64.2278 71.8892V71.8494C64.2278 71.3589 64.0936 70.9777 63.8251 70.706C63.56 70.4342 63.1573 70.2983 62.617 70.2983C62.0569 70.2983 61.6177 70.4209 61.2995 70.6662C60.9814 70.9115 60.7576 71.1733 60.6284 71.4517L59.5147 71.054C59.7136 70.59 59.9788 70.2287 60.3102 69.9702C60.6449 69.7083 61.0095 69.526 61.4039 69.4233C61.8017 69.3172 62.1928 69.2642 62.5772 69.2642C62.8225 69.2642 63.1042 69.294 63.4224 69.3537C63.7439 69.41 64.0538 69.5277 64.3521 69.7067C64.6537 69.8857 64.9039 70.1558 65.1028 70.517C65.3017 70.8783 65.4011 71.3622 65.4011 71.9688V77H64.2278V75.9659H64.1681C64.0886 76.1316 63.956 76.3089 63.7704 76.4979C63.5848 76.6868 63.3379 76.8475 63.0297 76.9801C62.7214 77.1127 62.3452 77.179 61.9011 77.179ZM62.0801 76.125C62.5441 76.125 62.9352 76.0339 63.2534 75.8516C63.5749 75.6693 63.8168 75.4339 63.9792 75.1456C64.1449 74.8572 64.2278 74.554 64.2278 74.2358V73.1619C64.1781 73.2216 64.0687 73.2763 63.8997 73.326C63.734 73.3724 63.5417 73.4138 63.323 73.4503C63.1075 73.4834 62.8971 73.5133 62.6916 73.5398C62.4894 73.563 62.3253 73.5829 62.1994 73.5994C61.8945 73.6392 61.6094 73.7038 61.3443 73.7933C61.0824 73.8795 60.8703 74.0104 60.7079 74.1861C60.5488 74.3584 60.4693 74.5937 60.4693 74.892C60.4693 75.2997 60.6201 75.608 60.9217 75.8168C61.2266 76.0223 61.6127 76.125 62.0801 76.125ZM70.6449 77.1591C69.929 77.1591 69.3125 76.9901 68.7955 76.652C68.2784 76.3139 67.8807 75.8482 67.6023 75.255C67.3239 74.6617 67.1847 73.9839 67.1847 73.2216C67.1847 72.446 67.3272 71.7616 67.6122 71.1683C67.9006 70.5717 68.3016 70.1061 68.8153 69.7713C69.3324 69.4332 69.9356 69.2642 70.625 69.2642C71.1619 69.2642 71.6458 69.3636 72.0767 69.5625C72.5076 69.7614 72.8606 70.0398 73.1357 70.3977C73.4107 70.7557 73.5814 71.1733 73.6477 71.6506H72.4744C72.3849 71.3026 72.1861 70.9943 71.8778 70.7259C71.5729 70.4541 71.1619 70.3182 70.6449 70.3182C70.1875 70.3182 69.7865 70.4375 69.4418 70.6761C69.1004 70.9115 68.8336 71.2446 68.6413 71.6754C68.4524 72.103 68.358 72.6051 68.358 73.1818C68.358 73.7718 68.4508 74.2855 68.6364 74.723C68.8253 75.1605 69.0904 75.5002 69.4318 75.7422C69.7765 75.9841 70.1809 76.1051 70.6449 76.1051C70.9498 76.1051 71.2266 76.0521 71.4751 75.946C71.7237 75.84 71.9342 75.6875 72.1065 75.4886C72.2789 75.2898 72.4015 75.0511 72.4744 74.7727H73.6477C73.5814 75.2235 73.4174 75.6295 73.1555 75.9908C72.897 76.3487 72.554 76.6338 72.1264 76.8459C71.7022 77.0547 71.2083 77.1591 70.6449 77.1591ZM76.4567 74.2159L76.4368 72.7642H76.6754L80.0163 69.3636H81.468L77.9084 72.9631H77.8089L76.4567 74.2159ZM75.3629 77V66.8182H76.5362V77H75.3629ZM80.2152 77L77.2322 73.2216L78.0675 72.4062L81.7067 77H80.2152ZM91.7282 73.8778V69.3636H92.9015V77H91.7282V75.7074H91.6486C91.4696 76.0952 91.1912 76.425 90.8134 76.6967C90.4355 76.9652 89.9583 77.0994 89.3816 77.0994C88.9043 77.0994 88.4801 76.995 88.1088 76.7862C87.7376 76.5741 87.446 76.2559 87.2338 75.8317C87.0217 75.4041 86.9157 74.8655 86.9157 74.2159V69.3636H88.089V74.1364C88.089 74.6932 88.2447 75.1373 88.5563 75.4688C88.8712 75.8002 89.2722 75.9659 89.7594 75.9659C90.0511 75.9659 90.3477 75.8913 90.6493 75.7422C90.9542 75.593 91.2095 75.3643 91.415 75.0561C91.6238 74.7479 91.7282 74.3551 91.7282 73.8778ZM95.0504 79.8636V69.3636H96.1839V70.5767H96.3232C96.4093 70.4441 96.5286 70.2751 96.6811 70.0696C96.8369 69.8608 97.0589 69.6752 97.3473 69.5128C97.639 69.3471 98.0334 69.2642 98.5305 69.2642C99.1735 69.2642 99.7403 69.425 100.231 69.7464C100.721 70.0679 101.104 70.5237 101.379 71.1136C101.654 71.7036 101.792 72.3996 101.792 73.2017C101.792 74.0104 101.654 74.7114 101.379 75.3047C101.104 75.8946 100.723 76.352 100.236 76.6768C99.7486 76.9983 99.1868 77.1591 98.5504 77.1591C98.0599 77.1591 97.6671 77.0779 97.3722 76.9155C97.0772 76.7498 96.8501 76.5625 96.6911 76.3537C96.532 76.1416 96.4093 75.9659 96.3232 75.8267H96.2237V79.8636H95.0504ZM96.2038 73.1818C96.2038 73.7585 96.2884 74.2673 96.4574 74.7081C96.6264 75.1456 96.8733 75.4886 97.1982 75.7372C97.523 75.9825 97.9207 76.1051 98.3913 76.1051C98.8819 76.1051 99.2912 75.9759 99.6193 75.7173C99.9508 75.4555 100.199 75.1042 100.365 74.6634C100.534 74.2192 100.619 73.7254 100.619 73.1818C100.619 72.6449 100.536 72.161 100.37 71.7301C100.208 71.2959 99.9607 70.9529 99.6293 70.701C99.3011 70.4458 98.8885 70.3182 98.3913 70.3182C97.9141 70.3182 97.513 70.4392 97.1882 70.6811C96.8634 70.9197 96.6181 71.2545 96.4524 71.6854C96.2867 72.1129 96.2038 72.6117 96.2038 73.1818ZM107.957 72.0881V73.1818H103.502V72.0881H107.957ZM110.18 77V66.8182H116.285V67.9119H111.413V71.3523H115.828V72.446H111.413V77H110.18ZM122.572 73.8778V69.3636H123.745V77H122.572V75.7074H122.492C122.313 76.0952 122.035 76.425 121.657 76.6967C121.279 76.9652 120.802 77.0994 120.225 77.0994C119.748 77.0994 119.324 76.995 118.953 76.7862C118.581 76.5741 118.29 76.2559 118.078 75.8317C117.865 75.4041 117.759 74.8655 117.759 74.2159V69.3636H118.933V74.1364C118.933 74.6932 119.088 75.1373 119.4 75.4688C119.715 75.8002 120.116 75.9659 120.603 75.9659C120.895 75.9659 121.191 75.8913 121.493 75.7422C121.798 75.593 122.053 75.3643 122.259 75.0561C122.468 74.7479 122.572 74.3551 122.572 73.8778ZM127.067 66.8182V77H125.894V66.8182H127.067ZM130.39 66.8182V77H129.216V66.8182H130.39Z" fill="#7A7A7A"/>
</svg>
