<svg width="135" height="96" viewBox="0 0 135 96" fill="none" xmlns="http://www.w3.org/2000/svg">
<path d="M53.334 24.5007C54.184 25.209 55.034 25.9173 56.8757 25.9173C60.4173 25.9173 60.4173 23.084 63.959 23.084C67.6423 23.084 67.359 25.9173 71.0423 25.9173C74.584 25.9173 74.584 23.084 78.1257 23.084C79.9673 23.084 80.8173 23.7923 81.6673 24.5007" stroke="#7A7A7A" stroke-width="2" stroke-linecap="round" stroke-linejoin="round"/>
<path d="M53.334 33.0007C54.184 33.709 55.034 34.4173 56.8757 34.4173C60.4173 34.4173 60.4173 31.584 63.959 31.584C67.6423 31.584 67.359 34.4173 71.0423 34.4173C74.584 34.4173 74.584 31.584 78.1257 31.584C79.9673 31.584 80.8173 32.2923 81.6673 33.0007" stroke="#7A7A7A" stroke-width="2" stroke-linecap="round" stroke-linejoin="round"/>
<path d="M53.334 41.5007C54.184 42.209 55.034 42.9173 56.8757 42.9173C60.4173 42.9173 60.4173 40.084 63.959 40.084C67.6423 40.084 67.359 42.9173 71.0423 42.9173C74.584 42.9173 74.584 40.084 78.1257 40.084C79.9673 40.084 80.8173 40.7923 81.6673 41.5007" stroke="#7A7A7A" stroke-width="2" stroke-linecap="round" stroke-linejoin="round"/>
<path d="M23.8011 69.3636C23.7415 68.8598 23.4995 68.4688 23.0753 68.1903C22.651 67.9119 22.1307 67.7727 21.5142 67.7727C21.0634 67.7727 20.669 67.8456 20.331 67.9915C19.9962 68.1373 19.7344 68.3378 19.5455 68.593C19.3598 68.8482 19.267 69.1383 19.267 69.4631C19.267 69.7348 19.3317 69.9685 19.4609 70.1641C19.5935 70.3563 19.7625 70.517 19.968 70.6463C20.1735 70.7723 20.389 70.8767 20.6143 70.9595C20.8397 71.0391 21.0469 71.1037 21.2358 71.1534L22.2699 71.4318C22.535 71.5014 22.83 71.5975 23.1548 71.7202C23.483 71.8428 23.7962 72.0102 24.0945 72.2223C24.3961 72.4311 24.6446 72.6996 24.8402 73.0277C25.0357 73.3558 25.1335 73.7585 25.1335 74.2358C25.1335 74.786 24.9893 75.2831 24.701 75.7273C24.416 76.1714 23.9983 76.5244 23.4482 76.7862C22.9013 77.0481 22.2367 77.179 21.4545 77.179C20.7254 77.179 20.094 77.0613 19.5604 76.826C19.0301 76.5907 18.6125 76.2625 18.3075 75.8416C18.0059 75.4207 17.8352 74.9318 17.7955 74.375H19.0682C19.1013 74.7595 19.2306 75.0777 19.456 75.3295C19.6847 75.5781 19.973 75.7637 20.321 75.8864C20.6723 76.0057 21.0502 76.0653 21.4545 76.0653C21.9252 76.0653 22.3478 75.9891 22.7223 75.8366C23.0968 75.6809 23.3935 75.4654 23.6122 75.1903C23.831 74.9119 23.9403 74.5871 23.9403 74.2159C23.9403 73.8778 23.8459 73.6027 23.657 73.3906C23.468 73.1785 23.2195 73.0062 22.9112 72.8736C22.603 72.741 22.2699 72.625 21.9119 72.5256L20.6591 72.1676C19.8636 71.9389 19.2339 71.6125 18.7699 71.1882C18.3059 70.764 18.0739 70.2088 18.0739 69.5227C18.0739 68.9527 18.228 68.4555 18.5362 68.0312C18.8478 67.6037 19.2654 67.2723 19.7891 67.0369C20.3161 66.7983 20.9044 66.679 21.554 66.679C22.2102 66.679 22.7936 66.7966 23.304 67.032C23.8144 67.264 24.2188 67.5821 24.517 67.9865C24.8187 68.3909 24.9777 68.8499 24.9943 69.3636H23.8011ZM28.7317 77L26.405 69.3636H27.638L29.2885 75.2102H29.3681L30.9988 69.3636H32.2516L33.8624 75.1903H33.9419L35.5925 69.3636H36.8255L34.4988 77H33.3453L31.6749 71.1335H31.5556L29.8851 77H28.7317ZM38.3766 77V69.3636H39.5499V77H38.3766ZM38.9732 68.0909C38.7445 68.0909 38.5473 68.013 38.3816 67.8572C38.2192 67.7015 38.138 67.5142 38.138 67.2955C38.138 67.0767 38.2192 66.8894 38.3816 66.7337C38.5473 66.5779 38.7445 66.5 38.9732 66.5C39.2019 66.5 39.3974 66.5779 39.5598 66.7337C39.7256 66.8894 39.8084 67.0767 39.8084 67.2955C39.8084 67.5142 39.7256 67.7015 39.5598 67.8572C39.3974 68.013 39.2019 68.0909 38.9732 68.0909ZM41.6989 77V69.3636H42.8324V70.5568H42.9318C43.0909 70.1491 43.3478 69.8326 43.7024 69.6072C44.0571 69.3786 44.483 69.2642 44.9801 69.2642C45.4839 69.2642 45.9032 69.3786 46.2379 69.6072C46.576 69.8326 46.8395 70.1491 47.0284 70.5568H47.108C47.3035 70.1624 47.5968 69.8492 47.9879 69.6172C48.379 69.3819 48.848 69.2642 49.3949 69.2642C50.0777 69.2642 50.6361 69.478 51.0703 69.9055C51.5045 70.3298 51.7216 70.991 51.7216 71.8892V77H50.5483V71.8892C50.5483 71.3258 50.3942 70.9231 50.0859 70.6811C49.7777 70.4392 49.4148 70.3182 48.9972 70.3182C48.4602 70.3182 48.0443 70.4806 47.7493 70.8054C47.4543 71.1269 47.3068 71.5346 47.3068 72.0284V77H46.1136V71.7699C46.1136 71.3357 45.9728 70.986 45.6911 70.7209C45.4093 70.4524 45.0464 70.3182 44.6023 70.3182C44.2973 70.3182 44.0123 70.3994 43.7472 70.5618C43.4853 70.7242 43.2732 70.9496 43.1108 71.2379C42.9517 71.523 42.8722 71.8527 42.8722 72.2273V77H41.6989ZM53.8668 77V69.3636H55.0004V70.5568H55.0998C55.2589 70.1491 55.5157 69.8326 55.8704 69.6072C56.225 69.3786 56.6509 69.2642 57.1481 69.2642C57.6519 69.2642 58.0711 69.3786 58.4059 69.6072C58.744 69.8326 59.0075 70.1491 59.1964 70.5568H59.2759C59.4715 70.1624 59.7648 69.8492 60.1559 69.6172C60.547 69.3819 61.016 69.2642 61.5629 69.2642C62.2456 69.2642 62.8041 69.478 63.2383 69.9055C63.6725 70.3298 63.8896 70.991 63.8896 71.8892V77H62.7163V71.8892C62.7163 71.3258 62.5621 70.9231 62.2539 70.6811C61.9457 70.4392 61.5827 70.3182 61.1651 70.3182C60.6282 70.3182 60.2122 70.4806 59.9173 70.8054C59.6223 71.1269 59.4748 71.5346 59.4748 72.0284V77H58.2816V71.7699C58.2816 71.3357 58.1407 70.986 57.859 70.7209C57.5773 70.4524 57.2144 70.3182 56.7702 70.3182C56.4653 70.3182 56.1803 70.3994 55.9151 70.5618C55.6533 70.7242 55.4412 70.9496 55.2788 71.2379C55.1197 71.523 55.0401 71.8527 55.0401 72.2273V77H53.8668ZM66.0348 77V69.3636H67.2081V77H66.0348ZM66.6314 68.0909C66.4027 68.0909 66.2055 68.013 66.0398 67.8572C65.8774 67.7015 65.7962 67.5142 65.7962 67.2955C65.7962 67.0767 65.8774 66.8894 66.0398 66.7337C66.2055 66.5779 66.4027 66.5 66.6314 66.5C66.8601 66.5 67.0556 66.5779 67.218 66.7337C67.3838 66.8894 67.4666 67.0767 67.4666 67.2955C67.4666 67.5142 67.3838 67.7015 67.218 67.8572C67.0556 68.013 66.8601 68.0909 66.6314 68.0909ZM70.5304 72.4062V77H69.3571V69.3636H70.4906V70.5568H70.59C70.769 70.169 71.0408 69.8575 71.4054 69.6222C71.7699 69.3835 72.2406 69.2642 72.8173 69.2642C73.3343 69.2642 73.7868 69.3703 74.1745 69.5824C74.5623 69.7912 74.8639 70.1094 75.0794 70.5369C75.2948 70.9612 75.4025 71.4981 75.4025 72.1477V77H74.2292V72.2273C74.2292 71.6274 74.0734 71.16 73.7619 70.8253C73.4503 70.4872 73.0228 70.3182 72.4792 70.3182C72.1047 70.3182 71.7699 70.3994 71.475 70.5618C71.1833 70.7242 70.9529 70.9612 70.7839 71.2727C70.6149 71.5843 70.5304 71.9621 70.5304 72.4062ZM80.6289 80.0227C80.0621 80.0227 79.5749 79.9498 79.1673 79.804C78.7596 79.6615 78.4199 79.4725 78.1481 79.2372C77.8796 79.0052 77.6658 78.7566 77.5067 78.4915L78.4414 77.8352C78.5475 77.9744 78.6817 78.1335 78.8441 78.3125C79.0065 78.4948 79.2286 78.6522 79.5103 78.7848C79.7953 78.9207 80.1682 78.9886 80.6289 78.9886C81.2454 78.9886 81.7541 78.8395 82.1552 78.5412C82.5562 78.2429 82.7567 77.7756 82.7567 77.1392V75.5881H82.6573C82.5711 75.7273 82.4485 75.8996 82.2894 76.1051C82.1336 76.3073 81.9083 76.4879 81.6133 76.647C81.3216 76.8028 80.9272 76.8807 80.43 76.8807C79.8136 76.8807 79.2601 76.7348 78.7695 76.4432C78.2823 76.1515 77.8962 75.7273 77.6112 75.1705C77.3294 74.6136 77.1886 73.9375 77.1886 73.142C77.1886 72.3598 77.3261 71.6787 77.6012 71.0987C77.8763 70.5154 78.2591 70.0646 78.7496 69.7464C79.2402 69.425 79.8069 69.2642 80.4499 69.2642C80.9471 69.2642 81.3415 69.3471 81.6332 69.5128C81.9281 69.6752 82.1535 69.8608 82.3093 70.0696C82.4684 70.2751 82.591 70.4441 82.6772 70.5767H82.7965V69.3636H83.93V77.2188C83.93 77.875 83.7809 78.4086 83.4826 78.8196C83.1876 79.2339 82.7899 79.5372 82.2894 79.7294C81.7923 79.925 81.2388 80.0227 80.6289 80.0227ZM80.5891 75.8267C81.0598 75.8267 81.4575 75.719 81.7823 75.5036C82.1071 75.2881 82.354 74.9782 82.5231 74.5739C82.6921 74.1695 82.7766 73.6856 82.7766 73.1222C82.7766 72.572 82.6938 72.0864 82.5281 71.6655C82.3623 71.2446 82.1171 70.9148 81.7923 70.6761C81.4674 70.4375 81.0664 70.3182 80.5891 70.3182C80.092 70.3182 79.6777 70.4441 79.3462 70.696C79.0181 70.9479 78.7712 71.286 78.6055 71.7102C78.4431 72.1345 78.3619 72.6051 78.3619 73.1222C78.3619 73.6525 78.4447 74.1214 78.6104 74.5291C78.7795 74.9335 79.0281 75.2517 79.3562 75.4837C79.6876 75.7124 80.0986 75.8267 80.5891 75.8267ZM90.0153 79.8636V69.3636H91.1488V70.5767H91.288C91.3742 70.4441 91.4935 70.2751 91.646 70.0696C91.8017 69.8608 92.0238 69.6752 92.3121 69.5128C92.6038 69.3471 92.9982 69.2642 93.4954 69.2642C94.1384 69.2642 94.7051 69.425 95.1957 69.7464C95.6862 70.0679 96.069 70.5237 96.3441 71.1136C96.6192 71.7036 96.7567 72.3996 96.7567 73.2017C96.7567 74.0104 96.6192 74.7114 96.3441 75.3047C96.069 75.8946 95.6879 76.352 95.2006 76.6768C94.7134 76.9983 94.1516 77.1591 93.5153 77.1591C93.0247 77.1591 92.632 77.0779 92.337 76.9155C92.042 76.7498 91.815 76.5625 91.6559 76.3537C91.4968 76.1416 91.3742 75.9659 91.288 75.8267H91.1886V79.8636H90.0153ZM91.1687 73.1818C91.1687 73.7585 91.2532 74.2673 91.4222 74.7081C91.5913 75.1456 91.8382 75.4886 92.163 75.7372C92.4878 75.9825 92.8855 76.1051 93.3562 76.1051C93.8467 76.1051 94.256 75.9759 94.5842 75.7173C94.9156 75.4555 95.1642 75.1042 95.3299 74.6634C95.4989 74.2192 95.5835 73.7254 95.5835 73.1818C95.5835 72.6449 95.5006 72.161 95.3349 71.7301C95.1725 71.2959 94.9255 70.9529 94.5941 70.701C94.266 70.4458 93.8533 70.3182 93.3562 70.3182C92.8789 70.3182 92.4779 70.4392 92.1531 70.6811C91.8282 70.9197 91.583 71.2545 91.4173 71.6854C91.2515 72.1129 91.1687 72.6117 91.1687 73.1818ZM101.649 77.1591C100.959 77.1591 100.355 76.995 99.8342 76.6669C99.3171 76.3388 98.9128 75.8797 98.6211 75.2898C98.3327 74.6998 98.1886 74.0104 98.1886 73.2216C98.1886 72.4261 98.3327 71.7318 98.6211 71.1385C98.9128 70.5452 99.3171 70.0845 99.8342 69.7564C100.355 69.4283 100.959 69.2642 101.649 69.2642C102.338 69.2642 102.941 69.4283 103.458 69.7564C103.979 70.0845 104.383 70.5452 104.672 71.1385C104.963 71.7318 105.109 72.4261 105.109 73.2216C105.109 74.0104 104.963 74.6998 104.672 75.2898C104.383 75.8797 103.979 76.3388 103.458 76.6669C102.941 76.995 102.338 77.1591 101.649 77.1591ZM101.649 76.1051C102.172 76.1051 102.603 75.9709 102.941 75.7024C103.279 75.4339 103.53 75.081 103.692 74.6435C103.855 74.206 103.936 73.732 103.936 73.2216C103.936 72.7112 103.855 72.2356 103.692 71.7947C103.53 71.3539 103.279 70.9976 102.941 70.7259C102.603 70.4541 102.172 70.3182 101.649 70.3182C101.125 70.3182 100.694 70.4541 100.356 70.7259C100.018 70.9976 99.7679 71.3539 99.6055 71.7947C99.4431 72.2356 99.3619 72.7112 99.3619 73.2216C99.3619 73.732 99.4431 74.206 99.6055 74.6435C99.7679 75.081 100.018 75.4339 100.356 75.7024C100.694 75.9709 101.125 76.1051 101.649 76.1051ZM110.002 77.1591C109.313 77.1591 108.708 76.995 108.188 76.6669C107.671 76.3388 107.266 75.8797 106.975 75.2898C106.686 74.6998 106.542 74.0104 106.542 73.2216C106.542 72.4261 106.686 71.7318 106.975 71.1385C107.266 70.5452 107.671 70.0845 108.188 69.7564C108.708 69.4283 109.313 69.2642 110.002 69.2642C110.692 69.2642 111.295 69.4283 111.812 69.7564C112.332 70.0845 112.737 70.5452 113.025 71.1385C113.317 71.7318 113.463 72.4261 113.463 73.2216C113.463 74.0104 113.317 74.6998 113.025 75.2898C112.737 75.8797 112.332 76.3388 111.812 76.6669C111.295 76.995 110.692 77.1591 110.002 77.1591ZM110.002 76.1051C110.526 76.1051 110.957 75.9709 111.295 75.7024C111.633 75.4339 111.883 75.081 112.046 74.6435C112.208 74.206 112.289 73.732 112.289 73.2216C112.289 72.7112 112.208 72.2356 112.046 71.7947C111.883 71.3539 111.633 70.9976 111.295 70.7259C110.957 70.4541 110.526 70.3182 110.002 70.3182C109.479 70.3182 109.048 70.4541 108.71 70.7259C108.372 70.9976 108.121 71.3539 107.959 71.7947C107.797 72.2356 107.715 72.7112 107.715 73.2216C107.715 73.732 107.797 74.206 107.959 74.6435C108.121 75.081 108.372 75.4339 108.71 75.7024C109.048 75.9709 109.479 76.1051 110.002 76.1051ZM116.427 66.8182V77H115.254V66.8182H116.427Z" fill="#7A7A7A"/>
</svg>
