<svg width="146" height="96" viewBox="0 0 146 96" fill="none" xmlns="http://www.w3.org/2000/svg">
<path d="M79.9167 45.75V42.9167C79.5409 42.9167 79.1806 42.7674 78.9149 42.5017C78.6493 42.2361 78.5 41.8757 78.5 41.5V40.0833C78.5 39.3319 78.7985 38.6112 79.3299 38.0799C79.8612 37.5485 80.5819 37.25 81.3333 37.25H84.1667C84.9181 37.25 85.6388 37.5485 86.1701 38.0799C86.7015 38.6112 87 39.3319 87 40.0833V41.5C87 41.8757 86.8507 42.2361 86.5851 42.5017C86.3194 42.7674 85.9591 42.9167 85.5833 42.9167" stroke="#7A7A7A" stroke-width="2" stroke-linecap="round" stroke-linejoin="round"/>
<path d="M82.7513 37.25V25.2083C82.7513 23.8933 82.2289 22.6321 81.299 21.7023C80.3692 20.7724 79.108 20.25 77.793 20.25C76.4779 20.25 75.2168 20.7724 74.2869 21.7023C73.357 22.6321 72.8346 23.8933 72.8346 25.2083V40.7917C72.8346 42.1067 72.3122 43.3679 71.3824 44.2977C70.4525 45.2276 69.1913 45.75 67.8763 45.75C66.5613 45.75 65.3001 45.2276 64.3702 44.2977C63.4404 43.3679 62.918 42.1067 62.918 40.7917V28.75" stroke="#7A7A7A" stroke-width="2" stroke-linecap="round" stroke-linejoin="round"/>
<path d="M85.5846 45.7493V42.916H79.918" stroke="#7A7A7A" stroke-width="2" stroke-linecap="round" stroke-linejoin="round"/>
<path d="M60.084 23.0833H65.7507V20.25" stroke="#7A7A7A" stroke-width="2" stroke-linecap="round" stroke-linejoin="round"/>
<path d="M65.7513 23.0833C66.127 23.0833 66.4874 23.2326 66.753 23.4983C67.0187 23.7639 67.168 24.1243 67.168 24.5V25.9167C67.168 26.6681 66.8695 27.3888 66.3381 27.9201C65.8068 28.4515 65.0861 28.75 64.3346 28.75H61.5013C60.7499 28.75 60.0292 28.4515 59.4978 27.9201C58.9665 27.3888 58.668 26.6681 58.668 25.9167V24.5C58.668 24.1243 58.8172 23.7639 59.0829 23.4983C59.3486 23.2326 59.7089 23.0833 60.0846 23.0833V20.25" stroke="#7A7A7A" stroke-width="2" stroke-linecap="round" stroke-linejoin="round"/>
<path d="M0.566939 77V66.8182H4.00728C4.80605 66.8182 5.45898 66.9624 5.96609 67.2507C6.4765 67.5357 6.85434 67.9219 7.09961 68.4091C7.34487 68.8963 7.46751 69.4399 7.46751 70.0398C7.46751 70.6397 7.34487 71.1849 7.09961 71.6754C6.85766 72.166 6.48313 72.5571 5.97603 72.8487C5.46893 73.1371 4.81931 73.2812 4.02717 73.2812H1.56126V72.1875H3.98739C4.53427 72.1875 4.97343 72.093 5.30487 71.9041C5.6363 71.7152 5.8766 71.46 6.02575 71.1385C6.17821 70.8137 6.25444 70.4474 6.25444 70.0398C6.25444 69.6321 6.17821 69.2675 6.02575 68.946C5.8766 68.6245 5.63465 68.3726 5.29989 68.1903C4.96514 68.0047 4.52101 67.9119 3.96751 67.9119H1.79989V77H0.566939ZM12.3148 77.1591C11.6254 77.1591 11.0205 76.995 10.5002 76.6669C9.98313 76.3388 9.57878 75.8797 9.28711 75.2898C8.99876 74.6998 8.85458 74.0104 8.85458 73.2216C8.85458 72.4261 8.99876 71.7318 9.28711 71.1385C9.57878 70.5452 9.98313 70.0845 10.5002 69.7564C11.0205 69.4283 11.6254 69.2642 12.3148 69.2642C13.0042 69.2642 13.6074 69.4283 14.1245 69.7564C14.6448 70.0845 15.0492 70.5452 15.3375 71.1385C15.6292 71.7318 15.775 72.4261 15.775 73.2216C15.775 74.0104 15.6292 74.6998 15.3375 75.2898C15.0492 75.8797 14.6448 76.3388 14.1245 76.6669C13.6074 76.995 13.0042 77.1591 12.3148 77.1591ZM12.3148 76.1051C12.8385 76.1051 13.2694 75.9709 13.6074 75.7024C13.9455 75.4339 14.1957 75.081 14.3581 74.6435C14.5205 74.206 14.6017 73.732 14.6017 73.2216C14.6017 72.7112 14.5205 72.2356 14.3581 71.7947C14.1957 71.3539 13.9455 70.9976 13.6074 70.7259C13.2694 70.4541 12.8385 70.3182 12.3148 70.3182C11.7911 70.3182 11.3603 70.4541 11.0222 70.7259C10.6841 70.9976 10.4339 71.3539 10.2715 71.7947C10.1091 72.2356 10.0279 72.7112 10.0279 73.2216C10.0279 73.732 10.1091 74.206 10.2715 74.6435C10.4339 75.081 10.6841 75.4339 11.0222 75.7024C11.3603 75.9709 11.7911 76.1051 12.3148 76.1051ZM19.0364 77L16.7097 69.3636H17.9426L19.5932 75.2102H19.6728L21.3034 69.3636H22.5563L24.1671 75.1903H24.2466L25.8972 69.3636H27.1301L24.8034 77H23.65L21.9796 71.1335H21.8603L20.1898 77H19.0364ZM31.6232 77.1591C30.8874 77.1591 30.2527 76.9967 29.7191 76.6719C29.1888 76.3438 28.7795 75.8864 28.4911 75.2997C28.2061 74.7098 28.0636 74.0237 28.0636 73.2415C28.0636 72.4593 28.2061 71.7699 28.4911 71.1733C28.7795 70.5734 29.1805 70.1061 29.6942 69.7713C30.2113 69.4332 30.8145 69.2642 31.5039 69.2642C31.9016 69.2642 32.2944 69.3305 32.6822 69.4631C33.07 69.5956 33.4229 69.8111 33.7411 70.1094C34.0593 70.4044 34.3129 70.7955 34.5018 71.2827C34.6907 71.7699 34.7852 72.3698 34.7852 73.0824V73.5795H28.8988V72.5653H33.592C33.592 72.1345 33.5058 71.75 33.3335 71.4119C33.1644 71.0739 32.9225 70.8071 32.6076 70.6115C32.296 70.416 31.9281 70.3182 31.5039 70.3182C31.0366 70.3182 30.6322 70.4342 30.2908 70.6662C29.9528 70.8949 29.6926 71.1932 29.5103 71.5611C29.328 71.929 29.2369 72.3234 29.2369 72.7443V73.4205C29.2369 73.9972 29.3363 74.486 29.5352 74.8871C29.7373 75.2848 30.0174 75.5881 30.3754 75.7969C30.7333 76.0024 31.1493 76.1051 31.6232 76.1051C31.9315 76.1051 32.2099 76.062 32.4585 75.9759C32.7103 75.8864 32.9274 75.7538 33.1097 75.5781C33.292 75.3991 33.4329 75.1771 33.5323 74.9119L34.6658 75.2301C34.5465 75.6146 34.346 75.9527 34.0643 76.2443C33.7826 76.5327 33.4345 76.758 33.0202 76.9205C32.6059 77.0795 32.1403 77.1591 31.6232 77.1591ZM36.57 77V69.3636H37.7035V70.517H37.783C37.9222 70.1392 38.1741 69.8326 38.5387 69.5973C38.9033 69.362 39.3143 69.2443 39.7717 69.2443C39.8578 69.2443 39.9656 69.246 40.0948 69.2493C40.2241 69.2526 40.3219 69.2576 40.3881 69.2642V70.4574C40.3484 70.4474 40.2572 70.4325 40.1147 70.4126C39.9755 70.3894 39.828 70.3778 39.6722 70.3778C39.301 70.3778 38.9696 70.4557 38.6779 70.6115C38.3896 70.764 38.1609 70.9761 37.9918 71.2479C37.8261 71.5163 37.7433 71.8229 37.7433 72.1676V77H36.57ZM45.8755 77V66.8182H49.4352C50.1445 66.8182 50.7295 66.9408 51.1902 67.1861C51.6509 67.428 51.9939 67.7545 52.2193 68.1655C52.4447 68.5732 52.5574 69.0256 52.5574 69.5227C52.5574 69.9602 52.4795 70.3215 52.3237 70.6065C52.1712 70.8916 51.969 71.117 51.7172 71.2827C51.4686 71.4484 51.1984 71.571 50.9068 71.6506V71.75C51.2183 71.7699 51.5315 71.8793 51.8464 72.0781C52.1613 72.277 52.4248 72.562 52.6369 72.9332C52.849 73.3045 52.9551 73.7585 52.9551 74.2955C52.9551 74.8059 52.8391 75.2649 52.6071 75.6726C52.3751 76.0803 52.0088 76.4034 51.5083 76.642C51.0079 76.8807 50.3566 77 49.5545 77H45.8755ZM47.1085 75.9062H49.5545C50.3599 75.9062 50.9316 75.7505 51.2697 75.4389C51.6111 75.1241 51.7818 74.7429 51.7818 74.2955C51.7818 73.9508 51.694 73.6326 51.5183 73.3409C51.3426 73.0459 51.0924 72.8106 50.7676 72.6349C50.4428 72.456 50.0583 72.3665 49.6142 72.3665H47.1085V75.9062ZM47.1085 71.2926H49.3954C49.7666 71.2926 50.1014 71.2197 50.3997 71.0739C50.7013 70.928 50.9399 70.7225 51.1156 70.4574C51.2946 70.1922 51.3841 69.8807 51.3841 69.5227C51.3841 69.0753 51.2283 68.6958 50.9167 68.3842C50.6052 68.0694 50.1113 67.9119 49.4352 67.9119H47.1085V71.2926ZM57.0691 77.179C56.5852 77.179 56.146 77.0878 55.7516 76.9055C55.3572 76.7199 55.044 76.4531 54.812 76.1051C54.58 75.7538 54.464 75.3295 54.464 74.8324C54.464 74.3949 54.5501 74.0402 54.7225 73.7685C54.8948 73.4934 55.1252 73.2779 55.4135 73.1222C55.7019 72.9664 56.0201 72.8504 56.3681 72.7741C56.7194 72.6946 57.0724 72.6316 57.427 72.5852C57.891 72.5256 58.2672 72.4808 58.5556 72.451C58.8472 72.4179 59.0594 72.3632 59.1919 72.2869C59.3278 72.2107 59.3958 72.0781 59.3958 71.8892V71.8494C59.3958 71.3589 59.2615 70.9777 58.9931 70.706C58.7279 70.4342 58.3252 70.2983 57.785 70.2983C57.2248 70.2983 56.7857 70.4209 56.4675 70.6662C56.1493 70.9115 55.9256 71.1733 55.7963 71.4517L54.6827 71.054C54.8816 70.59 55.1467 70.2287 55.4782 69.9702C55.8129 69.7083 56.1775 69.526 56.5719 69.4233C56.9696 69.3172 57.3607 69.2642 57.7452 69.2642C57.9905 69.2642 58.2722 69.294 58.5904 69.3537C58.9119 69.41 59.2218 69.5277 59.5201 69.7067C59.8217 69.8857 60.0719 70.1558 60.2708 70.517C60.4696 70.8783 60.5691 71.3622 60.5691 71.9688V77H59.3958V75.9659H59.3361C59.2566 76.1316 59.124 76.3089 58.9384 76.4979C58.7528 76.6868 58.5059 76.8475 58.1976 76.9801C57.8894 77.1127 57.5132 77.179 57.0691 77.179ZM57.248 76.125C57.7121 76.125 58.1032 76.0339 58.4213 75.8516C58.7428 75.6693 58.9848 75.4339 59.1472 75.1456C59.3129 74.8572 59.3958 74.554 59.3958 74.2358V73.1619C59.3461 73.2216 59.2367 73.2763 59.0676 73.326C58.9019 73.3724 58.7097 73.4138 58.4909 73.4503C58.2755 73.4834 58.065 73.5133 57.8596 73.5398C57.6574 73.563 57.4933 73.5829 57.3674 73.5994C57.0624 73.6392 56.7774 73.7038 56.5123 73.7933C56.2504 73.8795 56.0383 74.0104 55.8759 74.1861C55.7168 74.3584 55.6373 74.5937 55.6373 74.892C55.6373 75.2997 55.7881 75.608 56.0897 75.8168C56.3946 76.0223 56.7807 76.125 57.248 76.125ZM65.8129 77.1591C65.0969 77.1591 64.4805 76.9901 63.9634 76.652C63.4464 76.3139 63.0487 75.8482 62.7702 75.255C62.4918 74.6617 62.3526 73.9839 62.3526 73.2216C62.3526 72.446 62.4951 71.7616 62.7802 71.1683C63.0685 70.5717 63.4696 70.1061 63.9833 69.7713C64.5004 69.4332 65.1036 69.2642 65.793 69.2642C66.3299 69.2642 66.8138 69.3636 67.2447 69.5625C67.6755 69.7614 68.0285 70.0398 68.3036 70.3977C68.5787 70.7557 68.7494 71.1733 68.8157 71.6506H67.6424C67.5529 71.3026 67.354 70.9943 67.0458 70.7259C66.7409 70.4541 66.3299 70.3182 65.8129 70.3182C65.3555 70.3182 64.9544 70.4375 64.6097 70.6761C64.2683 70.9115 64.0015 71.2446 63.8093 71.6754C63.6204 72.103 63.5259 72.6051 63.5259 73.1818C63.5259 73.7718 63.6187 74.2855 63.8043 74.723C63.9933 75.1605 64.2584 75.5002 64.5998 75.7422C64.9445 75.9841 65.3488 76.1051 65.8129 76.1051C66.1178 76.1051 66.3945 76.0521 66.6431 75.946C66.8917 75.84 67.1022 75.6875 67.2745 75.4886C67.4469 75.2898 67.5695 75.0511 67.6424 74.7727H68.8157C68.7494 75.2235 68.5853 75.6295 68.3235 75.9908C68.065 76.3487 67.7219 76.6338 67.2944 76.8459C66.8701 77.0547 66.3763 77.1591 65.8129 77.1591ZM71.6246 74.2159L71.6048 72.7642H71.8434L75.1843 69.3636H76.636L73.0763 72.9631H72.9769L71.6246 74.2159ZM70.5309 77V66.8182H71.7042V77H70.5309ZM75.3832 77L72.4002 73.2216L73.2354 72.4062L76.8746 77H75.3832ZM86.8961 73.8778V69.3636H88.0694V77H86.8961V75.7074H86.8166C86.6376 76.0952 86.3592 76.425 85.9814 76.6967C85.6035 76.9652 85.1262 77.0994 84.5495 77.0994C84.0723 77.0994 83.648 76.995 83.2768 76.7862C82.9056 76.5741 82.6139 76.2559 82.4018 75.8317C82.1897 75.4041 82.0836 74.8655 82.0836 74.2159V69.3636H83.2569V74.1364C83.2569 74.6932 83.4127 75.1373 83.7243 75.4688C84.0391 75.8002 84.4402 75.9659 84.9274 75.9659C85.219 75.9659 85.5157 75.8913 85.8173 75.7422C86.1222 75.593 86.3774 75.3643 86.5829 75.0561C86.7917 74.7479 86.8961 74.3551 86.8961 73.8778ZM90.2184 79.8636V69.3636H91.3519V70.5767H91.4911C91.5773 70.4441 91.6966 70.2751 91.8491 70.0696C92.0049 69.8608 92.2269 69.6752 92.5153 69.5128C92.8069 69.3471 93.2013 69.2642 93.6985 69.2642C94.3415 69.2642 94.9083 69.425 95.3988 69.7464C95.8893 70.0679 96.2721 70.5237 96.5472 71.1136C96.8223 71.7036 96.9599 72.3996 96.9599 73.2017C96.9599 74.0104 96.8223 74.7114 96.5472 75.3047C96.2721 75.8946 95.891 76.352 95.4038 76.6768C94.9165 76.9983 94.3548 77.1591 93.7184 77.1591C93.2279 77.1591 92.8351 77.0779 92.5401 76.9155C92.2451 76.7498 92.0181 76.5625 91.859 76.3537C91.6999 76.1416 91.5773 75.9659 91.4911 75.8267H91.3917V79.8636H90.2184ZM91.3718 73.1818C91.3718 73.7585 91.4563 74.2673 91.6254 74.7081C91.7944 75.1456 92.0413 75.4886 92.3661 75.7372C92.6909 75.9825 93.0887 76.1051 93.5593 76.1051C94.0498 76.1051 94.4592 75.9759 94.7873 75.7173C95.1187 75.4555 95.3673 75.1042 95.533 74.6634C95.7021 74.2192 95.7866 73.7254 95.7866 73.1818C95.7866 72.6449 95.7037 72.161 95.538 71.7301C95.3756 71.2959 95.1287 70.9529 94.7972 70.701C94.4691 70.4458 94.0565 70.3182 93.5593 70.3182C93.082 70.3182 92.681 70.4392 92.3562 70.6811C92.0314 70.9197 91.7861 71.2545 91.6204 71.6854C91.4547 72.1129 91.3718 72.6117 91.3718 73.1818ZM103.125 72.0881V73.1818H98.6701V72.0881H103.125ZM105.348 77V66.8182H108.789C109.587 66.8182 110.24 66.9624 110.747 67.2507C111.258 67.5357 111.636 67.9219 111.881 68.4091C112.126 68.8963 112.249 69.4399 112.249 70.0398C112.249 70.6397 112.126 71.1849 111.881 71.6754C111.639 72.166 111.264 72.5571 110.757 72.8487C110.25 73.1371 109.601 73.2812 108.808 73.2812H106.343V72.1875H108.769C109.316 72.1875 109.755 72.093 110.086 71.9041C110.418 71.7152 110.658 71.46 110.807 71.1385C110.959 70.8137 111.036 70.4474 111.036 70.0398C111.036 69.6321 110.959 69.2675 110.807 68.946C110.658 68.6245 110.416 68.3726 110.081 68.1903C109.746 68.0047 109.302 67.9119 108.749 67.9119H106.581V77H105.348ZM116.323 77.179C115.839 77.179 115.4 77.0878 115.006 76.9055C114.611 76.7199 114.298 76.4531 114.066 76.1051C113.834 75.7538 113.718 75.3295 113.718 74.8324C113.718 74.3949 113.804 74.0402 113.976 73.7685C114.149 73.4934 114.379 73.2779 114.667 73.1222C114.956 72.9664 115.274 72.8504 115.622 72.7741C115.973 72.6946 116.326 72.6316 116.681 72.5852C117.145 72.5256 117.521 72.4808 117.809 72.451C118.101 72.4179 118.313 72.3632 118.446 72.2869C118.582 72.2107 118.65 72.0781 118.65 71.8892V71.8494C118.65 71.3589 118.515 70.9777 118.247 70.706C117.982 70.4342 117.579 70.2983 117.039 70.2983C116.479 70.2983 116.04 70.4209 115.721 70.6662C115.403 70.9115 115.18 71.1733 115.05 71.4517L113.937 71.054C114.135 70.59 114.401 70.2287 114.732 69.9702C115.067 69.7083 115.431 69.526 115.826 69.4233C116.224 69.3172 116.615 69.2642 116.999 69.2642C117.244 69.2642 117.526 69.294 117.844 69.3537C118.166 69.41 118.476 69.5277 118.774 69.7067C119.076 69.8857 119.326 70.1558 119.525 70.517C119.724 70.8783 119.823 71.3622 119.823 71.9688V77H118.65V75.9659H118.59C118.51 76.1316 118.378 76.3089 118.192 76.4979C118.007 76.6868 117.76 76.8475 117.452 76.9801C117.143 77.1127 116.767 77.179 116.323 77.179ZM116.502 76.125C116.966 76.125 117.357 76.0339 117.675 75.8516C117.997 75.6693 118.239 75.4339 118.401 75.1456C118.567 74.8572 118.65 74.554 118.65 74.2358V73.1619C118.6 73.2216 118.491 73.2763 118.322 73.326C118.156 73.3724 117.964 73.4138 117.745 73.4503C117.529 73.4834 117.319 73.5133 117.113 73.5398C116.911 73.563 116.747 73.5829 116.621 73.5994C116.316 73.6392 116.031 73.7038 115.766 73.7933C115.504 73.8795 115.292 74.0104 115.13 74.1861C114.971 74.3584 114.891 74.5937 114.891 74.892C114.891 75.2997 115.042 75.608 115.344 75.8168C115.648 76.0223 116.035 76.125 116.502 76.125ZM121.964 77V69.3636H123.098V70.517H123.178C123.317 70.1392 123.569 69.8326 123.933 69.5973C124.298 69.362 124.709 69.2443 125.166 69.2443C125.252 69.2443 125.36 69.246 125.489 69.2493C125.619 69.2526 125.716 69.2576 125.783 69.2642V70.4574C125.743 70.4474 125.652 70.4325 125.509 70.4126C125.37 70.3894 125.223 70.3778 125.067 70.3778C124.696 70.3778 124.364 70.4557 124.072 70.6115C123.784 70.764 123.555 70.9761 123.386 71.2479C123.221 71.5163 123.138 71.8229 123.138 72.1676V77H121.964ZM130.973 69.3636V70.358H127.016V69.3636H130.973ZM128.169 67.5341H129.342V74.8125C129.342 75.1439 129.39 75.3925 129.487 75.5582C129.586 75.7206 129.712 75.83 129.864 75.8864C130.02 75.9394 130.184 75.9659 130.357 75.9659C130.486 75.9659 130.592 75.9593 130.675 75.946C130.758 75.9295 130.824 75.9162 130.874 75.9062L131.112 76.9602C131.033 76.9901 130.922 77.0199 130.779 77.0497C130.637 77.0829 130.456 77.0994 130.237 77.0994C129.906 77.0994 129.581 77.0282 129.263 76.8857C128.948 76.7431 128.686 76.526 128.477 76.2344C128.272 75.9427 128.169 75.5748 128.169 75.1307V67.5341ZM132.738 77V69.3636H133.911V77H132.738ZM133.335 68.0909C133.106 68.0909 132.909 68.013 132.743 67.8572C132.58 67.7015 132.499 67.5142 132.499 67.2955C132.499 67.0767 132.58 66.8894 132.743 66.7337C132.909 66.5779 133.106 66.5 133.335 66.5C133.563 66.5 133.759 66.5779 133.921 66.7337C134.087 66.8894 134.17 67.0767 134.17 67.2955C134.17 67.5142 134.087 67.7015 133.921 67.8572C133.759 68.013 133.563 68.0909 133.335 68.0909ZM138.307 77.179C137.823 77.179 137.384 77.0878 136.99 76.9055C136.595 76.7199 136.282 76.4531 136.05 76.1051C135.818 75.7538 135.702 75.3295 135.702 74.8324C135.702 74.3949 135.788 74.0402 135.961 73.7685C136.133 73.4934 136.363 73.2779 136.652 73.1222C136.94 72.9664 137.258 72.8504 137.606 72.7741C137.958 72.6946 138.311 72.6316 138.665 72.5852C139.129 72.5256 139.506 72.4808 139.794 72.451C140.086 72.4179 140.298 72.3632 140.43 72.2869C140.566 72.2107 140.634 72.0781 140.634 71.8892V71.8494C140.634 71.3589 140.5 70.9777 140.231 70.706C139.966 70.4342 139.564 70.2983 139.023 70.2983C138.463 70.2983 138.024 70.4209 137.706 70.6662C137.388 70.9115 137.164 71.1733 137.035 71.4517L135.921 71.054C136.12 70.59 136.385 70.2287 136.716 69.9702C137.051 69.7083 137.416 69.526 137.81 69.4233C138.208 69.3172 138.599 69.2642 138.983 69.2642C139.229 69.2642 139.51 69.294 139.829 69.3537C140.15 69.41 140.46 69.5277 140.758 69.7067C141.06 69.8857 141.31 70.1558 141.509 70.517C141.708 70.8783 141.807 71.3622 141.807 71.9688V77H140.634V75.9659H140.574C140.495 76.1316 140.362 76.3089 140.177 76.4979C139.991 76.6868 139.744 76.8475 139.436 76.9801C139.128 77.1127 138.751 77.179 138.307 77.179ZM138.486 76.125C138.95 76.125 139.341 76.0339 139.66 75.8516C139.981 75.6693 140.223 75.4339 140.385 75.1456C140.551 74.8572 140.634 74.554 140.634 74.2358V73.1619C140.584 73.2216 140.475 73.2763 140.306 73.326C140.14 73.3724 139.948 73.4138 139.729 73.4503C139.514 73.4834 139.303 73.5133 139.098 73.5398C138.896 73.563 138.732 73.5829 138.606 73.5994C138.301 73.6392 138.016 73.7038 137.751 73.7933C137.489 73.8795 137.277 74.0104 137.114 74.1861C136.955 74.3584 136.876 74.5937 136.876 74.892C136.876 75.2997 137.026 75.608 137.328 75.8168C137.633 76.0223 138.019 76.125 138.486 76.125ZM145.122 66.8182V77H143.949V66.8182H145.122Z" fill="#7A7A7A"/>
</svg>
