<svg width="73" height="41" viewBox="0 0 73 41" fill="none" xmlns="http://www.w3.org/2000/svg">
<rect width="72" height="41" transform="translate(0.5)" fill="white"/>
<path d="M9.42685 25.071V23.1854L14.9815 14.4091H16.554V17.0938H15.5952L11.8558 23.0192V23.1214H19.6094V25.071H9.42685ZM15.6719 27.5V24.4957L15.6974 23.652V14.4091H17.9347V27.5H15.6719ZM22.7335 27.6406C22.3457 27.6406 22.0133 27.5043 21.7363 27.2315C21.4593 26.9588 21.323 26.6264 21.3272 26.2344C21.323 25.8509 21.4593 25.5227 21.7363 25.25C22.0133 24.9773 22.3457 24.8409 22.7335 24.8409C23.1085 24.8409 23.4345 24.9773 23.7115 25.25C23.9927 25.5227 24.1355 25.8509 24.1397 26.2344C24.1355 26.4943 24.0673 26.7308 23.9352 26.9439C23.8074 27.157 23.6369 27.3274 23.4238 27.4553C23.215 27.5788 22.9849 27.6406 22.7335 27.6406ZM30.8961 27.679C30.0439 27.679 29.2811 27.5192 28.6078 27.1996C27.9345 26.8757 27.3997 26.4325 27.0034 25.87C26.6113 25.3075 26.4025 24.6641 26.377 23.9396H28.6781C28.7207 24.4766 28.9529 24.9155 29.3748 25.2564C29.7967 25.593 30.3038 25.7614 30.8961 25.7614C31.3606 25.7614 31.774 25.6548 32.1362 25.4418C32.4984 25.2287 32.7839 24.9325 32.9927 24.5533C33.2015 24.174 33.3038 23.7415 33.2995 23.2557C33.3038 22.7614 33.1994 22.3224 32.9863 21.9389C32.7733 21.5554 32.4814 21.255 32.1106 21.0376C31.7399 20.8161 31.3137 20.7053 30.8322 20.7053C30.4402 20.701 30.0545 20.7734 29.6752 20.9226C29.296 21.0717 28.9956 21.2678 28.774 21.5107L26.6326 21.1591L27.3166 14.4091H34.9103V16.3906H29.2789L28.9018 19.8615H28.9785C29.2214 19.576 29.5645 19.3395 30.0076 19.152C30.4508 18.9602 30.9366 18.8643 31.465 18.8643C32.2576 18.8643 32.965 19.0518 33.5872 19.4268C34.2093 19.7976 34.6994 20.3089 35.0574 20.9609C35.4153 21.6129 35.5943 22.3587 35.5943 23.1982C35.5943 24.0632 35.394 24.8345 34.9934 25.5121C34.5971 26.1854 34.0453 26.7159 33.3379 27.1037C32.6348 27.4872 31.8208 27.679 30.8961 27.679Z" fill="#122B49"/>
<path d="M55 12.584L57.4463 17.5398L62.9167 18.3394L58.9584 22.1948L59.8925 27.6415L55 25.0686L50.1075 27.6415L51.0417 22.1948L47.0834 18.3394L52.5538 17.5398L55 12.584Z" fill="#122B49" stroke="black" stroke-width="2" stroke-linecap="round" stroke-linejoin="round"/>
</svg>
