<svg width="135" height="96" viewBox="0 0 135 96" fill="none" xmlns="http://www.w3.org/2000/svg">
<g clip-path="url(#clip0_67_5900)">
<path d="M58.1914 36.3203L75.8504 49.1492" stroke="#7A7A7A" stroke-width="1.5"/>
<path d="M62.373 35.5059L80.7423 49.0049" stroke="#7A7A7A" stroke-width="1.5" stroke-linecap="round"/>
<path d="M53 45.5219C53 40.097 57.3978 35.6993 62.8226 35.6993H77.1774C82.6022 35.6993 87 40.097 87 45.5218V48.9992H53V45.5219Z" stroke="#7A7A7A" stroke-width="2.00007"/>
<path d="M75.1738 41.0273H77.4043" stroke="#7A7A7A" stroke-width="1.5" stroke-linecap="round"/>
<path d="M68.7617 32.0547H70.8992" stroke="#7A7A7A" stroke-linecap="round"/>
<path fill-rule="evenodd" clip-rule="evenodd" d="M69.9992 36.3992C75.7546 36.3992 80.4202 32.2131 80.4202 27.0492C80.4202 21.8854 75.7546 17.6992 69.9992 17.6992C64.2438 17.6992 59.5781 21.8854 59.5781 27.0492C59.5781 32.2131 64.2438 36.3992 69.9992 36.3992ZM69.9992 34.6992C73.6617 34.6992 76.6308 32.0353 76.6308 28.7492C76.6308 25.4631 73.6617 22.7992 69.9992 22.7992C66.3367 22.7992 63.3676 25.4631 63.3676 28.7492C63.3676 32.0353 66.3367 34.6992 69.9992 34.6992Z" fill="#7A7A7A"/>
<path d="M80.1298 26.1992H59.3769L57.4004 23.602V21.5951L70.0004 17.6992L82.6004 21.5951V23.602L80.1298 26.1992Z" fill="white" stroke="#7A7A7A" stroke-width="2"/>
<mask id="path-8-inside-1_67_5900" fill="white">
<ellipse cx="67.1583" cy="28.7484" rx="0.947368" ry="0.85"/>
</mask>
<ellipse cx="67.1583" cy="28.7484" rx="0.947368" ry="0.85" fill="#7A7A7A"/>
<path d="M66.9945 28.7484C66.9945 28.6347 67.0483 28.5564 67.0861 28.5224C67.122 28.4902 67.1507 28.4873 67.1583 28.4873V30.7096C68.1788 30.7096 69.2168 29.9418 69.2168 28.7484H66.9945ZM67.1583 28.4873C67.1659 28.4873 67.1946 28.4902 67.2305 28.5224C67.2683 28.5564 67.3221 28.6347 67.3221 28.7484H65.0998C65.0998 29.9418 66.1378 30.7096 67.1583 30.7096V28.4873ZM67.3221 28.7484C67.3221 28.8622 67.2683 28.9405 67.2305 28.9744C67.1946 29.0066 67.1659 29.0096 67.1583 29.0096V26.7873C66.1378 26.7873 65.0998 27.5551 65.0998 28.7484H67.3221ZM67.1583 29.0096C67.1507 29.0096 67.122 29.0066 67.0861 28.9744C67.0483 28.9405 66.9945 28.8622 66.9945 28.7484H69.2168C69.2168 27.5551 68.1788 26.7873 67.1583 26.7873V29.0096Z" fill="#7A7A7A" mask="url(#path-8-inside-1_67_5900)"/>
<mask id="path-10-inside-2_67_5900" fill="white">
<ellipse cx="72.8419" cy="28.7484" rx="0.947368" ry="0.85"/>
</mask>
<ellipse cx="72.8419" cy="28.7484" rx="0.947368" ry="0.85" fill="#7A7A7A"/>
<path d="M72.6781 28.7484C72.6781 28.6347 72.7319 28.5564 72.7697 28.5224C72.8056 28.4902 72.8343 28.4873 72.8419 28.4873V30.7096C73.8624 30.7096 74.9004 29.9418 74.9004 28.7484H72.6781ZM72.8419 28.4873C72.8495 28.4873 72.8782 28.4902 72.9141 28.5224C72.9519 28.5564 73.0057 28.6347 73.0057 28.7484H70.7834C70.7834 29.9418 71.8214 30.7096 72.8419 30.7096V28.4873ZM73.0057 28.7484C73.0057 28.8622 72.9519 28.9405 72.9141 28.9744C72.8782 29.0066 72.8495 29.0096 72.8419 29.0096V26.7873C71.8214 26.7873 70.7834 27.5551 70.7834 28.7484H73.0057ZM72.8419 29.0096C72.8343 29.0096 72.8056 29.0066 72.7697 28.9744C72.7319 28.9405 72.6781 28.8622 72.6781 28.7484H74.9004C74.9004 27.5551 73.8624 26.7873 72.8419 26.7873V29.0096Z" fill="#7A7A7A" mask="url(#path-10-inside-2_67_5900)"/>
<path d="M69.9996 19.3984L70.7068 21.1604H72.9954L71.1439 22.2494L71.8511 24.0114L69.9996 22.9225L68.1481 24.0114L68.8553 22.2494L67.0038 21.1604H69.2924L69.9996 19.3984Z" fill="#7A7A7A"/>
</g>
<path d="M22.054 77V76.1051L25.4148 72.4261C25.8092 71.9953 26.134 71.6207 26.3892 71.3026C26.6444 70.9811 26.8333 70.6795 26.956 70.3977C27.0819 70.1127 27.1449 69.8144 27.1449 69.5028C27.1449 69.1449 27.0587 68.835 26.8864 68.5732C26.7173 68.3113 26.4853 68.1091 26.1903 67.9666C25.8954 67.8241 25.5639 67.7528 25.196 67.7528C24.8049 67.7528 24.4635 67.834 24.1719 67.9964C23.8835 68.1555 23.6598 68.3793 23.5007 68.6676C23.3449 68.956 23.267 69.294 23.267 69.6818H22.0938C22.0938 69.0852 22.2313 68.5616 22.5064 68.1108C22.7815 67.66 23.156 67.3087 23.63 67.0568C24.1072 66.8049 24.6425 66.679 25.2358 66.679C25.8324 66.679 26.361 66.8049 26.8217 67.0568C27.2824 67.3087 27.6437 67.6484 27.9055 68.076C28.1674 68.5036 28.2983 68.9792 28.2983 69.5028C28.2983 69.8774 28.2304 70.2436 28.0945 70.6016C27.9619 70.9562 27.7299 71.3523 27.3984 71.7898C27.0703 72.224 26.6146 72.7543 26.0312 73.3807L23.7443 75.8267V75.9062H28.4773V77H22.054ZM30.0732 74.9119V73.8977L34.5476 66.8182H35.2834V68.3892H34.7862L31.4055 73.7386V73.8182H37.4311V74.9119H30.0732ZM34.8658 77V74.6037V74.1314V66.8182H36.0391V77H34.8658ZM42.9135 66.3409L39.6323 78.5312H38.5584L41.8397 66.3409H42.9135ZM44.6026 77L49.1566 67.9915V67.9119H43.9066V66.8182H50.4293V67.9716L45.8952 77H44.6026ZM65.9047 69.3636C65.845 68.8598 65.603 68.4688 65.1788 68.1903C64.7546 67.9119 64.2342 67.7727 63.6177 67.7727C63.167 67.7727 62.7725 67.8456 62.4345 67.9915C62.0997 68.1373 61.8379 68.3378 61.649 68.593C61.4634 68.8482 61.3706 69.1383 61.3706 69.4631C61.3706 69.7348 61.4352 69.9685 61.5645 70.1641C61.697 70.3563 61.8661 70.517 62.0716 70.6463C62.277 70.7723 62.4925 70.8767 62.7179 70.9595C62.9432 71.0391 63.1504 71.1037 63.3393 71.1534L64.3734 71.4318C64.6386 71.5014 64.9335 71.5975 65.2583 71.7202C65.5865 71.8428 65.8997 72.0102 66.198 72.2223C66.4996 72.4311 66.7482 72.6996 66.9437 73.0277C67.1393 73.3558 67.237 73.7585 67.237 74.2358C67.237 74.786 67.0929 75.2831 66.8045 75.7273C66.5195 76.1714 66.1019 76.5244 65.5517 76.7862C65.0048 77.0481 64.3403 77.179 63.5581 77.179C62.8289 77.179 62.1975 77.0613 61.6639 76.826C61.1336 76.5907 60.716 76.2625 60.411 75.8416C60.1094 75.4207 59.9387 74.9318 59.899 74.375H61.1717C61.2048 74.7595 61.3341 75.0777 61.5595 75.3295C61.7882 75.5781 62.0765 75.7637 62.4245 75.8864C62.7759 76.0057 63.1537 76.0653 63.5581 76.0653C64.0287 76.0653 64.4513 75.9891 64.8258 75.8366C65.2003 75.6809 65.497 75.4654 65.7157 75.1903C65.9345 74.9119 66.0439 74.5871 66.0439 74.2159C66.0439 73.8778 65.9494 73.6027 65.7605 73.3906C65.5716 73.1785 65.323 73.0062 65.0147 72.8736C64.7065 72.741 64.3734 72.625 64.0154 72.5256L62.7626 72.1676C61.9672 71.9389 61.3374 71.6125 60.8734 71.1882C60.4094 70.764 60.1774 70.2088 60.1774 69.5227C60.1774 68.9527 60.3315 68.4555 60.6397 68.0312C60.9513 67.6037 61.3689 67.2723 61.8926 67.0369C62.4196 66.7983 63.0079 66.679 63.6575 66.679C64.3137 66.679 64.8971 66.7966 65.4075 67.032C65.9179 67.264 66.3223 67.5821 66.6206 67.9865C66.9222 68.3909 67.0813 68.8499 67.0978 69.3636H65.9047ZM72.3068 77.1591C71.571 77.1591 70.9363 76.9967 70.4027 76.6719C69.8724 76.3438 69.4631 75.8864 69.1747 75.2997C68.8897 74.7098 68.7472 74.0237 68.7472 73.2415C68.7472 72.4593 68.8897 71.7699 69.1747 71.1733C69.4631 70.5734 69.8641 70.1061 70.3778 69.7713C70.8949 69.4332 71.4981 69.2642 72.1875 69.2642C72.5852 69.2642 72.978 69.3305 73.3658 69.4631C73.7536 69.5956 74.1065 69.8111 74.4247 70.1094C74.7429 70.4044 74.9964 70.7955 75.1854 71.2827C75.3743 71.7699 75.4688 72.3698 75.4688 73.0824V73.5795H69.5824V72.5653H74.2756C74.2756 72.1345 74.1894 71.75 74.017 71.4119C73.848 71.0739 73.6061 70.8071 73.2912 70.6115C72.9796 70.416 72.6117 70.3182 72.1875 70.3182C71.7202 70.3182 71.3158 70.4342 70.9744 70.6662C70.6364 70.8949 70.3762 71.1932 70.1939 71.5611C70.0116 71.929 69.9205 72.3234 69.9205 72.7443V73.4205C69.9205 73.9972 70.0199 74.486 70.2188 74.8871C70.4209 75.2848 70.701 75.5881 71.0589 75.7969C71.4169 76.0024 71.8329 76.1051 72.3068 76.1051C72.6151 76.1051 72.8935 76.062 73.142 75.9759C73.3939 75.8864 73.611 75.7538 73.7933 75.5781C73.9756 75.3991 74.1165 75.1771 74.2159 74.9119L75.3494 75.2301C75.2301 75.6146 75.0296 75.9527 74.7479 76.2443C74.4661 76.5327 74.1181 76.758 73.7038 76.9205C73.2895 77.0795 72.8239 77.1591 72.3068 77.1591ZM80.3558 77.1591C79.6399 77.1591 79.0234 76.9901 78.5064 76.652C77.9893 76.3139 77.5916 75.8482 77.3132 75.255C77.0348 74.6617 76.8956 73.9839 76.8956 73.2216C76.8956 72.446 77.0381 71.7616 77.3232 71.1683C77.6115 70.5717 78.0125 70.1061 78.5263 69.7713C79.0433 69.4332 79.6465 69.2642 80.3359 69.2642C80.8729 69.2642 81.3568 69.3636 81.7876 69.5625C82.2185 69.7614 82.5715 70.0398 82.8466 70.3977C83.1217 70.7557 83.2924 71.1733 83.3587 71.6506H82.1854C82.0959 71.3026 81.897 70.9943 81.5888 70.7259C81.2839 70.4541 80.8729 70.3182 80.3558 70.3182C79.8984 70.3182 79.4974 70.4375 79.1527 70.6761C78.8113 70.9115 78.5445 71.2446 78.3523 71.6754C78.1634 72.103 78.0689 72.6051 78.0689 73.1818C78.0689 73.7718 78.1617 74.2855 78.3473 74.723C78.5362 75.1605 78.8014 75.5002 79.1428 75.7422C79.4875 75.9841 79.8918 76.1051 80.3558 76.1051C80.6607 76.1051 80.9375 76.0521 81.1861 75.946C81.4347 75.84 81.6451 75.6875 81.8175 75.4886C81.9898 75.2898 82.1125 75.0511 82.1854 74.7727H83.3587C83.2924 75.2235 83.1283 75.6295 82.8665 75.9908C82.608 76.3487 82.2649 76.6338 81.8374 76.8459C81.4131 77.0547 80.9193 77.1591 80.3558 77.1591ZM89.8864 73.8778V69.3636H91.0597V77H89.8864V75.7074H89.8068C89.6278 76.0952 89.3494 76.425 88.9716 76.6967C88.5938 76.9652 88.1165 77.0994 87.5398 77.0994C87.0625 77.0994 86.6383 76.995 86.267 76.7862C85.8958 76.5741 85.6042 76.2559 85.392 75.8317C85.1799 75.4041 85.0739 74.8655 85.0739 74.2159V69.3636H86.2472V74.1364C86.2472 74.6932 86.4029 75.1373 86.7145 75.4688C87.0294 75.8002 87.4304 75.9659 87.9176 75.9659C88.2093 75.9659 88.5059 75.8913 88.8075 75.7422C89.1125 75.593 89.3677 75.3643 89.5732 75.0561C89.782 74.7479 89.8864 74.3551 89.8864 73.8778ZM93.2086 77V69.3636H94.3422V70.517H94.4217C94.5609 70.1392 94.8128 69.8326 95.1774 69.5973C95.542 69.362 95.9529 69.2443 96.4103 69.2443C96.4965 69.2443 96.6042 69.246 96.7335 69.2493C96.8627 69.2526 96.9605 69.2576 97.0268 69.2642V70.4574C96.987 70.4474 96.8959 70.4325 96.7534 70.4126C96.6142 70.3894 96.4667 70.3778 96.3109 70.3778C95.9397 70.3778 95.6083 70.4557 95.3166 70.6115C95.0282 70.764 94.7995 70.9761 94.6305 71.2479C94.4648 71.5163 94.3819 71.8229 94.3819 72.1676V77H93.2086ZM98.4176 77V69.3636H99.5909V77H98.4176ZM99.0142 68.0909C98.7855 68.0909 98.5883 68.013 98.4226 67.8572C98.2602 67.7015 98.179 67.5142 98.179 67.2955C98.179 67.0767 98.2602 66.8894 98.4226 66.7337C98.5883 66.5779 98.7855 66.5 99.0142 66.5C99.2429 66.5 99.4384 66.5779 99.6009 66.7337C99.7666 66.8894 99.8494 67.0767 99.8494 67.2955C99.8494 67.5142 99.7666 67.7015 99.6009 67.8572C99.4384 68.013 99.2429 68.0909 99.0142 68.0909ZM105.061 69.3636V70.358H101.104V69.3636H105.061ZM102.257 67.5341H103.43V74.8125C103.43 75.1439 103.478 75.3925 103.574 75.5582C103.674 75.7206 103.8 75.83 103.952 75.8864C104.108 75.9394 104.272 75.9659 104.444 75.9659C104.574 75.9659 104.68 75.9593 104.763 75.946C104.845 75.9295 104.912 75.9162 104.961 75.9062L105.2 76.9602C105.121 76.9901 105.01 77.0199 104.867 77.0497C104.724 77.0829 104.544 77.0994 104.325 77.0994C103.994 77.0994 103.669 77.0282 103.351 76.8857C103.036 76.7431 102.774 76.526 102.565 76.2344C102.36 75.9427 102.257 75.5748 102.257 75.1307V67.5341ZM107.581 79.8636C107.383 79.8636 107.205 79.8471 107.05 79.8139C106.894 79.7841 106.786 79.7543 106.726 79.7244L107.025 78.6903C107.31 78.7633 107.562 78.7898 107.78 78.7699C107.999 78.75 108.193 78.6522 108.362 78.4766C108.534 78.3042 108.692 78.0241 108.834 77.6364L109.053 77.0398L106.229 69.3636H107.502L109.61 75.4489H109.689L111.797 69.3636H113.07L109.829 78.1136C109.683 78.508 109.502 78.8345 109.287 79.093C109.071 79.3549 108.821 79.5488 108.536 79.6747C108.254 79.8007 107.936 79.8636 107.581 79.8636Z" fill="#7A7A7A"/>
<defs>
<clipPath id="clip0_67_5900">
<rect width="36" height="34" fill="white" transform="translate(52 16)"/>
</clipPath>
</defs>
</svg>
