<svg width="136" height="96" viewBox="0 0 136 96" fill="none" xmlns="http://www.w3.org/2000/svg">
<path d="M53.668 25.9173L59.9155 19.6698C60.1791 19.4047 60.4925 19.1943 60.8378 19.0508C61.183 18.9074 61.5533 18.8337 61.9271 18.834H73.7421C74.116 18.8337 74.4862 18.9074 74.8315 19.0508C75.1768 19.1943 75.4902 19.4047 75.7538 19.6698L82.0013 25.9173" stroke="#7A7A7A" stroke-width="2" stroke-linecap="round" stroke-linejoin="round"/>
<path d="M56.5 33V44.3333C56.5 45.0848 56.7985 45.8054 57.3299 46.3368C57.8612 46.8682 58.5819 47.1667 59.3333 47.1667H76.3333C77.0848 47.1667 77.8054 46.8682 78.3368 46.3368C78.8682 45.8054 79.1667 45.0848 79.1667 44.3333V33" stroke="#7A7A7A" stroke-width="2" stroke-linecap="round" stroke-linejoin="round"/>
<path d="M72.084 47.166V41.4993C72.084 40.7479 71.7855 40.0272 71.2541 39.4959C70.7228 38.9645 70.0021 38.666 69.2507 38.666H66.4173C65.6659 38.666 64.9452 38.9645 64.4138 39.4959C63.8825 40.0272 63.584 40.7479 63.584 41.4993V47.166" stroke="#7A7A7A" stroke-width="2" stroke-linecap="round" stroke-linejoin="round"/>
<path d="M53.668 25.916H82.0013" stroke="#7A7A7A" stroke-width="2" stroke-linecap="round" stroke-linejoin="round"/>
<path d="M82.0013 25.916V30.166C82.0013 30.9175 81.7028 31.6381 81.1714 32.1695C80.6401 32.7008 79.9194 32.9993 79.168 32.9993C78.3403 32.9538 77.5498 32.6406 76.9155 32.1068C76.7464 31.9847 76.5432 31.9189 76.3346 31.9189C76.1261 31.9189 75.9228 31.9847 75.7538 32.1068C75.1195 32.6406 74.329 32.9538 73.5013 32.9993C72.6736 32.9538 71.8831 32.6406 71.2488 32.1068C71.0798 31.9847 70.8765 31.9189 70.668 31.9189C70.4594 31.9189 70.2562 31.9847 70.0871 32.1068C69.4529 32.6406 68.6623 32.9538 67.8346 32.9993C67.0069 32.9538 66.2164 32.6406 65.5821 32.1068C65.4131 31.9847 65.2099 31.9189 65.0013 31.9189C64.7927 31.9189 64.5895 31.9847 64.4205 32.1068C63.7862 32.6406 62.9957 32.9538 62.168 32.9993C61.3403 32.9538 60.5498 32.6406 59.9155 32.1068C59.7464 31.9847 59.5432 31.9189 59.3346 31.9189C59.1261 31.9189 58.9228 31.9847 58.7538 32.1068C58.1195 32.6406 57.329 32.9538 56.5013 32.9993C55.7499 32.9993 55.0292 32.7008 54.4978 32.1695C53.9665 31.6381 53.668 30.9175 53.668 30.166V25.916" stroke="#7A7A7A" stroke-width="2" stroke-linecap="round" stroke-linejoin="round"/>
<path d="M19.6351 69.3636C19.5755 68.8598 19.3335 68.4688 18.9093 68.1903C18.485 67.9119 17.9647 67.7727 17.3482 67.7727C16.8974 67.7727 16.503 67.8456 16.165 67.9915C15.8302 68.1373 15.5684 68.3378 15.3794 68.593C15.1938 68.8482 15.101 69.1383 15.101 69.4631C15.101 69.7348 15.1657 69.9685 15.2949 70.1641C15.4275 70.3563 15.5965 70.517 15.802 70.6463C16.0075 70.7723 16.223 70.8767 16.4483 70.9595C16.6737 71.0391 16.8809 71.1037 17.0698 71.1534L18.1039 71.4318C18.369 71.5014 18.664 71.5975 18.9888 71.7202C19.3169 71.8428 19.6301 72.0102 19.9284 72.2223C20.2301 72.4311 20.4786 72.6996 20.6742 73.0277C20.8697 73.3558 20.9675 73.7585 20.9675 74.2358C20.9675 74.786 20.8233 75.2831 20.535 75.7273C20.2499 76.1714 19.8323 76.5244 19.2821 76.7862C18.7353 77.0481 18.0707 77.179 17.2885 77.179C16.5594 77.179 15.928 77.0613 15.3944 76.826C14.8641 76.5907 14.4464 76.2625 14.1415 75.8416C13.8399 75.4207 13.6692 74.9318 13.6294 74.375H14.9022C14.9353 74.7595 15.0646 75.0777 15.29 75.3295C15.5186 75.5781 15.807 75.7637 16.155 75.8864C16.5063 76.0057 16.8842 76.0653 17.2885 76.0653C17.7592 76.0653 18.1818 75.9891 18.5563 75.8366C18.9308 75.6809 19.2275 75.4654 19.4462 75.1903C19.665 74.9119 19.7743 74.5871 19.7743 74.2159C19.7743 73.8778 19.6799 73.6027 19.4909 73.3906C19.302 73.1785 19.0534 73.0062 18.7452 72.8736C18.437 72.741 18.1039 72.625 17.7459 72.5256L16.4931 72.1676C15.6976 71.9389 15.0679 71.6125 14.6039 71.1882C14.1399 70.764 13.9078 70.2088 13.9078 69.5227C13.9078 68.9527 14.062 68.4555 14.3702 68.0312C14.6818 67.6037 15.0994 67.2723 15.623 67.0369C16.15 66.7983 16.7383 66.679 17.388 66.679C18.0442 66.679 18.6275 66.7966 19.138 67.032C19.6484 67.264 20.0527 67.5821 20.351 67.9865C20.6526 68.3909 20.8117 68.8499 20.8283 69.3636H19.6351ZM24.0089 72.4062V77H22.8356V66.8182H24.0089V70.5568H24.1083C24.2873 70.1624 24.5558 69.8492 24.9137 69.6172C25.275 69.3819 25.7556 69.2642 26.3555 69.2642C26.8758 69.2642 27.3316 69.3686 27.7227 69.5774C28.1138 69.7829 28.417 70.0994 28.6325 70.527C28.8512 70.9512 28.9606 71.4915 28.9606 72.1477V77H27.7873V72.2273C27.7873 71.6207 27.6299 71.1518 27.315 70.8203C27.0034 70.4856 26.5709 70.3182 26.0174 70.3182C25.6329 70.3182 25.2882 70.3994 24.9833 70.5618C24.6817 70.7242 24.4431 70.9612 24.2674 71.2727C24.0951 71.5843 24.0089 71.9621 24.0089 72.4062ZM34.2093 77.1591C33.5199 77.1591 32.9151 76.995 32.3947 76.6669C31.8777 76.3388 31.4733 75.8797 31.1816 75.2898C30.8933 74.6998 30.7491 74.0104 30.7491 73.2216C30.7491 72.4261 30.8933 71.7318 31.1816 71.1385C31.4733 70.5452 31.8777 70.0845 32.3947 69.7564C32.9151 69.4283 33.5199 69.2642 34.2093 69.2642C34.8987 69.2642 35.502 69.4283 36.019 69.7564C36.5394 70.0845 36.9437 70.5452 37.2321 71.1385C37.5237 71.7318 37.6696 72.4261 37.6696 73.2216C37.6696 74.0104 37.5237 74.6998 37.2321 75.2898C36.9437 75.8797 36.5394 76.3388 36.019 76.6669C35.502 76.995 34.8987 77.1591 34.2093 77.1591ZM34.2093 76.1051C34.733 76.1051 35.1639 75.9709 35.502 75.7024C35.84 75.4339 36.0903 75.081 36.2527 74.6435C36.4151 74.206 36.4963 73.732 36.4963 73.2216C36.4963 72.7112 36.4151 72.2356 36.2527 71.7947C36.0903 71.3539 35.84 70.9976 35.502 70.7259C35.1639 70.4541 34.733 70.3182 34.2093 70.3182C33.6857 70.3182 33.2548 70.4541 32.9167 70.7259C32.5787 70.9976 32.3284 71.3539 32.166 71.7947C32.0036 72.2356 31.9224 72.7112 31.9224 73.2216C31.9224 73.732 32.0036 74.206 32.166 74.6435C32.3284 75.081 32.5787 75.4339 32.9167 75.7024C33.2548 75.9709 33.6857 76.1051 34.2093 76.1051ZM39.4606 79.8636V69.3636H40.5941V70.5767H40.7333C40.8195 70.4441 40.9388 70.2751 41.0913 70.0696C41.247 69.8608 41.4691 69.6752 41.7575 69.5128C42.0491 69.3471 42.4435 69.2642 42.9407 69.2642C43.5837 69.2642 44.1505 69.425 44.641 69.7464C45.1315 70.0679 45.5143 70.5237 45.7894 71.1136C46.0645 71.7036 46.2021 72.3996 46.2021 73.2017C46.2021 74.0104 46.0645 74.7114 45.7894 75.3047C45.5143 75.8946 45.1332 76.352 44.646 76.6768C44.1587 76.9983 43.5969 77.1591 42.9606 77.1591C42.4701 77.1591 42.0773 77.0779 41.7823 76.9155C41.4873 76.7498 41.2603 76.5625 41.1012 76.3537C40.9421 76.1416 40.8195 75.9659 40.7333 75.8267H40.6339V79.8636H39.4606ZM40.614 73.1818C40.614 73.7585 40.6985 74.2673 40.8675 74.7081C41.0366 75.1456 41.2835 75.4886 41.6083 75.7372C41.9331 75.9825 42.3308 76.1051 42.8015 76.1051C43.292 76.1051 43.7013 75.9759 44.0295 75.7173C44.3609 75.4555 44.6095 75.1042 44.7752 74.6634C44.9442 74.2192 45.0288 73.7254 45.0288 73.1818C45.0288 72.6449 44.9459 72.161 44.7802 71.7301C44.6178 71.2959 44.3709 70.9529 44.0394 70.701C43.7113 70.4458 43.2987 70.3182 42.8015 70.3182C42.3242 70.3182 41.9232 70.4392 41.5984 70.6811C41.2736 70.9197 41.0283 71.2545 40.8626 71.6854C40.6969 72.1129 40.614 72.6117 40.614 73.1818ZM47.9918 79.8636V69.3636H49.1254V70.5767H49.2646C49.3507 70.4441 49.4701 70.2751 49.6225 70.0696C49.7783 69.8608 50.0004 69.6752 50.2887 69.5128C50.5804 69.3471 50.9748 69.2642 51.4719 69.2642C52.1149 69.2642 52.6817 69.425 53.1722 69.7464C53.6628 70.0679 54.0456 70.5237 54.3207 71.1136C54.5958 71.7036 54.7333 72.3996 54.7333 73.2017C54.7333 74.0104 54.5958 74.7114 54.3207 75.3047C54.0456 75.8946 53.6644 76.352 53.1772 76.6768C52.69 76.9983 52.1282 77.1591 51.4918 77.1591C51.0013 77.1591 50.6085 77.0779 50.3136 76.9155C50.0186 76.7498 49.7915 76.5625 49.6325 76.3537C49.4734 76.1416 49.3507 75.9659 49.2646 75.8267H49.1651V79.8636H47.9918ZM49.1452 73.1818C49.1452 73.7585 49.2298 74.2673 49.3988 74.7081C49.5678 75.1456 49.8147 75.4886 50.1396 75.7372C50.4644 75.9825 50.8621 76.1051 51.3327 76.1051C51.8233 76.1051 52.2326 75.9759 52.5607 75.7173C52.8922 75.4555 53.1407 75.1042 53.3065 74.6634C53.4755 74.2192 53.56 73.7254 53.56 73.1818C53.56 72.6449 53.4772 72.161 53.3114 71.7301C53.149 71.2959 52.9021 70.9529 52.5707 70.701C52.2425 70.4458 51.8299 70.3182 51.3327 70.3182C50.8555 70.3182 50.4544 70.4392 50.1296 70.6811C49.8048 70.9197 49.5595 71.2545 49.3938 71.6854C49.2281 72.1129 49.1452 72.6117 49.1452 73.1818ZM56.5231 77V69.3636H57.6964V77H56.5231ZM57.1197 68.0909C56.891 68.0909 56.6938 68.013 56.5281 67.8572C56.3656 67.7015 56.2844 67.5142 56.2844 67.2955C56.2844 67.0767 56.3656 66.8894 56.5281 66.7337C56.6938 66.5779 56.891 66.5 57.1197 66.5C57.3484 66.5 57.5439 66.5779 57.7063 66.7337C57.872 66.8894 57.9549 67.0767 57.9549 67.2955C57.9549 67.5142 57.872 67.7015 57.7063 67.8572C57.5439 68.013 57.3484 68.0909 57.1197 68.0909ZM61.0186 72.4062V77H59.8453V69.3636H60.9789V70.5568H61.0783C61.2573 70.169 61.5291 69.8575 61.8936 69.6222C62.2582 69.3835 62.7289 69.2642 63.3056 69.2642C63.8226 69.2642 64.275 69.3703 64.6628 69.5824C65.0506 69.7912 65.3522 70.1094 65.5676 70.5369C65.7831 70.9612 65.8908 71.4981 65.8908 72.1477V77H64.7175V72.2273C64.7175 71.6274 64.5617 71.16 64.2502 70.8253C63.9386 70.4872 63.5111 70.3182 62.9675 70.3182C62.593 70.3182 62.2582 70.3994 61.9632 70.5618C61.6716 70.7242 61.4412 70.9612 61.2722 71.2727C61.1032 71.5843 61.0186 71.9621 61.0186 72.4062ZM71.1172 80.0227C70.5504 80.0227 70.0632 79.9498 69.6555 79.804C69.2479 79.6615 68.9081 79.4725 68.6364 79.2372C68.3679 79.0052 68.1541 78.7566 67.995 78.4915L68.9297 77.8352C69.0357 77.9744 69.17 78.1335 69.3324 78.3125C69.4948 78.4948 69.7169 78.6522 69.9986 78.7848C70.2836 78.9207 70.6565 78.9886 71.1172 78.9886C71.7337 78.9886 72.2424 78.8395 72.6435 78.5412C73.0445 78.2429 73.245 77.7756 73.245 77.1392V75.5881H73.1456C73.0594 75.7273 72.9368 75.8996 72.7777 76.1051C72.6219 76.3073 72.3965 76.4879 72.1016 76.647C71.8099 76.8028 71.4155 76.8807 70.9183 76.8807C70.3018 76.8807 69.7483 76.7348 69.2578 76.4432C68.7706 76.1515 68.3845 75.7273 68.0994 75.1705C67.8177 74.6136 67.6768 73.9375 67.6768 73.142C67.6768 72.3598 67.8144 71.6787 68.0895 71.0987C68.3646 70.5154 68.7474 70.0646 69.2379 69.7464C69.7285 69.425 70.2952 69.2642 70.9382 69.2642C71.4354 69.2642 71.8298 69.3471 72.1214 69.5128C72.4164 69.6752 72.6418 69.8608 72.7976 70.0696C72.9567 70.2751 73.0793 70.4441 73.1655 70.5767H73.2848V69.3636H74.4183V77.2188C74.4183 77.875 74.2692 78.4086 73.9709 78.8196C73.6759 79.2339 73.2782 79.5372 72.7777 79.7294C72.2805 79.925 71.727 80.0227 71.1172 80.0227ZM71.0774 75.8267C71.5481 75.8267 71.9458 75.719 72.2706 75.5036C72.5954 75.2881 72.8423 74.9782 73.0114 74.5739C73.1804 74.1695 73.2649 73.6856 73.2649 73.1222C73.2649 72.572 73.1821 72.0864 73.0163 71.6655C72.8506 71.2446 72.6054 70.9148 72.2805 70.6761C71.9557 70.4375 71.5547 70.3182 71.0774 70.3182C70.5803 70.3182 70.166 70.4441 69.8345 70.696C69.5064 70.9479 69.2595 71.286 69.0938 71.7102C68.9313 72.1345 68.8501 72.6051 68.8501 73.1222C68.8501 73.6525 68.933 74.1214 69.0987 74.5291C69.2678 74.9335 69.5163 75.2517 69.8445 75.4837C70.1759 75.7124 70.5869 75.8267 71.0774 75.8267ZM83.6058 77.1591C82.8899 77.1591 82.2734 76.9901 81.7564 76.652C81.2393 76.3139 80.8416 75.8482 80.5632 75.255C80.2848 74.6617 80.1456 73.9839 80.1456 73.2216C80.1456 72.446 80.2881 71.7616 80.5732 71.1683C80.8615 70.5717 81.2625 70.1061 81.7763 69.7713C82.2933 69.4332 82.8965 69.2642 83.5859 69.2642C84.1229 69.2642 84.6068 69.3636 85.0376 69.5625C85.4685 69.7614 85.8215 70.0398 86.0966 70.3977C86.3717 70.7557 86.5424 71.1733 86.6087 71.6506H85.4354C85.3459 71.3026 85.147 70.9943 84.8388 70.7259C84.5339 70.4541 84.1229 70.3182 83.6058 70.3182C83.1484 70.3182 82.7474 70.4375 82.4027 70.6761C82.0613 70.9115 81.7945 71.2446 81.6023 71.6754C81.4134 72.103 81.3189 72.6051 81.3189 73.1818C81.3189 73.7718 81.4117 74.2855 81.5973 74.723C81.7862 75.1605 82.0514 75.5002 82.3928 75.7422C82.7375 75.9841 83.1418 76.1051 83.6058 76.1051C83.9107 76.1051 84.1875 76.0521 84.4361 75.946C84.6847 75.84 84.8951 75.6875 85.0675 75.4886C85.2398 75.2898 85.3625 75.0511 85.4354 74.7727H86.6087C86.5424 75.2235 86.3783 75.6295 86.1165 75.9908C85.858 76.3487 85.5149 76.6338 85.0874 76.8459C84.6631 77.0547 84.1693 77.1591 83.6058 77.1591ZM91.5256 77.1591C90.7898 77.1591 90.1551 76.9967 89.6214 76.6719C89.0911 76.3438 88.6818 75.8864 88.3935 75.2997C88.1084 74.7098 87.9659 74.0237 87.9659 73.2415C87.9659 72.4593 88.1084 71.7699 88.3935 71.1733C88.6818 70.5734 89.0829 70.1061 89.5966 69.7713C90.1136 69.4332 90.7169 69.2642 91.4062 69.2642C91.804 69.2642 92.1967 69.3305 92.5845 69.4631C92.9723 69.5956 93.3253 69.8111 93.6435 70.1094C93.9616 70.4044 94.2152 70.7955 94.4041 71.2827C94.593 71.7699 94.6875 72.3698 94.6875 73.0824V73.5795H88.8011V72.5653H93.4943C93.4943 72.1345 93.4081 71.75 93.2358 71.4119C93.0668 71.0739 92.8248 70.8071 92.5099 70.6115C92.1984 70.416 91.8305 70.3182 91.4062 70.3182C90.9389 70.3182 90.5346 70.4342 90.1932 70.6662C89.8551 70.8949 89.5949 71.1932 89.4126 71.5611C89.2304 71.929 89.1392 72.3234 89.1392 72.7443V73.4205C89.1392 73.9972 89.2386 74.486 89.4375 74.8871C89.6397 75.2848 89.9197 75.5881 90.2777 75.7969C90.6357 76.0024 91.0516 76.1051 91.5256 76.1051C91.8338 76.1051 92.1122 76.062 92.3608 75.9759C92.6127 75.8864 92.8298 75.7538 93.0121 75.5781C93.1944 75.3991 93.3352 75.1771 93.4347 74.9119L94.5682 75.2301C94.4489 75.6146 94.2483 75.9527 93.9666 76.2443C93.6849 76.5327 93.3369 76.758 92.9226 76.9205C92.5083 77.0795 92.0426 77.1591 91.5256 77.1591ZM97.6456 72.4062V77H96.4723V69.3636H97.6058V70.5568H97.7053C97.8842 70.169 98.156 69.8575 98.5206 69.6222C98.8852 69.3835 99.3558 69.2642 99.9325 69.2642C100.45 69.2642 100.902 69.3703 101.29 69.5824C101.678 69.7912 101.979 70.1094 102.195 70.5369C102.41 70.9612 102.518 71.4981 102.518 72.1477V77H101.344V72.2273C101.344 71.6274 101.189 71.16 100.877 70.8253C100.566 70.4872 100.138 70.3182 99.5945 70.3182C99.2199 70.3182 98.8852 70.3994 98.5902 70.5618C98.2985 70.7242 98.0682 70.9612 97.8991 71.2727C97.7301 71.5843 97.6456 71.9621 97.6456 72.4062ZM107.983 69.3636V70.358H104.025V69.3636H107.983ZM105.179 67.5341H106.352V74.8125C106.352 75.1439 106.4 75.3925 106.496 75.5582C106.596 75.7206 106.722 75.83 106.874 75.8864C107.03 75.9394 107.194 75.9659 107.366 75.9659C107.496 75.9659 107.602 75.9593 107.684 75.946C107.767 75.9295 107.834 75.9162 107.883 75.9062L108.122 76.9602C108.042 76.9901 107.931 77.0199 107.789 77.0497C107.646 77.0829 107.466 77.0994 107.247 77.0994C106.916 77.0994 106.591 77.0282 106.273 76.8857C105.958 76.7431 105.696 76.526 105.487 76.2344C105.282 75.9427 105.179 75.5748 105.179 75.1307V67.5341ZM112.867 77.1591C112.132 77.1591 111.497 76.9967 110.963 76.6719C110.433 76.3438 110.024 75.8864 109.735 75.2997C109.45 74.7098 109.308 74.0237 109.308 73.2415C109.308 72.4593 109.45 71.7699 109.735 71.1733C110.024 70.5734 110.425 70.1061 110.938 69.7713C111.455 69.4332 112.059 69.2642 112.748 69.2642C113.146 69.2642 113.539 69.3305 113.926 69.4631C114.314 69.5956 114.667 69.8111 114.985 70.1094C115.303 70.4044 115.557 70.7955 115.746 71.2827C115.935 71.7699 116.029 72.3698 116.029 73.0824V73.5795H110.143V72.5653H114.836C114.836 72.1345 114.75 71.75 114.578 71.4119C114.409 71.0739 114.167 70.8071 113.852 70.6115C113.54 70.416 113.172 70.3182 112.748 70.3182C112.281 70.3182 111.876 70.4342 111.535 70.6662C111.197 70.8949 110.937 71.1932 110.754 71.5611C110.572 71.929 110.481 72.3234 110.481 72.7443V73.4205C110.481 73.9972 110.58 74.486 110.779 74.8871C110.981 75.2848 111.262 75.5881 111.619 75.7969C111.977 76.0024 112.393 76.1051 112.867 76.1051C113.176 76.1051 113.454 76.062 113.703 75.9759C113.954 75.8864 114.172 75.7538 114.354 75.5781C114.536 75.3991 114.677 75.1771 114.776 74.9119L115.91 75.2301C115.791 75.6146 115.59 75.9527 115.308 76.2443C115.027 76.5327 114.679 76.758 114.264 76.9205C113.85 77.0795 113.384 77.1591 112.867 77.1591ZM117.814 77V69.3636H118.948V70.517H119.027C119.166 70.1392 119.418 69.8326 119.783 69.5973C120.147 69.362 120.558 69.2443 121.016 69.2443C121.102 69.2443 121.21 69.246 121.339 69.2493C121.468 69.2526 121.566 69.2576 121.632 69.2642V70.4574C121.593 70.4474 121.501 70.4325 121.359 70.4126C121.22 70.3894 121.072 70.3778 120.916 70.3778C120.545 70.3778 120.214 70.4557 119.922 70.6115C119.634 70.764 119.405 70.9761 119.236 71.2479C119.07 71.5163 118.987 71.8229 118.987 72.1676V77H117.814Z" fill="#7A7A7A"/>
</svg>
