<svg width="136" height="96" viewBox="0 0 136 96" fill="none" xmlns="http://www.w3.org/2000/svg">
<path d="M77.3743 45.7507C80.1128 45.7507 82.3327 43.5307 82.3327 40.7923C82.3327 38.0539 80.1128 35.834 77.3743 35.834C74.6359 35.834 72.416 38.0539 72.416 40.7923C72.416 43.5307 74.6359 45.7507 77.3743 45.7507Z" stroke="#7A7A7A" stroke-width="2" stroke-linecap="round" stroke-linejoin="round"/>
<path d="M58.9583 45.7507C61.6967 45.7507 63.9167 43.5307 63.9167 40.7923C63.9167 38.0539 61.6967 35.834 58.9583 35.834C56.2199 35.834 54 38.0539 54 40.7923C54 43.5307 56.2199 45.7507 58.9583 45.7507Z" stroke="#7A7A7A" stroke-width="2" stroke-linecap="round" stroke-linejoin="round"/>
<path d="M72.4167 24.4993C73.1991 24.4993 73.8333 23.8651 73.8333 23.0827C73.8333 22.3003 73.1991 21.666 72.4167 21.666C71.6343 21.666 71 22.3003 71 23.0827C71 23.8651 71.6343 24.4993 72.4167 24.4993Z" stroke="#7A7A7A" stroke-width="2" stroke-linecap="round" stroke-linejoin="round"/>
<path d="M68.166 40.7923V35.834L63.916 31.584L69.5827 27.334L72.416 31.584H75.2493" stroke="#7A7A7A" stroke-width="2" stroke-linecap="round" stroke-linejoin="round"/>
<path d="M56.4672 69.3636C56.4075 68.8598 56.1655 68.4688 55.7413 68.1903C55.3171 67.9119 54.7967 67.7727 54.1802 67.7727C53.7295 67.7727 53.335 67.8456 52.997 67.9915C52.6622 68.1373 52.4004 68.3378 52.2115 68.593C52.0259 68.8482 51.9331 69.1383 51.9331 69.4631C51.9331 69.7348 51.9977 69.9685 52.127 70.1641C52.2595 70.3563 52.4286 70.517 52.6341 70.6463C52.8395 70.7723 53.055 70.8767 53.2804 70.9595C53.5057 71.0391 53.7129 71.1037 53.9018 71.1534L54.9359 71.4318C55.2011 71.5014 55.496 71.5975 55.8208 71.7202C56.149 71.8428 56.4622 72.0102 56.7605 72.2223C57.0621 72.4311 57.3107 72.6996 57.5062 73.0277C57.7018 73.3558 57.7995 73.7585 57.7995 74.2358C57.7995 74.786 57.6554 75.2831 57.367 75.7273C57.082 76.1714 56.6644 76.5244 56.1142 76.7862C55.5673 77.0481 54.9028 77.179 54.1206 77.179C53.3914 77.179 52.76 77.0613 52.2264 76.826C51.6961 76.5907 51.2785 76.2625 50.9735 75.8416C50.6719 75.4207 50.5012 74.9318 50.4615 74.375H51.7342C51.7673 74.7595 51.8966 75.0777 52.122 75.3295C52.3507 75.5781 52.639 75.7637 52.987 75.8864C53.3384 76.0057 53.7162 76.0653 54.1206 76.0653C54.5912 76.0653 55.0138 75.9891 55.3883 75.8366C55.7628 75.6809 56.0595 75.4654 56.2782 75.1903C56.497 74.9119 56.6064 74.5871 56.6064 74.2159C56.6064 73.8778 56.5119 73.6027 56.323 73.3906C56.1341 73.1785 55.8855 73.0062 55.5772 72.8736C55.269 72.741 54.9359 72.625 54.5779 72.5256L53.3251 72.1676C52.5297 71.9389 51.8999 71.6125 51.4359 71.1882C50.9719 70.764 50.7399 70.2088 50.7399 69.5227C50.7399 68.9527 50.894 68.4555 51.2022 68.0312C51.5138 67.6037 51.9314 67.2723 52.4551 67.0369C52.9821 66.7983 53.5704 66.679 54.22 66.679C54.8762 66.679 55.4596 66.7966 55.97 67.032C56.4804 67.264 56.8848 67.5821 57.1831 67.9865C57.4847 68.3909 57.6438 68.8499 57.6603 69.3636H56.4672ZM59.6676 79.8636V69.3636H60.8011V70.5767H60.9403C61.0265 70.4441 61.1458 70.2751 61.2983 70.0696C61.4541 69.8608 61.6761 69.6752 61.9645 69.5128C62.2562 69.3471 62.6506 69.2642 63.1477 69.2642C63.7907 69.2642 64.3575 69.425 64.848 69.7464C65.3385 70.0679 65.7214 70.5237 65.9964 71.1136C66.2715 71.7036 66.4091 72.3996 66.4091 73.2017C66.4091 74.0104 66.2715 74.7114 65.9964 75.3047C65.7214 75.8946 65.3402 76.352 64.853 76.6768C64.3658 76.9983 63.804 77.1591 63.1676 77.1591C62.6771 77.1591 62.2843 77.0779 61.9893 76.9155C61.6944 76.7498 61.4673 76.5625 61.3082 76.3537C61.1491 76.1416 61.0265 75.9659 60.9403 75.8267H60.8409V79.8636H59.6676ZM60.821 73.1818C60.821 73.7585 60.9055 74.2673 61.0746 74.7081C61.2436 75.1456 61.4905 75.4886 61.8153 75.7372C62.1402 75.9825 62.5379 76.1051 63.0085 76.1051C63.4991 76.1051 63.9084 75.9759 64.2365 75.7173C64.5679 75.4555 64.8165 75.1042 64.9822 74.6634C65.1513 74.2192 65.2358 73.7254 65.2358 73.1818C65.2358 72.6449 65.1529 72.161 64.9872 71.7301C64.8248 71.2959 64.5779 70.9529 64.2464 70.701C63.9183 70.4458 63.5057 70.3182 63.0085 70.3182C62.5313 70.3182 62.1302 70.4392 61.8054 70.6811C61.4806 70.9197 61.2353 71.2545 61.0696 71.6854C60.9039 72.1129 60.821 72.6117 60.821 73.1818ZM71.3011 77.1591C70.6117 77.1591 70.0069 76.995 69.4865 76.6669C68.9695 76.3388 68.5651 75.8797 68.2734 75.2898C67.9851 74.6998 67.8409 74.0104 67.8409 73.2216C67.8409 72.4261 67.9851 71.7318 68.2734 71.1385C68.5651 70.5452 68.9695 70.0845 69.4865 69.7564C70.0069 69.4283 70.6117 69.2642 71.3011 69.2642C71.9905 69.2642 72.5938 69.4283 73.1108 69.7564C73.6312 70.0845 74.0355 70.5452 74.3239 71.1385C74.6155 71.7318 74.7614 72.4261 74.7614 73.2216C74.7614 74.0104 74.6155 74.6998 74.3239 75.2898C74.0355 75.8797 73.6312 76.3388 73.1108 76.6669C72.5938 76.995 71.9905 77.1591 71.3011 77.1591ZM71.3011 76.1051C71.8248 76.1051 72.2557 75.9709 72.5938 75.7024C72.9318 75.4339 73.1821 75.081 73.3445 74.6435C73.5069 74.206 73.5881 73.732 73.5881 73.2216C73.5881 72.7112 73.5069 72.2356 73.3445 71.7947C73.1821 71.3539 72.9318 70.9976 72.5938 70.7259C72.2557 70.4541 71.8248 70.3182 71.3011 70.3182C70.7775 70.3182 70.3466 70.4541 70.0085 70.7259C69.6705 70.9976 69.4202 71.3539 69.2578 71.7947C69.0954 72.2356 69.0142 72.7112 69.0142 73.2216C69.0142 73.732 69.0954 74.206 69.2578 74.6435C69.4202 75.081 69.6705 75.4339 70.0085 75.7024C70.3466 75.9709 70.7775 76.1051 71.3011 76.1051ZM76.5524 77V69.3636H77.6859V70.517H77.7654C77.9047 70.1392 78.1565 69.8326 78.5211 69.5973C78.8857 69.362 79.2967 69.2443 79.7541 69.2443C79.8403 69.2443 79.948 69.246 80.0772 69.2493C80.2065 69.2526 80.3043 69.2576 80.3706 69.2642V70.4574C80.3308 70.4474 80.2396 70.4325 80.0971 70.4126C79.9579 70.3894 79.8104 70.3778 79.6547 70.3778C79.2834 70.3778 78.952 70.4557 78.6603 70.6115C78.372 70.764 78.1433 70.9761 77.9743 71.2479C77.8085 71.5163 77.7257 71.8229 77.7257 72.1676V77H76.5524ZM85.5609 69.3636V70.358H81.6035V69.3636H85.5609ZM82.7569 67.5341H83.9302V74.8125C83.9302 75.1439 83.9783 75.3925 84.0744 75.5582C84.1738 75.7206 84.2998 75.83 84.4522 75.8864C84.608 75.9394 84.7721 75.9659 84.9444 75.9659C85.0737 75.9659 85.1797 75.9593 85.2626 75.946C85.3455 75.9295 85.4118 75.9162 85.4615 75.9062L85.7001 76.9602C85.6206 76.9901 85.5095 77.0199 85.367 77.0497C85.2245 77.0829 85.0439 77.0994 84.8251 77.0994C84.4937 77.0994 84.1689 77.0282 83.8507 76.8857C83.5358 76.7431 83.274 76.526 83.0652 76.2344C82.8597 75.9427 82.7569 75.5748 82.7569 75.1307V67.5341Z" fill="#7A7A7A"/>
</svg>
