<svg width="139" height="96" viewBox="0 0 139 96" fill="none" xmlns="http://www.w3.org/2000/svg">
<path d="M62.4167 39.0911C65.5333 39.0911 68.0833 36.4986 68.0833 33.3536C68.0833 31.7103 67.2758 30.152 65.6608 28.8345C64.0458 27.517 62.8275 25.562 62.4167 23.5078C62.0058 25.562 60.8017 27.5311 59.1725 28.8345C57.5433 30.1378 56.75 31.7245 56.75 33.3536C56.75 36.4986 59.3 39.0911 62.4167 39.0911Z" stroke="#7A7A7A" stroke-width="2" stroke-linecap="round" stroke-linejoin="round"/>
<path d="M70.2928 25.351C71.2671 23.7942 71.9578 22.0771 72.3328 20.2793C73.0411 23.821 75.1661 27.221 77.9995 29.4876C80.8328 31.7543 82.2495 34.446 82.2495 37.2793C82.2575 39.2375 81.684 41.1541 80.6016 42.786C79.5191 44.4179 77.9765 45.6917 76.1693 46.4458C74.3621 47.2 72.3716 47.4005 70.4503 47.0221C68.5289 46.6437 66.7632 45.7033 65.377 44.3201" stroke="#7A7A7A" stroke-width="2" stroke-linecap="round" stroke-linejoin="round"/>
<path d="M0.732955 77V66.8182H4.1733C4.96875 66.8182 5.62169 66.9541 6.1321 67.2259C6.64252 67.4943 7.02036 67.8639 7.26562 68.3345C7.51089 68.8052 7.63352 69.3404 7.63352 69.9403C7.63352 70.5402 7.51089 71.0722 7.26562 71.5362C7.02036 72.0002 6.64418 72.3648 6.13707 72.63C5.62997 72.8918 4.98201 73.0227 4.19318 73.0227H1.40909V71.9091H4.15341C4.69697 71.9091 5.13447 71.8295 5.46591 71.6705C5.80066 71.5114 6.04261 71.286 6.19176 70.9943C6.34422 70.6993 6.42045 70.348 6.42045 69.9403C6.42045 69.5327 6.34422 69.1764 6.19176 68.8714C6.0393 68.5665 5.79569 68.3312 5.46094 68.1655C5.12618 67.9964 4.68371 67.9119 4.13352 67.9119H1.96591V77H0.732955ZM5.52557 72.4261L8.03125 77H6.59943L4.13352 72.4261H5.52557ZM12.6486 77.1591C11.9128 77.1591 11.2781 76.9967 10.7445 76.6719C10.2142 76.3438 9.80487 75.8864 9.51651 75.2997C9.23147 74.7098 9.08896 74.0237 9.08896 73.2415C9.08896 72.4593 9.23147 71.7699 9.51651 71.1733C9.80487 70.5734 10.2059 70.1061 10.7196 69.7713C11.2367 69.4332 11.8399 69.2642 12.5293 69.2642C12.927 69.2642 13.3198 69.3305 13.7076 69.4631C14.0953 69.5956 14.4483 69.8111 14.7665 70.1094C15.0847 70.4044 15.3382 70.7955 15.5272 71.2827C15.7161 71.7699 15.8105 72.3698 15.8105 73.0824V73.5795H9.92418V72.5653H14.6174C14.6174 72.1345 14.5312 71.75 14.3588 71.4119C14.1898 71.0739 13.9479 70.8071 13.633 70.6115C13.3214 70.416 12.9535 70.3182 12.5293 70.3182C12.062 70.3182 11.6576 70.4342 11.3162 70.6662C10.9782 70.8949 10.718 71.1932 10.5357 71.5611C10.3534 71.929 10.2623 72.3234 10.2623 72.7443V73.4205C10.2623 73.9972 10.3617 74.486 10.5605 74.8871C10.7627 75.2848 11.0428 75.5881 11.4007 75.7969C11.7587 76.0024 12.1747 76.1051 12.6486 76.1051C12.9569 76.1051 13.2353 76.062 13.4838 75.9759C13.7357 75.8864 13.9528 75.7538 14.1351 75.5781C14.3174 75.3991 14.4583 75.1771 14.5577 74.9119L15.6912 75.2301C15.5719 75.6146 15.3714 75.9527 15.0897 76.2443C14.8079 76.5327 14.4599 76.758 14.0456 76.9205C13.6313 77.0795 13.1657 77.1591 12.6486 77.1591ZM20.6777 80.0227C20.111 80.0227 19.6238 79.9498 19.2161 79.804C18.8084 79.6615 18.4687 79.4725 18.1969 79.2372C17.9284 79.0052 17.7147 78.7566 17.5556 78.4915L18.4902 77.8352C18.5963 77.9744 18.7305 78.1335 18.8929 78.3125C19.0553 78.4948 19.2774 78.6522 19.5591 78.7848C19.8442 78.9207 20.217 78.9886 20.6777 78.9886C21.2942 78.9886 21.803 78.8395 22.204 78.5412C22.6051 78.2429 22.8056 77.7756 22.8056 77.1392V75.5881H22.7061C22.62 75.7273 22.4973 75.8996 22.3382 76.1051C22.1825 76.3073 21.9571 76.4879 21.6621 76.647C21.3704 76.8028 20.976 76.8807 20.4789 76.8807C19.8624 76.8807 19.3089 76.7348 18.8184 76.4432C18.3311 76.1515 17.945 75.7273 17.66 75.1705C17.3783 74.6136 17.2374 73.9375 17.2374 73.142C17.2374 72.3598 17.3749 71.6787 17.65 71.0987C17.9251 70.5154 18.3079 70.0646 18.7985 69.7464C19.289 69.425 19.8558 69.2642 20.4988 69.2642C20.9959 69.2642 21.3903 69.3471 21.682 69.5128C21.977 69.6752 22.2024 69.8608 22.3581 70.0696C22.5172 70.2751 22.6399 70.4441 22.726 70.5767H22.8453V69.3636H23.9789V77.2188C23.9789 77.875 23.8297 78.4086 23.5314 78.8196C23.2364 79.2339 22.8387 79.5372 22.3382 79.7294C21.8411 79.925 21.2876 80.0227 20.6777 80.0227ZM20.638 75.8267C21.1086 75.8267 21.5063 75.719 21.8311 75.5036C22.156 75.2881 22.4029 74.9782 22.5719 74.5739C22.7409 74.1695 22.8255 73.6856 22.8255 73.1222C22.8255 72.572 22.7426 72.0864 22.5769 71.6655C22.4112 71.2446 22.1659 70.9148 21.8411 70.6761C21.5163 70.4375 21.1152 70.3182 20.638 70.3182C20.1408 70.3182 19.7265 70.4441 19.3951 70.696C19.0669 70.9479 18.82 71.286 18.6543 71.7102C18.4919 72.1345 18.4107 72.6051 18.4107 73.1222C18.4107 73.6525 18.4935 74.1214 18.6593 74.5291C18.8283 74.9335 19.0769 75.2517 19.405 75.4837C19.7364 75.7124 20.1474 75.8267 20.638 75.8267ZM30.9391 73.8778V69.3636H32.1124V77H30.9391V75.7074H30.8596C30.6806 76.0952 30.4022 76.425 30.0243 76.6967C29.6465 76.9652 29.1692 77.0994 28.5925 77.0994C28.1152 77.0994 27.691 76.995 27.3198 76.7862C26.9486 76.5741 26.6569 76.2559 26.4448 75.8317C26.2327 75.4041 26.1266 74.8655 26.1266 74.2159V69.3636H27.2999V74.1364C27.2999 74.6932 27.4557 75.1373 27.7672 75.4688C28.0821 75.8002 28.4831 75.9659 28.9703 75.9659C29.262 75.9659 29.5587 75.8913 29.8603 75.7422C30.1652 75.593 30.4204 75.3643 30.6259 75.0561C30.8347 74.7479 30.9391 74.3551 30.9391 73.8778ZM35.4347 66.8182V77H34.2614V66.8182H35.4347ZM39.8308 77.179C39.3469 77.179 38.9077 77.0878 38.5133 76.9055C38.1189 76.7199 37.8057 76.4531 37.5737 76.1051C37.3417 75.7538 37.2257 75.3295 37.2257 74.8324C37.2257 74.3949 37.3118 74.0402 37.4842 73.7685C37.6565 73.4934 37.8869 73.2779 38.1752 73.1222C38.4636 72.9664 38.7818 72.8504 39.1298 72.7741C39.4811 72.6946 39.8341 72.6316 40.1887 72.5852C40.6528 72.5256 41.0289 72.4808 41.3173 72.451C41.609 72.4179 41.8211 72.3632 41.9537 72.2869C42.0895 72.2107 42.1575 72.0781 42.1575 71.8892V71.8494C42.1575 71.3589 42.0233 70.9777 41.7548 70.706C41.4896 70.4342 41.0869 70.2983 40.5467 70.2983C39.9866 70.2983 39.5474 70.4209 39.2292 70.6662C38.911 70.9115 38.6873 71.1733 38.5581 71.4517L37.4444 71.054C37.6433 70.59 37.9084 70.2287 38.2399 69.9702C38.5746 69.7083 38.9392 69.526 39.3336 69.4233C39.7314 69.3172 40.1225 69.2642 40.5069 69.2642C40.7522 69.2642 41.0339 69.294 41.3521 69.3537C41.6736 69.41 41.9835 69.5277 42.2818 69.7067C42.5834 69.8857 42.8336 70.1558 43.0325 70.517C43.2314 70.8783 43.3308 71.3622 43.3308 71.9688V77H42.1575V75.9659H42.0978C42.0183 76.1316 41.8857 76.3089 41.7001 76.4979C41.5145 76.6868 41.2676 76.8475 40.9593 76.9801C40.6511 77.1127 40.2749 77.179 39.8308 77.179ZM40.0098 76.125C40.4738 76.125 40.8649 76.0339 41.1831 75.8516C41.5046 75.6693 41.7465 75.4339 41.9089 75.1456C42.0746 74.8572 42.1575 74.554 42.1575 74.2358V73.1619C42.1078 73.2216 41.9984 73.2763 41.8294 73.326C41.6636 73.3724 41.4714 73.4138 41.2527 73.4503C41.0372 73.4834 40.8268 73.5133 40.6213 73.5398C40.4191 73.563 40.255 73.5829 40.1291 73.5994C39.8242 73.6392 39.5391 73.7038 39.274 73.7933C39.0121 73.8795 38.8 74.0104 38.6376 74.1861C38.4785 74.3584 38.399 74.5937 38.399 74.892C38.399 75.2997 38.5498 75.608 38.8514 75.8168C39.1563 76.0223 39.5424 76.125 40.0098 76.125ZM45.4723 77V69.3636H46.6058V70.517H46.6854C46.8246 70.1392 47.0765 69.8326 47.4411 69.5973C47.8056 69.362 48.2166 69.2443 48.674 69.2443C48.7602 69.2443 48.8679 69.246 48.9972 69.2493C49.1264 69.2526 49.2242 69.2576 49.2905 69.2642V70.4574C49.2507 70.4474 49.1596 70.4325 49.017 70.4126C48.8778 70.3894 48.7304 70.3778 48.5746 70.3778C48.2034 70.3778 47.8719 70.4557 47.5803 70.6115C47.2919 70.764 47.0632 70.9761 46.8942 71.2479C46.7285 71.5163 46.6456 71.8229 46.6456 72.1676V77H45.4723ZM56.3489 77L54.0222 69.3636H55.2551L56.9057 75.2102H56.9853L58.6159 69.3636H59.8688L61.4796 75.1903H61.5591L63.2097 69.3636H64.4426L62.1159 77H60.9625L59.2921 71.1335H59.1728L57.5023 77H56.3489ZM68.2409 77.179C67.757 77.179 67.3179 77.0878 66.9235 76.9055C66.5291 76.7199 66.2158 76.4531 65.9838 76.1051C65.7518 75.7538 65.6358 75.3295 65.6358 74.8324C65.6358 74.3949 65.722 74.0402 65.8944 73.7685C66.0667 73.4934 66.2971 73.2779 66.5854 73.1222C66.8738 72.9664 67.1919 72.8504 67.54 72.7741C67.8913 72.6946 68.2443 72.6316 68.5989 72.5852C69.0629 72.5256 69.4391 72.4808 69.7275 72.451C70.0191 72.4179 70.2312 72.3632 70.3638 72.2869C70.4997 72.2107 70.5676 72.0781 70.5676 71.8892V71.8494C70.5676 71.3589 70.4334 70.9777 70.165 70.706C69.8998 70.4342 69.4971 70.2983 68.9569 70.2983C68.3967 70.2983 67.9576 70.4209 67.6394 70.6662C67.3212 70.9115 67.0975 71.1733 66.9682 71.4517L65.8546 71.054C66.0534 70.59 66.3186 70.2287 66.65 69.9702C66.9848 69.7083 67.3494 69.526 67.7438 69.4233C68.1415 69.3172 68.5326 69.2642 68.9171 69.2642C69.1623 69.2642 69.4441 69.294 69.7623 69.3537C70.0837 69.41 70.3936 69.5277 70.6919 69.7067C70.9935 69.8857 71.2438 70.1558 71.4426 70.517C71.6415 70.8783 71.7409 71.3622 71.7409 71.9688V77H70.5676V75.9659H70.508C70.4284 76.1316 70.2959 76.3089 70.1103 76.4979C69.9247 76.6868 69.6777 76.8475 69.3695 76.9801C69.0613 77.1127 68.6851 77.179 68.2409 77.179ZM68.4199 76.125C68.8839 76.125 69.275 76.0339 69.5932 75.8516C69.9147 75.6693 70.1567 75.4339 70.3191 75.1456C70.4848 74.8572 70.5676 74.554 70.5676 74.2358V73.1619C70.5179 73.2216 70.4086 73.2763 70.2395 73.326C70.0738 73.3724 69.8816 73.4138 69.6628 73.4503C69.4474 73.4834 69.2369 73.5133 69.0314 73.5398C68.8292 73.563 68.6652 73.5829 68.5392 73.5994C68.2343 73.6392 67.9493 73.7038 67.6841 73.7933C67.4223 73.8795 67.2102 74.0104 67.0478 74.1861C66.8887 74.3584 66.8091 74.5937 66.8091 74.892C66.8091 75.2997 66.9599 75.608 67.2615 75.8168C67.5665 76.0223 67.9526 76.125 68.4199 76.125ZM77.2035 69.3636V70.358H73.2461V69.3636H77.2035ZM74.3995 67.5341H75.5728V74.8125C75.5728 75.1439 75.6209 75.3925 75.717 75.5582C75.8164 75.7206 75.9424 75.83 76.0948 75.8864C76.2506 75.9394 76.4147 75.9659 76.587 75.9659C76.7163 75.9659 76.8223 75.9593 76.9052 75.946C76.988 75.9295 77.0543 75.9162 77.104 75.9062L77.3427 76.9602C77.2631 76.9901 77.1521 77.0199 77.0096 77.0497C76.8671 77.0829 76.6864 77.0994 76.4677 77.0994C76.1362 77.0994 75.8114 77.0282 75.4933 76.8857C75.1784 76.7431 74.9165 76.526 74.7077 76.2344C74.5022 75.9427 74.3995 75.5748 74.3995 75.1307V67.5341ZM82.0881 77.1591C81.3523 77.1591 80.7176 76.9967 80.1839 76.6719C79.6536 76.3438 79.2443 75.8864 78.956 75.2997C78.6709 74.7098 78.5284 74.0237 78.5284 73.2415C78.5284 72.4593 78.6709 71.7699 78.956 71.1733C79.2443 70.5734 79.6454 70.1061 80.1591 69.7713C80.6761 69.4332 81.2794 69.2642 81.9688 69.2642C82.3665 69.2642 82.7592 69.3305 83.147 69.4631C83.5348 69.5956 83.8878 69.8111 84.206 70.1094C84.5241 70.4044 84.7777 70.7955 84.9666 71.2827C85.1555 71.7699 85.25 72.3698 85.25 73.0824V73.5795H79.3636V72.5653H84.0568C84.0568 72.1345 83.9706 71.75 83.7983 71.4119C83.6293 71.0739 83.3873 70.8071 83.0724 70.6115C82.7609 70.416 82.393 70.3182 81.9688 70.3182C81.5014 70.3182 81.0971 70.4342 80.7557 70.6662C80.4176 70.8949 80.1574 71.1932 79.9751 71.5611C79.7929 71.929 79.7017 72.3234 79.7017 72.7443V73.4205C79.7017 73.9972 79.8011 74.486 80 74.8871C80.2022 75.2848 80.4822 75.5881 80.8402 75.7969C81.1982 76.0024 81.6141 76.1051 82.0881 76.1051C82.3963 76.1051 82.6747 76.062 82.9233 75.9759C83.1752 75.8864 83.3923 75.7538 83.5746 75.5781C83.7569 75.3991 83.8977 75.1771 83.9972 74.9119L85.1307 75.2301C85.0114 75.6146 84.8108 75.9527 84.5291 76.2443C84.2474 76.5327 83.8994 76.758 83.4851 76.9205C83.0708 77.0795 82.6051 77.1591 82.0881 77.1591ZM87.0348 77V69.3636H88.1683V70.517H88.2479C88.3871 70.1392 88.639 69.8326 89.0036 69.5973C89.3681 69.362 89.7791 69.2443 90.2365 69.2443C90.3227 69.2443 90.4304 69.246 90.5597 69.2493C90.6889 69.2526 90.7867 69.2576 90.853 69.2642V70.4574C90.8132 70.4474 90.7221 70.4325 90.5795 70.4126C90.4403 70.3894 90.2929 70.3778 90.1371 70.3778C89.7659 70.3778 89.4344 70.4557 89.1428 70.6115C88.8544 70.764 88.6257 70.9761 88.4567 71.2479C88.291 71.5163 88.2081 71.8229 88.2081 72.1676V77H87.0348ZM101.59 71.0739L100.536 71.3722C100.47 71.1965 100.372 71.0258 100.243 70.8601C100.117 70.6911 99.9448 70.5518 99.726 70.4425C99.5073 70.3331 99.2272 70.2784 98.8858 70.2784C98.4185 70.2784 98.0291 70.3861 97.7175 70.6016C97.4093 70.8137 97.2551 71.0838 97.2551 71.4119C97.2551 71.7036 97.3612 71.9339 97.5733 72.103C97.7855 72.272 98.1169 72.4129 98.5676 72.5256L99.7012 72.804C100.384 72.9697 100.893 73.2232 101.227 73.5646C101.562 73.9027 101.73 74.3385 101.73 74.8722C101.73 75.3097 101.604 75.7008 101.352 76.0455C101.103 76.3902 100.755 76.6619 100.308 76.8608C99.8603 77.0597 99.3399 77.1591 98.7466 77.1591C97.9677 77.1591 97.3231 76.9901 96.8127 76.652C96.3023 76.3139 95.9791 75.8201 95.8432 75.1705L96.9569 74.892C97.0629 75.303 97.2634 75.6113 97.5584 75.8168C97.8567 76.0223 98.2462 76.125 98.7267 76.125C99.2736 76.125 99.7078 76.009 100.029 75.777C100.354 75.5417 100.517 75.2599 100.517 74.9318C100.517 74.6667 100.424 74.4446 100.238 74.2656C100.052 74.0833 99.7675 73.9474 99.383 73.858L98.1103 73.5597C97.4109 73.3939 96.8972 73.1371 96.5691 72.7891C96.2443 72.4377 96.0819 71.9986 96.0819 71.4716C96.0819 71.0407 96.2028 70.6596 96.4448 70.3281C96.69 69.9967 97.0231 69.7365 97.4441 69.5476C97.8683 69.3587 98.3489 69.2642 98.8858 69.2642C99.6415 69.2642 100.235 69.4299 100.666 69.7614C101.1 70.0928 101.408 70.5303 101.59 71.0739ZM108.308 73.8778V69.3636H109.482V77H108.308V75.7074H108.229C108.05 76.0952 107.771 76.425 107.393 76.6967C107.016 76.9652 106.538 77.0994 105.962 77.0994C105.484 77.0994 105.06 76.995 104.689 76.7862C104.318 76.5741 104.026 76.2559 103.814 75.8317C103.602 75.4041 103.496 74.8655 103.496 74.2159V69.3636H104.669V74.1364C104.669 74.6932 104.825 75.1373 105.136 75.4688C105.451 75.8002 105.852 75.9659 106.339 75.9659C106.631 75.9659 106.928 75.8913 107.229 75.7422C107.534 75.593 107.79 75.3643 107.995 75.0561C108.204 74.7479 108.308 74.3551 108.308 73.8778ZM111.631 79.8636V69.3636H112.764V70.5767H112.903C112.989 70.4441 113.109 70.2751 113.261 70.0696C113.417 69.8608 113.639 69.6752 113.927 69.5128C114.219 69.3471 114.613 69.2642 115.111 69.2642C115.754 69.2642 116.32 69.425 116.811 69.7464C117.301 70.0679 117.684 70.5237 117.959 71.1136C118.234 71.7036 118.372 72.3996 118.372 73.2017C118.372 74.0104 118.234 74.7114 117.959 75.3047C117.684 75.8946 117.303 76.352 116.816 76.6768C116.329 76.9983 115.767 77.1591 115.131 77.1591C114.64 77.1591 114.247 77.0779 113.952 76.9155C113.657 76.7498 113.43 76.5625 113.271 76.3537C113.112 76.1416 112.989 75.9659 112.903 75.8267H112.804V79.8636H111.631ZM112.784 73.1818C112.784 73.7585 112.868 74.2673 113.037 74.7081C113.206 75.1456 113.453 75.4886 113.778 75.7372C114.103 75.9825 114.501 76.1051 114.971 76.1051C115.462 76.1051 115.871 75.9759 116.199 75.7173C116.531 75.4555 116.779 75.1042 116.945 74.6634C117.114 74.2192 117.199 73.7254 117.199 73.1818C117.199 72.6449 117.116 72.161 116.95 71.7301C116.788 71.2959 116.541 70.9529 116.209 70.701C115.881 70.4458 115.469 70.3182 114.971 70.3182C114.494 70.3182 114.093 70.4392 113.768 70.6811C113.443 70.9197 113.198 71.2545 113.032 71.6854C112.867 72.1129 112.784 72.6117 112.784 73.1818ZM120.162 79.8636V69.3636H121.295V70.5767H121.434C121.521 70.4441 121.64 70.2751 121.792 70.0696C121.948 69.8608 122.17 69.6752 122.459 69.5128C122.75 69.3471 123.145 69.2642 123.642 69.2642C124.285 69.2642 124.852 69.425 125.342 69.7464C125.833 70.0679 126.215 70.5237 126.491 71.1136C126.766 71.7036 126.903 72.3996 126.903 73.2017C126.903 74.0104 126.766 74.7114 126.491 75.3047C126.215 75.8946 125.834 76.352 125.347 76.6768C124.86 76.9983 124.298 77.1591 123.662 77.1591C123.171 77.1591 122.778 77.0779 122.483 76.9155C122.189 76.7498 121.961 76.5625 121.802 76.3537C121.643 76.1416 121.521 75.9659 121.434 75.8267H121.335V79.8636H120.162ZM121.315 73.1818C121.315 73.7585 121.4 74.2673 121.569 74.7081C121.738 75.1456 121.985 75.4886 122.309 75.7372C122.634 75.9825 123.032 76.1051 123.503 76.1051C123.993 76.1051 124.403 75.9759 124.731 75.7173C125.062 75.4555 125.311 75.1042 125.476 74.6634C125.645 74.2192 125.73 73.7254 125.73 73.1818C125.73 72.6449 125.647 72.161 125.481 71.7301C125.319 71.2959 125.072 70.9529 124.741 70.701C124.412 70.4458 124 70.3182 123.503 70.3182C123.025 70.3182 122.624 70.4392 122.3 70.6811C121.975 70.9197 121.729 71.2545 121.564 71.6854C121.398 72.1129 121.315 72.6117 121.315 73.1818ZM129.866 66.8182V77H128.693V66.8182H129.866ZM132.771 79.8636C132.572 79.8636 132.395 79.8471 132.239 79.8139C132.083 79.7841 131.975 79.7543 131.916 79.7244L132.214 78.6903C132.499 78.7633 132.751 78.7898 132.97 78.7699C133.189 78.75 133.382 78.6522 133.551 78.4766C133.724 78.3042 133.881 78.0241 134.024 77.6364L134.243 77.0398L131.419 69.3636H132.691L134.799 75.4489H134.879L136.987 69.3636H138.26L135.018 78.1136C134.872 78.508 134.692 78.8345 134.476 79.093C134.261 79.3549 134.011 79.5488 133.725 79.6747C133.444 79.8007 133.126 79.8636 132.771 79.8636Z" fill="#7A7A7A"/>
</svg>
